<svg width="58" height="55" viewBox="0 0 58 55" fill="none" xmlns="http://www.w3.org/2000/svg">
<path d="M11.13 13.37L8.88 12.27C11.2 7.64999 13.61 4.45 16.09 2.67C18.58 0.889998 21.36 0 24.45 0C28.16 0 31.11 1.18 33.32 3.53C35.53 5.88 36.63 8.63 36.63 11.78C36.63 13.72 36.23 15.69 35.44 17.69C34.65 19.69 33.34 21.78 31.51 23.95C30.33 25.39 27.1 28.38 21.8 32.9C14.68 39.08 9.68 44.07 6.8 47.87C10.65 47.69 14.62 47.61 18.71 47.61C20.03 47.61 21.18 47.63 22.15 47.65C24.3 47.74 25.77 47.53 26.56 47.03C27.35 46.53 28.66 44.85 30.49 42H33.53C31.15 45.29 29.07 49.34 27.31 54.13C25.22 53.75 23.02 53.46 20.69 53.27C18.37 53.08 15.93 52.98 13.37 52.98C10.34 52.98 5.88 53.17 0 53.55L0.88 50.77C3.56 46.8 7.56 42.31 12.88 37.3C18.14 32.36 21.54 28.9 23.07 26.92C25.28 24.06 26.88 21.37 27.88 18.84C28.64 16.96 29.03 15.13 29.03 13.36C29.03 10.71 28.31 8.59 26.87 7C25.43 5.41 23.65 4.61 21.53 4.61C19.77 4.61 18.04 5.24999 16.35 6.51999C14.67 7.80999 12.92 10.09 11.13 13.37Z" fill="#466142"/>
<path d="M53.52 43.42C54.67 43.42 55.63 43.85 56.41 44.72C57.19 45.59 57.58 46.68 57.58 48.01C57.58 49.92 57.12 51.42 56.21 52.51C55.3 53.6 54.15 54.14 52.77 54.14C51.62 54.14 50.66 53.74 49.88 52.93C49.1 52.12 48.71 51.08 48.71 49.82C48.71 47.97 49.25 46.35 50.34 44.97C51.14 43.93 52.2 43.42 53.52 43.42Z" fill="#466142"/>
</svg>
