<svg width="90" height="86" viewBox="0 0 90 86" fill="none" xmlns="http://www.w3.org/2000/svg">
<g clip-path="url(#clip0)">
<path d="M2.12 38.48C2.05 37.06 1.95 35.64 1.91 34.22C1.73 28.19 2.16 22.25 4.48 16.58C9.53 4.19996 23.4 1.17996 33.19 10.33C37.25 14.13 39.28 19.02 40.65 24.25C41.27 26.63 41.74 29.05 42.27 31.45C42.58 32.85 43.63 33.25 44.62 32.23C46.03 30.77 47.28 29.16 48.65 27.67C49.41 26.84 50.27 26.08 51.11 25.33C53.72 23 56.23 20.54 59.64 19.28C62.08 18.38 64.54 18.19 67.02 18.78C74.26 20.53 79.55 27 80.3 34.58C81.1 42.61 78.07 49.32 73.31 55.41C66.6 64.01 57.88 70.21 48.52 75.58C41.81 79.42 34.79 82.55 27.46 85.02C26.96 85.19 26.48 85.39 25.99 85.57C26.03 85.71 26.08 85.86 26.12 86C28.87 85.43 31.65 84.94 34.37 84.27C41 82.63 47.48 80.47 53.61 77.46C57.37 75.61 60.99 73.46 64.61 71.33C66.78 70.05 68.9 68.66 70.91 67.14C72.88 65.64 74.67 63.91 76.53 62.28C77.26 61.64 78.1 61.08 78.69 60.33C80.48 58.06 82.22 55.74 83.89 53.38C84.74 52.18 85.46 50.89 86.14 49.59C88.61 44.86 89.52 39.85 89.31 34.48C89.17 31.02 88.25 27.86 86.76 24.93C84.81 21.1 81.95 17.9 78.19 15.58C70.47 10.82 62.47 10.44 54.27 13.98C52.26 14.85 50.46 16.27 48.64 17.53C47.17 18.55 47.02 18.53 46.04 16.9C44.71 14.7 43.47 12.41 41.89 10.39C38.72 6.33996 34.78 3.23996 29.84 1.54996C23.3 -0.700036 16.87 -0.720036 10.8 2.95996C4.88 6.53996 1.93 12.18 0.650005 18.76C-0.599995 25.16 0.0800046 31.51 1.61 37.8C1.67 38.05 1.77 38.28 1.85 38.52C1.94 38.51 2.03 38.49 2.12 38.48Z" fill="#FDFFAA"/>
</g>
<defs>
<clipPath id="clip0">
<rect width="89.36" height="86" fill="white"/>
</clipPath>
</defs>
</svg>
