<svg width="171" height="161" viewBox="0 0 171 161" fill="none" xmlns="http://www.w3.org/2000/svg">
<path d="M71.85 160.15C110.427 160.15 141.7 128.877 141.7 90.3C141.7 51.7229 110.427 20.45 71.85 20.45C33.2729 20.45 2 51.7229 2 90.3C2 128.877 33.2729 160.15 71.85 160.15Z" fill="white"/>
<path d="M104.03 66.62C105.74 62.03 107.44 57.44 109.16 52.85C109.31 52.44 109.28 52.14 109.07 51.76C98.71 33.13 108.52 9.82 129.1 4.16C147.34 -0.85 166.18 10.82 169.83 29.42C170.07 30.63 170.18 31.87 170.35 33.09C170.38 33.28 170.43 33.47 170.47 33.66C170.47 35.05 170.47 36.44 170.47 37.83C170.3 39.07 170.21 40.33 169.95 41.55C167.18 54.78 159.33 63.52 146.39 67.36C137.85 69.89 129.55 68.68 121.71 64.41C121.36 64.22 121.07 64.17 120.68 64.32C115.95 66.09 111.21 67.85 106.48 69.61C106.38 69.65 106.3 69.71 106.2 69.76C105.9 69.76 105.59 69.76 105.29 69.76C103.77 69.03 103.43 68.22 104.03 66.62Z" fill="white"/>
<path d="M125.77 43.96C124.1 45.82 121.89 46.75 119.15 46.75C116.41 46.75 114.2 45.82 112.53 43.96C110.86 42.1 110.02 39.56 110.02 36.34C110.02 33.14 110.85 30.64 112.51 28.84C114.17 27.04 116.38 26.14 119.14 26.14C121.9 26.14 124.11 27.04 125.77 28.84C127.43 30.64 128.26 33.14 128.26 36.34C128.27 39.56 127.44 42.1 125.77 43.96ZM116.06 40.96C116.81 42.09 117.84 42.66 119.15 42.66C120.46 42.66 121.5 42.09 122.26 40.95C123.02 39.81 123.4 38.27 123.4 36.34C123.4 34.43 123.02 32.92 122.26 31.84C121.5 30.75 120.47 30.21 119.15 30.21C117.83 30.21 116.8 30.75 116.06 31.84C115.31 32.93 114.94 34.43 114.94 36.34C114.93 38.29 115.31 39.83 116.06 40.96Z" fill="white"/>
<path d="M138.55 46.75C135.87 46.75 133.86 45.96 132.51 44.37C131.16 42.79 130.49 40.34 130.49 37.04V28.03C130.49 27.61 130.64 27.25 130.95 26.95C131.25 26.65 131.62 26.49 132.03 26.49H133.7C134.14 26.49 134.5 26.64 134.8 26.95C135.1 27.25 135.24 27.62 135.24 28.03V37.53C135.24 39.37 135.51 40.69 136.05 41.47C136.59 42.25 137.42 42.64 138.56 42.64C139.7 42.64 140.54 42.24 141.09 41.45C141.65 40.66 141.92 39.35 141.92 37.52V28.02C141.92 27.6 142.07 27.24 142.38 26.94C142.68 26.64 143.05 26.48 143.46 26.48H144.97C145.4 26.48 145.77 26.63 146.07 26.94C146.37 27.24 146.51 27.61 146.51 28.02V37.03C146.51 40.35 145.85 42.8 144.54 44.38C143.23 45.96 141.23 46.75 138.55 46.75Z" fill="white"/>
<path d="M155.04 46.39C154.6 46.39 154.24 46.24 153.94 45.93C153.64 45.63 153.5 45.26 153.5 44.85V30.65C153.5 30.53 153.43 30.47 153.29 30.47H149.66C149.22 30.47 148.86 30.32 148.56 30.01C148.26 29.71 148.12 29.34 148.12 28.93V28.04C148.12 27.62 148.27 27.26 148.56 26.96C148.86 26.66 149.22 26.5 149.66 26.5H162.14C162.56 26.5 162.92 26.65 163.22 26.96C163.52 27.26 163.68 27.63 163.68 28.04V28.93C163.68 29.35 163.53 29.71 163.22 30.01C162.92 30.31 162.55 30.47 162.14 30.47H158.46C158.34 30.47 158.28 30.53 158.28 30.65V44.85C158.28 45.27 158.13 45.63 157.82 45.93C157.52 46.23 157.15 46.39 156.74 46.39H155.04V46.39Z" fill="white"/>
<path d="M69.85 158.15C108.427 158.15 139.7 126.877 139.7 88.3C139.7 49.7229 108.427 18.45 69.85 18.45C31.2729 18.45 0 49.7229 0 88.3C0 126.877 31.2729 158.15 69.85 158.15Z" fill="#5A6648"/>
<path d="M102.03 64.62C103.74 60.03 105.44 55.44 107.16 50.85C107.31 50.44 107.28 50.14 107.07 49.76C96.71 31.13 106.52 7.82 127.1 2.16C145.34 -2.85 164.18 8.82 167.83 27.42C168.07 28.63 168.18 29.87 168.35 31.09C168.38 31.28 168.43 31.47 168.47 31.66C168.47 33.05 168.47 34.44 168.47 35.83C168.3 37.07 168.21 38.33 167.95 39.55C165.18 52.78 157.33 61.52 144.39 65.36C135.85 67.89 127.55 66.68 119.71 62.41C119.36 62.22 119.07 62.17 118.68 62.32C113.95 64.09 109.21 65.85 104.48 67.61C104.38 67.65 104.3 67.71 104.2 67.76C103.9 67.76 103.59 67.76 103.29 67.76C101.77 67.03 101.43 66.22 102.03 64.62Z" fill="#7F8460"/>
<path d="M123.77 41.96C122.1 43.82 119.89 44.75 117.15 44.75C114.41 44.75 112.2 43.82 110.53 41.96C108.86 40.1 108.02 37.56 108.02 34.34C108.02 31.14 108.85 28.64 110.51 26.84C112.17 25.04 114.38 24.14 117.14 24.14C119.9 24.14 122.11 25.04 123.77 26.84C125.43 28.64 126.26 31.14 126.26 34.34C126.27 37.56 125.44 40.1 123.77 41.96ZM114.06 38.96C114.81 40.09 115.84 40.66 117.15 40.66C118.46 40.66 119.5 40.09 120.26 38.95C121.02 37.81 121.4 36.27 121.4 34.34C121.4 32.43 121.02 30.92 120.26 29.84C119.5 28.75 118.47 28.21 117.15 28.21C115.83 28.21 114.8 28.75 114.06 29.84C113.31 30.93 112.94 32.43 112.94 34.34C112.93 36.29 113.31 37.83 114.06 38.96Z" fill="white"/>
<path d="M136.55 44.75C133.87 44.75 131.86 43.96 130.51 42.37C129.16 40.79 128.49 38.34 128.49 35.04V26.03C128.49 25.61 128.64 25.25 128.95 24.95C129.25 24.65 129.62 24.49 130.03 24.49H131.7C132.14 24.49 132.5 24.64 132.8 24.95C133.1 25.25 133.24 25.62 133.24 26.03V35.53C133.24 37.37 133.51 38.69 134.05 39.47C134.59 40.25 135.42 40.64 136.56 40.64C137.7 40.64 138.54 40.24 139.09 39.45C139.65 38.66 139.92 37.35 139.92 35.52V26.02C139.92 25.6 140.07 25.24 140.38 24.94C140.68 24.64 141.05 24.48 141.46 24.48H142.97C143.4 24.48 143.77 24.63 144.07 24.94C144.37 25.24 144.51 25.61 144.51 26.02V35.03C144.51 38.35 143.85 40.8 142.54 42.38C141.23 43.96 139.23 44.75 136.55 44.75Z" fill="white"/>
<path d="M153.04 44.39C152.6 44.39 152.24 44.24 151.94 43.93C151.64 43.63 151.5 43.26 151.5 42.85V28.65C151.5 28.53 151.43 28.47 151.29 28.47H147.66C147.22 28.47 146.86 28.32 146.56 28.01C146.26 27.71 146.12 27.34 146.12 26.93V26.04C146.12 25.62 146.27 25.26 146.56 24.96C146.86 24.66 147.22 24.5 147.66 24.5H160.14C160.56 24.5 160.92 24.65 161.22 24.96C161.52 25.26 161.68 25.63 161.68 26.04V26.93C161.68 27.35 161.53 27.71 161.22 28.01C160.92 28.31 160.55 28.47 160.14 28.47H156.46C156.34 28.47 156.28 28.53 156.28 28.65V42.85C156.28 43.27 156.13 43.63 155.82 43.93C155.52 44.23 155.15 44.39 154.74 44.39H153.04V44.39Z" fill="white"/>
<path d="M26.04 97.16C24.01 98.23 21.02 99.66 16.58 101.5C16.42 101.84 16.16 102.1 15.88 102.18L14.27 98.77C15.47 98.64 17.65 98.28 20.28 97.86C20.7 96.2 21.14 94.04 21.37 92.48L25 93.41C24.92 93.72 24.61 93.96 24.04 93.96C23.39 95.03 22.3 96.46 21.21 97.68C22.74 97.42 24.36 97.13 25.99 96.85L26.04 97.16ZM35.98 78.36C35.98 78.36 37.83 79.82 38.97 80.83C38.89 81.12 38.63 81.25 38.24 81.25H33.61C32.83 82.34 31.87 83.51 31.01 84.37H34.13L35.51 82.91L38.24 85.04C38.08 85.22 37.77 85.4 37.33 85.48V96.71C37.3 96.92 35.87 97.52 34.86 97.52H34.37V96.45H29.46V97.07C29.46 97.15 29.38 97.25 29.2 97.38L32.24 99.33C32.11 99.56 31.82 99.59 31.38 99.49C29.4 100.92 25.43 102.32 22.07 102.79L21.91 102.43C24.41 101.36 27.29 99.36 28.8 97.62C28.33 97.83 27.66 98.04 26.98 98.04H26.51V83.14L29.58 84.36H30.05C30.1 83.48 30.18 82.25 30.23 81.24H26.12L26.17 81.29C26.09 81.58 25.81 81.71 25.44 81.71H14.63L14.42 80.98H21.78L23.34 78.87C23.34 78.87 24.51 79.83 25.52 80.72L25.47 80.51H34.28L35.98 78.36ZM21.94 92.19V91.1H18.12V91.62C18.12 91.85 17.03 92.4 16.01 92.4H15.67V83.9L18.24 84.94H21.67L22.94 83.59L25.59 85.59C25.43 85.77 25.1 86.01 24.58 86.11V91.39C24.55 91.6 23.31 92.2 22.4 92.2H21.94V92.19ZM16.5 92.66C21.96 95.13 18.89 99.21 16.86 97.03C17.02 95.6 16.68 93.94 16.21 92.77L16.5 92.66ZM21.94 90.37V85.66H18.12V90.37H21.94ZM29.45 85.12V88.14H34.36V85.12H29.45ZM29.45 91.93H34.36V88.86H29.45V91.93ZM34.36 95.73V92.66H29.45V95.73H34.36ZM32.41 97.63C40.65 98.15 39.38 103.87 36.39 102.54C35.58 100.9 33.69 98.95 32.2 97.83L32.41 97.63Z" fill="white"/>
<path d="M64 89.9C63.79 90.19 63.53 90.26 62.86 90.34C61.77 92.89 60.29 95.15 58.26 97.02C60.94 98.37 64.08 99.18 67.44 99.67L67.41 99.98C66.03 100.27 65.1 101.25 64.71 102.74C61.36 101.86 58.5 100.61 56.23 98.68C53.55 100.58 50.2 101.96 45.91 102.79L45.75 102.45C49.39 101.2 52.38 99.43 54.69 97.22C53 95.3 51.7 92.85 50.89 89.71H49.28C49.25 93.97 48.66 99.3 43.14 102.71L42.91 102.5C45.9 98.65 46.21 93.79 46.21 89.32V82L49.75 83.25H53.88V78.47L58 78.83C57.95 79.19 57.71 79.45 57.04 79.58V83.25H62L63.64 81.59L66.5 84.29C66.29 84.52 66.03 84.58 65.49 84.6C64.53 85.56 62.81 86.89 61.56 87.64L61.51 87.61L64 89.9ZM49.29 84V88.97H53.89V84H49.29ZM51.39 89.72C52.4 92.29 54.04 94.27 56.1 95.73C57.61 93.96 58.75 91.93 59.51 89.72H51.39ZM57.04 84V88.97H59.41L61.18 87.31L61.36 87.47C61.62 86.51 61.96 85.1 62.17 84.01H57.04V84Z" fill="white"/>
<path d="M81.45 94.56C81.45 94.56 83.17 95.96 84.18 96.93C84.1 97.19 83.84 97.32 83.45 97.32H79.03V102.18C79.03 102.31 78.12 102.8 76.61 102.8H76.06V97.31H71.61L71.4 96.58H76.05V93.36H75.35V93.8C75.35 94.06 74.15 94.66 73.04 94.66H72.62V84.11L75.48 85.23H76.05V82.81H71.73L71.52 82.06H76.04V78.39L79.94 78.7C79.91 79.06 79.71 79.32 79.03 79.43V82.06H80.02L81.5 80.03C81.5 80.03 83.22 81.41 84.23 82.4C84.15 82.69 83.87 82.82 83.5 82.82H79.03V85.24H79.47L80.74 83.89L83.47 85.92C83.31 86.1 82.98 86.31 82.48 86.41V93.53C82.45 93.71 81.08 94.23 80.19 94.23H79.72V93.37H78.99V96.59H79.95L81.45 94.56ZM75.37 85.98V88.92H79.76V85.98H75.37ZM75.37 92.63H79.76V89.67H75.37V92.63ZM83.14 87.93C84.47 85.54 85.61 81.95 86.05 78.39L90.5 79.59C90.42 79.93 90.08 80.16 89.49 80.16C89.02 81.38 88.48 82.5 87.85 83.49H91.67L93.23 81.36C93.23 81.36 94.97 82.82 96.04 83.8C95.96 84.09 95.68 84.22 95.31 84.22H87.38C86.26 85.86 84.94 87.16 83.43 88.15L83.14 87.93ZM95.02 99.11C96.01 99.42 96.24 99.63 96.24 100.18C96.24 101.4 94.81 102.08 91.79 102.08H88.46C85.24 102.08 83.91 101.12 83.78 99.06C83.55 96.93 86.15 94.33 90.28 88.61H84.92L84.69 87.88H90.51L91.73 86.45L94.51 88.74C94.28 88.97 93.89 89.13 93.31 89.18C88.66 94.8 86.6 97.6 86.73 98.7C86.78 99.32 87.46 99.48 88.71 99.48H91.8C93.15 99.48 93.49 99.4 93.7 99.06C94.06 98.41 94.43 97.21 94.77 95.78H95.08L95.02 99.11Z" fill="white"/>
<path d="M118.03 89.62C119.75 90.82 122.42 91.67 124.71 92.01L124.68 92.3C123.72 92.53 123.07 93.34 122.81 94.59C122.08 94.28 121.41 93.94 120.78 93.5C120.68 93.58 120.52 93.63 120.36 93.68V97.42C120.33 97.6 119.06 98.1 118.23 98.1H117.79V97.48H111.39V99.72C112.56 99.56 113.89 99.33 115.19 99.1L115.27 99.44C114.23 100.01 112.23 101.13 109.97 102.25C109.81 102.54 109.61 102.74 109.42 102.87L107.76 100.48C108.72 99.88 108.88 99.65 108.88 99.18V93.25C108.02 93.69 107.11 94.08 106.12 94.39C105.42 97.48 103.88 100.55 100.5 102.81L100.19 102.58C102.76 99.46 103.62 95.72 103.88 91.89C103.33 92.8 102.68 93.89 101.9 95.06C101.9 95.37 101.74 95.76 101.43 95.94L99.79 92.82C100.52 92.46 102.16 91.39 103.95 90.19C103.98 89.57 103.98 88.97 103.98 88.34V87.74C103.64 88.73 102.63 89.14 101.74 88.21C101.84 86.52 101.25 84.49 100.6 83.11L100.86 82.98C102.78 84.02 103.69 85.24 103.98 86.28V80.04L107.05 81.39H113.63C113.47 81.34 113.32 81.29 113.16 81.18C112.95 80.27 112.22 79.2 111.6 78.63L111.78 78.47C116.49 78.11 116.23 80.86 114.67 81.38H119.97L121.53 79.27C121.53 79.27 123.35 80.7 124.42 81.69C124.37 81.98 124.08 82.11 123.72 82.11H117.43L120.5 82.84C120.42 83.15 120.11 83.36 119.56 83.36C119.04 83.78 118.26 84.24 117.53 84.66H120.1L121.4 83.13C121.4 83.13 122.86 84.2 123.74 84.98C123.66 85.27 123.45 85.4 123.09 85.4H121C121.29 85.61 122.38 86.41 123.11 87.06C123.06 87.35 122.8 87.48 122.43 87.48H116.14V88.88H120.98L122.2 87.5C122.2 87.5 123.58 88.46 124.44 89.19C124.39 89.48 124.13 89.61 123.76 89.61H118.03V89.62ZM106.64 88.34C106.64 90.03 106.59 91.88 106.25 93.72C107.94 92.63 109.29 91.2 110.15 89.61H107L106.79 88.88H113.47V87.48H108.27L108.06 86.73H113.47V85.4H107.57L107.36 84.67H111.26C111 83.86 110.35 82.95 109.86 82.49L110.07 82.33C113.58 82.1 113.81 83.94 112.9 84.67H116.46C116.67 83.89 116.9 82.88 117.06 82.12H106.63V88.34H106.64ZM118.68 91.75C118.08 91.13 117.56 90.4 117.12 89.62H113.35C112.62 90.66 111.66 91.54 110.52 92.32L111.74 92.81H117.59L118.68 91.75ZM117.8 93.55H111.4V94.77H117.8V93.55ZM117.8 96.72V95.5H111.4V96.72H117.8ZM115.07 91.15L116.08 90.01C116.08 90.01 117.17 90.84 117.93 91.49C117.88 91.78 117.62 91.91 117.25 91.91H112.41L112.2 91.16H115.07V91.15ZM115.48 98.33C116.99 98.38 118.26 98.59 119.28 98.82C120.09 98.2 120.94 97.39 121.39 96.95L123.52 98.72C123.39 98.93 123.13 98.93 122.74 98.8C122.27 98.96 121.54 99.16 120.76 99.32C124.17 100.8 123.15 103.25 121.38 102.6C120.44 101.59 118.13 99.87 115.35 98.7L115.48 98.33ZM116.13 85.41V86.74H119.74L120.83 85.41H116.13Z" fill="white"/>
</svg>
