<svg width="58" height="55" viewBox="0 0 58 55" fill="none" xmlns="http://www.w3.org/2000/svg">
<path d="M12.25 10.24L10.44 8.95999C13.44 5.54999 15.65 3.39 17.06 2.47C19.62 0.820001 22.22 0 24.87 0C27.58 0 29.71 0.690007 31.27 2.07001C32.83 3.45001 33.61 5.23 33.61 7.41C33.61 12 30.14 16.87 23.2 22.01C25.58 22.13 27.39 22.55 28.63 23.29C29.87 24.03 30.87 25.15 31.65 26.67C32.43 28.19 32.82 29.99 32.82 32.07C32.82 37.75 29.95 43.03 24.22 47.91C19.31 52.09 14.26 54.17 9.09 54.17C6.77 54.17 4.67 53.64 2.8 52.58C0.93 51.52 0 50.21 0 48.65C0 48 0.24 47.44 0.73 46.95C1.22 46.46 1.78 46.22 2.43 46.22C3.31 46.22 4.33 46.76 5.47 47.85C6.97 49.29 8.09 50.19 8.82 50.54C9.85 51.04 10.76 51.29 11.56 51.29C13.85 51.29 16.41 49.94 19.24 47.23C23.42 43.29 25.51 38.94 25.51 34.17C25.51 31.79 24.86 29.88 23.55 28.46C22.24 27.03 20.56 26.32 18.5 26.32C17 26.32 15.29 26.66 13.38 27.33L13.69 24.59C17.45 23.27 20.84 20.93 23.84 17.57C25.96 15.22 27.02 12.83 27.02 10.42C27.02 8.59998 26.56 7.16998 25.63 6.13998C24.7 5.10998 23.45 4.60001 21.86 4.60001C18.47 4.64001 15.27 6.49999 12.25 10.24Z" fill="#466142"/>
<path d="M53.62 43.2C54.77 43.2 55.73 43.63 56.51 44.5C57.29 45.37 57.68 46.46 57.68 47.79C57.68 49.7 57.22 51.2 56.31 52.29C55.4 53.38 54.25 53.92 52.87 53.92C51.72 53.92 50.76 53.52 49.98 52.71C49.2 51.9 48.81 50.86 48.81 49.6C48.81 47.75 49.35 46.13 50.44 44.75C51.24 43.71 52.3 43.2 53.62 43.2Z" fill="#466142"/>
</svg>
