<svg width="437" height="81" viewBox="0 0 437 81" fill="none" xmlns="http://www.w3.org/2000/svg">
<g clip-path="url(#clip0)">
<path d="M375.95 80.57H38.99C17.54 80.57 0 63.03 0 41.59V38.99C0 17.54 17.54 0 38.99 0H375.95C397.39 0 414.94 17.54 414.94 38.99V41.59C414.93 63.03 397.39 80.57 375.95 80.57Z" fill="url(#paint0_linear)"/>
<path d="M57.57 46.9301H42.9501V52.4601C42.9501 53.8401 42.75 54.8501 42.34 55.4801C41.93 56.1101 41.3601 56.5301 40.6301 56.7201C39.9001 56.9101 38.5501 57.0001 36.5801 57.0001C35.8201 57.0001 34.97 56.9801 34.03 56.9501L33.09 53.5101C35.59 53.5801 37.33 53.6201 38.32 53.6201C38.6 53.6201 38.8701 53.5001 39.1101 53.2501C39.3601 53.0001 39.48 52.7001 39.48 52.3301V46.9301H24.68V43.7901H39.48V41.1701C41.28 40.0001 42.84 38.8001 44.17 37.5901H33.34C31.06 39.5601 28.7 41.0101 26.26 41.9301L24.3 39.2501C30.76 36.6101 34.3301 32.8001 35.0401 27.8101H26.9501V24.7001H51.51C51.16 26.2201 50.7 27.8401 50.12 29.5601H56.66C56.61 31.5901 56.4701 33.6701 56.2401 35.8101C56.0101 37.9401 55.7901 39.3001 55.5801 39.8801C55.3701 40.4601 55.0601 40.9201 54.6501 41.2601C54.2401 41.6001 53.77 41.8201 53.25 41.9301C52.73 42.0401 51.58 42.1001 49.8 42.1201L48.93 38.8301C49.51 38.8701 50 38.8901 50.41 38.8901C51.44 38.8901 52.0901 38.7701 52.3601 38.5201C52.6201 38.2701 52.92 36.3001 53.26 32.5901H45.6101C46.3201 30.7201 46.8701 29.1301 47.2401 27.8201H38.35C37.84 30.4801 37.04 32.7001 35.93 34.4901H49.23V37.5901C47.16 39.4501 45.0701 41.1001 42.9501 42.5401V43.8001H57.57V46.9301Z" fill="white"/>
<path d="M77.7 30.36V33.48C77.1 33.64 76.68 33.76 76.44 33.83C76.37 39.18 75.69 43.73 74.41 47.49C75.25 48.38 76.01 49.24 76.68 50.08L74.74 52.95L72.97 50.83C71.61 53.12 69.86 55.27 67.7 57.28L65.35 54.82C67.88 52.66 69.63 50.52 70.62 48.37C68.83 46.58 67.24 45.14 65.85 44.03C66.52 41.48 67.08 38.44 67.55 34.9C66.67 35 65.92 35.05 65.28 35.05L65.13 31.84C66.51 31.77 67.45 31.69 67.94 31.62C68.24 28.23 68.41 25.68 68.46 23.97L71.68 24.25C71.59 25.84 71.41 28.19 71.13 31.29C71.99 31.24 72.72 31.16 73.31 31.05C73.33 30.58 73.35 29.59 73.35 28.08H76.62V30.57C76.87 30.54 77.23 30.48 77.7 30.36ZM73.3 34.2C72.6 34.3 71.75 34.43 70.77 34.59C70.41 37.68 69.96 40.43 69.4 42.83C70.08 43.38 70.9 44.12 71.88 45.03C72.75 41.83 73.23 38.22 73.3 34.2ZM81.14 47.01C80.65 50.71 79.9 53.77 78.9 56.19L76.22 54.64C77.28 52.08 77.99 49.28 78.34 46.25L81.14 47.01ZM97.82 28.01H90.34V30.54H96.88V33.37H90.34V36.03H96.88V38.86H90.34V41.78H97.71C97.69 44.02 97.59 46.47 97.41 49.12C97.24 51.77 97.07 53.41 96.91 54.05C96.75 54.68 96.49 55.22 96.12 55.66C95.76 56.1 95.33 56.43 94.84 56.65C94.35 56.87 93.53 56.98 92.37 56.98C91.9 56.98 91.27 56.96 90.47 56.93L89.56 53.71C91.06 53.78 92.05 53.82 92.52 53.82C92.94 53.82 93.25 53.69 93.45 53.42C93.65 53.16 93.84 52.14 94.02 50.36C94.2 48.59 94.3 46.71 94.33 44.74H78.94V24.98H97.82V28.01ZM85.57 54.23L82.72 54.91C82.65 52.13 82.43 49.56 82.07 47.22L84.58 46.8C85.01 48.68 85.34 51.15 85.57 54.23ZM87.13 30.54V28.01H82.18V30.54H87.13ZM87.13 36.03V33.37H82.18V36.03H87.13ZM87.13 41.78V38.86H82.18V41.78H87.13ZM89.73 52.53L87.24 53.44C87.03 51.38 86.6 49.22 85.95 46.94L88.37 46.63C88.99 48.63 89.45 50.6 89.73 52.53ZM93.33 51.06L90.99 52C90.67 49.98 90.19 48.18 89.55 46.59L91.97 46.02C92.55 47.48 93 49.16 93.33 51.06Z" fill="white"/>
<path d="M116.87 50.63H113.51V49.19L110.33 49.15V51.85H106.99V26.61H116.88V50.63H116.87ZM113.5 45.94V29.86H110.32V45.9L113.5 45.94ZM125.28 43.9C123.79 47.55 121.58 51.33 118.65 55.25L116.08 53.22C118.91 49.39 121.06 45.74 122.51 42.28L125.28 43.9ZM138.93 40.12H130.12V57.03H126.9V40.12H118.16V36.87H126.9V23.98H130.12V36.86H138.93V40.12ZM125.28 33.8L122.47 35.35C121.79 33.53 120.44 30.96 118.42 27.66L121.06 26C122.66 28.26 124.07 30.86 125.28 33.8ZM139.5 53.36L136.58 55.13C135.66 51.94 133.96 48.18 131.48 43.86L134.23 42.38C136.76 46.63 138.52 50.28 139.5 53.36ZM138.6 27.13C137.31 30.63 136.04 33.39 134.81 35.43L131.82 33.91C133.19 31.68 134.41 28.99 135.5 25.85L138.6 27.13Z" fill="white"/>
<path d="M151.53 48.1401C151.04 51.6401 150.26 54.6301 149.18 57.1001L146.5 55.9401C147.56 53.2401 148.32 50.4301 148.77 47.5001L151.53 48.1401ZM160.43 31.0601C157.66 36.1001 154.78 40.1601 151.8 43.2601C152.77 43.1001 154.12 42.7701 155.85 42.2801C155.64 41.6101 155.4 41.0401 155.13 40.5601L157.59 39.6501C158.64 41.7101 159.37 43.7001 159.79 45.6401L157.26 46.5501C157.11 45.7701 156.97 45.2201 156.84 44.8901C154.06 45.6701 150.94 46.3301 147.49 46.8901L146.81 44.2801C149.11 42.3101 151.29 39.8101 153.33 36.8001C151.73 37.0901 149.86 37.3701 147.73 37.6301L147.12 35.2501C149.68 32.2401 151.94 28.3901 153.88 23.7001L156.87 24.8501C155.53 27.9701 153.75 31.0901 151.53 34.2201C152.93 34.1001 154.17 33.9401 155.24 33.7401C155.95 32.6801 156.68 31.4201 157.4 29.9501L160.43 31.0601ZM156.61 55.5501L153.62 56.1601C153.62 53.6001 153.31 50.9401 152.68 48.1801L155.43 47.5701C156.04 50.3601 156.44 53.0201 156.61 55.5501ZM160.77 50.9401L158.31 51.8501C157.96 50.3601 157.42 48.9101 156.68 47.4901L159.14 46.7701C159.77 48.1201 160.31 49.5101 160.77 50.9401ZM167.23 42.0001C167.44 46.9401 165.16 51.7001 160.39 56.2701L158.15 54.1601C161.43 51.3801 163.4 48.3201 164.08 44.9901H160.25V42.0001H167.23ZM180.19 53.3301L177.92 56.1901C175.6 54.3701 173.45 51.7501 171.45 48.3601V54.0001C171.45 55.1301 171.01 55.9501 170.12 56.4601C169.23 56.9701 167.45 57.2201 164.78 57.2201L163.87 53.7801C165.56 53.8301 166.68 53.8301 167.25 53.7901C167.82 53.7501 168.1 53.5401 168.1 53.1701V39.6501H161.02V27.1301H165.71C166.4 26.1101 166.97 24.9701 167.43 23.7301L170.72 24.4501C170.39 25.4001 169.97 26.2901 169.46 27.1301H177.83V39.6601H171.44V42.5801C171.71 43.1201 172.11 43.8201 172.64 44.6701C173.74 43.8701 175.06 42.6401 176.61 40.9901L178.92 43.0801C177.69 44.4101 176.15 45.8201 174.3 47.3101C175.73 49.2701 177.69 51.2801 180.19 53.3301ZM174.59 32.0201V29.8601H164.33V32.0201H174.59ZM174.59 36.9701V34.7301H164.33V36.9701H174.59Z" fill="white"/>
<path d="M220.3 56.15H187.3V52.75H200.88V24.02H204.41V35.39H218.68V38.72H204.4V52.76H220.29V56.15H220.3Z" fill="white"/>
<path d="M239.41 30.65H228.12V27.54H232.48C232.26 26.84 231.84 25.92 231.22 24.77L234.6 23.83C235.13 24.9 235.6 26.14 236.02 27.54H239.4V30.65H239.41ZM238.58 36.14H228.99V33.03H238.58V36.14ZM238.62 41.74H229.03V38.64H238.62V41.74ZM238.66 56.54H235.35V54.95H232.45V57.22H229.09V44.27H238.66V56.54V56.54ZM235.35 51.85V47.42H232.45V51.85H235.35ZM246.94 38.06H240.29V35.08H246.94V38.06ZM246.9 28.31H241.04V25.32H246.9V28.31ZM261.63 41.21L259.97 44.13C256.32 42.93 253.56 40.96 251.67 38.22C249.6 40.99 246.69 42.94 242.93 44.06L241.19 41.25C243.86 40.62 246.03 39.59 247.7 38.15C249.37 36.71 250.27 34.42 250.39 31.28H253.44C253.34 31.8 253.29 32.64 253.29 33.81C253.29 35.34 254.07 36.76 255.63 38.08C257.19 39.38 259.19 40.43 261.63 41.21ZM258.96 57.1H255.56V55.25H245.08V57.1H241.66V44.77H258.96V57.1ZM260.65 27.01C259.97 30.25 259.21 32.85 258.38 34.81L255.24 33.83C255.81 32.41 256.26 31.14 256.59 30H250.47C249.25 31.81 248.23 33.07 247.4 33.79L244.87 31.67C246.98 29.66 248.82 26.99 250.39 23.65L253.53 24.52C253.26 25.26 252.86 26.09 252.35 27.01H260.65V27.01ZM255.57 52.26V47.77H245.09V52.26H255.57Z" fill="white"/>
<path d="M281.76 30.54H268.7V27.51H273.62C273.32 26.5 272.96 25.55 272.53 24.66L275.86 23.76C276.44 25.12 276.89 26.37 277.23 27.51H281.78V30.54H281.76ZM280.43 36.18H269.6V33.15H280.43V36.18ZM280.43 41.63H269.6V38.64H280.43V41.63ZM280.43 56.51H277.07V54.81H272.95V57.1H269.61V44.24H280.44V56.51H280.43ZM277.07 51.78V47.27H272.95V51.78H277.07ZM301.2 28.42C301.2 34.92 301.11 40.59 300.94 45.43C300.77 50.26 300.52 53.19 300.19 54.2C299.86 55.21 299.3 55.95 298.51 56.41C297.72 56.87 296.3 57.1 294.27 57.1C293.38 57.1 292.55 57.08 291.78 57.03L290.58 53.82C291.98 53.89 293.78 53.93 295.96 53.93C296.19 53.93 296.45 53.82 296.72 53.61C296.99 53.39 297.15 53.1 297.2 52.73L297.59 46C297.81 41.91 297.92 37.1 297.92 31.57H287.55C287.02 32.51 286.31 33.59 285.43 34.82H294.89V51.03H283.84V36.79C283.46 37.25 283.09 37.61 282.75 37.88L280.9 34.92C283.65 32.11 285.93 28.35 287.74 23.65L290.88 24.67C290.44 25.92 289.88 27.17 289.22 28.42H301.2ZM291.63 41.32V37.88H287.25V41.32H291.63ZM291.63 47.91V44.27H287.25V47.91H291.63Z" fill="white"/>
<path d="M324.18 36.36C323.72 40.68 323 43.92 322.02 46.08L319.23 44.45C319.85 42.86 320.28 41.22 320.54 39.53H318.05V54.2C318.05 54.96 317.72 55.66 317.06 56.29C316.4 56.92 314.48 57.15 311.29 56.99L310.33 53.74C312.18 53.79 313.39 53.79 313.95 53.74C314.52 53.69 314.8 53.43 314.8 52.95V39.55H309.57V36.37H315.45C314.22 34.57 312.74 32.67 311.01 30.66L313.82 29.03C314.52 29.84 315.2 30.67 315.85 31.53C317.23 30.08 318.2 28.89 318.77 27.96H310.36V24.74H322.59V27.96C321.2 30.21 319.61 32.3 317.82 34.21C318.42 35.09 318.89 35.81 319.22 36.37H324.18V36.36ZM342.45 27.88H335.11C334.9 28.69 334.56 29.73 334.09 30.98H341.28V49.86H330.86L332.58 51.52C329.82 54.08 327.08 56.04 324.36 57.4L322.16 54.7C324.33 53.85 326.73 52.24 329.37 49.86H325.16V30.99H330.39C330.78 30.1 331.15 29.07 331.48 27.89H323.89V24.75H342.46V27.88H342.45ZM337.91 36.18V34.02H328.45V36.18H337.91V36.18ZM337.91 41.48V39.17H328.45V41.48H337.91ZM337.91 46.77V44.42H328.45V46.77H337.91ZM342.95 54.56L340.83 57.13C338.48 55.55 336.14 54.3 333.83 53.36L335.77 50.66C338.48 51.78 340.87 53.07 342.95 54.56Z" fill="white"/>
<path d="M355.36 48.43C354.82 51.77 354.01 54.71 352.94 57.26L349.95 55.82C351 53.17 351.77 50.38 352.26 47.45L355.36 48.43ZM366.52 45.46L363.64 46.66C363.42 45.93 363.14 45.2 362.81 44.46C358.68 45.51 354.89 46.26 351.43 46.73L350.25 43.7C353.13 41.19 355.57 38.59 357.57 35.92C355.88 36.25 353.86 36.55 351.51 36.83L350.72 33.72C353.28 30.92 355.39 27.6 357.04 23.76L360.14 25.13C358.51 28.34 356.72 31.04 354.76 33.22C356.52 33.05 358.29 32.78 360.06 32.43C360.93 31.22 361.79 29.87 362.63 28.38L365.51 30.04C362.78 34.83 359.37 39.09 355.29 42.83C357.19 42.61 359.24 42.22 361.46 41.67C361.27 41.13 360.97 40.56 360.54 39.97L363.46 38.82C364.52 40.31 365.54 42.52 366.52 45.46ZM361.39 55.32L358.16 56.15C357.83 53.28 357.3 50.72 356.57 48.48L359.75 47.91C360.48 50.2 361.03 52.67 361.39 55.32ZM366.27 53.44L363.35 54.38C363.08 52.48 362.43 50.35 361.39 47.99L364.25 47.31C365.25 49.66 365.92 51.7 366.27 53.44ZM382.64 29.67C382.63 33.42 382.51 38.35 382.28 44.46C382.05 50.58 381.63 54.05 381.01 54.89C380.39 55.73 379.74 56.29 379.06 56.59C378.38 56.89 376.95 57.03 374.75 57.03C373.96 57.03 373.12 57.01 372.24 56.98L370.85 53.65H376.56C377.02 53.65 377.39 53.54 377.68 53.33C377.97 53.12 378.16 52.85 378.26 52.54C378.36 52.23 378.5 50.79 378.68 48.23C378.86 45.67 379 43.09 379.1 40.49C379.2 37.89 379.25 35.42 379.25 33.08H370.1C369.13 35.2 368.13 36.98 367.11 38.42L364.34 36.44C366.59 33.24 368.4 29.01 369.75 23.76L373.04 24.41C372.78 25.77 372.25 27.52 371.45 29.68H382.64V29.67ZM377.11 46.88L374.36 48.75C373.1 46.21 371.02 43.38 368.11 40.27L370.68 38.27C373.53 41.19 375.67 44.06 377.11 46.88Z" fill="white"/>
<path d="M403.57 61.25C402.54 59.09 401.5 56.91 400.48 54.72C398.63 50.76 396.79 46.8 394.97 42.84C394.42 41.65 394.1 40.4 394.16 39.09C394.32 35.99 397.4 34.11 400.37 35.29C401.68 35.81 402.66 36.72 403.31 37.98C404.7 40.65 406.08 43.32 407.47 45.99C407.57 46.19 407.7 46.37 407.84 46.59C409.71 45.31 411.66 45.1 413.74 45.87C413.91 45.93 414.18 45.85 414.36 45.76C416.37 44.74 418.42 44.6 420.52 45.46C420.69 45.53 420.97 45.53 421.13 45.44C423.94 43.76 427.38 44.78 429.34 47.36C431.06 49.63 432.27 52.2 433.28 54.84C434.15 57.12 434.96 59.43 435.7 61.76C436.88 65.52 436.44 69.15 434.04 72.28C429.73 77.89 423.94 80.27 416.92 79.31C414.24 78.94 411.94 77.43 409.62 76.13C406.44 74.36 403.28 72.55 400.12 70.72C398.95 70.04 397.77 69.34 396.7 68.52C395.29 67.44 394.55 65.93 394.69 64.14C394.88 61.69 397.4 59.86 400 60.3C401.19 60.49 402.35 60.92 403.57 61.25ZM415.54 48.12C416.35 49.59 417.13 51 417.9 52.4C418.31 53.14 418.2 53.67 417.57 54.03C416.92 54.41 416.4 54.23 415.97 53.46C415.21 52.1 414.39 50.76 413.72 49.35C413.24 48.33 412.44 48.1 411.48 48.05C410.68 48.01 409.99 48.29 409.33 48.75C408.89 49.06 408.83 49.32 409.08 49.8C410.05 51.66 410.99 53.55 411.93 55.43C412.36 56.29 411.8 57.15 410.88 57.1C410.31 57.07 410.09 56.65 409.87 56.22C406.94 50.58 404.01 44.94 401.08 39.31C400.69 38.56 400.14 37.98 399.33 37.69C397.9 37.18 396.62 38.08 396.79 39.59C396.89 40.45 397.14 41.33 397.51 42.12C400.93 49.46 404.39 56.78 407.84 64.11C408.09 64.63 408.26 65.14 407.76 65.6C407.3 66.02 406.82 65.86 406.32 65.62C404.86 64.91 403.4 64.17 401.89 63.55C401.05 63.2 400.12 62.95 399.22 62.89C397.75 62.79 396.87 64.18 397.55 65.47C397.84 66.03 398.33 66.54 398.85 66.9C399.85 67.59 400.93 68.19 401.99 68.78C404.28 70.07 406.57 71.34 408.87 72.61C411.01 73.79 413.14 74.97 415.31 76.09C416.02 76.45 416.83 76.74 417.62 76.82C423.59 77.43 428.48 75.4 432.07 70.57C433.77 68.28 434.07 65.61 433.28 62.86C432.86 61.4 432.36 59.97 431.87 58.54C430.79 55.43 429.52 52.41 427.75 49.63C427.07 48.56 426.2 47.74 424.95 47.39C424.07 47.14 423.23 47.21 422.43 47.78C422.95 48.77 423.44 49.71 423.92 50.66C424.3 51.41 424.17 51.93 423.53 52.27C422.89 52.61 422.37 52.42 421.98 51.69C421.46 50.71 420.96 49.72 420.43 48.75C420.3 48.5 420.1 48.24 419.87 48.11C418.47 47.29 417.04 47.33 415.54 48.12Z" fill="#325F2C"/>
<path d="M415.54 48.1199C417.04 47.3299 418.47 47.2899 419.89 48.0799C420.13 48.2099 420.32 48.4699 420.45 48.7199C420.98 49.6899 421.48 50.6799 422 51.6599C422.39 52.3899 422.91 52.5799 423.55 52.2399C424.19 51.9099 424.33 51.3799 423.94 50.6299C423.46 49.6799 422.97 48.7399 422.45 47.7499C423.25 47.1799 424.09 47.1099 424.97 47.3599C426.21 47.7099 427.09 48.5299 427.77 49.5999C429.54 52.3899 430.81 55.4099 431.89 58.5099C432.39 59.9399 432.89 61.3699 433.3 62.8299C434.09 65.5799 433.79 68.2399 432.09 70.5399C428.5 75.3699 423.61 77.3999 417.64 76.7899C416.85 76.7099 416.04 76.4299 415.33 76.0599C413.16 74.9499 411.02 73.7599 408.89 72.5799C406.59 71.3199 404.3 70.0399 402.01 68.7499C400.95 68.1499 399.87 67.5599 398.87 66.8699C398.35 66.5099 397.86 65.9999 397.57 65.4399C396.89 64.1499 397.77 62.7599 399.24 62.8599C400.14 62.9199 401.07 63.1799 401.91 63.5199C403.42 64.1399 404.87 64.8699 406.34 65.5899C406.84 65.8299 407.32 65.9999 407.78 65.5699C408.28 65.1099 408.11 64.5999 407.86 64.0799C404.41 56.7599 400.95 49.4299 397.53 42.0899C397.16 41.2999 396.91 40.4199 396.81 39.5599C396.64 38.0599 397.91 37.1499 399.35 37.6599C400.16 37.9499 400.71 38.5299 401.1 39.2799C404.03 44.9199 406.96 50.5499 409.89 56.1899C410.11 56.6199 410.34 57.0399 410.9 57.0699C411.83 57.1199 412.38 56.2599 411.95 55.3999C411.02 53.5199 410.08 51.6299 409.1 49.7699C408.85 49.2899 408.91 49.0299 409.35 48.7199C410 48.2599 410.7 47.9799 411.5 48.0199C412.46 48.0699 413.26 48.2999 413.74 49.3199C414.4 50.7299 415.22 52.0599 415.99 53.4299C416.42 54.1999 416.94 54.3799 417.59 53.9999C418.21 53.6399 418.33 53.1199 417.92 52.3699C417.13 50.9999 416.35 49.5899 415.54 48.1199Z" fill="white"/>
</g>
<defs>
<linearGradient id="paint0_linear" x1="0" y1="40.2864" x2="414.934" y2="40.2864" gradientUnits="userSpaceOnUse">
<stop stop-color="#263C1F"/>
<stop offset="0.4576" stop-color="#396B40"/>
<stop offset="0.5536" stop-color="#477957"/>
<stop offset="0.7592" stop-color="#254C21"/>
<stop offset="1" stop-color="#24371A"/>
</linearGradient>
<clipPath id="clip0">
<rect width="436.34" height="80.57" fill="white"/>
</clipPath>
</defs>
</svg>
