<svg width="43" height="45" viewBox="0 0 43 45" fill="none" xmlns="http://www.w3.org/2000/svg">
<g clip-path="url(#clip0)">
<path d="M9.41998 26.31C8.38998 24.15 7.34998 21.97 6.32998 19.78C4.47998 15.83 2.64998 11.87 0.819983 7.90003C0.269983 6.72003 -0.0600168 5.47003 0.00998318 4.15003C0.169983 1.05003 3.24998 -0.829973 6.21998 0.350027C7.52998 0.870027 8.50998 1.78003 9.15998 3.04003C10.55 5.71003 11.93 8.38003 13.32 11.05C13.42 11.25 13.55 11.43 13.69 11.65C15.56 10.37 17.51 10.16 19.59 10.93C19.76 10.99 20.03 10.91 20.21 10.82C22.22 9.80003 24.27 9.66003 26.37 10.52C26.54 10.59 26.82 10.59 26.98 10.5C29.79 8.82003 33.23 9.84003 35.19 12.42C36.91 14.69 38.12 17.26 39.13 19.9C40 22.18 40.81 24.49 41.55 26.82C42.73 30.58 42.29 34.21 39.89 37.34C35.58 42.95 29.79 45.33 22.77 44.37C20.09 44 17.79 42.49 15.47 41.19C12.29 39.42 9.12998 37.61 5.96998 35.78C4.79998 35.1 3.61998 34.4 2.54998 33.58C1.13998 32.5 0.399983 30.99 0.539983 29.2C0.729983 26.75 3.24998 24.92 5.84998 25.36C7.04998 25.55 8.19998 25.97 9.41998 26.31ZM21.39 13.18C22.2 14.65 22.98 16.06 23.75 17.46C24.16 18.2 24.05 18.73 23.42 19.09C22.77 19.47 22.25 19.29 21.82 18.52C21.06 17.16 20.24 15.82 19.57 14.41C19.09 13.39 18.29 13.16 17.33 13.11C16.53 13.07 15.84 13.35 15.18 13.81C14.74 14.12 14.68 14.38 14.93 14.86C15.9 16.72 16.84 18.61 17.78 20.49C18.21 21.35 17.65 22.21 16.73 22.16C16.16 22.13 15.94 21.71 15.72 21.28C12.79 15.64 9.85998 10 6.92998 4.37003C6.53998 3.62003 5.98998 3.04003 5.17998 2.75003C3.74998 2.24003 2.46998 3.14003 2.63998 4.65003C2.73998 5.51003 2.98998 6.39003 3.35998 7.18003C6.77998 14.52 10.24 21.84 13.69 29.17C13.94 29.69 14.11 30.2 13.61 30.66C13.15 31.08 12.67 30.92 12.17 30.68C10.71 29.97 9.24998 29.23 7.73998 28.61C6.89998 28.26 5.96998 28.01 5.06998 27.95C3.59998 27.85 2.71998 29.24 3.39998 30.53C3.68998 31.09 4.17998 31.6 4.69998 31.96C5.69998 32.65 6.77998 33.25 7.83998 33.84C10.13 35.13 12.42 36.4 14.72 37.67C16.86 38.85 18.99 40.03 21.16 41.15C21.87 41.51 22.68 41.8 23.47 41.88C29.44 42.49 34.33 40.46 37.92 35.63C39.62 33.34 39.92 30.67 39.13 27.92C38.71 26.46 38.21 25.03 37.72 23.6C36.64 20.49 35.37 17.47 33.6 14.69C32.92 13.62 32.05 12.8 30.8 12.45C29.92 12.2 29.08 12.27 28.28 12.84C28.8 13.83 29.29 14.77 29.77 15.72C30.15 16.47 30.02 16.99 29.38 17.33C28.74 17.67 28.22 17.48 27.83 16.75C27.31 15.77 26.81 14.78 26.28 13.81C26.15 13.56 25.95 13.3 25.72 13.17C24.32 12.35 22.9 12.38 21.39 13.18Z" fill="#3D5E32"/>
<path d="M21.39 13.18C22.89 12.39 24.32 12.35 25.74 13.14C25.98 13.27 26.17 13.53 26.3 13.78C26.83 14.75 27.33 15.74 27.85 16.72C28.24 17.45 28.76 17.64 29.4 17.3C30.04 16.97 30.18 16.44 29.79 15.69C29.31 14.74 28.82 13.8 28.3 12.81C29.1 12.24 29.94 12.17 30.82 12.42C32.06 12.77 32.94 13.59 33.62 14.66C35.39 17.45 36.66 20.47 37.74 23.57C38.24 25 38.74 26.43 39.15 27.89C39.94 30.64 39.64 33.3 37.94 35.6C34.35 40.43 29.46 42.46 23.49 41.85C22.7 41.77 21.89 41.49 21.18 41.12C19.01 40.01 16.87 38.82 14.74 37.64C12.44 36.38 10.15 35.1 7.85996 33.81C6.79996 33.21 5.71996 32.62 4.71996 31.93C4.19996 31.57 3.70996 31.06 3.41996 30.5C2.73996 29.21 3.61996 27.82 5.08996 27.92C5.98996 27.98 6.91996 28.24 7.75996 28.58C9.25996 29.2 10.72 29.93 12.19 30.65C12.69 30.89 13.17 31.06 13.63 30.63C14.13 30.17 13.96 29.66 13.71 29.14C10.24 21.83 6.77996 14.51 3.35996 7.17002C2.98996 6.38002 2.73996 5.50002 2.63996 4.64002C2.46996 3.14002 3.73996 2.23002 5.17996 2.74002C5.98996 3.03002 6.53996 3.61002 6.92996 4.36002C9.85996 10 12.79 15.63 15.72 21.27C15.94 21.7 16.17 22.12 16.73 22.15C17.66 22.2 18.21 21.34 17.78 20.48C16.85 18.6 15.91 16.71 14.93 14.85C14.68 14.37 14.74 14.11 15.18 13.8C15.83 13.34 16.53 13.06 17.33 13.1C18.29 13.15 19.09 13.38 19.57 14.4C20.23 15.81 21.05 17.14 21.82 18.51C22.25 19.28 22.77 19.46 23.42 19.08C24.04 18.72 24.16 18.2 23.75 17.45C22.98 16.05 22.21 14.65 21.39 13.18Z" fill="white"/>
</g>
<defs>
<clipPath id="clip0">
<rect width="42.19" height="44.57" fill="white"/>
</clipPath>
</defs>
</svg>
