<svg width="606" height="206" viewBox="0 0 606 206" fill="none" xmlns="http://www.w3.org/2000/svg">
<g clip-path="url(#clip0)">
<path d="M603.16 156.8C580.18 156.81 360.46 156.83 337.48 156.83C294.73 156.84 251.98 156.83 209.23 156.83C208.02 156.83 206.82 156.83 205.23 156.83C206.51 158.6 207.65 160.04 208.63 161.57C210.74 164.86 212.19 168.38 212.32 172.39C212.5 177.72 210.28 181.74 206.04 184.81C201.54 188.07 196.36 189.55 191.04 190.65C183.31 192.26 175.48 192.33 167.63 192.05C167.52 192.05 167.4 192.07 167.3 192.03C166.31 191.66 165.33 191.27 164.35 190.89C164.92 189.89 165.38 188.82 166.08 187.93C166.68 187.17 167.54 186.62 168.29 185.97L168.41 185.88L168.31 185.99C162.72 187.68 157.17 189.51 151.53 191C149.56 191.52 147.35 191.45 145.28 191.27C142.8 191.06 142.33 190.32 143.55 188.13C146.05 183.6 147.07 178.64 147.08 173.48C147.08 170.86 146.99 170.77 144.53 171.07C142.91 171.27 141.3 171.48 139.64 171.69C145.85 180.46 139.24 192.06 129.2 193.37C121.65 194.35 114.12 195.49 106.58 196.54C104.08 196.89 102.59 196.36 102.25 195.11C101.87 193.72 103.1 192.17 105.39 191.48C107.69 190.79 110.06 190.29 112.68 189.64C106.97 189.13 101.59 188.65 96.21 188.16C94.93 188.04 93.34 188.39 92.76 186.82C92.1 185.06 93.65 184.32 95.03 183.19C94.11 182.8 93.33 182.53 92.61 182.15C91.04 181.33 90.83 180.3 92.02 179.03C93.4 177.55 95.13 176.98 97.13 177.42C99.29 177.89 101.43 178.41 103.59 178.85C104.66 179.07 105.75 179.15 106.88 179.03C103.31 177.94 99.73 176.89 96.17 175.75C95.01 175.38 93.77 174.8 93.92 173.28C94.06 171.85 95.27 171.41 96.48 171.05C99.6 170.13 102.61 171.22 105.65 171.58C107.4 171.79 109.11 172.35 110.86 172.44C112.27 172.51 113.7 172.12 115.64 171.87C113.78 171.12 112.28 170.72 111.02 169.93C109.77 169.15 108.37 168.17 107.75 166.92C106.99 165.39 105.87 164.83 104.48 164.48C96.74 162.53 89.37 163.18 82.56 167.65C81.27 168.5 80.05 169.47 78.72 170.25C78.22 170.55 77.5 170.47 76.88 170.57C76.84 169.85 76.56 169.04 76.8 168.44C77.21 167.44 77.89 166.52 78.56 165.65C83.78 158.81 90.43 153.82 98.44 150.72C102.54 149.13 106.76 147.84 110.92 146.14C108.65 146.49 106.37 146.78 104.11 147.22C97.11 148.58 90.67 151.46 84.32 154.6C79.84 156.81 79.45 156.52 79.37 151.45C79.31 147.91 79.31 144.38 79.21 140.84C79.14 138.38 78.63 136.23 76.52 134.42C74.34 132.55 72.99 129.87 72.57 126.95C72.45 126.12 72.82 124.82 73.43 124.37C74.46 123.62 75.52 124.42 76.28 125.3C78.17 127.46 78.85 130.14 79.44 132.85C80.03 135.53 80.88 136.27 83.48 135.29C85.81 134.41 88.11 133.14 90.06 131.59C95.82 127.01 102.13 123.44 108.84 120.52C111.66 119.29 114.51 118.13 117.75 116.76C115.43 115.84 113.53 115.08 111.62 114.33C102.7 110.79 97.18 104.44 95.53 94.89C95.42 94.24 95.3 93.59 95.16 92.94C94.77 91.21 94.28 90.88 93.03 91.96C87.59 96.69 80.76 98.9 74.66 102.43C72.56 103.65 70.54 105 68.43 106.2C60.98 110.44 57.51 117.24 56.37 125.37C55.66 130.39 55.06 135.46 54.97 140.52C54.76 151.95 53.05 163.13 50.73 174.29C49.88 178.35 49.95 182.61 49.69 186.79C49.62 187.87 49.86 188.99 50.09 190.06C50.87 193.66 51.22 193.81 54.99 193.96C63.92 194.31 72.87 194.62 81.78 195.27C85.27 195.52 88.73 196.46 92.13 197.39C93.89 197.87 95.92 198.81 95.74 201.12C95.57 203.32 93.62 204.34 91.77 204.55C87.73 205 83.62 205.44 79.59 205.17C72.86 204.72 66.23 203.4 60.01 200.65C57.7 199.63 55.4 198.45 53.38 196.96C51.76 195.76 50.19 195.29 48.22 195.29C32.31 195.33 16.39 195.29 0.469971 195.27C0.469971 194.83 0.469971 194.39 0.469971 193.94C15.39 193.93 30.31 193.93 45.23 193.92C46.11 193.92 47 193.94 47.88 193.91C49.77 193.84 49.76 193.83 49.21 191.91C47.7 186.56 48.17 181.18 49.11 175.83C50.04 170.51 51.3 165.24 52.15 159.91C52.79 155.89 53.23 151.81 53.34 147.74C53.55 139.79 53.83 131.85 55.38 124.02C55.72 122.29 56.19 120.58 56.7 118.89C58.11 114.21 60.51 110.14 64.71 107.47C69.64 104.34 74.59 101.21 79.75 98.48C83.95 96.25 88.19 94.17 91.98 91.25C94.89 89 95.64 89.34 96.48 92.99C96.9 94.82 97.15 96.69 97.7 98.47C99.86 105.52 104.73 110.05 111.37 112.86C113.5 113.76 115.71 114.47 117.85 115.35C118.52 115.62 119.07 116.17 119.68 116.6C119.13 117.08 118.66 117.73 118.02 118.01C114.49 119.58 110.93 121.07 107.37 122.58C101.94 124.87 96.96 127.86 92.33 131.53C89.05 134.13 85.73 136.76 81.25 137.1C80.86 137.13 80.24 138.19 80.25 138.76C80.29 141.3 80.57 143.83 80.67 146.36C80.77 148.68 80.76 151 80.79 153.32C80.81 154.36 81.19 154.68 82.23 154.2C85.32 152.74 88.44 151.33 91.55 149.91C97.54 147.18 103.88 145.75 110.36 144.92C111.93 144.72 114.55 143.78 114.91 145.9C115.16 147.37 112.4 147.55 110.88 147.94C104.77 149.53 98.79 151.48 93.25 154.54C86.98 158.01 81.81 162.7 78.2 169.13C79.06 168.55 79.92 167.98 80.77 167.38C88.11 162.22 96.11 160.94 104.72 163.3C106.21 163.71 107.51 164.32 108.96 162.89C109.5 162.36 111.1 162.57 112.08 162.88C117.65 164.66 123.17 166.56 128.7 168.45C129.84 168.84 130.98 169.32 132.02 169.91C132.52 170.19 133.21 171.05 133.09 171.31C132.82 171.9 132.11 172.67 131.55 172.68C129.25 172.74 126.8 173.02 124.68 172.35C119.86 170.83 115.2 168.8 110.48 166.97C110.01 166.79 109.55 166.57 108.63 166.16C109.56 168.25 111.11 168.64 112.45 169.21C114.28 169.99 116.17 170.61 118 171.37C118.31 171.5 118.46 172.03 118.69 172.37C118.42 172.54 118.15 172.84 117.87 172.85C114.48 172.99 111.07 173.26 107.69 173.14C104.84 173.04 102.01 172.41 99.17 172.11C98.31 172.02 97.37 172.07 96.55 172.32C96.02 172.49 95.63 173.14 95.18 173.58C95.6 173.9 95.98 174.36 96.46 174.5C102.54 176.41 108.54 178.78 115.15 177.91C116.12 177.78 117.18 178.29 118.2 178.51C117.75 180.07 116.27 179.81 115.25 179.89C110.1 180.32 104.93 180.97 99.83 179.32C98.49 178.88 97.01 178.72 95.6 178.73C94.82 178.73 93.94 179.22 93.28 179.72C92.64 180.19 92.7 180.9 93.58 181.21C96.48 182.23 99.3 183.29 102.56 183.05C106.28 182.77 110.04 183.1 113.78 183.17C114 183.17 114.23 183.17 114.44 183.24C115.56 183.59 117.32 183.66 117.16 185.08C116.98 186.63 115.22 186.1 114.09 186.12C109.33 186.21 104.62 185.86 99.95 184.77C98.51 184.43 96.91 184.7 95.4 184.85C94.98 184.89 94.61 185.48 94.22 185.81C94.67 186.2 95.06 186.8 95.58 186.95C96.41 187.18 97.33 187.1 98.21 187.18C103.71 187.63 109.21 188.06 114.7 188.56C115.25 188.61 115.76 189.12 116.3 189.42C115.84 189.81 115.43 190.44 114.9 190.56C112.33 191.18 109.7 191.57 107.14 192.23C106.01 192.52 104.91 193.13 103.95 193.81C103.34 194.25 103.37 195.1 104.38 195.14C105.81 195.2 107.26 195.18 108.67 194.99C114.9 194.17 121.12 193.23 127.35 192.43C134.73 191.48 139.23 187.78 140.68 181.05C141.39 177.76 141.06 174.65 137.74 172.64C137.36 172.41 137.19 171.83 136.93 171.42C137.38 171.14 137.8 170.69 138.28 170.62C140.46 170.32 142.66 169.99 144.85 169.93C146.62 169.88 147.2 169.18 147.04 167.5C146.7 164.1 147.99 162.87 142.87 163.97C137.69 165.09 132.4 165.49 127.08 164.91C124.39 164.62 121.88 163.85 119.7 162.23C116.59 159.92 115.37 156.64 115.62 152.93C115.79 150.43 116.19 147.81 117.15 145.53C118.99 141.17 121.18 136.95 123.47 132.8C125.08 129.88 125.62 129.86 128.86 130.51C131.45 131.03 134.08 131.62 136.86 129.07C135.02 129.07 133.69 129.1 132.37 129.07C127.74 128.96 126.22 127.65 125.71 123.09C125.49 121.14 125.44 119.15 125.57 117.2C125.62 116.5 126.43 115.86 126.9 115.19C127.47 115.79 128.08 116.36 128.58 117.02C128.83 117.34 128.88 117.82 129.31 119.02C129.67 116.74 129.88 115.22 130.15 113.72C130.29 112.96 130.37 112.12 130.78 111.52C131.16 110.96 131.9 110.44 132.55 110.34C132.96 110.28 133.58 110.97 133.93 111.45C134.23 111.86 134.29 112.46 134.54 113.25C135.13 112.36 135.45 111.54 136.05 111.06C136.57 110.65 137.56 110.29 138.04 110.52C138.57 110.77 139.08 111.75 139.04 112.38C138.96 113.67 138.5 114.94 138.14 116.5C138.95 115.62 139.53 114.77 140.32 114.23C140.87 113.85 142.02 113.53 142.35 113.82C142.88 114.28 143.25 115.3 143.16 116.02C143.04 116.95 142.44 117.84 141.97 118.71C141.39 119.77 140.74 120.78 139.76 122.4C141.22 121.91 142.09 121.49 142.99 121.37C143.63 121.29 144.32 121.61 144.99 121.76C144.81 122.46 144.85 123.38 144.4 123.81C143.38 124.78 142.13 125.51 140.41 126.73C147.85 125.14 153.29 121.92 156.45 115.49C156.84 114.7 157.33 113.96 157.76 113.19C160.49 108.22 163.52 103.53 169.65 101.44C163.29 97.24 156.95 95.24 149.82 95.94C148.32 96.09 147.45 96.78 146.72 98.03C144.71 101.47 141.88 104.03 138.16 105.52C136.98 106 135.75 106.13 134.81 105.02C133.85 103.88 133.76 102.52 134.54 101.33C135.18 100.34 136.03 99.34 137.03 98.76C138.73 97.77 140.6 97.05 142.44 96.32C143.35 95.95 144.43 95.96 145.29 95.52C145.97 95.17 146.83 94.44 146.89 93.82C146.94 93.2 146.23 92.25 145.61 91.89C142.06 89.88 138.35 88.14 134.85 86.04C131.03 83.75 127.72 80.82 125.35 76.97C124.83 76.13 124.42 75.22 124 74.32C123.93 74.16 124.02 73.75 124.1 73.73C124.36 73.66 124.75 73.62 124.91 73.76C125.48 74.27 125.94 74.91 126.52 75.42C127.93 76.65 129.29 77.98 130.85 78.99C135.5 81.99 140.25 81.93 144.84 78.86C150.72 74.93 155.45 69.92 158.78 63.61C160.16 60.99 161.91 58.57 163.38 55.99C163.68 55.47 163.64 54.64 163.52 54.01C163.16 52.18 162.48 50.4 162.31 48.56C162.15 46.94 161.49 46.9 160.17 47.06C154 47.79 147.86 48.05 141.83 45.98C141.17 45.75 140.21 46.14 139.48 46.45C137.17 47.46 134.99 48.87 132.61 49.59C127.82 51.05 124.23 49.7 121.25 45.79C119.75 43.82 119.38 43.76 118.07 45.74C116.05 48.8 115.24 52.26 117.89 54.8C118.75 55.62 118.75 56.45 118.3 57.48C115.28 64.47 112.49 71.56 109.26 78.45C107.07 83.12 102.55 85.65 98.5 88.51C98.3 88.65 97.91 88.51 97.6 88.5C97.65 88.21 97.6 87.85 97.76 87.64C98.81 86.22 99.84 84.78 100.99 83.44C103.01 81.08 103.29 78.51 102.99 75.44C102.61 71.53 103.02 67.54 103.23 63.6C103.29 62.53 103.56 61.25 104.21 60.48C106.86 57.37 105.64 54.84 103.83 51.78C100.96 46.93 99.82 41.54 101.19 35.84C101.81 33.27 102.91 30.98 105.07 29.47C112.51 24.27 118.18 17.46 123.66 10.31C131.38 0.240036 143.68 -2.21997 155.88 3.58003C167.59 9.15003 174.36 18.64 176.45 31.41C176.8 33.58 176.94 35.8 176.93 38C176.92 41.84 178.06 45.4 179.37 48.92C180.72 52.54 182.21 56.1 183.53 59.73C184.85 63.34 184.72 66.72 181.37 69.28C180.24 70.14 180.91 70.7 181.48 71.39C185.22 75.96 186.8 81.17 186.48 87.08C186.1 93.97 183.13 98.17 176.64 100.5C175.61 100.87 174.58 101.21 173.24 101.67C176.61 104.5 179.74 107.18 182.96 109.75C183.46 110.15 184.46 110.24 185.13 110.07C188.43 109.22 191.68 109.55 194.97 110.16C200.22 111.13 204.07 113.91 206.57 118.62C208.51 122.27 209.72 126.19 210.17 130.26C211.06 138.13 206.81 145.12 199.17 149C193.87 151.69 188.42 152.03 182.78 150.35C181.73 150.04 180.66 149.8 179.6 149.53C179.15 149.31 178.71 149.1 178.26 148.88C178.04 148.65 177.81 148.42 177.59 148.19C177.42 148.13 177.25 148.06 177.09 148C177.27 148.05 177.46 148.1 177.64 148.15C177.86 148.38 178.09 148.61 178.31 148.84C178.75 149.06 179.2 149.27 179.64 149.49C182.44 151.85 182.57 152.99 180.16 155.99C176.19 160.93 171.14 164.52 165.27 166.71C161.06 168.28 156.58 169.12 152.22 170.28C151.79 170.39 151.36 170.5 150.92 170.53C149.22 170.65 148.57 171.42 148.46 173.23C148.26 176.3 147.78 179.37 147.12 182.38C146.68 184.41 145.79 186.35 144.98 188.28C144.48 189.46 144.84 190.02 145.99 189.98C148.41 189.9 150.94 190.1 153.22 189.45C158.72 187.87 164.09 185.84 169.54 184.07C170.39 183.79 171.35 183.87 172.26 183.79C171.73 184.55 171.31 185.44 170.64 186.04C169.33 187.22 167.85 188.21 166.49 189.34C165.71 189.99 166 190.46 166.9 190.59C168.32 190.78 169.75 191.05 171.18 191.06C179.93 191.07 188.63 190.55 197.03 187.84C199.53 187.03 201.95 185.87 204.24 184.57C210.14 181.21 212.89 174.82 210.19 167.45C208.84 163.75 206.64 160.61 204.11 157.65C203.72 157.2 203.59 156.52 203.34 155.95C203.94 155.78 204.53 155.51 205.14 155.47C206.35 155.39 207.57 155.45 208.79 155.45C273.57 155.45 535.09 155.45 599.87 155.45C600.98 155.45 602.08 155.48 603.19 155.49C603.16 155.91 603.16 156.35 603.16 156.8ZM131.83 148.2C130.73 149.52 129.63 150.84 128.53 152.16L128.37 152.35L128.49 152.12C129.6 150.81 130.71 149.49 131.81 148.18L131.92 148.09L131.83 148.2ZM128.5 79.21L128.41 79.09L128.51 79.19C131.12 82.28 134.37 84.55 137.87 86.47C140.67 88.01 143.59 89.34 146.41 90.85C147.14 91.24 147.87 91.81 148.32 92.49C148.76 93.15 148.6 94.44 149.12 94.73C149.76 95.09 150.82 94.67 151.69 94.66C152.9 94.64 154.11 94.64 155.32 94.72C159.83 95 164.03 96.48 167.75 98.89C170.48 100.66 172.99 100.75 175.78 99.51C176.38 99.24 177.05 99.11 177.65 98.83C181.02 97.29 183.49 94.92 184.51 91.23C186.42 84.34 184.99 78.16 180.68 72.53C179.63 71.16 178.51 70.71 176.75 70.77C174.96 70.82 173.08 70.34 171.38 69.71C170.13 69.24 169.78 67.87 170.33 66.6C170.85 65.39 172.01 65.09 173.13 65.54C174.75 66.2 176.34 66.99 177.84 67.89C179.61 68.96 180.06 68.99 181.43 67.54C183.47 65.39 183.17 62.82 182.36 60.38C181.15 56.72 179.61 53.17 178.25 49.55C176.69 45.4 175.57 41.19 175.49 36.68C175.22 22.11 168.56 11.34 155.51 4.87003C143.36 -1.14997 130.61 1.69003 123.09 12.9C118.68 19.48 113.28 25.12 106.74 29.63C103.46 31.89 102.16 35.12 102.01 38.99C101.78 44.85 103.31 50.15 107.05 54.69C108.12 55.99 108 56.84 106.96 58.08C105.07 60.34 104.13 63.07 104.04 66.02C103.96 68.67 103.75 71.35 104.06 73.96C104.48 77.44 104.36 80.73 102.67 83.85L102.48 83.94L102.63 83.81C105.53 81.83 107.7 79.25 109.08 76.01C111.45 70.42 113.78 64.81 116.24 59.26C117.07 57.38 117.35 55.83 115.84 54.12C115.26 53.46 115.15 52.28 115.07 51.32C114.85 48.64 115.8 46.19 117.58 44.34C119.14 42.7 119.44 41.1 119.14 39C118.77 36.44 119.16 33.92 120.72 31.72C121.84 30.14 123.39 29.4 124.62 29.83C125.86 30.27 126.5 31.8 125.79 33.86C125.04 36.03 124 38.14 122.81 40.1C120.99 43.11 120.9 44.31 123.56 46.56C124.75 47.56 126.39 48.31 127.93 48.57C132.11 49.26 135.73 47.63 139 45.15C140.14 44.29 141.05 43.94 142.54 44.76C143.93 45.52 145.68 45.72 147.31 45.93C152.16 46.55 157 46.38 161.81 45.51C163.16 45.27 163.67 45.67 163.61 46.99C163.49 49.68 163.79 52.27 165.23 54.65C165.46 55.03 165.26 56.03 164.91 56.33C162.36 58.48 161.12 61.47 159.68 64.31C156.35 70.9 151.37 75.97 145.28 80C141.55 82.46 137.5 83.03 133.28 81.42C131.65 80.8 130.1 79.95 128.5 79.21ZM185.59 111.52C187.98 112.31 189.81 113.01 191.7 113.53C193.61 114.06 195.57 114.4 197.5 114.86C197.89 114.95 198.22 115.26 198.58 115.46C198.19 115.76 197.84 116.27 197.42 116.32C191.71 117.02 188.82 120.8 186.99 125.75C186.61 126.78 186.41 127.89 185.99 128.9C185.32 130.52 185.25 131.51 187.25 132.47C190.06 133.81 190.58 136.84 188.98 139.56C187.26 142.48 184.04 143.75 180.69 142.54C178.85 141.88 177.15 141.7 175.22 142.06C172 142.65 168.81 142.1 165.8 140.91C162.13 139.45 159.95 136.74 159.41 132.75C158.53 126.17 162.91 119.24 169.79 117.88C174.45 116.96 177.66 114.16 181.22 111.64C181.97 111.11 181.93 110.63 181.29 110.09C179.26 108.39 177.28 106.62 175.18 105C171.01 101.77 169.74 101.7 165.64 104.98C163.94 106.33 162.54 108.11 161.22 109.85C160.1 111.34 159.15 113 158.36 114.69C155.08 121.7 149.54 125.84 142.15 127.68C140.41 128.11 138.91 128.77 137.59 130.12C135.62 132.14 133.08 132.8 130.27 132.14C129.41 131.94 128.54 131.81 127.67 131.63C126.45 131.38 125.55 131.74 124.87 132.84C121.37 138.49 118.18 144.3 116.9 150.91C115.7 157.09 119.2 162.05 125.38 163.35C130.8 164.49 136.16 163.93 141.5 162.97C147.32 161.93 146.89 162.29 145.6 156.69C144.71 152.84 143.34 149.1 142.18 145.31C141.7 143.72 140.71 143.25 139.15 143.87C136.66 144.85 134.32 145.88 133.11 148.62C132.46 150.1 131.31 151.4 130.24 152.65C129.5 153.51 128.51 154.95 127.3 153.89C126.22 152.95 127.16 151.58 127.9 150.64C128.92 149.34 129.94 147.96 131.26 147.01C133.58 145.34 134.33 143.13 134.4 140.46C134.43 139.36 134.42 138.22 134.73 137.19C135.2 135.61 136.51 135.2 137.8 136.26C138.8 137.08 139.74 138.11 140.37 139.24C141.38 141.05 142.46 141.56 144.63 141.08C148.85 140.16 153.17 140.01 157.38 141.38C160.98 142.55 163.65 144.8 164.29 148.68C164.93 152.54 162.74 155.33 159.83 157.32C157.31 159.05 154.46 160.36 151.64 161.58C148.08 163.12 148.03 163 148.42 166.88C148.67 169.37 148.8 169.59 151.19 169.24C158.7 168.15 165.86 165.98 172.16 161.61C175.24 159.47 178.18 157.12 180.13 153.77C180.84 152.55 180.68 151.81 179.47 151.09C178.05 150.25 176.68 149.31 175.37 148.31C175.02 148.05 174.98 147.39 174.79 146.91C175.36 146.72 176.01 146.26 176.48 146.4C177.63 146.74 178.7 147.36 179.81 147.86C187.35 151.29 194.62 150.98 201.44 146.1C206.51 142.47 209.59 137.57 208.97 131.17C208.66 127.92 207.61 124.7 206.54 121.58C204.02 114.24 196.99 109.34 185.59 111.52ZM194.12 115.72C190.73 114.52 187.8 113.59 184.96 112.42C183.9 111.98 183.09 111.98 182.2 112.55C181.36 113.09 180.37 113.48 179.73 114.19C177.23 116.95 174.03 118.17 170.48 118.9C165.28 119.97 162.34 123.47 160.9 128.4C159.39 133.57 161.76 138.47 166.89 139.96C169.37 140.68 172.11 140.66 174.73 140.74C176.89 140.8 178.96 140.51 181.17 141.33C184.27 142.48 187.17 140.93 188.28 138.18C189.01 136.37 188.63 134.91 187.14 133.78C185.71 132.71 185 132.83 183.21 134.38C182.71 134.81 182.2 135.28 181.61 135.51C180.54 135.94 179.46 135.58 179.2 134.49C179.04 133.84 179.51 132.83 180.03 132.3C180.51 131.81 181.43 131.55 182.16 131.54C183.52 131.51 184.12 130.79 184.48 129.64C184.71 128.9 185.02 128.19 185.2 127.44C186.43 122.39 189.03 118.34 194.12 115.72ZM150.57 141.48C148.4 141.78 146.22 142.07 144.06 142.38C142.98 142.54 142.48 143.01 143.02 144.18C143.57 145.38 144.12 146.6 144.47 147.86C145.48 151.57 146.34 155.31 147.35 159.01C147.63 160.03 147.52 161.75 149.48 161.08C153.67 159.66 157.74 158.01 160.85 154.68C164.33 150.95 163.6 146.15 159.17 143.58C156.52 142.04 153.62 141.59 150.57 141.48ZM54.15 195.49C54.07 195.68 53.99 195.86 53.91 196.05C55.89 197.12 57.82 198.33 59.87 199.25C67.65 202.73 75.94 203.94 84.34 204.16C87.24 204.23 90.24 203.49 93.05 202.63C95.04 202.02 95.07 200.23 93.2 199.29C91.46 198.41 89.52 197.7 87.6 197.44C81.82 196.66 76.02 195.9 70.2 195.57C64.88 195.24 59.51 195.49 54.15 195.49ZM137.31 111.3C136.75 112.31 136.25 113.01 135.95 113.79C135.39 115.23 134.98 116.72 134.42 118.16C134.29 118.49 133.82 118.69 133.5 118.94C133.27 118.61 132.87 118.29 132.84 117.94C132.77 117.29 132.96 116.62 132.95 115.96C132.92 114.51 133.42 112.97 132.2 110.93C131.77 112.62 131.45 113.63 131.26 114.67C130.95 116.29 130.79 117.95 130.42 119.56C130.32 119.99 129.75 120.58 129.36 120.61C128.99 120.64 128.45 120.09 128.22 119.67C127.77 118.84 127.48 117.93 126.97 116.7C126.43 120.37 126.6 122.76 127.23 124.87C127.69 126.44 128.65 127.21 130.21 127.58C135.18 128.75 139.91 126.97 143.06 122.65C141.76 122.79 140.38 124.48 139.21 122.79C138.28 121.46 139.54 120.33 140.2 119.22C140.31 119.03 140.45 118.85 140.54 118.65C141.11 117.45 142.46 116.5 141.8 114.88C140.93 115.79 140.05 116.69 139.18 117.6C138.4 118.41 138.04 120.08 136.54 119.39C136.21 119.24 136.58 117.41 136.76 116.37C137.02 114.83 138.16 113.4 137.31 111.3ZM131.32 171.53C131.35 171.32 131.37 171.11 131.4 170.9C130.42 170.46 129.46 169.95 128.45 169.6C122.84 167.7 117.23 165.83 111.61 163.97C111.2 163.83 110.77 163.67 110.35 163.67C110.09 163.67 109.69 163.9 109.6 164.13C109.51 164.35 109.64 164.8 109.83 164.97C110.22 165.34 110.7 165.63 111.18 165.89C116.13 168.58 121.39 170.48 126.88 171.64C128.3 171.94 129.84 171.59 131.32 171.53ZM146.21 96.27C143.16 97.43 140.7 98.23 138.37 99.32C137.33 99.8 136.44 100.77 135.74 101.72C135.4 102.19 135.44 103.22 135.72 103.78C135.91 104.16 136.84 104.33 137.43 104.3C138.05 104.27 138.7 103.96 139.25 103.64C142.06 102.03 144.28 99.85 146.21 96.27ZM120.77 40.69C122.89 38.28 124.04 35.93 124.68 33.36C124.85 32.68 124.3 31.83 124.09 31.06C123.43 31.38 122.55 31.52 122.14 32.04C120.24 34.43 119.89 37.18 120.77 40.69ZM135.29 143.03C135.21 143.98 135.39 144.08 137.17 143.36C140.83 141.88 140.95 141.44 138.35 138.49C137.87 137.94 137.18 137.58 136.59 137.13C136.32 137.88 135.96 138.61 135.79 139.38C135.58 140.34 135.52 141.33 135.29 143.03ZM78.61 134.88C77.77 131.25 77.36 128.3 75.26 126.01C74.97 125.7 74.36 125.69 73.89 125.54C73.81 125.96 73.57 126.41 73.67 126.78C74.44 129.68 75.88 132.2 78.61 134.88ZM177.05 69.57C177.13 69.28 177.21 69 177.28 68.71C175.7 68.05 174.14 67.36 172.53 66.78C172.26 66.68 171.62 67.03 171.49 67.32C171.37 67.59 171.59 68.19 171.86 68.42C173.38 69.74 175.15 70.01 177.05 69.57ZM104.16 184.4C107.59 184.6 111.03 184.81 114.46 185.01C111.09 183.8 107.62 184.14 104.16 184.4ZM181.49 132.85C181.13 133.19 180.77 133.49 180.48 133.85C180.45 133.89 180.95 134.44 180.96 134.43C181.43 134.09 181.88 133.7 182.33 133.32C182.1 133.2 181.87 133.07 181.49 132.85Z" fill="#FFDC96" stroke="#FFDC96" stroke-width="0.9987" stroke-miterlimit="10"/>
<path d="M321.36 41.8601V59.5301H316.05V36.6801H328.48V41.8501H321.36V41.8601ZM317.03 37.6801V58.5401H320.36V40.8601H327.48V37.6701H317.03V37.6801Z" fill="#FFDC91"/>
<path d="M352.59 52.4101C351.39 53.2201 349.93 54.2901 348.09 55.4601V68.5301C348.09 68.9501 346.39 69.9101 344.94 69.9101H344.2V57.9001C343.42 58.4001 342.57 58.8901 341.65 59.4201C341.54 59.8801 341.19 60.2001 340.8 60.3401L338.18 55.8801C339.46 55.6001 341.62 55.0701 344.2 54.3601V46.8501H342C341.22 49.6801 340.12 52.3001 338.74 54.2901L338.21 54.0401C339.02 50.2901 339.48 45.0401 339.56 40.4101L344.2 41.1201V36.8701L349.41 37.4001C349.3 37.9001 349.06 38.2501 348.1 38.3901V45.6801L349.76 42.9501C349.76 42.9501 351.81 44.9701 352.91 46.2801C352.84 46.6701 352.48 46.8501 351.99 46.8501H348.09V53.2601C349.54 52.8701 350.99 52.4801 352.48 52.0201L352.59 52.4101ZM344.2 45.8601V41.5401C343.99 41.8201 343.67 42.0001 343.1 42.0701C342.89 43.3501 342.6 44.6201 342.29 45.8601H344.2ZM368.1 52.5901C368.1 52.5901 370.37 54.4301 371.75 55.7101C371.64 56.1001 371.29 56.2801 370.79 56.2801H365.3V65.4201C365.3 68.1801 364.59 69.6701 359.67 70.0901C359.53 68.8901 359.32 68.0401 358.61 67.4301C357.9 66.8601 356.98 66.4401 354.86 66.1201V65.6601C354.86 65.6601 359.57 65.9401 360.42 65.9401C361.06 65.9401 361.23 65.7301 361.23 65.2301V56.2701H350.25L349.97 55.2801H361.23V51.0701L366.54 51.5301C366.43 52.0601 366.12 52.3401 365.3 52.4501V55.2801H366.04L368.1 52.5901ZM350.71 43.0201H357.97V36.7201L363.14 37.1801C363.1 37.6401 362.82 37.9601 362.01 38.1001V43.0201H365.13L367.25 40.2601C367.25 40.2601 369.69 42.1401 371.18 43.4801C371.07 43.8701 370.72 44.0501 370.19 44.0501H362.01V49.4701H364.45L366.5 46.8101C366.5 46.8101 368.87 48.6201 370.29 49.9301C370.22 50.3201 369.83 50.5001 369.3 50.5001H352.23L351.95 49.4701H357.97V44.0501H351.03L350.71 43.0201ZM352.41 56.9801C362.18 59.1801 359.1 66.1901 355.46 63.6001C354.96 61.4401 353.41 58.8901 352.1 57.1901L352.41 56.9801Z" fill="#FFDC91"/>
<path d="M396.36 52.4401L399.94 55.3801C399.69 55.7001 399.27 55.9101 398.52 56.0201C398.2 63.7801 397.49 67.1801 395.76 68.4901C394.7 69.3401 393.35 69.7301 391.62 69.7301C391.62 68.6001 391.51 67.6401 391.05 67.1101C390.59 66.5801 389.7 66.1501 388.46 65.8701L388.5 65.3701C389.56 65.4801 391.3 65.5801 391.97 65.5801C392.5 65.5801 392.78 65.5101 393.07 65.2601C393.88 64.5901 394.38 61.3601 394.66 55.3801H389.13C388.35 60.8701 386.58 66.5401 380.81 70.0101L380.42 69.5501C384.81 64.8401 385.41 57.2301 385.56 50.6001C385.06 50.8101 384.43 50.9501 383.65 50.9501H382.98V37.5301L387.19 39.1601H393.74L395.58 37.1401L399.44 40.0801C399.23 40.3301 398.73 40.6801 398.02 40.7901V49.4301C397.98 49.7101 396 50.3901 394.73 50.3901H394.09V48.9401H386.72V49.6801C386.72 49.8201 386.51 50.0701 386.08 50.3201L390.72 50.7401C390.65 51.2401 390.33 51.5901 389.52 51.7001C389.45 52.5801 389.34 53.4701 389.24 54.3901H394.3L396.36 52.4401ZM386.73 40.1601V47.9501H394.1V40.1601H386.73ZM404.76 60.7301C404.76 61.0501 403.1 61.7901 401.61 61.7901H400.9V39.7301L406.07 40.1901C405.96 40.6901 405.68 41.0801 404.76 41.2201V60.7301V60.7301ZM413.36 37.8201C413.29 38.3501 412.94 38.6701 412.05 38.8101V64.8801C412.05 67.7801 411.41 69.4101 406.6 69.8701C406.46 68.4901 406.28 67.5301 405.71 66.9001C405.11 66.2601 404.26 65.8001 402.38 65.4801V64.9801C402.38 64.9801 406.31 65.2301 407.13 65.2301C407.73 65.2301 407.91 65.0501 407.91 64.5901V37.2901L413.36 37.8201Z" fill="#FFDC91"/>
<path d="M453.06 63.1801C453.06 63.1801 455.43 65.1601 456.85 66.5101C456.74 66.9001 456.39 67.0801 455.89 67.0801H440.84V68.7801C440.84 69.0601 439.64 69.9101 437.69 69.9101H436.98V50.1801C436.06 51.2801 435.07 52.3001 434 53.1901L433.65 52.8701C434.11 52.1301 434.5 51.3501 434.89 50.5301C434 51.3401 432.84 52.3001 431.42 53.4301V64.7601C431.42 67.7001 430.85 69.4001 426.32 69.8901C426.21 68.4401 426.04 67.4101 425.54 66.7001C425.01 66.0301 424.23 65.5701 422.64 65.2501V64.7201C422.64 64.7201 425.97 64.9701 426.75 64.9701C427.28 64.9701 427.46 64.7601 427.46 64.3301V56.4301C426.86 56.8501 426.22 57.3201 425.58 57.7801C425.51 58.2401 425.19 58.7001 424.77 58.8401L422.82 54.3101C423.74 54.0301 425.41 53.4601 427.46 52.7201V46.1001H423.28L423.03 45.1101H427.46V36.7501L432.74 37.2501C432.67 37.7801 432.31 38.1401 431.43 38.2801V45.1101H431.68L433.38 42.4901C433.38 42.4901 435.29 44.3301 436.39 45.5301C436.28 45.9201 435.93 46.1001 435.47 46.1001H431.43V51.2701C432.63 50.8501 433.87 50.3501 435.08 49.8901L435.15 50.0301C437.13 45.7401 438.51 40.5001 439.08 36.8201L444.68 38.4501C444.54 38.8401 444.26 39.1201 443.37 39.1601C442.84 40.6101 442.1 42.2801 441.17 43.9801L441.31 44.0201H450.55L452.6 41.2601C452.6 41.2601 454.94 43.1701 456.32 44.4801C456.21 44.8701 455.82 45.0501 455.33 45.0501H448.81V51.2501H449.84L451.79 48.5201C451.79 48.5201 453.95 50.4301 455.26 51.7101C455.15 52.1001 454.8 52.2801 454.27 52.2801H448.82V58.5501H449.85L451.8 55.8201C451.8 55.8201 453.96 57.7001 455.27 58.9701C455.16 59.3601 454.81 59.5401 454.28 59.5401H448.83V66.0901H450.95L453.06 63.1801ZM440.84 45.0401V51.2401H445.05V45.0401H440.84ZM445.06 52.2701H440.85V58.5401H445.06V52.2701ZM440.84 66.0801H445.05V59.5301H440.84V66.0801ZM444.17 36.5801C453.31 39.0601 448.88 45.8901 445.52 42.6701C445.63 40.6201 444.85 38.2801 443.85 36.7501L444.17 36.5801Z" fill="#FFDC91"/>
<path d="M472.15 41.0801H465.53L465.25 40.0501H472.01L471.62 36.7201L476.83 37.1101C476.79 37.5301 476.51 37.8501 475.8 38.0701L476.05 40.0501H477.08L478.96 37.4701C478.96 37.4701 481.08 39.2401 482.32 40.5201C482.25 40.9101 481.86 41.0901 481.36 41.0901H476.19L476.51 43.3201C475.91 44.1001 474.42 44.4501 472.54 44.3801L472.15 41.0801ZM478.38 57.5401C478.17 58.3901 477.92 59.2101 477.71 59.9101H492.62L494.5 58.1001L497.94 60.9001C497.69 61.1801 497.27 61.3601 496.59 61.4701C496.27 65.9301 495.6 68.1601 494.11 69.1201C493.19 69.7601 491.99 70.0801 490.36 70.0801C490.36 69.0901 490.25 68.2001 489.79 67.6701C489.29 67.1701 488.44 66.7901 487.31 66.5701L487.35 66.0701C488.34 66.1401 490.11 66.2501 490.71 66.2501C491.24 66.2501 491.49 66.2101 491.7 66.0001C492.23 65.6101 492.66 63.9101 492.9 60.9001H477.74L476.25 62.6001L472.67 60.3301C473.02 60.0501 473.52 59.7301 474.02 59.5201C474.52 57.8601 475.08 55.5501 475.33 54.1401H472.36C472.25 59.2001 471.55 65.6101 466.16 69.9301L465.77 69.6501C468.32 64.6201 468.43 58.3201 468.43 52.7901V43.5501L472.96 45.1801H482.1C481.85 45.1101 481.64 45.0001 481.39 44.8301C481.25 43.6601 480.47 42.3201 479.73 41.6801L480.01 41.4701C485.5 41.5401 485.11 44.6201 483.34 45.1901H492.12L494.17 42.6801C494.17 42.6801 496.47 44.4201 497.89 45.6501C497.82 46.0401 497.43 46.2201 496.93 46.2201H487.65V48.8401H491.01L492.75 47.0001L496.4 49.7301C496.19 49.9801 495.73 50.2601 495.13 50.4001V54.4001C495.13 54.4401 495.02 54.5101 494.88 54.5801C495.62 55.1501 497 56.1701 497.96 56.9901C497.85 57.3801 497.5 57.5601 497 57.5601H478.38V57.5401ZM474.49 62.2901C475.73 65.8701 474.6 68.3801 473.07 69.2301C472.01 69.8001 470.38 69.5501 469.95 68.2401C469.63 67.0701 470.34 66.1501 471.4 65.6901C472.57 65.1601 473.99 63.7801 473.99 62.2901H474.49V62.2901ZM472.36 46.2101V48.8301H476.47V46.2101H472.36ZM472.36 53.1501H476.47V49.8601H472.36V52.8001V53.1501ZM477.36 62.2901C483.38 65.8301 479.48 70.3301 477.29 67.6401C477.57 65.8701 477.33 63.8101 476.94 62.4301L477.36 62.2901ZM479.27 54.1401C479.13 54.8101 478.88 55.6601 478.67 56.5501H492.3L493.58 55.0301C493.05 55.1401 492.48 55.2401 492.02 55.2401H491.38V54.1401H479.27V54.1401ZM484.05 46.2101H480.01V48.8301H484.05V46.2101ZM484.05 53.1501V49.8601H480.01V53.1501H484.05ZM481.57 61.7901C488.65 64.1301 485.39 69.1601 482.81 66.8201C482.74 65.1601 481.89 63.2101 481.18 61.9701L481.57 61.7901ZM495.7 37.4601C495.7 37.4601 497.86 39.2301 499.1 40.5101C498.99 40.9001 498.68 41.0801 498.18 41.0801H491.27L490.81 43.8801C490.07 44.4501 488.44 44.6901 486.74 44.3801L487.24 41.0901H483.38L483.1 40.0601H487.42L487.92 36.7301L493.06 37.5801C492.99 38.0401 492.67 38.4301 491.71 38.5001L491.46 40.0601H493.87L495.7 37.4601ZM486.28 61.3301C493.15 62.0701 490.53 67.0301 487.91 65.1901C487.73 63.9101 486.81 62.4301 485.96 61.5801L486.28 61.3301ZM487.66 49.8601V53.1501H491.38V49.8601H487.66Z" fill="#FFDC91"/>
<path d="M515.5 64.8801V47.2001H520.81V70.0401H508.38V64.8701H515.5V64.8801ZM519.82 69.0501V48.1901H516.49V65.8601H509.37V69.0501H519.82Z" fill="#FFDC91"/>
<path d="M250.35 115.46C250 117.87 249.25 120.06 247.69 121.98C252.4 123.75 258.53 124.28 264.83 124.25V124.71C263.09 125.28 262.1 126.62 261.78 128.64C255.3 127.97 249.84 126.69 245.77 123.82C243.04 125.98 238.83 127.64 232.31 128.71L232.13 128.29C237.87 126.45 241.37 124.43 243.46 121.91C242.22 120.64 241.12 119.15 240.27 117.38L240.66 117.03C241.65 118.41 242.93 119.58 244.48 120.5C245.37 119.01 245.86 117.35 246.14 115.47H240.72V116.39C240.72 116.78 238.91 117.7 237.21 117.7H236.61V101.9L240.97 103.6H246.35V99.6301H232.93L232.65 98.6001H257.37L259.85 95.5901C259.85 95.5901 262.61 97.6401 264.31 99.0601C264.2 99.4501 263.81 99.6301 263.32 99.6301H250.53V103.6H256.02L257.93 101.51L261.93 104.56C261.72 104.84 261.29 105.16 260.55 105.3V116.46C260.51 116.74 258.43 117.49 257.08 117.49H256.37V115.47H250.35V115.46ZM240.75 104.62V108.94H246.38V104.62H240.75ZM246.28 114.46C246.35 113.58 246.39 112.65 246.39 111.66V109.96H240.76V114.46H246.28ZM256.4 114.46V109.96H250.56V111.55C250.56 112.54 250.52 113.53 250.45 114.45H256.4V114.46ZM250.56 104.62V108.94H256.4V104.62H250.56Z" fill="#FFDC91"/>
<path d="M307.05 113.72C306.77 114.11 306.2 114.22 305.21 114.29C299.54 122.72 290.62 127.18 275.43 128.56L275.25 128.06C282.16 126.4 287.82 124.27 292.32 121.3C291.72 121.51 291.01 121.48 290.2 121.09C289.67 119.53 288.22 117.87 286.76 116.7C283.93 118.12 280.77 119.29 277.41 120.1L277.2 119.71C282.76 117.16 287.79 113.23 290.91 109.69C286.59 111.74 281.35 113.2 274.97 114.01L274.76 113.55C284.43 110.72 291.83 106.64 296.4 100.66H289.07C288.01 101.37 286.91 102.04 285.71 102.71C292.08 102.96 290.63 108.48 287.23 107.17C286.63 105.93 285.25 104.55 283.9 103.63C281.46 104.83 278.73 105.86 275.9 106.57L275.65 106.22C281.25 103.42 286.35 98.82 288.65 95.28L294.88 96.84C294.7 97.26 294.21 97.55 293.04 97.55C292.26 98.26 291.41 98.97 290.45 99.67H296.75L299.09 97.47L303.3 101.05C302.98 101.37 302.41 101.51 301.42 101.58C299.4 104.02 296.99 106.18 294.05 107.96L298.9 109.09C298.72 109.55 298.23 109.83 297.02 109.83C296.1 110.68 295.07 111.49 293.97 112.34H300.45L302.79 110.11L307.05 113.72ZM292.56 113.33C291.32 114.18 289.98 114.99 288.56 115.77C293.62 116.27 294.33 119.38 293.09 120.76C295.96 118.71 298.33 116.26 300.21 113.32H292.56V113.33Z" fill="#FFDC91"/>
<path d="M346 113.79C346 113.79 348.62 115.91 350.18 117.4C350.07 117.79 349.68 117.97 349.19 117.97H335.31V123.81C335.31 126.71 334.6 128.31 329.47 128.73C329.33 127.42 329.12 126.5 328.41 125.86C327.74 125.22 326.89 124.76 324.8 124.44V123.98C324.8 123.98 329.37 124.26 330.25 124.26C330.82 124.26 330.99 124.05 330.99 123.62V117.95H317.21L316.93 116.92H330.99V112.56L333.5 112.77C334.24 111.6 334.95 110.11 335.45 108.94H326.56L326.35 108.13C324.26 111 321.22 113.27 316.97 114.86L316.76 114.47C322.67 110.5 324.91 105.01 325.4 98.6001H318.74L318.42 97.6101H336.94L338.68 95.5601L342.89 98.7501C342.61 99.1401 341.86 99.3501 340.98 99.4901C340.63 100.38 340.06 101.65 339.63 102.68H344.27L346.29 100.73L349.94 103.7C349.69 104.02 349.23 104.2 348.52 104.3C348.02 110.29 347.25 112.8 345.65 113.97C344.55 114.71 343.1 114.78 341.33 114.78C341.33 113.86 341.22 113.4 340.83 112.9C340.37 112.33 339.66 112.09 338.53 111.8V111.34C339.45 111.41 341.01 111.52 341.65 111.52C342.22 111.52 342.46 111.45 342.75 111.24C343.53 110.64 344.17 108.16 344.56 103.66H339.46L337.87 105.25L334.19 102.81C334.54 102.53 335.08 102.24 335.57 102.03C336.03 101 336.6 99.6601 336.99 98.6001H330C329.43 102.14 328.34 105.29 326.49 107.91H335.45L337.57 105.79L341.29 109.01C341.01 109.29 340.58 109.4 339.91 109.47C338.6 110.53 336.86 111.84 335.09 112.87L336.51 112.98C336.44 113.51 336.08 113.76 335.31 113.86V116.91H343.7L346 113.79Z" fill="white"/>
<path d="M375.15 117.4C376.71 121.23 376.25 124.13 375.04 125.44C374.23 126.4 372.46 126.36 371.85 125.16C371.67 124.77 371.6 124.38 371.67 124.03C371 124.7 369.83 124.81 368.8 124.14C368.41 123.36 367.88 122.55 367.28 121.77C365.47 124.46 362.99 126.83 359.63 128.71L359.21 128.39C362.04 125.91 364.06 122.9 365.44 119.57C363.74 117.83 361.76 116.2 360.02 115C360.52 113.26 361.08 110.82 361.61 108.13L360.87 108.31C360.62 108.77 360.2 109.05 359.81 109.12L358.89 104.83C359.74 104.87 360.87 104.83 362.22 104.79C362.89 101.07 363.46 97.49 363.64 95.4L368.74 96.22C368.63 96.64 368.39 97 367.36 97.1C367.04 99.01 366.51 101.7 365.91 104.64C366.72 104.6 367.54 104.53 368.39 104.5C368.43 103.19 368.46 101.88 368.43 100.6L373.85 101.48C373.71 102.05 373.32 102.4 372.47 102.44C372.43 103.01 372.4 103.61 372.36 104.18L373.78 104.04L373.82 104.54L372.3 105.07C371.91 109.74 371.1 114.38 369.18 118.46C371.59 120.16 372.33 121.79 372.19 122.92C372.4 122.71 372.61 122.5 372.9 122.32C373.79 121.47 374.88 119.31 374.67 117.4H375.15V117.4ZM366.47 116.8C367.53 113.44 368.06 109.89 368.31 106.32C367.39 106.6 366.43 106.89 365.37 107.17C364.73 110.07 364.06 113.01 363.42 115.39C364.56 115.85 365.59 116.34 366.47 116.8ZM392.75 114.78C392.5 115.1 392.11 115.28 391.37 115.38C391.09 122.5 390.48 125.97 388.89 127.24C387.9 128.05 386.59 128.44 384.82 128.41C384.82 127.42 384.71 126.53 384.18 126.04C383.65 125.51 382.44 125.08 381.06 124.8L381.1 124.34C382.45 124.45 384.64 124.55 385.35 124.55C385.95 124.55 386.2 124.51 386.45 124.27C387.19 123.6 387.62 120.41 387.83 114.81H377.84V115.41C377.84 115.66 376.67 116.54 374.79 116.54H374.12V96.3L378.33 97.93H386.26L388.24 95.45C388.24 95.45 390.51 97.15 391.89 98.35C391.78 98.74 391.43 98.92 390.9 98.92H384.7V103.31H385.62L387.43 100.94C387.43 100.94 389.55 102.57 390.76 103.77C390.69 104.16 390.34 104.34 389.84 104.34H384.71V108.59H385.63L387.44 106.15C387.44 106.15 389.56 107.81 390.77 109.02C390.7 109.41 390.35 109.59 389.85 109.59H384.72V113.84H387.48L389.36 111.96L392.75 114.78ZM377.27 117.44C382.58 121.76 379.11 126.44 377.02 123.82C377.41 121.77 377.2 119.29 376.77 117.55L377.27 117.44ZM377.84 98.92V103.31H381.17V98.92H377.84ZM381.17 104.34H377.84V108.59H381.17V104.34ZM377.84 113.83H381.17V109.58H377.84V113.83ZM380.36 116.7C386.38 119.85 383.23 124.56 381 122.19C381.18 120.42 380.61 118.26 379.9 116.91L380.36 116.7ZM383.47 115.6C389.74 117.69 386.98 122.51 384.71 120.45C384.82 118.86 384 116.94 383.08 115.81L383.47 115.6Z" fill="white"/>
<path d="M412.97 119.81C412.93 120.13 411.27 121.05 409.96 121.05H409.43V118.22H406.67V121.76C406.67 122.18 405.25 123.04 403.66 123.04H403.06V97.7801L406.85 99.4101H409.08L410.85 97.4601L414.43 100.29C414.15 99.6901 413.9 99.1201 413.62 98.5901L414.04 98.4101C423.04 103.26 419.74 110.24 416.41 107.19C416.23 104.99 415.35 102.44 414.43 100.28C414.18 100.56 413.69 100.85 412.98 100.99V119.81H412.97ZM409.43 117.19V100.4H406.67V117.19H409.43ZM430.43 106.89C430.43 106.89 432.94 108.84 434.47 110.25C434.36 110.64 433.97 110.82 433.44 110.82H425.15V127.39C425.15 127.78 423.45 128.63 421.96 128.63H421.15V114.92C420.97 115.2 420.58 115.38 419.91 115.42C418.46 119.49 415.31 124.06 410.88 126.72L410.6 126.44C413.47 122.76 415.38 116.98 415.95 113.02L421.16 114.58V110.83H413.93L413.65 109.8H421.16V95.4801L426.44 96.0501C426.37 96.5501 426.09 96.9001 425.17 97.0401V109.79H428.22L430.43 106.89ZM425.9 107.7C426.89 105.33 428.06 101.47 428.8 98.0301L433.97 99.8401C433.79 100.26 433.33 100.55 432.55 100.51C430.78 103.41 428.62 106.14 426.35 108.02L425.9 107.7ZM426.39 113.54C437.83 119.28 434.43 128.06 430.39 124.55C429.93 120.97 427.84 116.79 426 113.75L426.39 113.54Z" fill="white"/>
<path d="M453.49 105.93C453.35 106.25 453.06 106.5 452.39 106.57V127.43C452.35 127.75 450.62 128.63 449.06 128.63H448.28V109.82C446.97 111.34 445.55 112.72 444.03 113.93L443.61 113.65C446.48 109.19 449.38 102.21 450.83 95.41L456.53 97.11C456.35 97.57 455.89 97.89 455.08 97.85C454.09 100.58 452.88 103.02 451.54 105.22L453.49 105.93ZM473.71 110.71C473.71 110.71 476.33 112.76 477.89 114.15C477.78 114.54 477.39 114.72 476.9 114.72H467.52V127.43C467.48 127.71 466.21 128.6 464.08 128.6H463.34V118.47C463.16 118.51 462.99 118.51 462.77 118.47C460.15 122.08 456.75 124.88 453.42 126.65L453.03 126.33C455.08 123.82 457.56 119.64 459.12 115.56L463.33 117.47V114.71H453.87L453.59 113.72H463.33V108.27H460.74V109.62C460.74 109.87 459.54 110.58 457.48 110.58H456.77V96.54L461.13 98.2H470.05L471.96 96L475.68 98.83C475.47 99.11 475.11 99.33 474.33 99.47V109.03C474.33 109.21 473.02 109.91 470.89 109.91H470.15V108.25H467.49V113.7H471.35L473.71 110.71ZM460.75 107.24H470.17V99.24H460.75V107.24ZM468.43 116.59C480.72 120.49 477.92 128.67 473.74 125.87C472.75 122.9 470.13 119.32 468.07 116.8L468.43 116.59Z" fill="white"/>
<path d="M509.94 108.27C512.49 110.36 516.77 111.6 520.35 112.17L520.31 112.56C518.82 112.98 517.9 114.26 517.48 116.21C516.24 115.61 515.04 114.94 513.94 114.16C513.73 114.34 513.41 114.55 512.91 114.66V119.83C513.16 119.48 513.41 119.16 513.58 118.91L517.41 121.64C517.23 121.96 516.91 122.14 516.13 121.92C515.03 122.31 513.51 122.73 512.06 123.09C517.37 125.36 516.88 129.18 513.8 128.76C511.92 127.06 508.52 125.04 505.3 123.52L505.34 123.94C503.18 124.86 499.39 126.45 494.89 128.05C494.64 128.47 494.32 128.79 494.04 128.97L491.42 125.25C492.87 124.33 493.12 123.98 493.12 123.27V114C491.21 115.06 489.12 115.95 486.89 116.66L486.61 116.16C490.12 114.21 493.02 111.27 494.86 108.26H487.67L487.39 107.23H501.24V104.72H491.01L490.73 103.73H501.25V101.29H489.32L489.04 100.26H506.22C506.79 98.77 507.39 96.72 507.71 95.3L513.13 96.75C512.95 97.17 512.56 97.42 511.75 97.39C510.69 98.24 508.95 99.37 507.36 100.26H512.25L514.34 97.71C514.34 97.71 516.75 99.45 518.24 100.72C518.13 101.11 517.74 101.29 517.28 101.29H505.31V103.73H510.91L512.93 101.36C512.93 101.36 515.23 102.95 516.65 104.16C516.58 104.55 516.23 104.73 515.73 104.73H505.32V107.24H513.64L515.84 104.73C515.84 104.73 518.21 106.43 519.77 107.71C519.66 108.1 519.31 108.28 518.78 108.28H509.94V108.27ZM494.53 95.55C502.85 95.48 499.91 101.71 496.48 99.62C496.16 98.24 495.1 96.65 494.25 95.76L494.53 95.55ZM512.35 112.87C510.9 111.56 509.69 110.04 508.81 108.27H499.92C498.82 109.83 497.37 111.21 495.67 112.45L497.65 113.23H508.56L510.33 111.39L512.35 112.87ZM508.88 114.22H497.16V116.17H508.88V114.22ZM497.15 119.21H508.87V117.16H497.15V119.21ZM501.61 121.51C505.44 121.44 508.37 121.86 510.57 122.54C511.21 121.87 511.92 121.02 512.52 120.27C511.88 120.59 510.5 120.94 509.58 120.94H508.87V120.2H497.15V124.24C499.52 124.06 502.32 123.78 505.22 123.46C503.87 122.86 502.56 122.36 501.4 121.97L501.61 121.51ZM506.11 108.66C506.11 108.66 507.85 109.93 508.94 110.89C508.83 111.28 508.48 111.46 508.02 111.46H499.13L498.85 110.43H504.62L506.11 108.66Z" fill="white"/>
<path d="M540 100.23C540 100.23 541.91 101.72 543.05 102.81C542.98 103.2 542.62 103.38 542.13 103.38H529.63L529.35 102.39H538.38L540 100.23ZM537.52 106.89L539.08 104.87C539.08 104.87 540.82 106.29 541.91 107.31C541.84 107.7 541.49 107.88 540.99 107.88H530.86L530.58 106.89H537.52ZM530.87 112.45L530.59 111.46H537.53L539.09 109.44C539.09 109.44 540.83 110.86 541.92 111.88C541.85 112.27 541.5 112.45 541 112.45H530.87ZM542.09 116.8C541.91 117.01 541.45 117.3 540.85 117.44V125.69C540.81 125.97 539.08 126.79 537.84 126.79H537.24V125.02H534.27V127.22C534.27 127.54 532.75 128.35 531.22 128.35H530.69V114.43L534.37 115.95H536.92L538.58 114.18L542.09 116.8ZM532.21 96.1201C541.31 96.5401 538.05 103.42 534.44 101.01C534.12 99.3501 532.95 97.4701 531.89 96.3401L532.21 96.1201ZM537.24 124.03V116.95H534.27V124.03H537.24ZM554.03 115.14C555.94 118.43 559.45 120.98 562.85 122.22L562.78 122.61C561.33 122.96 560.3 124.17 559.8 126.12C556.82 123.89 554.81 120.45 553.53 115.99V127.64C553.49 127.85 552.4 128.67 550.52 128.67H549.85V119.11C547.83 122.12 544.93 124.6 541.31 126.51L540.96 126.05C544.18 123.25 546.48 119.22 547.8 115.14H542.06L541.78 114.11H549.86V110.32H547.13V110.85C547.13 111.1 546.03 111.91 544.23 111.91H543.63V96.2601L547.6 97.7801H555.85L557.59 95.8701L561.31 98.7001C561.1 98.9801 560.57 99.3001 559.86 99.4401V110.52C559.79 110.77 558.02 111.44 556.81 111.44H556.21V110.31H553.55V114.1H557.13L559.15 111.27C559.15 111.27 561.49 113.22 562.8 114.56C562.69 114.95 562.34 115.13 561.84 115.13H554.03V115.14ZM547.12 98.8101V103.52H550.1V98.8101H547.12ZM547.12 109.29H550.1V104.51H547.12V109.29ZM553.32 98.8101V103.52H556.19V98.8101H553.32ZM556.19 109.29V104.51H553.32V109.29H556.19Z" fill="#FFDC91"/>
<path d="M601.8 123.67C601.8 123.67 604.24 125.62 605.73 127C605.62 127.39 605.23 127.57 604.74 127.57H583.67L583.39 126.54H592.35V120.06H585.44L585.16 119.07H592.35V114.25C590.23 114.46 588.06 114.57 586.01 114.64C585.83 116.2 584.17 117.05 582.65 115.67C582.54 114.01 581.8 112.13 580.95 110.57V127.46C580.91 127.71 579.6 128.63 577.62 128.63H576.88V115.67C575.43 117.72 573.73 119.57 571.75 121.16L571.36 120.81C573.87 117.13 575.54 112.1 576.49 107.32H572.03L571.75 106.29H576.88V100.98C575.18 101.23 573.41 101.44 571.71 101.58L571.57 101.16C575.22 99.7401 579.61 97.1901 581.8 95.3901L586.44 99.2901C585.98 99.6801 585.24 99.7501 584.1 99.4001C583.21 99.6801 582.12 99.9701 580.95 100.21V106.3H581.34L583.18 103.75C583.18 103.75 585.2 105.52 586.4 106.76C586.29 107.15 585.94 107.33 585.44 107.33H580.94V109.53C584.48 110.81 585.83 112.61 586 114.06C590.36 112.89 595.6 110.91 598.64 109.31H598.43V107.79H590.5V108.75C590.5 109.1 588.8 109.99 587.21 109.99H586.64V96.7601L590.68 98.3901H598.12L599.96 96.3401L603.86 99.3201C603.65 99.6001 603.19 99.8901 602.48 100.06V108.21C602.44 108.46 600.96 109.1 599.65 109.27L603.65 113.06C603.23 113.45 602.41 113.45 601.31 113.02C599.93 113.3 598.3 113.55 596.49 113.8V119.08H598.72L600.84 116.32C600.84 116.32 603.21 118.2 604.63 119.51C604.56 119.9 604.17 120.08 603.67 120.08H596.48V126.56H599.67L601.8 123.67ZM598.44 106.78V99.3801H590.51V106.78H598.44Z" fill="#FFDC91"/>
<path d="M516.18 36.93C516.11 35.61 516.02 34.3 515.99 32.98C515.82 27.38 516.23 21.86 518.37 16.6C523.06 5.08997 535.95 2.28997 545.04 10.8C548.81 14.33 550.69 18.88 551.97 23.73C552.55 25.94 552.98 28.18 553.48 30.41C553.77 31.71 554.75 32.08 555.67 31.14C556.98 29.79 558.14 28.29 559.41 26.9C560.12 26.13 560.91 25.43 561.7 24.73C564.13 22.56 566.46 20.28 569.62 19.11C571.89 18.28 574.17 18.1 576.47 18.65C583.19 20.26 588.1 26.27 588.8 33.31C589.55 40.77 586.73 47 582.31 52.66C576.07 60.65 567.98 66.41 559.28 71.39C553.05 74.96 546.52 77.87 539.72 80.16C539.26 80.32 538.81 80.5 538.35 80.67C538.39 80.8 538.43 80.94 538.47 81.07C541.03 80.54 543.6 80.09 546.13 79.46C552.29 77.94 558.3 75.93 564 73.14C567.5 71.42 570.86 69.42 574.22 67.44C576.24 66.25 578.21 64.96 580.07 63.55C581.9 62.16 583.56 60.55 585.29 59.03C585.97 58.43 586.75 57.92 587.3 57.22C588.96 55.11 590.58 52.96 592.13 50.77C592.92 49.66 593.59 48.46 594.22 47.25C596.52 42.85 597.36 38.2 597.16 33.22C597.03 30.01 596.17 27.07 594.79 24.35C592.97 20.79 590.33 17.82 586.83 15.67C579.66 11.25 572.23 10.9 564.61 14.18C562.74 14.99 561.07 16.3 559.38 17.48C558.02 18.43 557.88 18.41 556.97 16.9C555.73 14.85 554.58 12.73 553.12 10.85C550.18 7.08997 546.52 4.20997 541.92 2.63997C535.83 0.559971 529.86 0.53997 524.22 3.94997C518.72 7.27997 515.98 12.51 514.79 18.62C513.63 24.57 514.26 30.47 515.68 36.31C515.74 36.54 515.83 36.76 515.9 36.98C516.01 36.95 516.09 36.94 516.18 36.93Z" fill="#FFDC91"/>
</g>
<defs>
<clipPath id="clip0">
<rect width="605.73" height="205.74" fill="white"/>
</clipPath>
</defs>
</svg>
