<svg width="440" height="81" viewBox="0 0 440 81" fill="none" xmlns="http://www.w3.org/2000/svg">
<g clip-path="url(#clip0)">
<path d="M381.85 80.57H40.29C18.13 80.57 0 62.44 0 40.29C0 18.13 18.13 0 40.29 0H381.85C404.01 0 422.14 18.13 422.14 40.29C422.13 62.44 404 80.57 381.85 80.57Z" fill="url(#paint0_linear)"/>
<path d="M88.66 56.08H55.77V52.72H65.38C64.2 45.97 62.62 40.16 60.65 35.28L63.27 33.45H57.1V30.05H70.83C70.2 28.28 69.37 26.52 68.34 24.78L71.98 23.54C73.09 25.61 74.04 27.78 74.84 30.04H87.68V33.44H80.94L83.71 35.23C82.98 40.33 81.48 46.16 79.2 52.71H88.66V56.08ZM80.49 33.44H63.83C65.99 39.17 67.67 45.59 68.87 52.71H75.56C78.05 45.61 79.69 39.18 80.49 33.44Z" fill="white"/>
<path d="M118.85 54.27L116.5 56.8C114.22 54.2 111.98 52.17 109.77 50.7C106.74 53.29 103.19 55.46 99.13 57.22L97.21 54.45C101.39 52.75 104.74 50.81 107.28 48.63C109.82 46.45 112.35 43.31 114.87 39.21L117.9 40.26C116.54 42.79 114.62 45.48 112.12 48.35C115.12 50.61 117.36 52.58 118.85 54.27ZM117.76 27.48V30.73H108.56C106.7 33.74 104.98 35.98 103.39 37.48C105.14 37.34 107.18 37.01 109.52 36.48C110.48 34.88 111.2 33.53 111.66 32.43L114.76 33.48C111.56 40.66 106.56 46.08 99.77 49.72L97.63 47.15C101.29 45.25 104.41 42.87 107 40C104.12 40.55 101.63 40.91 99.55 41.05L98.76 37.95C101.19 35.89 103.15 33.48 104.65 30.72H98V27.47H106.41C106.02 26.52 105.49 25.5 104.82 24.4L108.4 23.68C109.05 24.78 109.63 26.04 110.14 27.47H117.76V27.48ZM122.95 50.3H119.61V26.64H122.95V50.3ZM129.57 53.81C129.57 54.88 129.27 55.69 128.67 56.22C128.07 56.76 127.36 57.02 126.54 57.02C124.24 57.02 122.63 57 121.74 56.95L120.65 53.55C122.31 53.65 123.78 53.7 125.07 53.7C125.88 53.7 126.29 53.32 126.29 52.57V24.02H129.58V53.81H129.57Z" fill="white"/>
<path d="M143.87 48.1399C143.38 51.6399 142.6 54.6299 141.52 57.0999L138.84 55.9399C139.9 53.2399 140.66 50.43 141.11 47.5L143.87 48.1399ZM152.77 31.0599C150 36.0999 147.12 40.1599 144.14 43.2599C145.11 43.0999 146.46 42.7699 148.19 42.2799C147.98 41.6099 147.74 41.04 147.47 40.56L149.93 39.65C150.98 41.71 151.71 43.6999 152.13 45.6399L149.6 46.5499C149.45 45.7699 149.31 45.2199 149.18 44.8899C146.4 45.6699 143.28 46.3299 139.83 46.8899L139.15 44.2799C141.45 42.3099 143.63 39.8099 145.67 36.7999C144.07 37.0899 142.2 37.37 140.07 37.63L139.46 35.25C142.02 32.24 144.28 28.39 146.22 23.7L149.21 24.85C147.87 27.97 146.09 31.09 143.87 34.22C145.27 34.1 146.51 33.94 147.58 33.74C148.29 32.68 149.02 31.42 149.74 29.95L152.77 31.0599ZM148.95 55.5499L145.96 56.16C145.96 53.6 145.65 50.94 145.02 48.18L147.77 47.57C148.38 50.36 148.78 53.0199 148.95 55.5499ZM153.11 50.9399L150.65 51.8499C150.3 50.3599 149.76 48.91 149.02 47.49L151.48 46.77C152.11 48.12 152.65 49.5099 153.11 50.9399ZM159.57 42C159.78 46.94 157.5 51.7 152.73 56.27L150.49 54.16C153.77 51.38 155.74 48.32 156.42 44.99H152.59V42H159.57ZM172.53 53.33L170.26 56.1899C167.94 54.3699 165.79 51.75 163.79 48.36V54C163.79 55.13 163.35 55.9499 162.46 56.4599C161.57 56.9699 159.79 57.22 157.12 57.22L156.21 53.7799C157.9 53.8299 159.02 53.83 159.59 53.79C160.16 53.75 160.44 53.5399 160.44 53.1699V39.65H153.36V27.1299H158.05C158.74 26.1099 159.31 24.9699 159.77 23.7299L163.06 24.45C162.73 25.4 162.31 26.2899 161.8 27.1299H170.17V39.66H163.78V42.58C164.05 43.12 164.45 43.8199 164.98 44.6699C166.08 43.8699 167.4 42.64 168.95 40.99L171.26 43.08C170.03 44.41 168.49 45.82 166.64 47.31C168.07 49.27 170.03 51.28 172.53 53.33ZM166.93 32.02V29.86H156.67V32.02H166.93ZM166.93 36.97V34.7299H156.67V36.97H166.93Z" fill="white"/>
<path d="M213.58 56.15H180.58V52.75H194.16V24.02H197.69V35.39H211.96V38.72H197.69V52.76H213.58V56.15V56.15Z" fill="white"/>
<path d="M233.65 30.65H222.36V27.54H226.72C226.5 26.84 226.08 25.92 225.46 24.77L228.84 23.83C229.37 24.9 229.84 26.14 230.26 27.54H233.64V30.65H233.65ZM232.82 36.14H223.23V33.03H232.82V36.14ZM232.85 41.74H223.26V38.64H232.85V41.74ZM232.89 56.54H229.58V54.95H226.68V57.22H223.32V44.27H232.89V56.54V56.54ZM229.58 51.85V47.42H226.68V51.85H229.58ZM241.17 38.06H234.52V35.08H241.17V38.06ZM241.13 28.31H235.27V25.32H241.13V28.31ZM255.86 41.21L254.2 44.13C250.55 42.93 247.79 40.96 245.9 38.22C243.83 40.99 240.92 42.94 237.16 44.06L235.42 41.25C238.09 40.62 240.26 39.59 241.93 38.15C243.6 36.71 244.5 34.42 244.62 31.28H247.67C247.57 31.8 247.52 32.64 247.52 33.81C247.52 35.34 248.3 36.76 249.86 38.08C251.42 39.38 253.42 40.43 255.86 41.21ZM253.2 57.1H249.8V55.25H239.32V57.1H235.9V44.77H253.2V57.1V57.1ZM254.88 27.01C254.2 30.25 253.44 32.85 252.61 34.81L249.47 33.83C250.04 32.41 250.49 31.14 250.82 30H244.7C243.48 31.81 242.46 33.07 241.63 33.79L239.1 31.67C241.21 29.66 243.05 26.99 244.62 23.65L247.76 24.52C247.49 25.26 247.09 26.09 246.58 27.01H254.88V27.01ZM249.8 52.26V47.77H239.32V52.26H249.8Z" fill="white"/>
<path d="M276.94 30.54H263.88V27.51H268.8C268.5 26.5 268.14 25.55 267.71 24.66L271.04 23.76C271.62 25.12 272.07 26.37 272.41 27.51H276.96V30.54H276.94ZM275.61 36.18H264.78V33.15H275.61V36.18ZM275.61 41.63H264.78V38.64H275.61V41.63ZM275.61 56.51H272.25V54.81H268.13V57.1H264.79V44.24H275.62V56.51H275.61ZM272.25 51.78V47.27H268.13V51.78H272.25ZM296.38 28.42C296.38 34.92 296.29 40.59 296.12 45.43C295.95 50.26 295.7 53.19 295.37 54.2C295.04 55.21 294.48 55.95 293.69 56.41C292.9 56.87 291.48 57.1 289.45 57.1C288.56 57.1 287.73 57.08 286.96 57.03L285.76 53.82C287.16 53.89 288.96 53.93 291.14 53.93C291.37 53.93 291.63 53.82 291.9 53.61C292.17 53.39 292.33 53.1 292.38 52.73L292.77 46C292.99 41.91 293.1 37.1 293.1 31.57H282.73C282.2 32.51 281.49 33.59 280.61 34.82H290.07V51.03H279.02V36.79C278.64 37.25 278.27 37.61 277.93 37.88L276.08 34.92C278.83 32.11 281.11 28.35 282.92 23.65L286.06 24.67C285.62 25.92 285.06 27.17 284.4 28.42H296.38ZM286.81 41.32V37.88H282.43V41.32H286.81ZM286.81 47.91V44.27H282.43V47.91H286.81Z" fill="white"/>
<path d="M320.3 36.36C319.84 40.68 319.12 43.92 318.14 46.08L315.35 44.45C315.97 42.86 316.4 41.22 316.66 39.53H314.17V54.2C314.17 54.96 313.84 55.66 313.18 56.29C312.52 56.92 310.6 57.15 307.41 56.99L306.45 53.74C308.3 53.79 309.51 53.79 310.07 53.74C310.64 53.69 310.92 53.43 310.92 52.95V39.55H305.69V36.37H311.57C310.34 34.57 308.86 32.67 307.13 30.66L309.94 29.03C310.64 29.84 311.32 30.67 311.97 31.53C313.35 30.08 314.32 28.89 314.89 27.96H306.48V24.74H318.71V27.96C317.32 30.21 315.73 32.3 313.94 34.21C314.54 35.09 315.01 35.81 315.34 36.37H320.3V36.36ZM338.58 27.88H331.24C331.03 28.69 330.69 29.73 330.22 30.98H337.41V49.86H326.99L328.71 51.52C325.95 54.08 323.21 56.04 320.49 57.4L318.29 54.7C320.46 53.85 322.86 52.24 325.5 49.86H321.29V30.99H326.52C326.91 30.1 327.28 29.07 327.61 27.89H320.02V24.75H338.59V27.88H338.58ZM334.03 36.18V34.02H324.57V36.18H334.03V36.18ZM334.03 41.48V39.17H324.57V41.48H334.03ZM334.03 46.77V44.42H324.57V46.77H334.03ZM339.08 54.56L336.96 57.13C334.61 55.55 332.27 54.3 329.96 53.36L331.9 50.66C334.6 51.78 337 53.07 339.08 54.56Z" fill="white"/>
<path d="M352.44 48.4299C351.9 51.7699 351.09 54.7099 350.02 57.2599L347.03 55.8199C348.08 53.1699 348.85 50.3799 349.34 47.4499L352.44 48.4299ZM363.6 45.4599L360.72 46.6599C360.5 45.9299 360.22 45.1999 359.89 44.4599C355.76 45.5099 351.97 46.2599 348.51 46.7299L347.33 43.6999C350.21 41.1899 352.65 38.5899 354.65 35.9199C352.96 36.2499 350.94 36.55 348.59 36.83L347.8 33.7199C350.36 30.9199 352.47 27.5999 354.12 23.7599L357.22 25.1299C355.59 28.3399 353.8 31.0399 351.84 33.2199C353.6 33.0499 355.37 32.7799 357.14 32.4299C358.01 31.2199 358.87 29.8699 359.71 28.3799L362.59 30.0399C359.86 34.8299 356.45 39.09 352.37 42.83C354.27 42.61 356.32 42.2199 358.54 41.6699C358.35 41.1299 358.05 40.5599 357.62 39.9699L360.54 38.8199C361.59 40.3099 362.61 42.5199 363.6 45.4599ZM358.46 55.3199L355.23 56.1499C354.9 53.2799 354.37 50.7199 353.64 48.4799L356.82 47.9099C357.55 50.1999 358.1 52.6699 358.46 55.3199ZM363.34 53.4399L360.42 54.3799C360.15 52.4799 359.5 50.35 358.46 47.99L361.32 47.3099C362.32 49.6599 362.99 51.6999 363.34 53.4399ZM379.71 29.6699C379.7 33.4199 379.58 38.3499 379.35 44.4599C379.12 50.5799 378.7 54.0499 378.08 54.8899C377.46 55.7299 376.81 56.29 376.13 56.59C375.45 56.89 374.02 57.0299 371.82 57.0299C371.03 57.0299 370.19 57.0099 369.31 56.9799L367.92 53.65H373.63C374.09 53.65 374.46 53.54 374.75 53.33C375.04 53.12 375.23 52.8499 375.33 52.5399C375.43 52.2299 375.57 50.7899 375.75 48.2299C375.93 45.6699 376.07 43.09 376.17 40.49C376.27 37.89 376.32 35.42 376.32 33.08H367.17C366.2 35.2 365.2 36.9799 364.18 38.4199L361.41 36.4399C363.66 33.2399 365.47 29.0099 366.82 23.7599L370.11 24.4099C369.85 25.7699 369.32 27.5199 368.52 29.6799H379.71V29.6699ZM374.19 46.8799L371.44 48.7499C370.18 46.2099 368.1 43.3799 365.19 40.2699L367.76 38.2699C370.6 41.1899 372.74 44.0599 374.19 46.8799Z" fill="white"/>
<path d="M406.7 61.25C405.67 59.09 404.63 56.91 403.61 54.72C401.76 50.76 399.92 46.8 398.1 42.84C397.55 41.65 397.23 40.4 397.29 39.09C397.45 35.99 400.53 34.11 403.5 35.29C404.81 35.81 405.79 36.72 406.44 37.98C407.83 40.65 409.21 43.32 410.6 45.99C410.7 46.19 410.83 46.37 410.97 46.59C412.84 45.31 414.79 45.1 416.87 45.87C417.04 45.93 417.31 45.85 417.49 45.76C419.5 44.74 421.55 44.6 423.65 45.46C423.82 45.53 424.1 45.53 424.26 45.44C427.07 43.76 430.51 44.78 432.47 47.36C434.19 49.63 435.4 52.2 436.41 54.84C437.28 57.12 438.09 59.43 438.83 61.76C440.01 65.52 439.57 69.15 437.17 72.28C432.86 77.89 427.07 80.27 420.05 79.31C417.37 78.94 415.07 77.43 412.75 76.13C409.57 74.36 406.41 72.55 403.25 70.72C402.08 70.04 400.9 69.34 399.83 68.52C398.42 67.44 397.68 65.93 397.82 64.14C398.01 61.69 400.53 59.86 403.13 60.3C404.33 60.49 405.48 60.92 406.7 61.25ZM418.67 48.12C419.48 49.59 420.26 51 421.03 52.4C421.44 53.14 421.33 53.67 420.7 54.03C420.05 54.41 419.53 54.23 419.1 53.46C418.34 52.1 417.52 50.76 416.85 49.35C416.37 48.33 415.57 48.1 414.61 48.05C413.81 48.01 413.12 48.29 412.46 48.75C412.02 49.06 411.96 49.32 412.21 49.8C413.18 51.66 414.12 53.55 415.06 55.43C415.49 56.29 414.93 57.15 414.01 57.1C413.44 57.07 413.22 56.65 413 56.22C410.07 50.58 407.14 44.94 404.21 39.31C403.82 38.56 403.27 37.98 402.46 37.69C401.03 37.18 399.75 38.08 399.92 39.59C400.02 40.45 400.27 41.33 400.64 42.12C404.06 49.46 407.52 56.78 410.97 64.11C411.22 64.63 411.39 65.14 410.89 65.6C410.43 66.02 409.95 65.86 409.45 65.62C407.99 64.91 406.53 64.17 405.02 63.55C404.18 63.2 403.25 62.95 402.35 62.89C400.88 62.79 400 64.18 400.68 65.47C400.97 66.03 401.46 66.54 401.98 66.9C402.98 67.59 404.06 68.19 405.12 68.78C407.41 70.07 409.7 71.34 412 72.61C414.14 73.79 416.27 74.97 418.44 76.09C419.15 76.45 419.96 76.74 420.75 76.82C426.72 77.43 431.61 75.4 435.2 70.57C436.9 68.28 437.2 65.61 436.41 62.86C435.99 61.4 435.49 59.97 435 58.54C433.92 55.43 432.65 52.41 430.88 49.63C430.2 48.56 429.33 47.74 428.08 47.39C427.2 47.14 426.36 47.21 425.56 47.78C426.08 48.77 426.57 49.71 427.05 50.66C427.43 51.41 427.3 51.93 426.66 52.27C426.02 52.61 425.5 52.42 425.11 51.69C424.59 50.71 424.09 49.72 423.56 48.75C423.43 48.5 423.23 48.24 423 48.11C421.6 47.29 420.17 47.33 418.67 48.12Z" fill="#3D5E32"/>
<path d="M418.67 48.1199C420.17 47.3299 421.6 47.2899 423.02 48.0799C423.26 48.2099 423.45 48.4699 423.58 48.7199C424.11 49.6899 424.61 50.6799 425.13 51.6599C425.52 52.3899 426.04 52.5799 426.68 52.2399C427.32 51.9099 427.46 51.3799 427.07 50.6299C426.59 49.6799 426.1 48.7399 425.58 47.7499C426.38 47.1799 427.22 47.1099 428.1 47.3599C429.34 47.7099 430.22 48.5299 430.9 49.5999C432.67 52.3899 433.94 55.4099 435.02 58.5099C435.52 59.9399 436.02 61.3699 436.43 62.8299C437.22 65.5799 436.92 68.2399 435.22 70.5399C431.63 75.3699 426.74 77.3999 420.77 76.7899C419.98 76.7099 419.17 76.4299 418.46 76.0599C416.29 74.9499 414.15 73.7599 412.02 72.5799C409.72 71.3199 407.43 70.0399 405.14 68.7499C404.08 68.1499 403 67.5599 402 66.8699C401.48 66.5099 400.99 65.9999 400.7 65.4399C400.02 64.1499 400.9 62.7599 402.37 62.8599C403.27 62.9199 404.2 63.1799 405.04 63.5199C406.55 64.1399 408 64.8699 409.47 65.5899C409.97 65.8299 410.45 65.9999 410.91 65.5699C411.41 65.1099 411.24 64.5999 410.99 64.0799C407.54 56.7599 404.08 49.4299 400.66 42.0899C400.29 41.2999 400.04 40.4199 399.94 39.5599C399.77 38.0599 401.04 37.1499 402.48 37.6599C403.29 37.9499 403.84 38.5299 404.23 39.2799C407.16 44.9199 410.09 50.5499 413.02 56.1899C413.24 56.6199 413.47 57.0399 414.03 57.0699C414.96 57.1199 415.51 56.2599 415.08 55.3999C414.15 53.5199 413.21 51.6299 412.23 49.7699C411.98 49.2899 412.04 49.0299 412.48 48.7199C413.13 48.2599 413.83 47.9799 414.63 48.0199C415.59 48.0699 416.39 48.2999 416.87 49.3199C417.53 50.7299 418.35 52.0599 419.12 53.4299C419.55 54.1999 420.07 54.3799 420.72 53.9999C421.34 53.6399 421.46 53.1199 421.05 52.3699C420.26 50.9999 419.48 49.5899 418.67 48.1199Z" fill="white"/>
</g>
<defs>
<linearGradient id="paint0_linear" x1="0" y1="40.2864" x2="422.131" y2="40.2864" gradientUnits="userSpaceOnUse">
<stop stop-color="#2B3B22"/>
<stop offset="0.4576" stop-color="#456A44"/>
<stop offset="0.5536" stop-color="#53785A"/>
<stop offset="0.7592" stop-color="#2F4B26"/>
<stop offset="1" stop-color="#28361D"/>
</linearGradient>
<clipPath id="clip0">
<rect width="439.47" height="80.57" fill="white"/>
</clipPath>
</defs>
</svg>
