<svg width="171" height="161" viewBox="0 0 171 161" fill="none" xmlns="http://www.w3.org/2000/svg">
<path d="M71.85 160.15C110.427 160.15 141.7 128.877 141.7 90.3C141.7 51.7229 110.427 20.45 71.85 20.45C33.2729 20.45 2 51.7229 2 90.3C2 128.877 33.2729 160.15 71.85 160.15Z" fill="white"/>
<path d="M104.03 66.62C105.74 62.03 107.44 57.44 109.16 52.85C109.31 52.44 109.28 52.14 109.07 51.76C98.71 33.13 108.52 9.82 129.1 4.16C147.34 -0.85 166.18 10.82 169.83 29.42C170.07 30.63 170.18 31.87 170.35 33.09C170.38 33.28 170.43 33.47 170.47 33.66C170.47 35.05 170.47 36.44 170.47 37.83C170.3 39.07 170.21 40.33 169.95 41.55C167.18 54.78 159.33 63.52 146.39 67.36C137.85 69.89 129.55 68.68 121.71 64.41C121.36 64.22 121.07 64.17 120.68 64.32C115.95 66.09 111.21 67.85 106.48 69.61C106.38 69.65 106.3 69.71 106.2 69.76C105.9 69.76 105.59 69.76 105.29 69.76C103.77 69.03 103.43 68.22 104.03 66.62Z" fill="white"/>
<path d="M125.77 43.96C124.1 45.82 121.89 46.75 119.15 46.75C116.41 46.75 114.2 45.82 112.53 43.96C110.86 42.1 110.02 39.56 110.02 36.34C110.02 33.14 110.85 30.64 112.51 28.84C114.17 27.04 116.38 26.14 119.14 26.14C121.9 26.14 124.11 27.04 125.77 28.84C127.43 30.64 128.26 33.14 128.26 36.34C128.27 39.56 127.44 42.1 125.77 43.96ZM116.06 40.96C116.81 42.09 117.84 42.66 119.15 42.66C120.46 42.66 121.5 42.09 122.26 40.95C123.02 39.81 123.4 38.27 123.4 36.34C123.4 34.43 123.02 32.92 122.26 31.84C121.5 30.75 120.47 30.21 119.15 30.21C117.83 30.21 116.8 30.75 116.06 31.84C115.31 32.93 114.94 34.43 114.94 36.34C114.93 38.29 115.31 39.83 116.06 40.96Z" fill="white"/>
<path d="M138.55 46.75C135.87 46.75 133.86 45.96 132.51 44.37C131.16 42.79 130.49 40.34 130.49 37.04V28.03C130.49 27.61 130.64 27.25 130.95 26.95C131.25 26.65 131.62 26.49 132.03 26.49H133.7C134.14 26.49 134.5 26.64 134.8 26.95C135.1 27.25 135.24 27.62 135.24 28.03V37.53C135.24 39.37 135.51 40.69 136.05 41.47C136.59 42.25 137.42 42.64 138.56 42.64C139.7 42.64 140.54 42.24 141.09 41.45C141.65 40.66 141.92 39.35 141.92 37.52V28.02C141.92 27.6 142.07 27.24 142.38 26.94C142.68 26.64 143.05 26.48 143.46 26.48H144.97C145.4 26.48 145.77 26.63 146.07 26.94C146.37 27.24 146.51 27.61 146.51 28.02V37.03C146.51 40.35 145.85 42.8 144.54 44.38C143.23 45.96 141.23 46.75 138.55 46.75Z" fill="white"/>
<path d="M155.04 46.39C154.6 46.39 154.24 46.24 153.94 45.93C153.64 45.63 153.5 45.26 153.5 44.85V30.65C153.5 30.53 153.43 30.47 153.29 30.47H149.66C149.22 30.47 148.86 30.32 148.56 30.01C148.26 29.71 148.12 29.34 148.12 28.93V28.04C148.12 27.62 148.27 27.26 148.56 26.96C148.86 26.66 149.22 26.5 149.66 26.5H162.14C162.56 26.5 162.92 26.65 163.22 26.96C163.52 27.26 163.68 27.63 163.68 28.04V28.93C163.68 29.35 163.53 29.71 163.22 30.01C162.92 30.31 162.55 30.47 162.14 30.47H158.46C158.34 30.47 158.28 30.53 158.28 30.65V44.85C158.28 45.27 158.13 45.63 157.82 45.93C157.52 46.23 157.15 46.39 156.74 46.39H155.04V46.39Z" fill="white"/>
<path d="M70.04 158.15C108.617 158.15 139.89 126.877 139.89 88.3C139.89 49.7229 108.617 18.45 70.04 18.45C31.4629 18.45 0.190002 49.7229 0.190002 88.3C0.190002 126.877 31.4629 158.15 70.04 158.15Z" fill="#5A6648"/>
<path d="M102.22 64.62C103.93 60.03 105.63 55.44 107.35 50.85C107.5 50.44 107.47 50.14 107.26 49.76C96.9 31.13 106.71 7.82 127.29 2.16C145.53 -2.85 164.37 8.82 168.02 27.42C168.26 28.63 168.37 29.87 168.54 31.09C168.57 31.28 168.62 31.47 168.66 31.66C168.66 33.05 168.66 34.44 168.66 35.83C168.49 37.07 168.4 38.33 168.14 39.55C165.37 52.78 157.52 61.52 144.58 65.36C136.04 67.89 127.74 66.68 119.9 62.41C119.55 62.22 119.26 62.17 118.87 62.32C114.14 64.09 109.4 65.85 104.67 67.61C104.57 67.65 104.49 67.71 104.39 67.76C104.09 67.76 103.78 67.76 103.48 67.76C101.96 67.03 101.62 66.22 102.22 64.62Z" fill="#7F8460"/>
<path d="M123.96 41.96C122.29 43.82 120.08 44.75 117.34 44.75C114.6 44.75 112.39 43.82 110.72 41.96C109.05 40.1 108.21 37.56 108.21 34.34C108.21 31.14 109.04 28.64 110.7 26.84C112.36 25.04 114.57 24.14 117.33 24.14C120.09 24.14 122.3 25.04 123.96 26.84C125.62 28.64 126.45 31.14 126.45 34.34C126.46 37.56 125.63 40.1 123.96 41.96ZM114.25 38.96C115 40.09 116.03 40.66 117.34 40.66C118.65 40.66 119.69 40.09 120.45 38.95C121.21 37.81 121.59 36.27 121.59 34.34C121.59 32.43 121.21 30.92 120.45 29.84C119.69 28.75 118.66 28.21 117.34 28.21C116.02 28.21 114.99 28.75 114.25 29.84C113.5 30.93 113.13 32.43 113.13 34.34C113.13 36.29 113.5 37.83 114.25 38.96Z" fill="white"/>
<path d="M136.74 44.75C134.06 44.75 132.05 43.96 130.7 42.37C129.35 40.79 128.68 38.34 128.68 35.04V26.03C128.68 25.61 128.83 25.25 129.14 24.95C129.44 24.65 129.81 24.49 130.22 24.49H131.89C132.33 24.49 132.69 24.64 132.99 24.95C133.29 25.25 133.43 25.62 133.43 26.03V35.53C133.43 37.37 133.7 38.69 134.24 39.47C134.78 40.25 135.61 40.64 136.75 40.64C137.89 40.64 138.73 40.24 139.28 39.45C139.84 38.66 140.11 37.35 140.11 35.52V26.02C140.11 25.6 140.26 25.24 140.57 24.94C140.87 24.64 141.24 24.48 141.65 24.48H143.16C143.59 24.48 143.96 24.63 144.26 24.94C144.56 25.24 144.7 25.61 144.7 26.02V35.03C144.7 38.35 144.04 40.8 142.73 42.38C141.42 43.96 139.42 44.75 136.74 44.75Z" fill="white"/>
<path d="M153.23 44.39C152.79 44.39 152.43 44.24 152.13 43.93C151.83 43.63 151.69 43.26 151.69 42.85V28.65C151.69 28.53 151.62 28.47 151.48 28.47H147.85C147.41 28.47 147.05 28.32 146.75 28.01C146.45 27.71 146.31 27.34 146.31 26.93V26.04C146.31 25.62 146.46 25.26 146.75 24.96C147.05 24.66 147.41 24.5 147.85 24.5H160.33C160.75 24.5 161.11 24.65 161.41 24.96C161.71 25.26 161.87 25.63 161.87 26.04V26.93C161.87 27.35 161.72 27.71 161.41 28.01C161.11 28.31 160.74 28.47 160.33 28.47H156.65C156.53 28.47 156.47 28.53 156.47 28.65V42.85C156.47 43.27 156.32 43.63 156.01 43.93C155.71 44.23 155.34 44.39 154.93 44.39H153.23V44.39Z" fill="white"/>
<path d="M37.8 89.9C37.59 90.19 37.33 90.26 36.66 90.34C35.57 92.89 34.09 95.15 32.06 97.02C34.74 98.37 37.88 99.18 41.24 99.67L41.21 99.98C39.83 100.27 38.9 101.25 38.51 102.74C35.16 101.86 32.3 100.61 30.03 98.68C27.35 100.58 24 101.96 19.71 102.79L19.55 102.45C23.19 101.2 26.18 99.43 28.49 97.22C26.8 95.3 25.5 92.85 24.69 89.71H23.08C23.05 93.97 22.46 99.3 16.94 102.71L16.71 102.5C19.7 98.65 20.01 93.79 20.01 89.32V82L23.55 83.25H27.68V78.47L31.79 78.83C31.74 79.19 31.5 79.45 30.83 79.58V83.25H35.8L37.44 81.59L40.3 84.29C40.09 84.52 39.83 84.58 39.29 84.6C38.33 85.56 36.61 86.89 35.36 87.64L35.31 87.61L37.8 89.9ZM23.09 84V88.97H27.69V84H23.09ZM25.19 89.72C26.2 92.29 27.84 94.27 29.9 95.73C31.41 93.96 32.55 91.93 33.31 89.72H25.19ZM30.83 84V88.97H33.2L34.97 87.31L35.15 87.47C35.41 86.51 35.75 85.1 35.96 84.01H30.83V84Z" fill="white"/>
<path d="M69.16 80.8C68.98 81.01 68.61 81.24 68.07 81.35V84.42C68.04 84.6 66.56 85.07 65.68 85.07H65.19V84H50.84V87.85C50.84 92.69 50.58 98.85 45.51 102.83L45.2 102.65C47.75 98.36 47.96 92.9 47.96 87.88V78.91L51.29 80.13H64.94L66.27 78.67L69.16 80.8ZM65.34 88.76L67.71 91.05C67.53 91.26 67.16 91.47 66.75 91.52V99.79C66.75 101.56 66.02 102.6 62.88 102.73C62.88 101.87 62.65 101.4 62.31 100.96C61.92 100.52 61.14 100.18 59.92 99.97V99.66C59.92 99.66 62.05 99.79 63.3 99.79C63.69 99.79 63.82 99.69 63.82 99.45V96.2C62.08 97.08 59.87 98.12 57.01 99.22C56.88 99.53 56.65 99.79 56.33 99.84L55.11 96.75C56.93 96.62 60.47 96.18 63.82 95.53V90.88H55.16V92.39C64.08 91.22 63.79 95.56 61.48 95.28C60.34 94.6 57.89 93.67 55.16 93.04V93.79C55.16 96.55 54.72 100.45 50.17 102.76L49.96 102.5C52.01 99.95 52.17 96.62 52.17 93.79V88.9L55.65 90.12H58.17V84.43L61.99 84.79C61.96 85.1 61.76 85.34 61.16 85.41V90.12H64.38L65.34 88.76ZM65.18 83.27V80.85H50.83V83.27H65.18ZM52.6 85.35C59.46 86 57.2 91.04 54.6 89.28C54.34 87.93 53.33 86.45 52.39 85.51L52.6 85.35ZM62.19 89.64C62.76 88.52 63.52 86.73 64.11 85.04L67.75 86.63C67.59 86.92 67.23 87.07 66.68 87.02C65.35 88.14 63.79 89.2 62.47 89.88L62.19 89.64Z" fill="white"/>
<path d="M97.91 83.56C97.75 83.74 97.44 83.92 97.03 84V91.18C97 91.36 95.6 91.91 94.66 91.91H94.32L96.53 93.6C96.37 93.81 96.04 94.02 95.49 94.09V101.89C95.46 102.07 94.01 102.62 93.05 102.62H92.58V101.03H86.68V101.84C86.68 102.13 85.46 102.75 84.24 102.75H83.82V92.32C83.59 92.37 83.33 92.4 83.09 92.4H82.67V86.6C82.54 86.7 82.36 86.76 82.15 86.76H79.45V94.43C80.57 94.17 81.74 93.91 82.93 93.65L83.01 93.91C81.55 94.98 79.34 96.51 76.04 98.43C75.91 98.74 75.65 99 75.34 99.11L73.78 95.52C74.38 95.42 75.37 95.23 76.59 95V86.76H74.07L73.86 86H76.59V78.85L80.41 79.21C80.36 79.57 80.18 79.83 79.45 79.94V86H79.5L80.72 83.95C80.72 83.95 81.92 85.22 82.67 86.13V81.74L85.58 82.91H91.01C91.43 81.53 91.92 79.69 92.23 78.39L96.36 79.46C96.26 79.77 95.94 79.98 95.35 79.95C94.44 80.78 92.98 81.95 91.74 82.91H93.92L95.22 81.56L97.91 83.56ZM84.73 78.54C91.23 79.29 88.97 84.16 86.45 82.47C86.22 81.12 85.31 79.61 84.5 78.67L84.73 78.54ZM94.17 91.8V90.76H85.43V91.54C85.43 91.67 85.14 91.88 84.7 92.06L86.81 92.89H92.3L93.65 91.41L94.17 91.8ZM85.43 83.66V90H88.63V83.66H85.43ZM85.8 84.81C90.17 86.81 88.19 89.96 86.61 88.48C86.58 87.31 86.01 85.88 85.49 84.97L85.8 84.81ZM92.58 96.53V93.64H86.68V96.53H92.58ZM92.58 100.28V97.29H86.68V100.28H92.58ZM91.05 83.66V90H94.17V86.07C94.07 86.1 93.94 86.1 93.81 86.1C93.24 87.01 92.56 88.1 91.89 88.83L91.42 88.67C91.71 87.63 92.02 86.04 92.28 84.64L94.18 85.39V83.65H91.05V83.66Z" fill="white"/>
<path d="M126.57 91.83C126.36 92.12 125.95 92.19 125.22 92.25C121.06 98.44 114.51 101.71 103.35 102.73L103.22 102.37C108.29 101.15 112.45 99.59 115.75 97.4C115.31 97.56 114.79 97.53 114.19 97.24C113.8 96.1 112.73 94.87 111.67 94.02C109.59 95.06 107.28 95.92 104.81 96.52L104.65 96.23C108.73 94.36 112.42 91.47 114.71 88.87C111.54 90.38 107.69 91.44 103.01 92.04L102.85 91.7C109.95 89.62 115.38 86.63 118.74 82.24H113.36C112.58 82.76 111.77 83.25 110.89 83.75C115.57 83.93 114.5 87.99 112.01 87.03C111.57 86.12 110.55 85.11 109.57 84.43C107.78 85.31 105.77 86.07 103.69 86.59L103.51 86.33C107.62 84.28 111.36 80.9 113.05 78.3L117.63 79.44C117.5 79.75 117.14 79.96 116.28 79.96C115.71 80.48 115.08 81 114.38 81.52H119L120.72 79.91L123.81 82.54C123.58 82.77 123.16 82.88 122.43 82.93C120.95 84.72 119.18 86.31 117.02 87.61L120.58 88.44C120.45 88.78 120.09 88.99 119.2 88.99C118.52 89.61 117.77 90.21 116.96 90.84H121.72L123.44 89.2L126.57 91.83ZM115.93 91.54C115.02 92.16 114.03 92.76 112.99 93.33C116.71 93.69 117.23 95.98 116.32 97C118.43 95.49 120.17 93.7 121.55 91.54H115.93V91.54Z" fill="white"/>
</svg>
