<svg width="58" height="55" viewBox="0 0 58 55" fill="none" xmlns="http://www.w3.org/2000/svg">
<path d="M34.32 35.12L33.44 39.75H26.6L23.42 54.44H17.2L20.36 39.75C10.81 39.69 4.73 39.74 2.11 39.88C1.76 39.91 1.48 39.92 1.27 39.92C0.43 39.93 0 39.62 0 39C0 38.76 0.35 38.04 1.06 36.84C4.41 31.13 9.21 24.94 15.47 18.24C21.71 11.55 28.27 5.47 35.12 0H36.37L34.51 7.1L30.62 22.54L27.66 35.11H34.32V35.12ZM21.38 35.12C21.64 33.65 22.23 31.1 23.13 27.46L27.38 10.24C21.65 15.67 17.45 19.89 14.79 22.9C12.13 25.91 8.98 29.98 5.33 35.12H21.38Z" fill="#466142"/>
<path d="M53.42 43.5498C54.57 43.5498 55.53 43.9798 56.31 44.8498C57.09 45.7198 57.48 46.8098 57.48 48.1398C57.48 50.0498 57.02 51.5498 56.11 52.6398C55.2 53.7298 54.05 54.2698 52.67 54.2698C51.52 54.2698 50.56 53.8698 49.78 53.0598C49 52.2498 48.61 51.2098 48.61 49.9498C48.61 48.0998 49.15 46.4798 50.24 45.0998C51.04 44.0598 52.1 43.5498 53.42 43.5498Z" fill="#466142"/>
</svg>
