<svg width="354" height="51" viewBox="0 0 354 51" fill="none" xmlns="http://www.w3.org/2000/svg">
<g clip-path="url(#clip0)">
<path d="M330.43 50.6H21.37C9.57 50.6 0 41.03 0 29.23V29.22C0 17.42 9.57 7.84998 21.37 7.84998H330.43C342.23 7.84998 351.8 17.42 351.8 29.22V29.23C351.81 41.03 342.24 50.6 330.43 50.6Z" fill="url(#paint0_linear)"/>
<path d="M54.67 45.77H332.06C343.56 45.77 352.92 36.41 352.92 24.91C352.92 13.41 343.56 4.05002 332.06 4.05002H54.67V3.02002H332.06C344.13 3.02002 353.95 12.84 353.95 24.91C353.95 36.98 344.13 46.8 332.06 46.8H54.67V45.77Z" fill="#33422E"/>
<path d="M77.23 21.2C77.14 21.36 76.96 21.38 76.68 21.31C76.31 21.58 75.7 21.88 75.08 22.13C76 22.61 77.03 22.93 78.06 23.11L78.04 23.32C77.35 23.5 76.85 24.08 76.67 25.01C76.4 24.89 76.16 24.76 75.91 24.64V28.56C75.89 28.67 74.93 29.02 74.33 29.02H74.01V28.35H72.95V31.93C72.95 33.22 72.67 34.06 70.61 34.24C70.59 33.65 70.54 33.21 70.33 32.93C70.13 32.66 69.82 32.45 69.09 32.35V32.1C69.09 32.1 70.42 32.19 70.74 32.19C70.97 32.19 71.04 32.1 71.04 31.91V28.36H69.74V28.68C69.74 28.79 69.28 29.14 68.52 29.21L70.67 30.12C70.58 30.3 70.44 30.42 70.03 30.37C69.21 31.51 67.76 32.75 66.11 33.42L65.95 33.21C67.09 32.15 67.96 30.48 68.36 29.23H68.22H67.9V24.26C67.49 24.49 67.07 24.69 66.6 24.86V31.89C66.58 32.05 65.71 32.48 65.06 32.48H64.78V31.1H63.43V32.66C63.43 32.89 62.77 33.33 61.94 33.33H61.64V18.34L63.5 19.14H64.6L65.5 18.15L67.33 19.61L67.28 19.66H70C70.21 19 70.37 18.33 70.48 17.6L73.25 18.04C73.2 18.24 73.06 18.34 72.59 18.34C72.45 18.8 72.29 19.23 72.09 19.65H74.77L75.82 18.25C75.82 18.25 77.01 19.21 77.72 19.88C77.68 20.08 77.49 20.16 77.22 20.16H75.37L77.23 21.2ZM63.42 19.66V22.8H64.77V19.66H63.42ZM64.77 23.29H63.42V26.59H64.77V23.29ZM64.77 30.57V27.11H63.42V30.57H64.77ZM66.6 24.36C67.33 23.85 67.95 23.26 68.46 22.58C68.25 22.56 68.02 22.49 67.79 22.31C67.7 21.71 67.33 21 67.03 20.59L67.19 20.48C68.4 20.59 69.04 20.94 69.3 21.31C69.5 20.94 69.67 20.56 69.83 20.16H66.76L66.71 19.95L66.6 19.97V24.36ZM71.87 20.17C71.27 21.36 70.45 22.39 69.42 23.22L69.97 23.43H73.87L74.1 23.2C73.34 22.38 72.77 21.39 72.34 20.17H71.87ZM69.74 25.62H74.02V23.95H69.74V25.62ZM74.01 27.82V26.1H69.73V27.82H74.01ZM72.7 20.17C73.11 20.76 73.68 21.25 74.33 21.7C74.67 21.2 74.99 20.63 75.18 20.17H72.7ZM73.55 29.38C78.93 30.59 77.53 34.33 75.64 33.09C75.29 31.87 74.24 30.43 73.39 29.51L73.55 29.38Z" fill="#33422E"/>
<path d="M88.71 24.55V32.06C88.71 33.28 88.46 34.01 86.44 34.21C86.39 33.64 86.3 33.22 86.05 32.97C85.78 32.69 85.41 32.49 84.63 32.37V32.1C84.63 32.1 86.28 32.21 86.65 32.21C86.93 32.21 87.02 32.1 87.02 31.85V28.71H83.68C83.43 30.63 82.79 32.63 81.09 34.16L80.9 34C82.11 31.55 82.14 28.52 82.14 25.87V22.82C81.8 23.1 81.47 23.39 81.11 23.62L80.9 23.46C81.91 22.04 82.87 19.82 83.4 17.53L85.85 18.29C85.78 18.52 85.57 18.68 85.16 18.66C85.02 18.98 84.86 19.28 84.7 19.58H85.62L86.56 18.6L88.23 20.11C88.11 20.23 87.89 20.29 87.54 20.31C86.99 20.86 86.16 21.64 85.39 22.19H86.83L87.63 21.23L89.49 22.63C89.37 22.79 89.1 22.95 88.71 23.02V24.49C90.32 23.19 90.95 21.47 91.12 19.52H88.88L88.72 19.01H94.81L95.75 18.1L97.47 19.5C97.35 19.64 97.15 19.73 96.81 19.78C96.7 22.28 96.49 23.35 95.82 23.83C95.36 24.15 94.79 24.29 94.01 24.29C94.01 23.79 93.97 23.31 93.76 23.08C93.55 22.81 93.19 22.64 92.68 22.53V22.3C93.09 22.34 93.82 22.37 94.1 22.37C94.35 22.37 94.45 22.35 94.54 22.26C94.75 22.06 94.89 21.23 94.97 19.53H93.25C92.74 21.94 91.32 23.7 88.78 24.73L88.71 24.55ZM84.39 20.08C84 20.72 83.57 21.3 83.11 21.82L84.1 22.19H84.86C85.16 21.59 85.46 20.73 85.66 20.08H84.39ZM83.83 25.85C83.83 26.58 83.81 27.38 83.74 28.21H84.68V25.67H83.83V25.85ZM83.83 25.16H84.68V22.71H83.83V25.16ZM86.11 22.71V25.16H87.02V22.71H86.11ZM87.02 28.21V25.67H86.11V28.21H87.02ZM96.21 28.69C96.21 28.69 97.31 29.56 97.95 30.18C97.9 30.38 97.72 30.45 97.47 30.45H94.2V33.68C94.2 33.84 93.33 34.25 92.6 34.25H92.25V30.45H88.98L88.84 29.97H92.25V27.49H90.5C90.06 28.16 89.54 28.77 88.97 29.23L88.72 29.09C89.25 27.94 89.7 26.21 89.91 24.56L92.13 25.29C92.06 25.48 91.85 25.64 91.46 25.63C91.26 26.09 91.05 26.55 90.82 26.98H92.26V24.35L94.8 24.6C94.76 24.81 94.64 24.99 94.21 25.04V26.97H94.94L95.85 25.82C95.85 25.82 96.86 26.62 97.48 27.2C97.43 27.4 97.25 27.48 97.02 27.48H94.22V29.96H95.28L96.21 28.69Z" fill="#33422E"/>
<path d="M110.04 27.64C109.86 28.85 109.49 29.95 108.71 30.91C111.07 31.8 114.14 32.06 117.3 32.05V32.28C116.43 32.56 115.93 33.24 115.77 34.25C112.52 33.91 109.79 33.27 107.75 31.84C106.38 32.92 104.27 33.76 101.01 34.29L100.92 34.08C103.79 33.16 105.55 32.15 106.6 30.89C105.98 30.25 105.43 29.51 105 28.62L105.2 28.44C105.7 29.13 106.34 29.72 107.12 30.18C107.56 29.43 107.81 28.6 107.95 27.66H105.23V28.12C105.23 28.32 104.33 28.78 103.47 28.78H103.17V20.87L105.35 21.72H108.05V19.73H101.32L101.18 19.22H113.57L114.81 17.71C114.81 17.71 116.19 18.74 117.05 19.45C117 19.65 116.8 19.73 116.55 19.73H110.14V21.72H112.89L113.85 20.67L115.86 22.2C115.75 22.34 115.54 22.5 115.17 22.57V28.16C115.15 28.3 114.11 28.67 113.43 28.67H113.08V27.66H110.04V27.64ZM105.23 22.21V24.38H108.05V22.21H105.23ZM108 27.15C108.04 26.71 108.05 26.24 108.05 25.75V24.9H105.23V27.15H108ZM113.07 27.15V24.9H110.14V25.7C110.14 26.2 110.12 26.69 110.09 27.16H113.07V27.15ZM110.14 22.21V24.38H113.07V22.21H110.14Z" fill="#33422E"/>
<path d="M136.99 26.77C136.85 26.97 136.56 27.02 136.07 27.05C133.23 31.27 128.76 33.51 121.15 34.2L121.06 33.95C124.52 33.12 127.36 32.05 129.61 30.56C129.31 30.67 128.95 30.65 128.55 30.45C128.28 29.67 127.56 28.83 126.83 28.25C125.41 28.96 123.83 29.55 122.15 29.95L122.04 29.75C124.83 28.47 127.35 26.5 128.91 24.73C126.74 25.76 124.12 26.49 120.92 26.9L120.81 26.67C125.65 25.25 129.36 23.21 131.65 20.21H127.98C127.45 20.56 126.9 20.9 126.29 21.24C129.48 21.36 128.76 24.13 127.05 23.48C126.75 22.86 126.06 22.17 125.38 21.71C124.16 22.31 122.79 22.83 121.37 23.18L121.25 23C124.05 21.6 126.61 19.29 127.76 17.52L130.88 18.3C130.79 18.51 130.54 18.65 129.96 18.65C129.57 19.01 129.14 19.36 128.66 19.72H131.82L132.99 18.62L135.1 20.41C134.94 20.57 134.66 20.64 134.16 20.68C133.15 21.9 131.94 22.99 130.47 23.87L132.9 24.44C132.81 24.67 132.56 24.81 131.96 24.81C131.5 25.24 130.98 25.64 130.43 26.07H133.68L134.85 24.95L136.99 26.77ZM129.73 26.58C129.11 27.01 128.43 27.41 127.72 27.8C130.26 28.05 130.61 29.61 129.99 30.3C131.43 29.27 132.62 28.05 133.56 26.57H129.73V26.58Z" fill="#33422E"/>
<path d="M161.39 24.47C161.39 24.47 162.74 25.45 163.59 26.17C163.55 26.37 163.36 26.45 163.09 26.45H160.45V31.88C160.45 33.23 160.11 34.08 157.79 34.26C157.75 33.66 157.68 33.2 157.45 32.89C157.18 32.62 156.83 32.39 155.94 32.25V32.14C155.69 32.19 155.43 32.25 155.19 32.25L154.85 32.27V31.24H151.37V32.16C151.37 32.34 150.5 32.76 149.68 32.76H149.4V27.05L151.44 27.87H154.67L155.59 26.86L157.56 28.33C157.45 28.47 157.19 28.63 156.83 28.7V31.75C156.81 31.82 156.55 31.95 156.21 32.07C156.71 32.09 157.72 32.14 157.98 32.14C158.26 32.14 158.33 32.05 158.33 31.84V26.45H147.42L147.28 25.94H157.96V19.69H147.93L147.77 19.18H159.7L160.89 17.74C160.89 17.74 162.24 18.72 163.06 19.41C163.01 19.6 162.81 19.69 162.55 19.69H160.03V25.94H160.15L161.39 24.47ZM154.7 24.98V24.15H151.61V24.74C151.61 24.9 150.74 25.31 149.94 25.31H149.67V20.34L151.69 21.12H154.51L155.43 20.13L157.36 21.6C157.27 21.72 157.01 21.9 156.65 21.97V24.49C156.63 24.61 155.67 24.99 155.02 24.99H154.7V24.98ZM154.86 30.73V28.37H151.38V30.73H154.86ZM154.7 23.65V21.63H151.61V23.65H154.7Z" fill="#33422E"/>
<path d="M171.52 24.91C171.45 25.07 171.29 25.18 170.97 25.23V33.53C170.95 33.73 170.17 34.22 169.32 34.22H168.95V26.73C168.31 27.39 167.6 27.97 166.84 28.5L166.68 28.34C168.15 26.32 169.47 23.28 170.02 21.28L172.66 22.54C172.57 22.74 172.41 22.84 171.97 22.81C171.65 23.38 171.22 23.98 170.76 24.62L171.52 24.91ZM172.36 18.95C172.27 19.13 172.09 19.23 171.7 19.16C170.58 20.4 168.77 21.95 166.86 22.98L166.72 22.8C168.03 21.31 169.38 19.04 169.99 17.6L172.36 18.95ZM173.17 28.8C173.79 30.61 173.63 31.94 173.08 32.6C172.67 33.08 171.68 33.04 171.38 32.4C171.1 31.8 171.4 31.26 171.91 30.93C172.37 30.56 172.97 29.6 172.9 28.78L173.17 28.8ZM172.66 26.76V21.12L174.56 21.87H175.93C176 21.41 176.11 20.88 176.2 20.27H171.91L171.77 19.76H176.28C176.4 19.01 176.51 18.23 176.6 17.58L179.33 18.2C179.24 18.47 178.99 18.61 178.6 18.63L178.39 19.77H180.52L181.6 18.37C181.6 18.37 182.82 19.33 183.55 20C183.51 20.2 183.34 20.28 183.07 20.28H178.28C178.17 20.85 178.07 21.42 177.96 21.88H180.57L181.39 20.94L183.06 22.18C182.94 22.32 182.78 22.43 182.4 22.5V26.1C182.4 26.14 182.26 26.24 182.01 26.33C182.44 26.63 183.09 27.11 183.57 27.5C183.52 27.7 183.34 27.78 183.07 27.78H171.85L171.71 27.28H180.49L181.18 26.48C181.09 26.48 181 26.48 180.91 26.48H180.61V25.98H174.36V26.34C174.36 26.46 173.83 26.77 172.96 26.77H172.66V26.76ZM180.61 31.95C181.09 32.13 181.2 32.34 181.2 32.66C181.2 33.41 180.51 33.76 177.85 33.76H176.15C174.54 33.76 174.25 33.42 174.25 32.23V28.52L176.56 28.73C176.52 28.94 176.36 29.1 176.01 29.16V31.82C176.01 32.03 176.08 32.09 176.58 32.09H178.04H179.3C179.51 32.07 179.62 32.04 179.73 31.89C179.87 31.69 180.1 31.07 180.37 30.29H180.56L180.61 31.95ZM174.36 22.35V25.46H175.51V22.35H174.36ZM176.6 27.91C180.82 29.1 178.89 32.28 177.36 30.86C177.41 29.88 176.97 28.73 176.42 28L176.6 27.91ZM178.05 22.35H176.97V25.46H178.05V22.35ZM179.53 22.35V25.46H180.61V22.35H179.53ZM180.36 28.64C185.13 30.01 183.48 33.59 181.74 32.21C181.63 31.04 180.91 29.65 180.18 28.77L180.36 28.64Z" fill="#33422E"/>
<path d="M202.67 31.87C203.29 32.94 203.38 33.5199 203.08 33.7999C202.25 34.6199 200.79 33.85 199.99 33.13C197.11 30.52 196.1 26.6499 195.78 22.1299H186.93L186.77 21.62H195.75C195.68 20.36 195.64 19.05 195.64 17.7L198.44 17.9799C198.4 18.2099 198.24 18.42 197.8 18.49C197.78 19.54 197.78 20.58 197.84 21.61H199.86L200.69 20.62C200.55 20.6 200.41 20.5499 200.26 20.4799C199.96 19.7199 199.16 18.83 198.54 18.35L198.66 18.2099C201.98 18.0299 202.26 19.83 201.46 20.45C201.92 20.79 202.7 21.39 203.27 21.85C203.22 22.05 203 22.1299 202.76 22.1299H197.84C198.07 25.8599 198.89 29.1899 201.21 31.0599C201.46 31.3099 201.6 31.31 201.76 31.01C202.04 30.53 202.54 29.59 202.86 28.83L203.06 28.87L202.67 31.87ZM192.59 30.59C193.78 30.36 195.06 30.11 196.35 29.84L196.4 30.07C194.75 30.89 192.35 31.9699 188.7 33.3899C188.61 33.6399 188.43 33.7799 188.26 33.8499L186.91 31.6C187.67 31.49 188.95 31.2599 190.49 30.9799V25.69H187.53L187.39 25.19H192.82L193.94 23.75C193.94 23.75 195.18 24.73 195.94 25.4C195.89 25.6 195.71 25.68 195.46 25.68H192.58V30.59H192.59Z" fill="#33422E"/>
<path d="M222.75 19.89C222.63 20.03 222.38 20.19 222.02 20.26V33.18C222 33.34 221.04 33.82 220.28 33.82H219.96V31.65H209.61V33.41C209.61 33.68 208.79 34.16 207.92 34.16H207.58V18.5L209.76 19.42H219.77L220.76 18.3L222.75 19.89ZM219.97 31.14V28.21C219.58 28.32 219.05 28.35 218.34 28.35H217.31C215.93 28.35 215.73 27.9601 215.73 26.7701V19.92H213.99C213.9 24.27 213.67 27.4601 210.05 29.6101L209.84 29.3601C212.08 26.9601 212.01 23.88 212.02 19.92H209.62V31.13H219.97V31.14ZM217.54 19.92V20.0301V26.26C217.54 26.49 217.59 26.58 217.89 26.58H218.56C218.77 26.58 219.04 26.58 219.18 26.56C219.29 26.56 219.46 26.5601 219.55 26.5401C219.67 26.5201 219.83 26.4901 219.96 26.4501V19.92H217.54Z" fill="#33422E"/>
<path d="M234.16 28.12C233.17 28.67 231.84 29.4 230.01 30.29V33.64C229.99 33.78 229.48 34.24 228.31 34.24H228.04V31.21L227.67 31.39C227.58 31.62 227.42 31.78 227.23 31.85L226.08 29.56C226.54 29.49 227.22 29.36 228.05 29.2V18.79L229.98 19.66C230.69 19.06 231.44 18.33 232.07 17.66L234.29 19.38C234.15 19.56 233.99 19.58 233.62 19.49C232.56 19.83 231.19 20.15 230.02 20.38V22.85H230.98L231.97 21.52C231.97 21.52 233.07 22.44 233.74 23.08C233.69 23.28 233.51 23.36 233.24 23.36H230.01V25.99H231.02L232.03 24.64C232.03 24.64 233.15 25.56 233.82 26.2C233.78 26.4 233.59 26.48 233.34 26.48H230V28.81C231.28 28.56 232.68 28.24 234.12 27.92L234.16 28.12ZM242.06 26.31C241.95 26.51 241.76 26.56 241.33 26.59C240.74 28.08 239.93 29.39 238.83 30.51C240.13 31.33 241.63 31.88 243.25 32.25L243.23 32.46C242.38 32.64 241.76 33.26 241.46 34.25C239.88 33.58 238.6 32.78 237.59 31.64C235.99 32.85 233.95 33.73 231.34 34.27L231.23 34.04C233.52 33.21 235.35 32.02 236.71 30.51C235.98 29.37 235.43 27.99 235.06 26.23H234.01L233.85 25.73H239.07L240.21 24.63L242.06 26.31ZM233.26 25.21C234.64 23.79 234.77 21.96 234.77 20.49V18.17L237.01 18.97H238.47L239.45 17.94L241.22 19.38C241.11 19.5 240.9 19.59 240.58 19.65V22.42C240.58 22.6 240.62 22.67 240.81 22.67H241.09H241.41C241.5 22.67 241.68 22.67 241.76 22.65C241.87 22.63 242.03 22.6 242.13 22.56H242.31L242.4 22.61C242.83 22.82 242.97 22.98 242.97 23.34C242.97 24.09 242.33 24.44 240.8 24.44H240.07C238.76 24.44 238.63 24.03 238.63 22.88V19.49H236.7V20.5C236.7 21.9 236.35 24.16 233.4 25.4L233.26 25.21ZM235.41 26.24C235.89 27.61 236.62 28.65 237.54 29.52C238.25 28.51 238.78 27.43 239.15 26.24H235.41Z" fill="#33422E"/>
<path d="M262.18 31.87C262.8 32.94 262.89 33.5199 262.59 33.7999C261.76 34.6199 260.3 33.85 259.5 33.13C256.62 30.52 255.61 26.6499 255.29 22.1299H246.44L246.28 21.62H255.26C255.19 20.36 255.15 19.05 255.15 17.7L257.95 17.9799C257.91 18.2099 257.75 18.42 257.31 18.49C257.29 19.54 257.29 20.58 257.35 21.61H259.37L260.2 20.62C260.06 20.6 259.92 20.5499 259.77 20.4799C259.47 19.7199 258.67 18.83 258.05 18.35L258.17 18.2099C261.49 18.0299 261.77 19.83 260.97 20.45C261.43 20.79 262.21 21.39 262.78 21.85C262.73 22.05 262.51 22.1299 262.27 22.1299H257.35C257.58 25.8599 258.4 29.1899 260.72 31.0599C260.97 31.3099 261.11 31.31 261.27 31.01C261.55 30.53 262.05 29.59 262.37 28.83L262.57 28.87L262.18 31.87ZM252.1 30.59C253.29 30.36 254.57 30.11 255.86 29.84L255.91 30.07C254.26 30.89 251.86 31.9699 248.21 33.3899C248.12 33.6399 247.94 33.7799 247.77 33.8499L246.42 31.6C247.18 31.49 248.46 31.2599 250 30.9799V25.69H247.04L246.9 25.19H252.33L253.45 23.75C253.45 23.75 254.69 24.73 255.45 25.4C255.4 25.6 255.22 25.68 254.97 25.68H252.09V30.59H252.1Z" fill="#33422E"/>
<path d="M271.21 20.01C271.21 20.01 272.15 20.76 272.74 21.31C272.69 21.51 272.51 21.59 272.26 21.59H266.17L266.03 21.09H270.38L271.21 20.01ZM269.96 23.35L270.74 22.34C270.74 22.34 271.61 23.05 272.16 23.56C272.11 23.76 271.95 23.84 271.7 23.84H266.8L266.66 23.34H269.96V23.35ZM270.74 24.63C270.74 24.63 271.61 25.34 272.16 25.85C272.11 26.05 271.95 26.13 271.7 26.13H266.8L266.66 25.63H269.96L270.74 24.63ZM271.8 32.77C271.78 32.91 270.91 33.32 270.29 33.32H269.99V32.43H268.61V33.53C268.61 33.69 267.85 34.1 267.08 34.1H266.81V27.13L268.66 27.89H269.83L270.66 27L272.42 28.31C272.33 28.42 272.1 28.56 271.8 28.63V32.77V32.77ZM267.47 17.95C272.03 18.16 270.4 21.61 268.59 20.4C268.43 19.55 267.84 18.61 267.31 18.04L267.47 17.95ZM269.99 31.94V28.39H268.61V31.94H269.99ZM282.24 29.45C282.1 29.61 281.92 29.66 281.49 29.7C280.92 30.52 280.21 31.19 279.38 31.78C280.48 32.01 281.65 32.15 282.82 32.22V32.43C282.07 32.64 281.61 33.26 281.45 34.19C279.96 33.87 278.61 33.44 277.46 32.84C275.83 33.57 273.86 34.03 271.62 34.24L271.53 33.97C273.36 33.56 275.01 32.96 276.36 32.16C275.37 31.45 274.55 30.56 273.95 29.39H272.49L272.33 28.88H279.43L280.42 27.98H274.9V28.09C274.9 28.21 274.33 28.64 273.43 28.64H273.11V24.31C272.74 24.58 272.36 24.82 271.99 25.04L271.78 24.86C272.56 23.85 273.43 22.18 274 20.53L274.64 20.81V19.78H272.39L272.23 19.27H274.64V17.62L276.95 17.83C276.91 18.01 276.79 18.17 276.42 18.22V20.33L276.46 20.31C277.1 20.33 277.56 20.42 277.9 20.56V17.61L280.22 17.82C280.18 18 280.08 18.16 279.69 18.21V19.26H280.54L281.3 18.23C281.3 18.23 282.15 18.96 282.67 19.49C282.62 19.69 282.44 19.77 282.21 19.77H279.69V20.52C279.69 20.64 279.03 20.86 278.43 20.91C279.1 21.66 277.99 22.76 276.97 21.99C276.97 21.46 276.7 20.89 276.42 20.53C276.38 20.65 275.6 20.9 274.98 20.9H274.89L276.24 21.49C276.15 21.69 275.9 21.83 275.53 21.77C275.41 21.95 275.26 22.12 275.14 22.3H279.97L280.77 21.31C280.77 21.31 281.68 22.02 282.24 22.53C282.2 22.73 282.03 22.81 281.78 22.81H278.55V24H279.7L280.45 23.1C280.45 23.1 281.27 23.74 281.82 24.24C281.77 24.43 281.59 24.52 281.36 24.52H278.56V25.71H279.71L280.46 24.82C280.46 24.82 281.29 25.46 281.83 25.94C281.78 26.14 281.62 26.22 281.39 26.22H278.57V27.44H280.24L281.11 26.37C281.11 26.37 282.12 27.1 282.74 27.67C282.7 27.87 282.51 27.95 282.26 27.95H280.65L282.24 29.45ZM274.39 29.4C275.17 30.27 276.29 30.89 277.6 31.33C278.31 30.76 278.9 30.11 279.34 29.4H274.39ZM276.81 22.83H274.91V24.02H276.81V22.83ZM276.81 24.54H274.91V25.73H276.81V24.54ZM274.91 27.47H276.81V26.25H274.91V27.47Z" fill="#33422E"/>
<path d="M286.62 24.71C286.62 24.71 286.92 24.66 287.06 24.6C287.56 24.4 288.11 23.8 288.46 23.32H286L285.86 22.82H287.65V17.7L289.55 18.43H292.3L293.1 17.49C293.1 17.49 294 18.16 294.61 18.66C294.56 18.86 294.38 18.94 294.13 18.94H289.46V19.86H292.35L293.04 19.08C293.04 19.08 293.82 19.65 294.34 20.09C294.29 20.29 294.13 20.37 293.9 20.37H289.46V21.35H292.39L293.08 20.57C293.08 20.57 293.88 21.12 294.38 21.56C294.34 21.75 294.18 21.84 293.94 21.84H289.47V22.82H292.88L293.68 21.93C293.68 21.93 294.57 22.55 295.15 23.03C295.11 23.23 294.94 23.31 294.69 23.31H290.77C290.1 23.81 289.14 24.32 288.27 24.75C289.41 24.73 290.97 24.7 292.64 24.64C292.37 24.27 292.07 23.93 291.79 23.7L291.95 23.58C295.89 23.69 294.75 26.62 293.17 25.73C293.12 25.52 293.01 25.29 292.89 25.07C291.67 25.39 289.89 25.85 287.92 26.28C287.83 26.44 287.71 26.55 287.58 26.62L286.62 24.71ZM300.09 26.13C300.09 26.13 301.31 27.04 302.06 27.69C302.02 27.89 301.83 27.97 301.58 27.97H292.69C292.42 28.54 292.1 29.09 291.7 29.62C292.34 30.29 293.19 30.81 294.2 31.18C295.25 30.36 296.12 29.37 296.81 28.14L299.15 29.51C299.03 29.69 298.83 29.78 298.4 29.7C297.81 30.48 297.1 31.17 296.34 31.74C297.85 31.99 299.55 32.08 301.34 32.06L301.32 32.29C300.54 32.54 300.08 33.23 299.92 34.19C297.77 33.94 295.98 33.55 294.49 32.82C292.43 33.78 290.09 34.15 287.78 34.13L287.73 33.9C289.63 33.53 291.49 32.91 293.07 31.93C292.41 31.4 291.85 30.76 291.38 29.98C290.28 31.24 288.7 32.34 286.41 33.12L286.29 32.94C288.58 31.61 289.86 29.8 290.55 27.95H286.56L286.42 27.45H290.73C290.93 26.81 291.08 26.19 291.17 25.59L293.9 26.19C293.83 26.42 293.62 26.58 293.21 26.56C293.12 26.86 293.02 27.15 292.89 27.45H298.99L300.09 26.13ZM301.22 18.72C301.1 18.9 300.92 18.95 300.56 18.86C298.93 19.8 296.87 20.44 294.9 20.74L294.74 20.46C296.41 19.8 298.02 18.79 299.27 17.5L301.22 18.72ZM302.32 23.45C302.18 23.63 302 23.65 301.61 23.56C299.64 24.48 297.33 24.98 295.06 25.19L294.94 24.91C296.93 24.29 298.74 23.33 300.26 22.03L302.32 23.45ZM295.4 22.58C297.03 21.98 298.61 21.02 299.82 19.76L301.77 21C301.65 21.18 301.49 21.21 301.11 21.14C299.5 22.03 297.47 22.61 295.54 22.86L295.4 22.58ZM295.88 25.44C299.82 24.84 299.06 27.94 297.35 27.29C297.05 26.67 296.3 25.94 295.74 25.59L295.88 25.44Z" fill="#33422E"/>
<path d="M8.61999 29.09C8.84999 28.69 9.17999 28.54 9.64999 28.56C10.59 28.59 11.52 28.55 12.46 28.58C12.78 28.59 13.11 28.66 13.41 28.78C13.95 28.99 14.21 29.42 14.09 29.99C13.99 30.46 13.83 30.94 13.62 31.37C13.26 32.13 12.85 32.88 12.43 33.62C10.15 37.71 11.89 42.98 17.57 44.07C20.77 44.68 23.6 43.8 25.69 41.24C27.37 39.18 27.63 36.82 26.57 34.37C26.16 33.43 25.64 32.55 25.18 31.63C24.99 31.26 24.8 30.89 24.68 30.49C24.36 29.42 24.82 28.66 25.92 28.62C27.66 28.56 29.41 28.51 31.13 28.67C33.42 28.89 34.77 31.36 33.88 33.48C33.41 34.59 32.91 35.68 32.89 36.92C32.83 39.79 34.08 41.9 36.59 43.24C40.18 45.16 44.86 44.25 47.2 41.15C48.73 39.13 48.99 36.9 48.06 34.54C47.91 34.15 47.73 33.78 47.59 33.39C46.77 31.17 48.21 28.85 50.56 28.64C51.51 28.56 52.46 28.59 53.41 28.59C53.96 28.59 54.3 28.88 54.3 29.32C54.3 29.74 53.94 30.02 53.39 30.03C52.5 30.05 51.6 30 50.72 30.09C49.13 30.25 48.47 31.46 48.99 32.99C49.4 34.19 49.91 35.42 49.98 36.66C50.21 40.77 47.47 44.23 43.28 45.34C42.68 45.5 42.06 45.59 41.45 45.71C40.94 45.71 40.44 45.71 39.93 45.71C39.21 45.56 38.47 45.46 37.76 45.25C33.2 43.93 30.75 40.05 31.65 35.51C31.82 34.64 32.25 33.81 32.55 32.96C33.04 31.57 32.4 30.27 30.95 30.14C29.32 29.99 27.67 30.11 26.01 30.11C26.07 30.24 26.14 30.38 26.21 30.52C26.68 31.43 27.17 32.33 27.63 33.25C28.47 34.92 28.81 36.68 28.45 38.52C27.78 41.92 25.62 44.02 22.45 45.15C21.65 45.43 20.78 45.53 19.94 45.71C19.46 45.71 18.99 45.71 18.51 45.71C17.53 45.47 16.52 45.33 15.58 44.99C10.78 43.26 8.69999 38.19 10.87 33.57C11.36 32.52 11.93 31.51 12.46 30.48C12.53 30.34 12.6 30.2 12.69 30.02C11.61 30.02 10.6 30.01 9.58999 30.03C9.16999 30.04 8.83999 29.93 8.60999 29.57C8.61999 29.39 8.61999 29.24 8.61999 29.09Z" fill="#33422E"/>
<path d="M22.27 16.11C21.12 17.31 20.27 18.7 19.69 20.24C19.47 20.82 19.33 21.43 19.14 22.02C19.08 22.21 19 22.46 18.85 22.56C18.63 22.7 18.28 22.86 18.09 22.77C17.9 22.69 17.71 22.3 17.74 22.07C18.04 19.9 18.96 17.98 20.25 16.24C22.06 13.8 24.39 11.95 27 10.43C27.63 10.07 28.27 9.73004 28.92 9.39004C29.32 9.18004 29.7 9.26004 29.95 9.62004C30.23 10.02 29.96 10.35 29.65 10.57C29.19 10.89 28.66 11.11 28.19 11.42C26.33 12.65 24.88 14.27 23.83 16.23C22.07 19.49 21.37 23.01 21.59 26.68C21.65 27.7 22.12 28.75 22.58 29.7C23.31 31.24 24.23 32.69 25 34.21C27.26 38.65 24 42.4 20.06 42.76C18.49 42.9 17 42.66 15.63 41.89C13.28 40.57 12.28 37.93 13.22 35.37C13.58 34.39 14.12 33.47 14.58 32.52C15.36 30.94 16.14 29.36 16.93 27.78C17.03 27.57 17.13 27.28 17.31 27.21C17.53 27.12 17.9 27.11 18.08 27.24C18.25 27.36 18.38 27.76 18.31 27.95C17.83 29.18 17.33 30.4 16.76 31.58C16.19 32.74 15.48 33.83 14.92 34.99C14.62 35.62 14.44 36.34 14.36 37.04C14.18 38.73 15.12 40.16 16.79 40.85C18.43 41.53 20.1 41.54 21.74 40.85C24.32 39.76 24.78 37.29 23.92 35.3C23.29 33.85 22.44 32.49 21.68 31.09C20.7 29.29 19.92 27.42 20.07 25.33C20.19 23.72 20.38 22.1 20.74 20.53C21.06 19.12 21.65 17.78 22.13 16.4C22.18 16.32 22.23 16.21 22.27 16.11Z" fill="#33422E"/>
<path d="M43.59 6.77C43.13 7.42 42.64 8.04 42.22 8.72C41.44 9.98 40.85 11.32 40.54 12.77C40.5 12.98 40.38 13.23 40.22 13.33C40.01 13.46 39.66 13.56 39.47 13.47C39.29 13.38 39.12 13.02 39.15 12.8C39.41 10.8 40.22 9.01 41.37 7.37C43.21 4.73 45.65 2.76 48.4 1.16C49.03 0.790002 49.67 0.450002 50.32 0.120002C50.73 -0.0899976 51.13 -0.0199976 51.38 0.370002C51.64 0.780002 51.36 1.1 51.05 1.31C50.49 1.69 49.85 1.97 49.3 2.37C46.17 4.63 44.43 7.78 43.53 11.47C43.04 13.49 42.85 15.56 43.02 17.62C43.09 18.41 43.41 19.21 43.77 19.93C44.51 21.42 45.35 22.86 46.14 24.32C46.81 25.57 47.31 26.87 47.15 28.32C46.95 30.21 45.94 31.61 44.34 32.53C41.83 33.97 39.28 33.95 36.81 32.44C34.62 31.09 33.81 28.79 34.66 26.23C35 25.21 35.51 24.24 35.98 23.27C36.78 21.63 37.63 20.02 38.43 18.38C38.64 17.96 38.87 17.71 39.35 17.87C39.76 18.01 39.94 18.42 39.73 18.91C39.17 20.19 38.59 21.45 37.97 22.7C37.47 23.71 36.88 24.68 36.37 25.68C34.68 28.98 36.61 31.51 39.8 32.05C40.96 32.24 42.07 32.1 43.16 31.64C45.01 30.87 46.31 28.54 45.5 26.47C45.09 25.42 44.55 24.43 44.03 23.43C43.51 22.41 42.91 21.44 42.41 20.41C41.4 18.34 41.38 16.15 41.69 13.91C42.02 11.51 42.58 9.18 43.65 7C43.67 6.95 43.69 6.9 43.71 6.85C43.66 6.81 43.63 6.79 43.59 6.77Z" fill="#33422E"/>
<path d="M19.33 39.98C18.78 39.99 18.44 39.71 18.45 39.26C18.45 38.83 18.76 38.57 19.3 38.55C20.51 38.5 21.34 37.69 21.39 36.51C21.41 36.07 21.63 35.81 22.07 35.78C22.5 35.75 22.81 36.05 22.82 36.53C22.84 37.73 22.3 38.68 21.33 39.31C20.76 39.69 20.04 39.85 19.39 40.11C19.36 40.07 19.35 40.03 19.33 39.98Z" fill="#33422E"/>
<path d="M44.25 27.48C44.21 29.24 42.27 30.92 40.54 30.69C40.13 30.64 39.88 30.38 39.89 29.97C39.9 29.52 40.19 29.27 40.64 29.27C41.64 29.26 42.33 28.8 42.71 27.87C42.77 27.72 42.8 27.56 42.81 27.4C42.85 26.77 43.07 26.49 43.54 26.49C44.01 26.51 44.26 26.85 44.25 27.48Z" fill="#33422E"/>
<path d="M42.17 37.1199C41.78 37.1099 41.47 36.78 41.47 36.4C41.48 36.01 41.8 35.7 42.19 35.7C42.58 35.71 42.9 36.0399 42.89 36.4199C42.89 36.8099 42.56 37.1299 42.17 37.1199Z" fill="#33422E"/>
<path d="M40.04 38.5299C40.05 38.9199 39.74 39.2499 39.35 39.2599C38.96 39.2699 38.63 38.9599 38.62 38.5699C38.61 38.1799 38.92 37.8499 39.31 37.8399C39.69 37.8299 40.03 38.1499 40.04 38.5299Z" fill="#33422E"/>
<path d="M42.9 39.28C42.89 39.67 42.56 39.98 42.17 39.98C41.78 39.97 41.47 39.64 41.47 39.25C41.48 38.86 41.81 38.55 42.19 38.55C42.59 38.57 42.9 38.9 42.9 39.28Z" fill="#33422E"/>
<path d="M40.04 40.69C40.04 41.08 39.72 41.4 39.33 41.41C38.94 41.41 38.62 41.09 38.62 40.7C38.62 40.31 38.94 39.99 39.33 39.98C39.71 39.98 40.04 40.3 40.04 40.69Z" fill="#33422E"/>
<path d="M18.63 24.98C18.62 25.37 18.3 25.68 17.91 25.68C17.53 25.68 17.2 25.35 17.2 24.97C17.2 24.56 17.53 24.25 17.95 24.27C18.36 24.27 18.64 24.58 18.63 24.98Z" fill="#33422E"/>
<path d="M40.07 15.66C40.08 16.05 39.77 16.38 39.39 16.39C39.01 16.4 38.67 16.08 38.66 15.7C38.65 15.31 38.96 14.99 39.35 14.98C39.75 14.97 40.06 15.26 40.07 15.66Z" fill="#33422E"/>
<path d="M323.91 26.53L314.74 21.24V31.83L323.91 26.53Z" fill="#24411D"/>
<path d="M337.15 26.53L327.98 21.24V31.83L337.15 26.53Z" fill="#24411D"/>
</g>
<defs>
<linearGradient id="paint0_linear" x1="0" y1="29.2235" x2="351.805" y2="29.2235" gradientUnits="userSpaceOnUse">
<stop stop-color="#DADADA"/>
<stop offset="0.2241" stop-color="#CBCBCB"/>
<stop offset="0.264" stop-color="#C8C8C8"/>
<stop offset="0.5225" stop-color="white"/>
<stop offset="0.6378" stop-color="#F0F0F0"/>
<stop offset="0.8583" stop-color="#C9C9C9"/>
<stop offset="0.8764" stop-color="#C6C6C6"/>
<stop offset="1" stop-color="#CFCFCF"/>
</linearGradient>
<clipPath id="clip0">
<rect width="353.95" height="50.6" fill="white"/>
</clipPath>
</defs>
</svg>
