<svg width="55" height="55" viewBox="0 0 55 55" fill="none" xmlns="http://www.w3.org/2000/svg">
<path d="M28.46 0H29.9L23.8 23.82L18.71 45.92C18.21 47.77 17.96 49.02 17.96 49.67C17.96 50.17 18.21 50.57 18.71 50.88C19.21 51.19 20.34 51.43 22.11 51.61C23.43 51.73 24.73 51.9 25.99 52.14L25.11 54.35C18.79 53.67 14.37 53.34 11.87 53.34C8.22 53.34 4.27 53.68 0 54.35L0.75 52.14C2.28 51.73 4.03 51.32 6 50.9C7.94 50.52 9.26 49.93 9.97 49.14C10.94 48.11 11.96 45.64 13.01 41.73L17.77 23.51C19.33 16.57 20.11 12.64 20.11 11.73C20.11 10.7 19.68 10.19 18.83 10.19C18.18 10.19 15.23 11.37 9.96 13.72L9.08 11.51C16.73 7.86 21.4 5.44 23.11 4.25C24.82 3.07 26.6 1.65 28.46 0Z" fill="#466142"/>
<path d="M50.86 43.77C52.01 43.77 52.97 44.2 53.75 45.07C54.53 45.94 54.92 47.03 54.92 48.36C54.92 50.27 54.46 51.77 53.55 52.86C52.64 53.95 51.49 54.49 50.11 54.49C48.96 54.49 48 54.09 47.22 53.28C46.44 52.47 46.05 51.43 46.05 50.17C46.05 48.32 46.59 46.7 47.68 45.32C48.48 44.28 49.54 43.77 50.86 43.77Z" fill="#466142"/>
</svg>
