<svg width="434" height="377" viewBox="0 0 434 377" fill="none" xmlns="http://www.w3.org/2000/svg">
<path d="M433.93 287.63C417.3 287.63 400.66 287.63 384.03 287.63C381.81 287.63 379.59 287.63 376.68 287.63C379.04 290.89 381.14 293.53 382.94 296.35C386.82 302.41 389.49 308.87 389.73 316.26C390.05 326.07 385.98 333.46 378.18 339.12C369.91 345.12 360.36 347.83 350.58 349.87C336.36 352.83 321.95 352.96 307.51 352.45C307.31 352.44 307.09 352.48 306.9 352.41C305.09 351.72 303.28 351.02 301.47 350.31C302.51 348.48 303.36 346.5 304.65 344.86C305.75 343.46 307.34 342.45 308.71 341.26L308.92 341.09L308.74 341.29C298.46 344.41 288.25 347.76 277.87 350.51C274.24 351.47 270.18 351.33 266.38 351.01C261.83 350.63 260.96 349.27 263.19 345.23C267.79 336.9 269.67 327.78 269.68 318.27C269.69 313.46 269.52 313.28 264.99 313.83C262.02 314.19 259.05 314.58 255.98 314.97C267.4 331.1 255.24 352.44 236.78 354.85C222.89 356.66 209.04 358.75 195.17 360.67C190.56 361.31 187.84 360.34 187.21 358.04C186.51 355.49 188.78 352.63 192.99 351.37C197.23 350.1 201.58 349.19 206.41 347.98C195.9 347.04 186 346.17 176.11 345.26C173.76 345.04 170.84 345.68 169.75 342.79C168.54 339.55 171.39 338.19 173.93 336.11C172.24 335.39 170.81 334.89 169.48 334.2C166.6 332.69 166.2 330.79 168.39 328.46C170.93 325.74 174.1 324.68 177.8 325.49C181.77 326.36 185.71 327.31 189.69 328.12C191.65 328.52 193.66 328.67 195.74 328.46C189.17 326.46 182.58 324.52 176.04 322.43C173.9 321.74 171.62 320.68 171.9 317.88C172.16 315.25 174.38 314.43 176.61 313.77C182.36 312.07 187.89 314.09 193.49 314.74C196.71 315.12 199.87 316.16 203.08 316.32C205.67 316.46 208.3 315.74 211.87 315.27C208.45 313.88 205.69 313.15 203.37 311.71C201.07 310.27 198.5 308.47 197.36 306.17C195.96 303.36 193.91 302.33 191.35 301.69C177.12 298.11 163.55 299.3 151.01 307.52C148.63 309.08 146.39 310.87 143.95 312.31C143.03 312.86 141.7 312.72 140.56 312.89C140.48 311.57 139.96 310.07 140.41 308.97C141.16 307.12 142.42 305.45 143.65 303.84C153.26 291.26 165.5 282.08 180.23 276.38C187.78 273.46 195.54 271.08 203.19 267.95C199.01 268.6 194.81 269.12 190.67 269.93C177.79 272.44 165.94 277.73 154.26 283.51C146.02 287.59 145.3 287.04 145.15 277.72C145.04 271.21 145.03 264.71 144.85 258.2C144.72 253.67 143.79 249.72 139.9 246.38C135.88 242.93 133.4 238.01 132.64 232.64C132.42 231.11 133.1 228.72 134.23 227.9C136.12 226.52 138.07 227.99 139.48 229.61C142.95 233.59 144.21 238.52 145.3 243.5C146.38 248.42 147.95 249.8 152.73 248C157.03 246.38 161.25 244.05 164.84 241.19C175.43 232.77 187.04 226.19 199.39 220.83C204.58 218.58 209.82 216.43 215.78 213.92C211.51 212.22 208.01 210.83 204.51 209.44C188.1 202.93 177.94 191.25 174.91 173.67C174.7 172.47 174.49 171.27 174.22 170.08C173.5 166.89 172.6 166.29 170.31 168.28C160.31 176.97 147.73 181.05 136.51 187.54C132.65 189.78 128.93 192.27 125.05 194.48C111.34 202.28 104.97 214.79 102.85 229.75C101.55 238.98 100.45 248.31 100.28 257.62C99.9 278.64 96.75 299.22 92.48 319.75C90.92 327.23 91.04 335.06 90.58 342.75C90.46 344.74 90.89 346.8 91.32 348.77C92.75 355.39 93.4 355.66 100.33 355.94C116.77 356.59 133.22 357.16 149.62 358.34C156.03 358.8 162.41 360.53 168.66 362.23C171.9 363.11 175.63 364.84 175.31 369.09C175 373.13 171.42 375.02 168 375.39C160.57 376.21 153 377.04 145.58 376.54C133.2 375.71 121 373.28 109.55 368.22C105.3 366.34 101.07 364.17 97.35 361.43C94.36 359.23 91.48 358.35 87.86 358.36C58.58 358.43 29.3 358.36 0.00999451 358.33C0.00999451 357.52 0.00999451 356.7 0.00999451 355.89C27.46 355.88 54.91 355.87 82.36 355.85C83.99 355.85 85.61 355.88 87.24 355.82C90.72 355.69 90.7 355.68 89.69 352.14C86.9 342.3 87.78 332.4 89.5 322.55C91.21 312.76 93.54 303.07 95.09 293.26C96.26 285.86 97.07 278.35 97.27 270.87C97.66 256.24 98.17 241.64 101.02 227.23C101.65 224.05 102.5 220.91 103.44 217.8C106.04 209.19 110.46 201.7 118.18 196.79C127.25 191.03 136.36 185.28 145.85 180.25C153.58 176.15 161.38 172.33 168.34 166.94C173.69 162.8 175.07 163.43 176.61 170.15C177.38 173.51 177.85 176.95 178.86 180.24C182.83 193.21 191.8 201.55 204.01 206.71C207.93 208.36 212 209.67 215.94 211.29C217.17 211.79 218.19 212.8 219.31 213.58C218.3 214.46 217.43 215.66 216.26 216.18C209.77 219.07 203.21 221.82 196.66 224.58C186.68 228.79 177.5 234.3 169 241.05C162.97 245.83 156.86 250.67 148.62 251.3C147.9 251.36 146.77 253.3 146.79 254.35C146.87 259.02 147.37 263.67 147.57 268.34C147.75 272.6 147.73 276.88 147.8 281.15C147.83 283.07 148.54 283.66 150.44 282.76C156.13 280.07 161.87 277.47 167.59 274.86C178.6 269.84 190.28 267.21 202.19 265.68C205.07 265.31 209.9 263.58 210.56 267.48C211.02 270.18 205.94 270.51 203.14 271.24C191.9 274.16 180.9 277.75 170.71 283.38C159.17 289.76 149.66 298.4 143.03 310.22C144.61 309.15 146.2 308.1 147.76 307C161.26 297.5 175.99 295.14 191.83 299.5C194.56 300.25 196.96 301.37 199.64 298.74C200.64 297.76 203.58 298.14 205.38 298.72C215.62 301.99 225.79 305.49 235.96 308.97C238.06 309.69 240.15 310.56 242.07 311.66C242.98 312.18 244.25 313.75 244.03 314.24C243.53 315.33 242.22 316.74 241.21 316.77C236.98 316.88 232.47 317.39 228.57 316.15C219.7 313.35 211.13 309.62 202.44 306.25C201.57 305.91 200.74 305.51 199.03 304.76C200.75 308.6 203.58 309.33 206.07 310.38C209.43 311.81 212.92 312.95 216.29 314.36C216.87 314.6 217.14 315.57 217.56 316.2C217.06 316.51 216.57 317.06 216.05 317.09C209.8 317.35 203.54 317.85 197.31 317.62C192.07 317.43 186.86 316.28 181.63 315.72C180.04 315.55 178.31 315.64 176.81 316.12C175.83 316.43 175.12 317.63 174.3 318.44C175.08 319.02 175.77 319.87 176.65 320.14C187.85 323.65 198.87 328.02 211.04 326.42C212.83 326.19 214.77 327.12 216.64 327.52C215.81 330.39 213.08 329.91 211.22 330.07C201.74 330.87 192.23 332.07 182.84 329.01C180.37 328.21 177.65 327.91 175.05 327.93C173.61 327.94 172 328.83 170.77 329.75C169.6 330.62 169.7 331.92 171.32 332.48C176.66 334.35 181.85 336.3 187.83 335.86C194.67 335.35 201.58 335.96 208.46 336.08C208.87 336.09 209.29 336.09 209.67 336.2C211.73 336.84 214.98 336.97 214.67 339.59C214.33 342.44 211.09 341.47 209.01 341.51C200.25 341.68 191.58 341.03 183 339.02C180.36 338.4 177.41 338.9 174.63 339.17C173.86 339.24 173.18 340.32 172.46 340.94C173.29 341.67 174.01 342.77 174.97 343.03C176.5 343.46 178.19 343.31 179.81 343.44C189.93 344.26 200.05 345.06 210.15 345.99C211.17 346.08 212.11 347.03 213.09 347.57C212.24 348.3 211.49 349.44 210.52 349.67C205.78 350.8 200.95 351.53 196.23 352.74C194.15 353.27 192.12 354.39 190.36 355.65C189.24 356.45 189.29 358.02 191.14 358.1C193.77 358.21 196.44 358.17 199.04 357.83C210.51 356.32 221.94 354.59 233.41 353.11C246.99 351.36 255.28 344.55 257.94 332.17C259.24 326.11 258.64 320.39 252.53 316.7C251.83 316.28 251.52 315.21 251.03 314.45C251.85 313.94 252.63 313.11 253.51 312.99C257.53 312.43 261.56 311.83 265.6 311.72C268.85 311.63 269.93 310.34 269.62 307.24C269 300.99 271.36 298.72 261.94 300.75C252.41 302.81 242.68 303.54 232.89 302.47C227.95 301.93 223.32 300.52 219.31 297.54C213.59 293.3 211.34 287.25 211.8 280.44C212.11 275.84 212.85 271.03 214.62 266.83C218.01 258.81 222.04 251.04 226.24 243.41C229.2 238.04 230.19 238 236.15 239.2C240.91 240.16 245.76 241.24 250.86 236.55C247.47 236.55 245.03 236.6 242.59 236.54C234.06 236.33 231.28 233.93 230.34 225.54C229.94 221.95 229.84 218.29 230.08 214.7C230.17 213.42 231.66 212.24 232.52 211.01C233.56 212.12 234.68 213.17 235.61 214.37C236.07 214.96 236.17 215.84 236.95 218.06C237.61 213.86 237.99 211.07 238.49 208.3C238.74 206.91 238.9 205.35 239.65 204.25C240.35 203.22 241.71 202.25 242.9 202.08C243.66 201.97 244.8 203.24 245.45 204.13C246.01 204.89 246.11 205.99 246.57 207.43C247.65 205.79 248.25 204.29 249.35 203.41C250.3 202.65 252.12 201.99 253.02 202.42C254 202.88 254.93 204.69 254.86 205.84C254.71 208.22 253.88 210.55 253.2 213.41C254.69 211.8 255.76 210.24 257.21 209.23C258.22 208.53 260.33 207.94 260.94 208.47C261.92 209.32 262.6 211.2 262.43 212.52C262.21 214.24 261.11 215.87 260.24 217.47C259.18 219.41 257.97 221.28 256.17 224.26C258.86 223.36 260.45 222.58 262.11 222.36C263.29 222.2 264.56 222.81 265.79 223.07C265.46 224.35 265.52 226.06 264.71 226.84C262.84 228.63 260.53 229.96 257.36 232.22C271.06 229.29 281.05 223.36 286.87 211.55C287.59 210.09 288.5 208.74 289.28 207.31C294.31 198.16 299.88 189.53 311.16 185.69C299.47 177.97 287.78 174.29 274.68 175.58C271.93 175.85 270.31 177.12 268.97 179.42C265.28 185.75 260.06 190.45 253.22 193.21C251.04 194.09 248.79 194.34 247.06 192.29C245.29 190.2 245.13 187.69 246.56 185.5C247.74 183.68 249.3 181.84 251.13 180.77C254.26 178.94 257.7 177.62 261.08 176.27C262.76 175.6 264.74 175.6 266.33 174.79C267.58 174.15 269.16 172.8 269.27 171.65C269.37 170.52 268.06 168.76 266.91 168.1C260.38 164.4 253.55 161.2 247.12 157.34C240.1 153.13 234 147.73 229.64 140.64C228.69 139.09 227.92 137.41 227.15 135.76C227.01 135.47 227.18 134.72 227.34 134.68C227.81 134.55 228.53 134.47 228.83 134.74C229.89 135.68 230.73 136.86 231.8 137.79C234.4 140.05 236.9 142.5 239.77 144.36C248.32 149.88 257.06 149.76 265.5 144.13C276.33 136.9 285.01 127.69 291.14 116.08C293.68 111.26 296.9 106.8 299.61 102.07C300.16 101.11 300.09 99.59 299.87 98.42C299.21 95.06 297.96 91.78 297.64 88.4C297.35 85.42 296.13 85.35 293.7 85.64C282.35 86.98 271.04 87.47 259.96 83.65C258.75 83.23 256.98 83.94 255.64 84.52C251.39 86.38 247.39 88.97 242.99 90.31C234.18 93 227.58 90.52 222.09 83.31C219.33 79.68 218.65 79.58 216.23 83.23C212.51 88.85 211.01 95.23 215.89 99.9C217.47 101.41 217.47 102.93 216.64 104.84C211.09 117.7 205.95 130.75 200.01 143.43C195.98 152.03 187.66 156.67 180.21 161.94C179.85 162.2 179.12 161.94 178.56 161.92C178.65 161.39 178.56 160.73 178.85 160.34C180.78 157.72 182.68 155.08 184.8 152.61C188.52 148.27 189.04 143.55 188.48 137.88C187.78 130.69 188.54 123.35 188.92 116.09C189.02 114.13 189.52 111.77 190.73 110.36C195.61 104.63 193.36 99.98 190.03 94.35C184.75 85.42 182.66 75.51 185.18 65.03C186.31 60.31 188.34 56.09 192.32 53.31C206.01 43.75 216.43 31.21 226.52 18.06C240.74 -0.469995 263.36 -4.99999 285.81 5.68001C307.36 15.93 319.8 33.38 323.66 56.89C324.31 60.87 324.56 64.97 324.54 69.01C324.52 76.08 326.62 82.62 329.03 89.09C331.51 95.75 334.25 102.3 336.69 108.98C339.11 115.62 338.87 121.85 332.71 126.56C330.64 128.15 331.87 129.17 332.91 130.44C339.8 138.84 342.7 148.44 342.11 159.3C341.42 171.97 335.95 179.71 324.01 183.99C322.12 184.67 320.22 185.29 317.76 186.14C323.97 191.34 329.72 196.28 335.64 201C336.57 201.74 338.4 201.91 339.63 201.59C345.71 200.03 351.68 200.64 357.73 201.75C367.39 203.53 374.47 208.66 379.07 217.31C382.64 224.03 384.86 231.23 385.7 238.72C387.33 253.2 379.52 266.05 365.46 273.2C355.71 278.16 345.69 278.77 335.31 275.69C333.38 275.12 331.41 274.68 329.46 274.18C328.64 273.78 327.82 273.39 326.99 272.99C326.58 272.56 326.17 272.14 325.76 271.71C325.45 271.59 325.14 271.47 324.84 271.35C325.18 271.44 325.51 271.53 325.85 271.62C326.26 272.05 326.67 272.47 327.09 272.9C327.91 273.3 328.72 273.69 329.54 274.09C334.68 278.43 334.93 280.53 330.5 286.04C323.2 295.13 313.9 301.73 303.11 305.77C295.37 308.67 287.12 310.21 279.09 312.34C278.31 312.55 277.5 312.74 276.7 312.8C273.58 313.02 272.38 314.43 272.17 317.77C271.8 323.41 270.92 329.07 269.71 334.6C268.89 338.33 267.27 341.91 265.76 345.45C264.84 347.63 265.5 348.65 267.62 348.58C272.07 348.43 276.73 348.8 280.92 347.6C291.04 344.7 300.93 340.97 310.95 337.69C312.51 337.18 314.29 337.33 315.96 337.17C314.98 338.57 314.22 340.2 312.98 341.32C310.57 343.49 307.85 345.31 305.35 347.39C303.91 348.59 304.45 349.46 306.11 349.68C308.73 350.04 311.36 350.53 313.98 350.54C330.08 350.57 346.09 349.6 361.54 344.61C366.14 343.13 370.6 340.99 374.81 338.59C385.66 332.41 390.73 320.66 385.76 307.09C383.27 300.28 379.23 294.51 374.57 289.07C373.86 288.24 373.62 287 373.16 285.95C374.26 285.64 375.36 285.14 376.47 285.07C378.7 284.93 380.94 285.03 383.18 285.03C400.1 285.03 417.01 285.03 433.93 285.03V287.63ZM241.63 271.74C239.6 274.17 237.58 276.59 235.55 279.02L235.26 279.37L235.47 278.95C237.51 276.53 239.55 274.12 241.58 271.7L241.78 271.54L241.63 271.74ZM235.51 144.81L235.35 144.6L235.54 144.78C240.34 150.46 246.33 154.64 252.76 158.18C257.91 161.02 263.28 163.47 268.47 166.23C269.81 166.94 271.16 168 271.99 169.24C272.79 170.45 272.51 172.83 273.45 173.36C274.62 174.03 276.57 173.25 278.18 173.23C280.41 173.2 282.64 173.19 284.86 173.33C293.16 173.85 300.88 176.56 307.74 181.01C312.76 184.27 317.38 184.43 322.52 182.15C323.63 181.66 324.85 181.41 325.96 180.9C332.17 178.06 336.7 173.71 338.59 166.92C342.11 154.23 339.47 142.88 331.54 132.51C329.61 129.98 327.54 129.17 324.3 129.26C321.01 129.36 317.54 128.48 314.42 127.31C312.12 126.45 311.48 123.92 312.48 121.58C313.43 119.36 315.57 118.8 317.62 119.64C320.6 120.85 323.52 122.31 326.28 123.97C329.54 125.93 330.36 126 332.89 123.33C336.65 119.37 336.1 114.64 334.61 110.16C332.38 103.43 329.55 96.89 327.05 90.24C324.19 82.61 322.12 74.86 321.96 66.56C321.46 39.75 309.21 19.93 285.2 8.03001C262.85 -3.04999 239.39 2.17001 225.55 22.81C217.43 34.92 207.51 45.29 195.47 53.59C189.44 57.75 187.04 63.69 186.76 70.8C186.34 81.59 189.14 91.33 196.04 99.69C198.01 102.08 197.78 103.64 195.88 105.93C192.41 110.1 190.68 115.11 190.5 120.54C190.34 125.41 189.96 130.35 190.54 135.15C191.31 141.55 191.09 147.6 187.98 153.36L187.64 153.52L187.91 153.29C193.25 149.65 197.24 144.91 199.78 138.94C204.14 128.66 208.42 118.34 212.95 108.13C214.48 104.68 214.99 101.81 212.21 98.67C211.14 97.46 210.94 95.29 210.8 93.52C210.4 88.59 212.14 84.09 215.41 80.67C218.28 77.66 218.83 74.71 218.27 70.84C217.6 66.13 218.3 61.49 221.18 57.45C223.25 54.54 226.09 53.18 228.36 53.98C230.64 54.78 231.82 57.6 230.51 61.39C229.13 65.38 227.22 69.26 225.03 72.88C221.68 78.43 221.52 80.62 226.42 84.77C228.6 86.62 231.62 88 234.45 88.47C242.15 89.75 248.81 86.75 254.82 82.18C256.91 80.59 258.59 79.95 261.33 81.45C263.88 82.86 267.11 83.22 270.1 83.6C279.02 84.74 287.93 84.43 296.77 82.83C299.25 82.38 300.19 83.12 300.08 85.55C299.86 90.5 300.41 95.26 303.06 99.65C303.48 100.34 303.12 102.19 302.47 102.74C297.78 106.7 295.49 112.19 292.85 117.42C286.73 129.55 277.57 138.88 266.36 146.29C259.5 150.82 252.05 151.86 244.28 148.9C241.3 147.75 238.44 146.19 235.51 144.81ZM340.55 204.26C344.94 205.72 348.32 207 351.79 207.96C355.31 208.93 358.92 209.55 362.47 210.41C363.18 210.58 363.8 211.14 364.46 211.52C363.75 212.07 363.09 213.01 362.33 213.1C351.83 214.38 346.51 221.34 343.14 230.44C342.44 232.34 342.07 234.37 341.3 236.24C340.06 239.21 339.93 241.04 343.61 242.8C348.77 245.27 349.73 250.84 346.79 255.84C343.63 261.21 337.7 263.54 331.54 261.32C328.16 260.1 325.03 259.77 321.48 260.43C315.56 261.52 309.69 260.51 304.14 258.31C297.38 255.63 293.37 250.63 292.39 243.29C290.77 231.19 298.83 218.44 311.48 215.93C320.06 214.23 325.95 209.09 332.5 204.45C333.88 203.47 333.81 202.6 332.62 201.6C328.88 198.47 325.24 195.21 321.39 192.23C313.71 186.29 311.38 186.16 303.84 192.19C300.72 194.68 298.13 197.94 295.7 201.15C293.63 203.89 291.89 206.94 290.43 210.06C284.39 222.95 274.2 230.57 260.61 233.95C257.41 234.75 254.64 235.95 252.21 238.44C248.58 242.15 243.92 243.37 238.74 242.16C237.16 241.79 235.55 241.55 233.96 241.23C231.72 240.78 230.06 241.44 228.81 243.46C222.36 253.86 216.51 264.54 214.14 276.71C211.92 288.08 218.38 297.2 229.74 299.59C239.71 301.69 249.57 300.65 259.39 298.9C270.1 296.99 269.31 297.64 266.93 287.35C265.29 280.26 262.77 273.38 260.64 266.41C259.75 263.49 257.94 262.62 255.06 263.75C250.47 265.55 246.17 267.44 243.96 272.49C242.77 275.22 240.65 277.6 238.68 279.9C237.32 281.49 235.5 284.13 233.26 282.18C231.28 280.46 233 277.93 234.36 276.2C236.23 273.82 238.12 271.26 240.54 269.53C244.81 266.46 246.19 262.38 246.31 257.48C246.36 255.46 246.35 253.36 246.92 251.46C247.79 248.55 250.19 247.8 252.57 249.76C254.42 251.28 256.14 253.16 257.3 255.24C259.16 258.57 261.15 259.51 265.15 258.63C272.91 256.93 280.87 256.65 288.62 259.17C295.25 261.33 300.16 265.46 301.34 272.59C302.52 279.7 298.48 284.82 293.13 288.48C288.49 291.66 283.26 294.07 278.07 296.32C271.52 299.16 271.43 298.94 272.15 306.07C272.61 310.66 272.86 311.05 277.25 310.42C291.07 308.42 304.23 304.42 315.83 296.39C321.5 292.46 326.9 288.13 330.49 281.96C331.79 279.72 331.51 278.35 329.28 277.02C326.67 275.47 324.15 273.75 321.74 271.9C321.1 271.41 321.02 270.21 320.68 269.33C321.73 268.98 322.93 268.14 323.8 268.39C325.92 269.01 327.89 270.16 329.92 271.08C343.79 277.39 357.17 276.83 369.72 267.85C379.05 261.17 384.71 252.16 383.57 240.38C382.99 234.41 381.06 228.47 379.1 222.74C374.45 209.28 361.53 200.25 340.55 204.26ZM356.24 211.99C350 209.78 344.6 208.07 339.38 205.92C337.43 205.12 335.95 205.11 334.3 206.17C332.76 207.15 330.94 207.89 329.75 209.2C325.14 214.28 319.26 216.52 312.74 217.87C303.17 219.85 297.76 226.28 295.11 235.34C292.32 244.85 296.69 253.86 306.14 256.61C310.71 257.94 315.74 257.9 320.57 258.04C324.55 258.16 328.36 257.61 332.42 259.12C338.12 261.24 343.46 258.38 345.5 253.32C346.84 249.99 346.14 247.3 343.4 245.23C340.77 243.26 339.46 243.48 336.16 246.33C335.25 247.12 334.3 247.98 333.21 248.42C331.23 249.22 329.26 248.55 328.77 246.55C328.48 245.36 329.34 243.49 330.29 242.52C331.18 241.62 332.86 241.15 334.2 241.12C336.7 241.06 337.81 239.74 338.47 237.63C338.89 236.27 339.46 234.95 339.8 233.58C342.09 224.27 346.88 216.81 356.24 211.99ZM276.12 259.38C272.12 259.93 268.13 260.46 264.13 261.04C262.14 261.33 261.23 262.21 262.22 264.36C263.24 266.56 264.25 268.8 264.89 271.13C266.74 277.95 268.33 284.84 270.18 291.65C270.69 293.53 270.49 296.69 274.1 295.46C281.81 292.85 289.3 289.8 295.03 283.68C301.43 276.83 300.09 267.99 291.95 263.25C287.07 260.42 281.72 259.58 276.12 259.38ZM98.72 358.76C98.58 359.1 98.43 359.45 98.29 359.79C101.94 361.77 105.48 363.98 109.26 365.67C123.57 372.07 138.82 374.3 154.29 374.7C159.62 374.84 165.15 373.47 170.32 371.88C173.97 370.76 174.04 367.46 170.6 365.73C167.39 364.12 163.84 362.8 160.3 362.32C149.66 360.88 138.99 359.49 128.28 358.87C118.45 358.31 108.57 358.76 98.72 358.76ZM251.71 203.85C250.67 205.71 249.76 207 249.21 208.43C248.18 211.07 247.43 213.83 246.4 216.47C246.16 217.08 245.29 217.44 244.71 217.91C244.28 217.3 243.56 216.72 243.49 216.07C243.36 214.88 243.71 213.65 243.69 212.43C243.63 209.76 244.55 206.93 242.31 203.18C241.52 206.29 240.94 208.15 240.58 210.06C240.01 213.05 239.71 216.09 239.04 219.06C238.86 219.85 237.81 220.93 237.1 220.98C236.43 221.03 235.43 220.02 235.01 219.25C234.18 217.73 233.64 216.05 232.72 213.78C231.72 220.54 232.05 224.92 233.19 228.8C234.04 231.68 235.8 233.11 238.66 233.79C247.8 235.94 256.51 232.67 262.31 224.72C259.93 224.98 257.39 228.09 255.23 224.99C253.53 222.54 255.83 220.46 257.05 218.42C257.26 218.07 257.5 217.74 257.68 217.38C258.73 215.17 261.21 213.42 260 210.45C258.39 212.12 256.79 213.79 255.18 215.45C253.74 216.94 253.08 220.02 250.32 218.75C249.72 218.47 250.4 215.1 250.72 213.19C251.18 210.35 253.29 207.73 251.71 203.85ZM240.7 314.68C240.75 314.29 240.8 313.9 240.84 313.51C239.03 312.71 237.28 311.76 235.42 311.13C225.11 307.63 214.77 304.2 204.43 300.76C203.67 300.51 202.88 300.21 202.11 300.22C201.63 300.22 200.9 300.65 200.73 301.06C200.56 301.47 200.8 302.28 201.15 302.61C201.88 303.29 202.76 303.82 203.64 304.3C212.75 309.25 222.42 312.75 232.53 314.88C235.13 315.42 237.97 314.78 240.7 314.68ZM268.09 176.21C262.47 178.35 257.94 179.82 253.67 181.82C251.77 182.71 250.11 184.49 248.84 186.23C248.21 187.1 248.28 188.98 248.81 190.02C249.16 190.72 250.87 191.03 251.95 190.98C253.09 190.92 254.28 190.35 255.31 189.76C260.46 186.81 264.54 182.8 268.09 176.21ZM221.29 73.94C225.19 69.51 227.31 65.17 228.48 60.45C228.79 59.2 227.79 57.64 227.39 56.22C226.17 56.8 224.56 57.07 223.81 58.02C220.31 62.44 219.67 67.49 221.29 73.94ZM248.01 262.25C247.87 264 248.19 264.19 251.47 262.86C258.2 260.14 258.43 259.33 253.64 253.89C252.75 252.89 251.49 252.21 250.41 251.38C249.91 252.76 249.25 254.1 248.94 255.52C248.53 257.29 248.42 259.12 248.01 262.25ZM143.72 247.25C142.18 240.57 141.42 235.14 137.56 230.93C137.03 230.35 135.9 230.34 135.04 230.06C134.89 230.83 134.46 231.66 134.64 232.34C136.05 237.68 138.69 242.32 143.72 247.25ZM324.82 127.08C324.96 126.55 325.11 126.03 325.25 125.5C322.35 124.29 319.47 123.01 316.52 121.95C316.03 121.77 314.85 122.41 314.62 122.94C314.4 123.44 314.81 124.55 315.3 124.97C318.08 127.4 321.33 127.89 324.82 127.08ZM190.73 338.36C197.05 338.73 203.37 339.11 209.68 339.48C203.47 337.25 197.1 337.88 190.73 338.36ZM333.01 243.52C332.35 244.14 331.69 244.7 331.15 245.36C331.09 245.43 332.01 246.45 332.04 246.43C332.91 245.8 333.73 245.09 334.56 244.4C334.13 244.15 333.7 243.91 333.01 243.52Z" fill="#7F8460"/>
</svg>
