<svg width="310" height="55" viewBox="0 0 310 55" fill="none" xmlns="http://www.w3.org/2000/svg">
<g clip-path="url(#clip0)">
<path d="M286.07 50.8099H19.93C8.92 50.8099 0 41.8899 0 30.8799V27.9899C0 16.9799 8.92 8.05994 19.93 8.05994H286.07C297.08 8.05994 306 16.9799 306 27.9899V30.8799C306 41.8899 297.08 50.8099 286.07 50.8099Z" fill="url(#paint0_linear)"/>
<path d="M84.67 47.89H288.06C299.56 47.89 308.92 38.53 308.92 27.03C308.92 15.53 299.56 6.17001 288.06 6.17001H84.67V5.14001H288.06C300.13 5.14001 309.95 14.96 309.95 27.03C309.95 39.1 300.13 48.92 288.06 48.92H84.67V47.89Z" fill="#33422E"/>
<path d="M101.23 21.4099C101.14 21.5699 100.96 21.5899 100.68 21.5199C100.31 21.7899 99.7 22.0899 99.08 22.3399C100 22.8199 101.03 23.1399 102.06 23.3199L102.04 23.5299C101.35 23.7099 100.85 24.2899 100.67 25.2199C100.4 25.0999 100.16 24.9699 99.91 24.8499V28.7699C99.89 28.8799 98.93 29.2299 98.33 29.2299H98.01V28.5599H96.95V32.1399C96.95 33.4299 96.67 34.2699 94.61 34.4499C94.59 33.8599 94.54 33.4199 94.33 33.1399C94.13 32.8699 93.82 32.6599 93.09 32.5599V32.3099C93.09 32.3099 94.42 32.3999 94.74 32.3999C94.97 32.3999 95.04 32.3099 95.04 32.1199V28.5699H93.74V28.8899C93.74 28.9999 93.28 29.3499 92.52 29.4199L94.67 30.3299C94.58 30.5099 94.44 30.6299 94.03 30.5799C93.21 31.7199 91.76 32.9599 90.11 33.6299L89.95 33.4199C91.09 32.3599 91.96 30.6899 92.36 29.4399H92.22H91.9V24.4699C91.49 24.6999 91.07 24.8999 90.6 25.0699V32.0999C90.58 32.2599 89.71 32.6899 89.06 32.6899H88.78V31.3099H87.43V32.8699C87.43 33.0999 86.77 33.5399 85.94 33.5399H85.64V18.5499L87.5 19.3499H88.6L89.5 18.3599L91.33 19.8199L91.28 19.8699H94C94.21 19.2099 94.37 18.5399 94.48 17.8099L97.25 18.2499C97.2 18.4499 97.06 18.5499 96.59 18.5499C96.45 19.0099 96.29 19.4399 96.09 19.8599H98.77L99.82 18.4599C99.82 18.4599 101.01 19.4199 101.72 20.0899C101.68 20.2899 101.49 20.3699 101.22 20.3699H99.37L101.23 21.4099ZM87.42 19.8699V23.0099H88.77V19.8699H87.42ZM88.77 23.4999H87.42V26.7999H88.77V23.4999ZM88.77 30.7799V27.3199H87.42V30.7799H88.77ZM90.6 24.5699C91.33 24.0599 91.95 23.4699 92.46 22.7899C92.25 22.7699 92.02 22.6999 91.79 22.5199C91.7 21.9199 91.33 21.2099 91.03 20.7999L91.19 20.6899C92.4 20.7999 93.04 21.1499 93.3 21.5199C93.5 21.1499 93.67 20.7699 93.83 20.3699H90.76L90.71 20.1599L90.6 20.1799V24.5699ZM95.87 20.3799C95.27 21.5699 94.45 22.5999 93.42 23.4299L93.97 23.6399H97.87L98.1 23.4099C97.34 22.5899 96.77 21.5999 96.34 20.3799H95.87ZM93.74 25.8299H98.02V24.1599H93.74V25.8299ZM98.01 28.0299V26.3099H93.73V28.0299H98.01ZM96.7 20.3799C97.11 20.9699 97.68 21.4599 98.33 21.9099C98.67 21.4099 98.99 20.8399 99.18 20.3799H96.7ZM97.55 29.5899C102.93 30.7999 101.53 34.5399 99.64 33.2999C99.29 32.0799 98.24 30.6399 97.39 29.7199L97.55 29.5899Z" fill="#33422E"/>
<path d="M112.71 24.76V32.27C112.71 33.49 112.46 34.22 110.44 34.42C110.39 33.85 110.3 33.43 110.05 33.18C109.78 32.9 109.41 32.7 108.63 32.58V32.31C108.63 32.31 110.28 32.42 110.65 32.42C110.93 32.42 111.02 32.31 111.02 32.06V28.92H107.68C107.43 30.84 106.79 32.84 105.09 34.37L104.89 34.21C106.1 31.76 106.13 28.73 106.13 26.08V23.03C105.79 23.31 105.46 23.6 105.1 23.83L104.89 23.67C105.9 22.25 106.86 20.03 107.39 17.74L109.84 18.5C109.77 18.73 109.56 18.89 109.15 18.87C109.01 19.19 108.85 19.49 108.69 19.79H109.61L110.55 18.81L112.22 20.32C112.1 20.44 111.88 20.5 111.53 20.52C110.98 21.07 110.15 21.85 109.38 22.4H110.82L111.62 21.44L113.48 22.84C113.36 23 113.09 23.16 112.7 23.23V24.7C114.31 23.4 114.94 21.68 115.11 19.73H112.87L112.71 19.22H118.8L119.74 18.31L121.46 19.71C121.34 19.85 121.14 19.94 120.8 19.99C120.69 22.49 120.48 23.56 119.81 24.04C119.35 24.36 118.78 24.5 118 24.5C118 24 117.96 23.52 117.75 23.29C117.54 23.02 117.18 22.85 116.67 22.74V22.49C117.08 22.53 117.81 22.56 118.09 22.56C118.34 22.56 118.44 22.54 118.53 22.45C118.74 22.25 118.88 21.42 118.96 19.72H117.24C116.73 22.13 115.31 23.89 112.77 24.92L112.71 24.76ZM108.39 20.29C108 20.93 107.57 21.51 107.11 22.03L108.1 22.4H108.86C109.16 21.8 109.46 20.94 109.66 20.29H108.39ZM107.83 26.06C107.83 26.79 107.81 27.59 107.74 28.42H108.68V25.88H107.83V26.06ZM107.83 25.37H108.68V22.92H107.83V25.37ZM110.11 22.92V25.37H111.02V22.92H110.11ZM111.02 28.42V25.88H110.11V28.42H111.02ZM120.21 28.9C120.21 28.9 121.31 29.77 121.95 30.39C121.9 30.59 121.72 30.66 121.47 30.66H118.2V33.89C118.2 34.05 117.33 34.46 116.6 34.46H116.25V30.66H112.98L112.84 30.18H116.25V27.7H114.49C114.05 28.37 113.53 28.98 112.96 29.44L112.71 29.3C113.24 28.15 113.69 26.42 113.9 24.77L116.12 25.5C116.05 25.69 115.84 25.85 115.45 25.84C115.25 26.3 115.04 26.76 114.81 27.19H116.25V24.56L118.79 24.81C118.75 25.02 118.63 25.2 118.2 25.25V27.18H118.93L119.84 26.03C119.84 26.03 120.85 26.83 121.47 27.41C121.42 27.61 121.24 27.69 121.01 27.69H118.21V30.17H119.27L120.21 28.9Z" fill="#33422E"/>
<path d="M134.04 27.8499C133.86 29.0599 133.49 30.1599 132.71 31.1199C135.07 32.0099 138.14 32.2699 141.3 32.2599V32.4899C140.43 32.7699 139.93 33.4499 139.77 34.4599C136.52 34.1199 133.79 33.4799 131.75 32.0499C130.38 33.1299 128.27 33.9699 125.01 34.4999L124.92 34.2899C127.79 33.3699 129.55 32.3599 130.6 31.0999C129.98 30.4599 129.43 29.7199 129 28.8299L129.2 28.6499C129.7 29.3399 130.34 29.9299 131.12 30.3899C131.56 29.6399 131.81 28.8099 131.95 27.8699H129.23V28.3299C129.23 28.5299 128.33 28.9899 127.47 28.9899H127.17V21.0799L129.35 21.9299H132.05V19.9399H125.32L125.18 19.4299H137.57L138.81 17.9199C138.81 17.9199 140.19 18.9499 141.05 19.6599C141 19.8599 140.8 19.9399 140.55 19.9399H134.14V21.9299H136.89L137.85 20.8799L139.86 22.4099C139.75 22.5499 139.54 22.7099 139.17 22.7799V28.3699C139.15 28.5099 138.11 28.8799 137.43 28.8799H137.08V27.8699H134.04V27.8499ZM129.23 22.4199V24.5899H132.05V22.4199H129.23ZM132 27.3599C132.04 26.9199 132.05 26.4499 132.05 25.9599V25.0999H129.23V27.3499H132V27.3599ZM137.07 27.3599V25.0999H134.14V25.8999C134.14 26.3999 134.12 26.8899 134.09 27.3599H137.07V27.3599ZM134.14 22.4199V24.5899H137.07V22.4199H134.14Z" fill="#33422E"/>
<path d="M160.99 26.98C160.85 27.18 160.56 27.23 160.07 27.26C157.23 31.48 152.76 33.72 145.15 34.41L145.06 34.16C148.52 33.33 151.36 32.26 153.61 30.77C153.31 30.88 152.95 30.86 152.55 30.66C152.28 29.88 151.56 29.04 150.83 28.46C149.41 29.17 147.83 29.76 146.15 30.16L146.04 29.96C148.83 28.68 151.35 26.71 152.91 24.94C150.74 25.97 148.12 26.7 144.92 27.11L144.81 26.88C149.65 25.46 153.36 23.42 155.65 20.42H151.98C151.45 20.77 150.9 21.11 150.29 21.45C153.48 21.57 152.76 24.34 151.05 23.69C150.75 23.07 150.06 22.38 149.38 21.92C148.16 22.52 146.79 23.04 145.37 23.39L145.25 23.21C148.05 21.81 150.61 19.5 151.76 17.73L154.88 18.51C154.79 18.72 154.54 18.86 153.96 18.86C153.57 19.22 153.14 19.57 152.66 19.93H155.82L156.99 18.83L159.1 20.62C158.94 20.78 158.66 20.85 158.16 20.89C157.15 22.11 155.94 23.2 154.47 24.08L156.9 24.65C156.81 24.88 156.56 25.02 155.96 25.02C155.5 25.45 154.98 25.85 154.43 26.28H157.68L158.85 25.16L160.99 26.98ZM153.73 26.79C153.11 27.22 152.43 27.62 151.72 28.01C154.26 28.26 154.61 29.82 153.99 30.51C155.43 29.48 156.62 28.26 157.56 26.78H153.73V26.79Z" fill="#33422E"/>
<path d="M179.53 22.33C179.05 22.49 178.55 22.63 178 22.79C177.77 25.1 177.33 27.3 176.39 29.23C179.73 31.34 177.97 33.22 176.6 32.37C176.3 31.87 175.89 31.36 175.41 30.86C174.4 32.28 173.01 33.52 171.08 34.46L170.88 34.28C172.48 33.04 173.61 31.51 174.38 29.84C173.42 28.97 172.32 28.17 171.35 27.59C171.6 26.74 171.9 25.51 172.17 24.2L171.76 24.29C171.64 24.52 171.44 24.64 171.23 24.68L170.79 22.53C171.23 22.53 171.82 22.53 172.53 22.51C172.88 20.63 173.19 18.78 173.29 17.74L175.86 18.17C175.81 18.37 175.72 18.56 175.17 18.61C174.99 19.55 174.73 20.94 174.41 22.43C174.91 22.41 175.46 22.38 176.01 22.34C176.03 21.68 176.05 21.03 176.03 20.37L178.82 20.85C178.75 21.13 178.54 21.29 178.13 21.33C178.11 21.61 178.09 21.9 178.08 22.2C178.58 22.15 179.04 22.11 179.54 22.06L179.53 22.33ZM174.94 28.49C175.51 26.84 175.81 25.1 175.93 23.36C175.36 23.5 174.74 23.64 174.08 23.8C173.78 25.18 173.42 26.59 173.09 27.74C173.8 28 174.41 28.24 174.94 28.49ZM185.82 24.29C185.82 24.29 187.04 25.28 187.77 25.96C187.72 26.16 187.54 26.24 187.29 26.24H183.49V32.04C183.49 33.46 183.21 34.26 180.9 34.45C180.85 33.81 180.76 33.33 180.53 33.03C180.26 32.71 179.87 32.48 179.02 32.34V32.09C179.02 32.09 180.76 32.21 181.13 32.21C181.4 32.21 181.48 32.12 181.48 31.91V26.23H178.16L178.02 25.73H181.48V22.77L182.9 22.91C183.36 22.02 183.88 20.82 184.21 19.98H178.71L178.55 19.48H184.19L185.33 18.36L187.21 20.08C187.05 20.22 186.86 20.28 186.48 20.29C185.7 21.04 184.51 22.15 183.43 22.93L184.12 23C184.07 23.25 183.91 23.41 183.48 23.46V25.71H184.74L185.82 24.29Z" fill="#33422E"/>
<path d="M199.37 22.33C198.89 22.49 198.39 22.63 197.84 22.79C197.61 25.1 197.17 27.3 196.23 29.23C199.57 31.34 197.81 33.22 196.44 32.37C196.14 31.87 195.73 31.36 195.25 30.86C194.24 32.28 192.85 33.52 190.92 34.46L190.72 34.28C192.32 33.04 193.45 31.51 194.22 29.84C193.26 28.97 192.16 28.17 191.19 27.59C191.44 26.74 191.74 25.51 192.01 24.2L191.6 24.29C191.48 24.52 191.28 24.64 191.07 24.68L190.63 22.53C191.07 22.53 191.66 22.53 192.37 22.51C192.72 20.63 193.03 18.78 193.13 17.74L195.7 18.17C195.65 18.37 195.56 18.56 195.01 18.61C194.83 19.55 194.57 20.94 194.25 22.43C194.75 22.41 195.3 22.38 195.85 22.34C195.87 21.68 195.89 21.03 195.87 20.37L198.66 20.85C198.59 21.13 198.38 21.29 197.97 21.33C197.95 21.61 197.93 21.9 197.92 22.2C198.42 22.15 198.88 22.11 199.38 22.06L199.37 22.33ZM194.78 28.49C195.35 26.84 195.65 25.1 195.77 23.36C195.2 23.5 194.58 23.64 193.92 23.8C193.62 25.18 193.26 26.59 192.93 27.74C193.64 28 194.24 28.24 194.78 28.49ZM205.66 24.29C205.66 24.29 206.88 25.28 207.61 25.96C207.56 26.16 207.38 26.24 207.13 26.24H203.33V32.04C203.33 33.46 203.05 34.26 200.74 34.45C200.69 33.81 200.6 33.33 200.37 33.03C200.1 32.71 199.71 32.48 198.86 32.34V32.09C198.86 32.09 200.6 32.21 200.97 32.21C201.24 32.21 201.32 32.12 201.32 31.91V26.23H198L197.86 25.73H201.32V22.77L202.74 22.91C203.2 22.02 203.72 20.82 204.05 19.98H198.55L198.39 19.48H204.03L205.17 18.36L207.05 20.08C206.89 20.22 206.7 20.28 206.32 20.29C205.54 21.04 204.35 22.15 203.27 22.93L203.96 23C203.91 23.25 203.75 23.41 203.32 23.46V25.71H204.58L205.66 24.29Z" fill="#33422E"/>
<path d="M220.45 26.9299C221.92 29.1699 224.69 30.7799 227.32 31.4599L227.28 31.6699C226.5 31.8499 225.88 32.5199 225.63 33.5299C222.99 32.2399 221.16 30.0699 220.08 26.9299H219.97V33.8699C219.97 34.0499 219.03 34.4499 218.23 34.4499H217.84V28.8399C216.17 30.8799 213.74 32.4999 210.78 33.6099L210.64 33.3999C213.27 31.7999 215.36 29.3499 216.55 26.9199H211.01L210.87 26.4099H217.84V24.4999L220.54 24.7499C220.52 24.9599 220.4 25.1199 219.97 25.1899V26.4099H223.73L224.95 24.8999C224.95 24.8999 226.33 25.9299 227.19 26.6399C227.14 26.8399 226.94 26.9199 226.68 26.9199H220.45V26.9299ZM225.94 19.7599C225.74 19.9399 225.34 19.9599 224.77 19.7199C221.29 20.3199 215.97 20.7799 211.41 20.7499L211.37 20.4699C215.7 19.9699 221.13 18.7999 223.92 17.7699L225.94 19.7599ZM212.72 21.2299C217.65 22.4699 215.72 26.1799 213.86 24.6499C213.75 23.4799 213.13 22.1999 212.55 21.3299L212.72 21.2299ZM217.14 20.8299C221.79 21.9799 219.73 25.4099 217.97 23.8999C217.93 22.8399 217.46 21.7199 216.98 20.9199L217.14 20.8299ZM221.11 25.0499C221.86 23.9899 222.81 22.2099 223.51 20.5399L226.12 21.8499C226.01 22.0499 225.77 22.1699 225.39 22.1199C224.17 23.3999 222.67 24.4999 221.27 25.2099L221.11 25.0499Z" fill="#33422E"/>
<path d="M244.89 28.2399C244.89 28.2399 246.31 29.2899 247.18 30.0299C247.13 30.2199 246.91 30.3099 246.67 30.3099H243.58V33.8399C243.58 33.9799 242.92 34.4599 241.79 34.4599H241.38V30.3099H230.7L230.56 29.7999H233.9V19.6399H231.27L231.13 19.1299H243.23L244.49 17.5699C244.49 17.5699 245.89 18.6199 246.78 19.3599C246.73 19.5599 246.51 19.6399 246.27 19.6399H243.59V29.7999H243.64L244.89 28.2399ZM236.05 19.6399V22.6899H241.37V19.6399H236.05ZM236.05 26.1799H241.37V23.1999H236.05V26.1799ZM241.38 29.7999V26.6999H236.06V29.8099H241.38V29.7999Z" fill="#33422E"/>
<path d="M268.91 26.74L259.74 21.45V32.04L268.91 26.74Z" fill="#24411D"/>
<path d="M282.15 26.74L272.98 21.45V32.04L282.15 26.74Z" fill="#24411D"/>
<path d="M23.16 14.14H23.37C24.71 12.98 26.43 12.15 28.12 11.32C29.49 10.65 30.79 10.02 31.9 9.22999C33.06 8.39999 34.16 7.30999 35.23 6.24999C37.32 4.16999 39.48 2.02999 42.17 1.75999C42.36 1.73999 42.54 1.72999 42.72 1.72999C45.1 1.72999 47.34 3.19999 49.7 4.75999C50.99 5.60999 52.32 6.47999 53.68 7.09999C55.04 7.71999 56.58 8.13999 58.06 8.55999C61 9.36999 63.77 10.14 65.28 12.26C65.69 12.83 65.98 13.46 66.18 14.14H66.37H66.68H66.85C66.33 11.21 65.64 8.29999 63.55 6.38999C61.29 4.31999 57.89 4.01999 54.6 3.72999C53.04 3.58999 51.42 3.44999 49.94 3.11999C48.46 2.78999 46.93 2.23999 45.46 1.69999C42.36 0.569985 39.15 -0.590015 36.22 0.329985C33.19 1.28999 31.23 4.11999 29.33 6.85999C28.46 8.11999 27.56 9.41999 26.58 10.49C25.65 11.51 24.51 12.44 23.31 13.42C23.02 13.66 22.73 13.89 22.44 14.13H22.69H23.16V14.14ZM54.53 4.18999C57.89 4.47999 61.06 4.75999 63.2 6.72999C64.81 8.20999 65.55 10.36 66.05 12.65C65.93 12.42 65.79 12.2 65.64 11.99C64.04 9.73999 61.05 8.90999 58.17 8.10999C56.7 7.69999 55.18 7.27999 53.86 6.67999C52.53 6.07999 51.22 5.20999 49.94 4.36999C49.25 3.90999 48.55 3.44999 47.84 3.02999C48.5 3.23999 49.15 3.42999 49.81 3.56999C51.32 3.90999 52.95 4.04999 54.53 4.18999ZM26.9 10.81C27.9 9.71999 28.81 8.40999 29.69 7.12999C31.54 4.45999 33.45 1.68999 36.33 0.779985C37.04 0.559985 37.76 0.459985 38.49 0.459985C39.87 0.459985 41.3 0.799985 42.77 1.26999C42.55 1.26999 42.33 1.26999 42.11 1.29999C39.26 1.57999 37.04 3.78999 34.89 5.91999C33.84 6.96999 32.75 8.04999 31.62 8.84999C30.55 9.61999 29.27 10.24 27.91 10.9C27.15 11.27 26.38 11.65 25.64 12.05C26.08 11.65 26.51 11.24 26.9 10.81Z" fill="#33422E"/>
<path d="M66.12 39.89H65.91C64.57 41.06 62.83 41.91 61.13 42.73C59.76 43.4 58.46 44.03 57.35 44.82C56.19 45.65 55.09 46.74 54.02 47.8C51.93 49.88 49.77 52.02 47.08 52.29C44.5 52.54 42.09 50.96 39.55 49.29C38.26 48.44 36.93 47.57 35.57 46.95C34.21 46.33 32.67 45.91 31.19 45.49C28.25 44.68 25.48 43.91 23.97 41.79C23.56 41.21 23.26 40.57 23.06 39.89H22.88H22.57H22.4C22.93 42.83 23.61 45.75 25.71 47.67C27.97 49.74 31.37 50.04 34.66 50.33C36.22 50.47 37.84 50.61 39.32 50.94C40.8 51.27 42.33 51.82 43.8 52.36C46.11 53.2 48.49 54.06 50.76 54.06C51.53 54.06 52.3 53.96 53.04 53.72C56.07 52.76 58.03 49.93 59.93 47.19C60.8 45.93 61.7 44.63 62.68 43.56C63.61 42.54 64.75 41.61 65.95 40.63C66.25 40.38 66.55 40.14 66.85 39.89H66.6H66.12V39.89ZM34.71 49.86C31.35 49.57 28.18 49.29 26.04 47.32C24.43 45.84 23.69 43.69 23.19 41.4C23.31 41.63 23.45 41.85 23.6 42.06C25.2 44.31 28.19 45.14 31.07 45.94C32.54 46.35 34.06 46.77 35.38 47.37C36.71 47.97 38.02 48.84 39.3 49.68C39.99 50.14 40.69 50.6 41.4 51.02C40.74 50.81 40.09 50.62 39.43 50.48C37.92 50.14 36.29 50 34.71 49.86ZM62.34 43.24C61.34 44.33 60.43 45.64 59.55 46.92C57.7 49.59 55.79 52.36 52.91 53.27C50.88 53.91 48.72 53.5 46.47 52.78C46.5 52.78 46.52 52.78 46.55 52.78C46.74 52.78 46.94 52.77 47.14 52.75C49.99 52.47 52.21 50.26 54.36 48.13C55.41 47.08 56.5 46 57.63 45.2C58.7 44.43 59.98 43.81 61.34 43.15C62.1 42.78 62.87 42.4 63.61 42C63.16 42.41 62.73 42.82 62.34 43.24Z" fill="#33422E"/>
<path d="M37.99 42.04L38.93 44.21H39L39.66 42.09C39.71 41.94 39.75 41.84 39.79 41.78C39.82 41.74 39.87 41.7 39.94 41.68C39.98 41.66 40.05 41.65 40.15 41.65L40.18 41.58H39.27L39.25 41.65C39.27 41.65 39.28 41.65 39.3 41.65C39.4 41.65 39.47 41.66 39.5 41.69C39.54 41.72 39.55 41.75 39.55 41.8C39.55 41.87 39.53 41.96 39.49 42.09L39.02 43.6L38.15 41.58H37.44L37.42 41.65C37.55 41.65 37.64 41.67 37.71 41.7C37.77 41.73 37.83 41.78 37.88 41.86L37.32 43.65C37.27 43.81 37.23 43.92 37.19 43.97C37.16 44.01 37.12 44.04 37.06 44.06C37.02 44.08 36.95 44.08 36.84 44.09L36.81 44.16H37.7L37.72 44.09C37.59 44.08 37.51 44.07 37.48 44.04C37.45 44.01 37.43 43.98 37.43 43.93C37.43 43.87 37.45 43.77 37.48 43.65L37.99 42.04Z" fill="#33422E"/>
<path d="M40.94 43.32C41.17 43.24 41.35 43.14 41.47 43.02C41.56 42.92 41.61 42.82 41.61 42.72C41.61 42.65 41.57 42.5799 41.5 42.5299C41.43 42.4799 41.32 42.45 41.17 42.45C40.96 42.45 40.77 42.5 40.57 42.61C40.38 42.72 40.22 42.87 40.09 43.07C39.96 43.27 39.9 43.46 39.9 43.65C39.9 43.79 39.95 43.9199 40.05 44.0299C40.15 44.1499 40.3 44.2 40.51 44.2C40.81 44.2 41.12 44.05 41.45 43.75L41.41 43.7C41.23 43.83 41.09 43.91 41 43.95C40.92 43.98 40.82 44 40.72 44C40.59 44 40.49 43.96 40.4 43.88C40.31 43.8 40.27 43.7 40.27 43.59C40.27 43.55 40.27 43.5 40.28 43.43C40.57 43.41 40.78 43.37 40.94 43.32ZM40.65 42.74C40.81 42.6 40.96 42.54 41.1 42.54C41.17 42.54 41.22 42.56 41.26 42.59C41.3 42.62 41.32 42.67 41.32 42.72C41.32 42.81 41.28 42.9 41.19 43C41.1 43.1 40.98 43.18 40.81 43.25C40.68 43.3 40.51 43.34 40.31 43.36C40.37 43.07 40.49 42.87 40.65 42.74Z" fill="#33422E"/>
<path d="M42.05 42.6599C42.1 42.6999 42.13 42.7899 42.15 42.9199C42.2 43.2299 42.23 43.6599 42.24 44.1999H42.33L43.19 42.8899L43.32 44.1999H43.4C43.48 44.1299 43.59 44.0099 43.75 43.8299C43.91 43.6499 44.06 43.4599 44.21 43.2599C44.33 43.0899 44.41 42.9499 44.45 42.8399C44.47 42.7799 44.48 42.7199 44.48 42.6599C44.48 42.5999 44.46 42.5399 44.42 42.4999C44.38 42.4599 44.33 42.4399 44.28 42.4399C44.23 42.4399 44.19 42.4499 44.16 42.4799C44.13 42.5099 44.11 42.5399 44.11 42.5799C44.11 42.6099 44.12 42.6299 44.13 42.6599C44.15 42.6799 44.17 42.7099 44.21 42.7299C44.25 42.7499 44.27 42.7699 44.27 42.7799C44.28 42.7999 44.29 42.8299 44.29 42.8599C44.29 42.9199 44.25 43.0099 44.16 43.1499C44.02 43.3799 43.82 43.6199 43.58 43.8799L43.44 42.4599H43.36L42.5 43.7499C42.49 43.7099 42.49 43.5999 42.48 43.4399C42.46 42.9999 42.4 42.6799 42.32 42.4699L41.72 42.5999V42.6699C41.78 42.6599 41.83 42.6599 41.88 42.6599C41.97 42.6199 42.02 42.6299 42.05 42.6599Z" fill="#33422E"/>
<path d="M48.1 42.2L48.27 41.58H46.24L46.22 41.65H46.26C46.37 41.65 46.44 41.66 46.47 41.69C46.51 41.72 46.52 41.75 46.52 41.8C46.52 41.87 46.5 41.96 46.46 42.09L45.96 43.64C45.91 43.81 45.86 43.92 45.83 43.97C45.8 44 45.76 44.03 45.71 44.06C45.67 44.08 45.6 44.08 45.49 44.09L45.46 44.16H47.64L47.91 43.45H47.83C47.7 43.67 47.55 43.82 47.39 43.9C47.23 43.99 47.01 44.03 46.74 44.03H46.49C46.4 44.03 46.34 44.02 46.31 44C46.28 43.97 46.26 43.95 46.26 43.91C46.26 43.87 46.27 43.8 46.3 43.72L46.57 42.87H46.84C46.98 42.87 47.07 42.88 47.11 42.89C47.15 42.91 47.19 42.93 47.21 42.96C47.23 42.99 47.25 43.04 47.25 43.09C47.25 43.15 47.24 43.21 47.21 43.29H47.29L47.58 42.36H47.5C47.44 42.5 47.37 42.6 47.28 42.65C47.2 42.7 47.06 42.73 46.87 42.73H46.61L46.93 41.71H47.29C47.53 41.71 47.68 41.72 47.75 41.75C47.84 41.78 47.91 41.82 47.96 41.88C48 41.93 48.01 41.98 48.01 42.05C48.01 42.09 48 42.14 47.99 42.2H48.1V42.2Z" fill="#33422E"/>
<path d="M49.78 43.7199L50.19 42.4299L49.86 42.4799L49.79 42.6999C49.76 42.6099 49.72 42.5399 49.66 42.4999C49.6 42.4599 49.53 42.4399 49.45 42.4399C49.31 42.4399 49.16 42.4899 49 42.5999C48.79 42.7299 48.63 42.9099 48.49 43.1399C48.35 43.3699 48.29 43.5799 48.29 43.7799C48.29 43.9099 48.33 44.0199 48.4 44.0899C48.47 44.1699 48.56 44.1999 48.66 44.1999C48.77 44.1999 48.87 44.1699 48.98 44.1099C49.13 44.0199 49.3 43.8699 49.48 43.6599L49.44 43.7999C49.41 43.8999 49.39 43.9799 49.39 44.0399C49.39 44.0899 49.41 44.1299 49.44 44.1599C49.47 44.1899 49.51 44.1999 49.57 44.1999C49.66 44.1999 49.75 44.1699 49.85 44.0999C49.95 44.0299 50.05 43.9299 50.14 43.7999L50.07 43.7599C49.98 43.8699 49.91 43.9499 49.85 43.9899C49.82 44.0099 49.8 44.0199 49.78 44.0199C49.76 44.0199 49.75 44.0099 49.74 43.9999C49.73 43.9799 49.72 43.9699 49.72 43.9499C49.72 43.9399 49.72 43.9299 49.73 43.9099L49.78 43.7199ZM49.34 43.6699C49.16 43.8699 49 43.9799 48.85 43.9799C48.79 43.9799 48.73 43.9499 48.69 43.8999C48.64 43.8499 48.62 43.7799 48.62 43.6999C48.62 43.5299 48.68 43.3399 48.79 43.1299C48.9 42.9199 49.03 42.7599 49.17 42.6499C49.27 42.5699 49.36 42.5299 49.45 42.5299C49.53 42.5299 49.59 42.5499 49.64 42.5999C49.69 42.6499 49.71 42.7299 49.71 42.8299C49.7 43.1199 49.58 43.3999 49.34 43.6699Z" fill="#33422E"/>
<path d="M50.4 44.1499H50.72L50.79 43.9099C50.8 43.8799 50.83 43.7899 50.89 43.6499C50.93 43.5399 50.98 43.4499 51.04 43.3699C51.17 43.1699 51.3 43.0099 51.41 42.8899C51.48 42.8099 51.54 42.7599 51.58 42.7399C51.6 42.7299 51.62 42.7299 51.65 42.7299C51.66 42.7299 51.68 42.7299 51.69 42.7399C51.7 42.7499 51.71 42.7599 51.71 42.7899C51.72 42.8299 51.73 42.8599 51.75 42.8799C51.77 42.8999 51.8 42.9099 51.83 42.9099C51.89 42.9099 51.94 42.8799 51.97 42.8299C52.02 42.7499 52.04 42.6799 52.04 42.5899C52.04 42.5399 52.03 42.5099 52 42.4799C51.97 42.4499 51.94 42.4399 51.89 42.4399C51.82 42.4399 51.73 42.4799 51.62 42.5699C51.42 42.7199 51.2 42.9899 50.96 43.3599L51.26 42.4399L50.54 42.5499L50.56 42.6199C50.64 42.6099 50.69 42.5999 50.72 42.5999C50.76 42.5999 50.8 42.6099 50.83 42.6299C50.85 42.6499 50.86 42.6599 50.86 42.6899C50.86 42.7499 50.84 42.8499 50.8 42.9799L50.4 44.1499Z" fill="#33422E"/>
<path d="M39.02 11.08C38.97 11.24 38.92 11.35 38.89 11.4C38.86 11.43 38.82 11.46 38.77 11.49C38.73 11.51 38.66 11.51 38.55 11.52L38.52 11.59H39.63L39.65 11.52C39.51 11.51 39.43 11.5 39.39 11.47C39.35 11.44 39.34 11.41 39.34 11.36C39.34 11.3 39.36 11.21 39.4 11.08L39.66 10.29H40.97L40.71 11.08C40.66 11.25 40.61 11.35 40.58 11.4C40.55 11.43 40.51 11.46 40.46 11.49C40.42 11.51 40.35 11.51 40.24 11.52L40.21 11.59H41.31L41.33 11.52C41.19 11.51 41.1 11.5 41.07 11.47C41.02 11.44 41 11.41 41 11.36C41 11.3 41.02 11.21 41.06 11.08L41.56 9.53001C41.61 9.38001 41.65 9.28001 41.7 9.22001C41.73 9.18001 41.78 9.14001 41.85 9.12001C41.9 9.10001 41.97 9.09001 42.06 9.09001L42.09 9.02001H40.96L40.94 9.09001C41.05 9.09001 41.12 9.10001 41.15 9.11001C41.19 9.12001 41.21 9.14001 41.23 9.16001C41.25 9.18001 41.26 9.21001 41.26 9.24001C41.26 9.31001 41.24 9.41001 41.2 9.53001L40.99 10.16H39.69L39.89 9.53001C39.94 9.38001 39.99 9.27001 40.03 9.21001C40.06 9.17001 40.11 9.14001 40.17 9.11001C40.21 9.09001 40.28 9.08001 40.38 9.08001L40.4 9.01001H39.29L39.26 9.08001C39.37 9.08001 39.44 9.09001 39.48 9.10001C39.52 9.11001 39.54 9.13001 39.56 9.15001C39.58 9.17001 39.59 9.20001 39.59 9.23001C39.59 9.30001 39.57 9.39001 39.53 9.52001L39.02 11.08Z" fill="#33422E"/>
<path d="M43.3 11.16L43.71 9.87L43.38 9.92L43.31 10.14C43.28 10.05 43.24 9.97999 43.18 9.93999C43.12 9.89999 43.05 9.88 42.97 9.88C42.83 9.88 42.68 9.93 42.52 10.04C42.31 10.17 42.15 10.35 42.01 10.58C41.88 10.8 41.81 11.02 41.81 11.22C41.81 11.35 41.85 11.46 41.92 11.53C41.99 11.61 42.08 11.64 42.18 11.64C42.29 11.64 42.39 11.61 42.5 11.55C42.65 11.46 42.82 11.31 43 11.1L42.96 11.24C42.93 11.34 42.91 11.42 42.91 11.48C42.91 11.53 42.93 11.57 42.96 11.6C42.99 11.63 43.03 11.64 43.09 11.64C43.18 11.64 43.27 11.61 43.37 11.54C43.47 11.47 43.57 11.37 43.66 11.24L43.59 11.2C43.5 11.31 43.43 11.39 43.37 11.43C43.34 11.45 43.32 11.46 43.3 11.46C43.28 11.46 43.27 11.45 43.26 11.44C43.25 11.42 43.24 11.41 43.24 11.39C43.24 11.38 43.24 11.37 43.25 11.35L43.3 11.16ZM42.87 11.11C42.69 11.31 42.53 11.42 42.38 11.42C42.32 11.42 42.26 11.39 42.22 11.34C42.17 11.29 42.15 11.22 42.15 11.14C42.15 10.97 42.21 10.78 42.32 10.57C42.43 10.36 42.56 10.2 42.7 10.09C42.8 10.01 42.89 9.97 42.98 9.97C43.06 9.97 43.12 9.99 43.17 10.04C43.22 10.09 43.24 10.17 43.24 10.27C43.22 10.56 43.1 10.84 42.87 11.11Z" fill="#33422E"/>
<path d="M43.79 11.99C43.74 12.15 43.69 12.25 43.65 12.29C43.61 12.33 43.52 12.35 43.39 12.35L43.37 12.42H44.35L44.37 12.35C44.26 12.35 44.19 12.34 44.16 12.33C44.12 12.32 44.1 12.3 44.08 12.28C44.06 12.26 44.06 12.24 44.06 12.21C44.06 12.18 44.08 12.12 44.11 12.02L44.26 11.53C44.33 11.57 44.38 11.59 44.44 11.6C44.49 11.61 44.55 11.62 44.62 11.62C44.95 11.62 45.24 11.48 45.49 11.19C45.74 10.9 45.86 10.62 45.86 10.34C45.86 10.2 45.82 10.08 45.73 9.98999C45.64 9.89999 45.54 9.85999 45.41 9.85999C45.29 9.85999 45.17 9.88999 45.05 9.95999C44.93 10.03 44.8 10.14 44.64 10.3L44.78 9.85999L44.07 9.95999V10.03C44.14 10.02 44.2 10.02 44.24 10.02C44.28 10.02 44.32 10.03 44.34 10.05C44.36 10.07 44.37 10.1 44.37 10.13C44.37 10.16 44.35 10.22 44.32 10.33L43.79 11.99ZM44.48 10.82C44.55 10.61 44.66 10.43 44.8 10.27C44.95 10.11 45.09 10.04 45.24 10.04C45.31 10.04 45.37 10.07 45.42 10.12C45.47 10.17 45.5 10.25 45.5 10.35C45.5 10.48 45.48 10.6 45.43 10.73C45.38 10.86 45.33 10.97 45.28 11.06C45.22 11.15 45.16 11.24 45.09 11.31C45.02 11.38 44.95 11.44 44.87 11.47C44.8 11.51 44.72 11.53 44.65 11.53C44.5 11.53 44.39 11.48 44.3 11.39L44.48 10.82Z" fill="#33422E"/>
<path d="M45.92 11.99C45.87 12.15 45.82 12.25 45.78 12.29C45.74 12.33 45.65 12.35 45.52 12.35L45.5 12.42H46.48L46.5 12.35C46.39 12.35 46.32 12.34 46.29 12.33C46.25 12.32 46.23 12.3 46.21 12.28C46.19 12.26 46.19 12.24 46.19 12.21C46.19 12.18 46.21 12.12 46.24 12.02L46.39 11.53C46.46 11.57 46.51 11.59 46.57 11.6C46.62 11.61 46.68 11.62 46.75 11.62C47.08 11.62 47.37 11.48 47.62 11.19C47.87 10.9 47.99 10.62 47.99 10.34C47.99 10.2 47.95 10.08 47.86 9.98999C47.77 9.89999 47.67 9.85999 47.54 9.85999C47.42 9.85999 47.3 9.88999 47.18 9.95999C47.06 10.03 46.93 10.14 46.77 10.3L46.91 9.85999L46.2 9.95999V10.03C46.27 10.02 46.33 10.02 46.37 10.02C46.41 10.02 46.45 10.03 46.47 10.05C46.49 10.07 46.5 10.1 46.5 10.13C46.5 10.16 46.48 10.22 46.45 10.33L45.92 11.99ZM46.61 10.82C46.68 10.61 46.79 10.43 46.93 10.27C47.08 10.11 47.22 10.04 47.37 10.04C47.44 10.04 47.5 10.07 47.55 10.12C47.6 10.17 47.63 10.25 47.63 10.35C47.63 10.48 47.61 10.6 47.56 10.73C47.51 10.86 47.46 10.97 47.41 11.06C47.35 11.15 47.29 11.24 47.22 11.31C47.15 11.38 47.08 11.44 47 11.47C46.93 11.51 46.85 11.53 46.78 11.53C46.63 11.53 46.52 11.48 46.43 11.39L46.61 10.82Z" fill="#33422E"/>
<path d="M48.45 12C48.35 12.09 48.26 12.16 48.18 12.2C48.16 12.21 48.14 12.22 48.14 12.22C48.13 12.22 48.12 12.22 48.12 12.21C48.11 12.2 48.1 12.18 48.08 12.15C48.07 12.12 48.05 12.1 48.04 12.1C48.02 12.09 48 12.08 47.97 12.08C47.92 12.08 47.87 12.1 47.82 12.14C47.78 12.18 47.75 12.23 47.75 12.27C47.75 12.31 47.77 12.34 47.8 12.37C47.83 12.4 47.87 12.41 47.91 12.41C47.98 12.41 48.07 12.38 48.17 12.33C48.27 12.27 48.43 12.14 48.64 11.92C48.94 11.61 49.2 11.32 49.42 11.05C49.63 10.78 49.78 10.59 49.85 10.46C49.92 10.33 49.96 10.22 49.96 10.12C49.96 10.04 49.94 9.96998 49.9 9.92998C49.86 9.87998 49.81 9.85997 49.74 9.85997C49.69 9.85997 49.65 9.87998 49.61 9.90998C49.58 9.93998 49.56 9.97998 49.56 10.04C49.56 10.08 49.57 10.12 49.6 10.15C49.63 10.18 49.66 10.2 49.7 10.22C49.74 10.23 49.77 10.24 49.78 10.25C49.79 10.26 49.79 10.27 49.79 10.28C49.79 10.3 49.79 10.32 49.78 10.34C49.76 10.38 49.72 10.45 49.66 10.55C49.55 10.72 49.45 10.85 49.38 10.94C49.22 11.14 49.1 11.28 49.02 11.37L48.93 10.44C48.91 10.25 48.9 10.13 48.88 10.06C48.86 9.99998 48.83 9.92998 48.78 9.84998L48.17 9.98997L48.19 10.06C48.26 10.05 48.32 10.05 48.35 10.05C48.44 10.05 48.51 10.07 48.55 10.11C48.59 10.15 48.62 10.27 48.64 10.47L48.76 11.67C48.68 11.78 48.58 11.88 48.45 12Z" fill="#33422E"/>
<path d="M72.81 33.1099C72.59 32.5699 72.29 32.0699 71.98 31.4899C71.42 31.9899 70.94 32.3399 70.29 32.0499C70.29 28.3799 70.29 24.7299 70.29 21.0299C70.93 21.0299 71.52 21.0299 72.1 21.0299C72.55 21.0299 72.67 20.8199 72.47 20.4299C72.3 20.0999 72.12 19.7599 71.96 19.4199C71.81 19.1099 71.59 18.9899 71.35 19.2899C71.05 19.6499 70.68 19.6599 70.26 19.6599C67.3 19.6499 64.35 19.6599 61.39 19.6599C61.15 19.6599 60.91 19.6599 60.58 19.6599C60.72 20.1699 60.84 20.5799 60.96 21.0399C61.45 21.0399 61.89 21.0399 62.38 21.0399C62.38 24.7499 62.38 28.3999 62.38 32.1399C61.69 32.1399 61.03 32.1399 60.28 32.1399C60.44 32.6599 60.56 33.0699 60.7 33.5299C63.36 33.5299 65.97 33.5299 68.63 33.5299C68.63 34.7799 68.63 35.9699 68.63 37.1599C70.18 37.0899 70.24 37.0399 70.24 35.6399C70.24 34.9399 70.24 34.2499 70.24 33.4999C71.03 33.4999 71.7 33.4999 72.38 33.4999C72.64 33.5099 72.95 33.4499 72.81 33.1099ZM64.1 21.0899C65.55 21.0899 67.03 21.0899 68.56 21.0899C68.56 21.9799 68.56 22.8899 68.56 23.8799C67.07 23.8799 65.61 23.8799 64.1 23.8799C64.1 22.9699 64.1 22.0599 64.1 21.0899ZM68.58 32.1099C67.07 32.1099 65.59 32.1099 64.08 32.1099C64.08 31.2099 64.08 30.3399 64.08 29.4299C65.59 29.4299 67.07 29.4299 68.58 29.4299C68.58 30.3299 68.58 31.1999 68.58 32.1099ZM68.58 27.9699C67.1 27.9699 65.61 27.9699 64.08 27.9699C64.08 27.0999 64.08 26.2499 64.08 25.3399C65.56 25.3399 67.05 25.3399 68.58 25.3399C68.58 26.2099 68.58 27.0599 68.58 27.9699Z" fill="#33422E"/>
<path d="M19.84 32.86C19.53 32.37 19.23 31.88 18.87 31.42C18.6 31.07 18.57 30.76 18.68 30.33C19.2 28.39 19.65 26.44 20.14 24.49C20.27 23.99 20.36 23.46 20.58 23C20.76 22.63 20.78 22.39 20.47 22.13C20.15 21.87 19.84 21.41 19.38 21.77C18.86 22.19 18.34 22.03 17.72 22C18.02 20.89 17.9 19.73 18.61 18.7C18.02 18.56 17.38 18.4 16.69 18.23C16.48 19.55 16.28 20.78 16.07 22.07C15.64 22.07 15.27 22.07 14.74 22.07C15.18 22.6 14.95 23.39 15.88 23.47C15.65 24.99 15.45 26.43 15.21 27.86C15.1 28.53 15.06 29.12 15.69 29.64C16.1 29.97 16.4 30.44 16.68 30.89C16.81 31.1 16.87 31.44 16.8 31.66C16.26 33.25 15.68 34.83 15.11 36.41C15.05 36.57 15 36.74 14.95 36.9C16.33 35.78 17.04 34.26 17.83 32.69C18.11 33.25 18.31 33.72 18.56 34.15C18.86 34.67 19.32 34.87 19.73 34.7C20.16 34.52 20.33 34.01 20.13 33.44C20.05 33.25 19.95 33.05 19.84 32.86ZM17.44 29.53C16.52 28.95 16.46 28.83 16.65 27.82C16.92 26.38 17.18 24.93 17.45 23.45C17.86 23.45 18.17 23.45 18.58 23.45C18.43 25.54 17.96 27.54 17.44 29.53Z" fill="#33422E"/>
<path d="M23.88 36.99C24.5 36.75 24.66 36.26 24.66 35.66C24.65 33.36 24.66 31.07 24.66 28.77C24.66 28.51 24.68 28.26 24.7 27.94C25.51 27.94 26.25 27.94 26.99 27.94C27.4 27.94 27.53 27.74 27.37 27.39C27.2 27.01 27.01 26.63 26.82 26.26C26.69 26.01 26.46 25.94 26.29 26.17C25.87 26.71 25.31 26.58 24.77 26.55C24.61 26.04 24.51 25.54 24.3 25.09C24.15 24.76 24.19 24.52 24.36 24.23C25.03 23.1 25.66 21.96 26.34 20.84C26.61 20.39 26.95 19.99 27.28 19.54C26.72 19.23 26.08 18.87 25.4 18.49C25.27 18.78 25.16 19.02 25.02 19.31C23.57 19.31 22.12 19.31 20.62 19.31C20.67 19.53 20.7 19.68 20.74 19.82C21.02 20.79 20.85 20.63 21.79 20.64C22.71 20.65 23.63 20.64 24.64 20.64C24.27 21.82 23.92 22.91 23.57 24.03C23.19 23.79 22.88 23.6 22.55 23.4C22.75 24.46 22.94 25.46 23.15 26.57C22.04 26.57 21.08 26.57 20.08 26.57C20.15 26.87 20.21 27.08 20.24 27.29C20.31 27.78 20.56 27.99 21.1 27.95C21.72 27.9 22.35 27.94 23.02 27.94C23.02 30.32 23.02 32.58 23.02 34.88C22.61 34.78 22.24 34.7 21.87 34.61C21.85 34.65 21.83 34.69 21.8 34.72C22.4 35.18 22.78 35.73 22.87 36.49C22.91 37.02 23.37 37.19 23.88 36.99Z" fill="#33422E"/>
<path d="M30.52 35.1C30.3 35.71 30.06 36.31 29.82 36.92C31.21 35.82 31.92 34.29 32.71 32.71C33 33.28 33.22 33.78 33.5 34.25C33.79 34.73 34.26 34.88 34.64 34.7C35.01 34.52 35.19 34.04 35.04 33.55C34.98 33.34 34.89 33.13 34.77 32.95C34.45 32.44 34.13 31.93 33.77 31.46C33.48 31.09 33.45 30.77 33.57 30.31C34.09 28.39 34.54 26.46 35.01 24.53C35.15 23.94 35.1 23.32 35.56 22.79C35.83 22.48 35.45 22.24 35.23 22.03C34.97 21.78 34.64 21.47 34.3 21.76C33.79 22.2 33.26 22.04 32.61 22.03C32.9 20.9 32.78 19.74 33.46 18.7C32.89 18.56 32.27 18.41 31.58 18.24C31.37 19.54 31.17 20.77 30.97 22.03C30.56 22.05 30.18 22.07 29.71 22.09C30.03 22.64 29.87 23.39 30.74 23.5C30.73 23.68 30.72 23.83 30.7 23.98C30.48 25.49 30.27 27 30.02 28.5C29.96 28.85 30.07 29.07 30.29 29.32C30.75 29.83 31.19 30.37 31.59 30.93C31.72 31.11 31.76 31.43 31.7 31.64C31.33 32.81 30.93 33.95 30.52 35.1ZM31.55 27.82C31.82 26.38 32.08 24.93 32.35 23.45C32.76 23.45 33.07 23.45 33.48 23.45C33.33 25.54 32.86 27.53 32.34 29.53C31.41 28.96 31.36 28.83 31.55 27.82Z" fill="#33422E"/>
<path d="M42.26 27.4C42.09 27.01 41.9 26.64 41.71 26.27C41.56 25.97 41.32 25.96 41.13 26.21C40.7 26.74 40.15 26.58 39.65 26.54C39.49 26.03 39.39 25.55 39.19 25.11C39.04 24.79 39.06 24.55 39.24 24.25C39.93 23.09 40.59 21.9 41.28 20.74C41.53 20.33 41.85 19.96 42.16 19.55C41.61 19.24 40.97 18.88 40.29 18.5C40.16 18.78 40.05 19.02 39.92 19.31C38.47 19.31 37.02 19.31 35.52 19.31C35.57 19.54 35.6 19.71 35.65 19.88C35.85 20.65 35.85 20.65 36.68 20.65C37.6 20.65 38.52 20.65 39.54 20.65C39.17 21.82 38.82 22.92 38.47 24.05C38.09 23.81 37.78 23.61 37.33 23.32C37.7 24.48 38.02 25.48 37.9 26.59C36.9 26.59 35.96 26.59 34.98 26.59C35.03 26.84 35.09 27.03 35.12 27.23C35.19 27.78 35.45 28.02 36.06 27.96C36.68 27.9 37.3 27.95 37.93 27.95C37.93 30.32 37.93 32.59 37.93 34.89C37.53 34.79 37.16 34.71 36.79 34.62C36.76 34.66 36.73 34.69 36.7 34.73C37.32 35.2 37.71 35.78 37.8 36.56C37.85 37.01 38.29 37.17 38.74 37.03C39.31 36.85 39.58 36.44 39.58 35.67C39.59 33.37 39.58 31.08 39.58 28.78C39.58 28.52 39.6 28.27 39.62 27.94C40.42 27.94 41.16 27.94 41.9 27.94C42.26 27.95 42.41 27.76 42.26 27.4Z" fill="#33422E"/>
<path d="M59.32 33.16L59.37 33.09L53.59 29.33H57.25C57.4 29.25 57.39 29.08 57.24 28.76C57.08 28.42 56.93 28.07 56.72 27.76C56.64 27.64 56.3 27.54 56.27 27.57C55.7 28.28 54.9 28 54.19 28.03C53.46 28.06 52.72 28.04 51.83 28.04C51.99 27.48 52.12 27.06 52.25 26.63C51.71 26.52 51.09 26.4 50.42 26.27C50.39 26.9 50.36 27.45 50.33 28.07H45.03C45.08 28.32 45.14 28.49 45.16 28.66C45.23 29.24 45.5 29.47 46.14 29.43C46.91 29.38 47.69 29.4 48.51 29.41L42.79 33.15L42.81 33.19L42.83 33.23L48.66 29.42C48.75 29.42 48.84 29.42 48.93 29.42L43.28 33.86L43.31 33.89L43.34 33.92L49.07 29.41C49.11 29.41 49.15 29.41 49.18 29.41V29.42H49.26L43.88 34.46L43.94 34.52L48.58 30.17C48.66 30.1 48.74 30.04 48.82 29.97C49.02 29.77 49.21 29.59 49.41 29.41H49.68L44.57 35.05L45.97 36L50.07 29.41H50.22L46.76 36.36L46.84 36.4L50.31 29.41H50.39L47.57 36.68L47.65 36.71L50.39 29.64V29.99L48.41 36.93L48.45 36.94L48.49 36.95L50.39 30.31V31.16L49.27 37.11L49.36 37.13L50.39 31.64V33.71V37.27C50.97 37.12 51.44 37 51.96 36.87V32.67L52.8 37.12L52.84 37.11L52.88 37.1L51.95 32.19V31L53.66 36.95L53.74 36.93L51.95 30.69V30.55V30.16L52.55 31.71C52.59 31.82 52.63 31.93 52.68 32.04L54.5 36.71L54.58 36.68L54.38 36.16C54.16 35.5 53.9 34.86 53.63 34.23L52.16 30.46C52.09 30.26 52.02 30.06 51.95 29.86V29.65L55.33 36.41L55.37 36.39L55.41 36.37L51.96 29.46V29.35H51.97H52.03L56.17 36.01L57.59 35.08L57.62 35.06L52.49 29.35H52.69L58.24 34.53L58.27 34.5L58.3 34.47L56.05 32.37C55.82 32.16 55.59 31.94 55.36 31.73L52.82 29.35H53.01L58.8 33.88L58.85 33.81L53.94 29.97C53.68 29.76 53.42 29.56 53.15 29.35H53.4L59.32 33.16Z" fill="#33422E"/>
<path d="M46.07 21.14C46.05 21.16 46.04 21.19 46.02 21.21C46.31 21.21 46.6 21.24 46.88 21.21C48.85 21.01 50.82 20.81 52.79 20.57C53.8 20.44 54.79 20.21 55.81 20.03C55.49 19.49 55.12 18.89 54.83 18.4C51.85 19.33 48.96 20.24 46.07 21.14Z" fill="#33422E"/>
<path d="M53.8 26.15C54.52 25.03 55.21 23.9 55.91 22.77C56.11 22.45 56.34 22.15 56.59 21.8C56.07 21.46 55.47 21.07 54.8 20.64C54.22 22.73 53.67 24.72 53.13 26.71C53.41 26.56 53.65 26.38 53.8 26.15Z" fill="#33422E"/>
<path d="M46.41 21.72C46.69 22.99 46.93 24.13 47.19 25.26C47.23 25.45 47.33 25.64 47.45 25.79C47.85 26.31 48.48 26.24 48.72 25.64C48.81 25.41 48.85 25.11 48.79 24.87C48.46 23.55 47.66 22.56 46.41 21.72Z" fill="#33422E"/>
<path d="M49.91 21.3099C50.2 22.6299 50.44 23.7899 50.72 24.9399C50.86 25.5099 51.29 25.7899 51.73 25.6899C52.14 25.5999 52.45 25.0799 52.33 24.5699C51.99 23.2099 51.16 22.1999 49.91 21.3099Z" fill="#33422E"/>
</g>
<defs>
<linearGradient id="paint0_linear" x1="0" y1="29.4337" x2="306" y2="29.4337" gradientUnits="userSpaceOnUse">
<stop stop-color="#DADADA"/>
<stop offset="0.2241" stop-color="#CBCBCB"/>
<stop offset="0.264" stop-color="#C8C8C8"/>
<stop offset="0.5225" stop-color="white"/>
<stop offset="0.6378" stop-color="#F0F0F0"/>
<stop offset="0.8583" stop-color="#C9C9C9"/>
<stop offset="0.8764" stop-color="#C6C6C6"/>
<stop offset="1" stop-color="#CFCFCF"/>
</linearGradient>
<clipPath id="clip0">
<rect width="309.95" height="54.05" fill="white"/>
</clipPath>
</defs>
</svg>
