<svg width="172" height="161" viewBox="0 0 172 161" fill="none" xmlns="http://www.w3.org/2000/svg">
<path d="M72.85 160.15C111.427 160.15 142.7 128.877 142.7 90.3C142.7 51.7229 111.427 20.45 72.85 20.45C34.2729 20.45 3 51.7229 3 90.3C3 128.877 34.2729 160.15 72.85 160.15Z" fill="white"/>
<path d="M105.03 66.62C106.74 62.03 108.44 57.44 110.16 52.85C110.31 52.44 110.28 52.14 110.07 51.76C99.71 33.13 109.52 9.82 130.1 4.16C148.34 -0.85 167.18 10.82 170.83 29.42C171.07 30.63 171.18 31.87 171.35 33.09C171.38 33.28 171.43 33.47 171.47 33.66C171.47 35.05 171.47 36.44 171.47 37.83C171.3 39.07 171.21 40.33 170.95 41.55C168.18 54.78 160.33 63.52 147.39 67.36C138.85 69.89 130.55 68.68 122.71 64.41C122.36 64.22 122.07 64.17 121.68 64.32C116.95 66.09 112.21 67.85 107.48 69.61C107.38 69.65 107.3 69.71 107.2 69.76C106.9 69.76 106.59 69.76 106.29 69.76C104.77 69.03 104.43 68.22 105.03 66.62Z" fill="white"/>
<path d="M126.77 43.96C125.1 45.82 122.89 46.75 120.15 46.75C117.41 46.75 115.2 45.82 113.53 43.96C111.86 42.1 111.02 39.56 111.02 36.34C111.02 33.14 111.85 30.64 113.51 28.84C115.17 27.04 117.38 26.14 120.14 26.14C122.9 26.14 125.11 27.04 126.77 28.84C128.43 30.64 129.26 33.14 129.26 36.34C129.27 39.56 128.44 42.1 126.77 43.96ZM117.06 40.96C117.81 42.09 118.84 42.66 120.15 42.66C121.46 42.66 122.5 42.09 123.26 40.95C124.02 39.81 124.4 38.27 124.4 36.34C124.4 34.43 124.02 32.92 123.26 31.84C122.5 30.75 121.47 30.21 120.15 30.21C118.83 30.21 117.8 30.75 117.06 31.84C116.31 32.93 115.94 34.43 115.94 36.34C115.93 38.29 116.31 39.83 117.06 40.96Z" fill="white"/>
<path d="M139.55 46.75C136.87 46.75 134.86 45.96 133.51 44.37C132.16 42.79 131.49 40.34 131.49 37.04V28.03C131.49 27.61 131.64 27.25 131.95 26.95C132.25 26.65 132.62 26.49 133.03 26.49H134.7C135.14 26.49 135.5 26.64 135.8 26.95C136.1 27.25 136.24 27.62 136.24 28.03V37.53C136.24 39.37 136.51 40.69 137.05 41.47C137.59 42.25 138.42 42.64 139.56 42.64C140.7 42.64 141.54 42.24 142.09 41.45C142.65 40.66 142.92 39.35 142.92 37.52V28.02C142.92 27.6 143.07 27.24 143.38 26.94C143.68 26.64 144.05 26.48 144.46 26.48H145.97C146.4 26.48 146.77 26.63 147.07 26.94C147.37 27.24 147.51 27.61 147.51 28.02V37.03C147.51 40.35 146.85 42.8 145.54 44.38C144.23 45.96 142.23 46.75 139.55 46.75Z" fill="white"/>
<path d="M156.04 46.39C155.6 46.39 155.24 46.24 154.94 45.93C154.64 45.63 154.5 45.26 154.5 44.85V30.65C154.5 30.53 154.43 30.47 154.29 30.47H150.66C150.22 30.47 149.86 30.32 149.56 30.01C149.26 29.71 149.12 29.34 149.12 28.93V28.04C149.12 27.62 149.27 27.26 149.56 26.96C149.86 26.66 150.22 26.5 150.66 26.5H163.14C163.56 26.5 163.92 26.65 164.22 26.96C164.52 27.26 164.68 27.63 164.68 28.04V28.93C164.68 29.35 164.53 29.71 164.22 30.01C163.92 30.31 163.55 30.47 163.14 30.47H159.46C159.34 30.47 159.28 30.53 159.28 30.65V44.85C159.28 45.27 159.13 45.63 158.82 45.93C158.52 46.23 158.15 46.39 157.74 46.39H156.04V46.39Z" fill="white"/>
<path d="M69.97 158.15C108.547 158.15 139.82 126.877 139.82 88.3C139.82 49.7229 108.547 18.45 69.97 18.45C31.3929 18.45 0.119995 49.7229 0.119995 88.3C0.119995 126.877 31.3929 158.15 69.97 158.15Z" fill="#5A6648"/>
<path d="M102.15 64.62C103.86 60.03 105.56 55.44 107.28 50.85C107.43 50.44 107.4 50.14 107.19 49.76C96.83 31.13 106.64 7.82 127.22 2.16C145.46 -2.85 164.3 8.82 167.95 27.42C168.19 28.63 168.3 29.87 168.47 31.09C168.5 31.28 168.55 31.47 168.59 31.66C168.59 33.05 168.59 34.44 168.59 35.83C168.42 37.07 168.33 38.33 168.07 39.55C165.3 52.78 157.45 61.52 144.51 65.36C135.97 67.89 127.67 66.68 119.83 62.41C119.48 62.22 119.19 62.17 118.8 62.32C114.07 64.09 109.33 65.85 104.6 67.61C104.5 67.65 104.42 67.71 104.32 67.76C104.02 67.76 103.71 67.76 103.41 67.76C101.89 67.03 101.55 66.22 102.15 64.62Z" fill="#7F8460"/>
<path d="M123.89 41.96C122.22 43.82 120.01 44.75 117.27 44.75C114.53 44.75 112.32 43.82 110.65 41.96C108.98 40.1 108.14 37.56 108.14 34.34C108.14 31.14 108.97 28.64 110.63 26.84C112.29 25.04 114.5 24.14 117.26 24.14C120.02 24.14 122.23 25.04 123.89 26.84C125.55 28.64 126.38 31.14 126.38 34.34C126.39 37.56 125.56 40.1 123.89 41.96ZM114.18 38.96C114.93 40.09 115.96 40.66 117.27 40.66C118.58 40.66 119.62 40.09 120.38 38.95C121.14 37.81 121.52 36.27 121.52 34.34C121.52 32.43 121.14 30.92 120.38 29.84C119.62 28.75 118.59 28.21 117.27 28.21C115.95 28.21 114.92 28.75 114.18 29.84C113.43 30.93 113.06 32.43 113.06 34.34C113.06 36.29 113.43 37.83 114.18 38.96Z" fill="white"/>
<path d="M136.67 44.75C133.99 44.75 131.98 43.96 130.63 42.37C129.28 40.79 128.61 38.34 128.61 35.04V26.03C128.61 25.61 128.76 25.25 129.07 24.95C129.37 24.65 129.74 24.49 130.15 24.49H131.82C132.26 24.49 132.62 24.64 132.92 24.95C133.22 25.25 133.36 25.62 133.36 26.03V35.53C133.36 37.37 133.63 38.69 134.17 39.47C134.71 40.25 135.54 40.64 136.68 40.64C137.82 40.64 138.66 40.24 139.21 39.45C139.77 38.66 140.04 37.35 140.04 35.52V26.02C140.04 25.6 140.19 25.24 140.5 24.94C140.8 24.64 141.17 24.48 141.58 24.48H143.09C143.52 24.48 143.89 24.63 144.19 24.94C144.49 25.24 144.63 25.61 144.63 26.02V35.03C144.63 38.35 143.97 40.8 142.66 42.38C141.35 43.96 139.35 44.75 136.67 44.75Z" fill="white"/>
<path d="M153.16 44.39C152.72 44.39 152.36 44.24 152.06 43.93C151.76 43.63 151.62 43.26 151.62 42.85V28.65C151.62 28.53 151.55 28.47 151.41 28.47H147.78C147.34 28.47 146.98 28.32 146.68 28.01C146.38 27.71 146.24 27.34 146.24 26.93V26.04C146.24 25.62 146.39 25.26 146.68 24.96C146.98 24.66 147.34 24.5 147.78 24.5H160.26C160.68 24.5 161.04 24.65 161.34 24.96C161.64 25.26 161.8 25.63 161.8 26.04V26.93C161.8 27.35 161.65 27.71 161.34 28.01C161.04 28.31 160.67 28.47 160.26 28.47H156.58C156.46 28.47 156.4 28.53 156.4 28.65V42.85C156.4 43.27 156.25 43.63 155.94 43.93C155.64 44.23 155.27 44.39 154.86 44.39H153.16V44.39Z" fill="white"/>
<path d="M37.1 91.88C37.1 91.88 39.02 93.44 40.17 94.53C40.09 94.82 39.81 94.95 39.44 94.95H29.25V99.24C29.25 101.37 28.73 102.54 24.96 102.85C24.86 101.89 24.7 101.21 24.18 100.74C23.69 100.27 23.06 99.93 21.53 99.7V99.36C21.53 99.36 24.88 99.57 25.53 99.57C25.95 99.57 26.08 99.41 26.08 99.1V94.94H15.97L15.76 94.19H26.08V91L27.93 91.16C28.48 90.3 29 89.21 29.36 88.35H22.83L22.67 87.75C21.14 89.86 18.9 91.52 15.78 92.69L15.62 92.4C19.96 89.49 21.6 85.46 21.96 80.75H17.07L16.84 80.02H30.44L31.71 78.51L34.8 80.85C34.59 81.14 34.05 81.29 33.4 81.4C33.14 82.05 32.72 82.99 32.41 83.74H35.82L37.3 82.31L39.98 84.49C39.8 84.72 39.46 84.85 38.94 84.93C38.58 89.32 38 91.17 36.83 92.03C36.02 92.58 34.96 92.63 33.66 92.63C33.66 91.95 33.58 91.62 33.3 91.25C32.96 90.83 32.44 90.65 31.61 90.44V90.1C32.29 90.15 33.43 90.23 33.9 90.23C34.32 90.23 34.5 90.18 34.71 90.02C35.28 89.58 35.75 87.76 36.04 84.46H32.3L31.13 85.63L28.43 83.84C28.69 83.63 29.08 83.42 29.44 83.27C29.78 82.52 30.19 81.53 30.48 80.75H25.36C24.94 83.35 24.14 85.66 22.79 87.59H29.37L30.93 86.03L33.66 88.4C33.45 88.61 33.14 88.69 32.65 88.74C31.69 89.52 30.41 90.48 29.11 91.24L30.15 91.32C30.1 91.71 29.84 91.89 29.27 91.97V94.21H35.43L37.1 91.88Z" fill="white"/>
<path d="M44.06 102.57C45.52 100.91 47 98.2 47.8 95.37L51.54 96.88C51.41 97.17 51.05 97.35 50.47 97.3C48.86 99.9 46.67 101.69 44.33 102.81L44.06 102.57ZM68.71 81.04C68.53 81.27 68.14 81.48 67.62 81.59V99.24C67.62 101.27 67.2 102.41 63.95 102.72C63.87 101.78 63.74 101.06 63.4 100.64C63.01 100.2 62.46 99.89 61.27 99.68V99.32C61.27 99.32 63.69 99.45 64.21 99.45C64.65 99.45 64.76 99.29 64.76 98.93V92.72H61.04C60.65 96.44 59.27 100.1 54.88 102.68L54.59 102.45C56.62 100.27 57.61 97.74 58.07 95.01H58.04H44.31L44.1 94.28H46.52V83.43H44.73L44.52 82.68H46.52V78.7L50.16 79.06C50.11 79.37 49.93 79.61 49.33 79.71V82.67H52.58V78.72L56.3 79.06C56.25 79.4 56.07 79.66 55.42 79.76V82.62L56.49 80.9C56.49 80.9 57.74 82.15 58.41 83.01C58.36 83.3 58.1 83.43 57.76 83.43H55.42V94.12L56.54 92.3C56.54 92.3 57.45 93.18 58.2 94.02C58.41 92.38 58.46 90.67 58.46 88.95V79.2L61.68 80.37H64.49L65.84 78.81L68.71 81.04ZM49.34 83.43V86.26H52.59V83.43H49.34ZM49.34 90.14H52.59V87.02H49.34V90.14ZM49.34 94.27H52.59V90.84H49.34V94.27ZM52.02 95.57C58.78 96.97 56.28 101.91 53.76 99.99C53.58 98.48 52.67 96.82 51.78 95.73L52.02 95.57ZM64.76 91.96V86.79H61.22V88.92C61.22 89.91 61.19 90.95 61.12 91.96H64.76ZM61.22 81.12V86.06H64.76V81.12H61.22Z" fill="white"/>
<path d="M78.23 82.39H73L72.79 81.66H78.09L77.6 78.46L81.42 78.64C81.39 78.98 81.21 79.26 80.69 79.39L81.08 81.65H81.24L82.7 79.65C82.7 79.65 84.34 81.03 85.3 81.96C85.22 82.25 84.99 82.38 84.62 82.38H81.19L81.53 84.41C81.11 85.01 80.05 85.27 78.67 85.27C81.09 86.62 79.63 89.2 77.58 88.18C77.03 86.96 75.81 85.53 74.93 84.64L75.16 84.48C76.75 84.51 77.89 84.82 78.64 85.23L78.23 82.39ZM73.6 88.42C80.15 88.71 78.07 93.54 75.5 91.96C75.21 90.76 74.23 89.41 73.39 88.61L73.6 88.42ZM81.53 87.33C80.57 89.62 78.7 94.01 78.33 94.97C78.1 95.67 77.89 96.5 77.89 97.08C77.94 98.22 78.98 98.93 78.88 100.82C78.83 101.96 77.97 102.72 76.64 102.72C76.04 102.72 75.47 102.33 75.26 101.52C75.65 99.23 75.55 97.36 74.97 97C74.61 96.79 74.22 96.69 73.67 96.64V96.15H74.92C75.34 96.15 75.44 96.15 75.78 95.68C76.43 94.82 76.43 94.82 81.16 87.23L81.53 87.33ZM90.71 84.68C90.16 85.1 89.02 85.28 87.82 85.04C87.72 85.22 87.48 85.33 86.91 85.25C86.73 85.56 86.49 85.87 86.29 86.19H90.29L92.01 84.66L94.64 87C94.46 87.26 94.17 87.34 93.52 87.39C92.56 88.72 91.36 89.94 89.96 91C92.09 91.7 94.51 92.12 96.8 92.35V92.66C95.68 92.95 94.98 93.88 94.69 95.23C93.88 95.02 93.1 94.79 92.35 94.53L94.17 95.88C94.04 96.06 93.75 96.24 93.34 96.32V101.91C93.31 102.09 91.83 102.61 90.9 102.61H90.38V101.1H85.23V101.91C85.23 102.12 84.29 102.79 82.81 102.79H82.26V94.86C81.27 95.17 80.26 95.43 79.22 95.67L79.04 95.31C81.72 94.27 84.27 92.84 86.37 91.12C85.56 90.39 84.86 89.56 84.29 88.6C83.09 89.82 81.72 90.94 80.23 91.72L80 91.49C81.77 89.67 83.46 86.47 84.19 83.79L87.78 84.88L88.12 82.38H85.99L85.78 81.65H88.22L88.69 78.48L92.49 79.18C92.41 79.49 92.18 79.78 91.48 79.8L91.19 81.65H93.37L94.85 79.62C94.85 79.62 96.49 81.02 97.45 81.96C97.37 82.25 97.11 82.38 96.75 82.38H91.08L90.71 84.68ZM91.23 94.12C90.03 93.65 88.92 93.08 87.9 92.38C86.57 93.19 85.07 93.91 83.45 94.46L85.58 95.24H90.13L91.23 94.12ZM85.74 86.91C85.43 87.3 85.12 87.69 84.75 88.08C85.53 88.83 86.49 89.48 87.61 90.03C88.62 89.04 89.51 88 90.18 86.91H85.74ZM90.37 100.38V95.99H85.22V100.38H90.37Z" fill="white"/>
<path d="M102.59 88.81C102.59 88.81 103.03 88.73 103.24 88.65C103.97 88.36 104.77 87.48 105.29 86.78H101.68L101.47 86.05H104.1V78.54L106.88 79.61H110.91L112.08 78.23C112.08 78.23 113.41 79.22 114.29 79.95C114.21 80.24 113.95 80.37 113.59 80.37H106.75V81.72H110.99L112 80.58C112 80.58 113.14 81.41 113.9 82.06C113.82 82.35 113.59 82.48 113.25 82.48H106.75V83.91H111.04L112.05 82.77C112.05 82.77 113.22 83.58 113.95 84.23C113.9 84.52 113.66 84.65 113.3 84.65H106.75V86.08H111.74L112.91 84.78C112.91 84.78 114.21 85.69 115.07 86.39C115.02 86.68 114.76 86.81 114.39 86.81H108.64C107.65 87.54 106.25 88.29 104.97 88.92C106.63 88.89 108.92 88.84 111.37 88.76C110.98 88.21 110.54 87.72 110.12 87.38L110.35 87.2C116.12 87.36 114.46 91.65 112.14 90.35C112.06 90.04 111.91 89.7 111.72 89.39C109.93 89.86 107.33 90.53 104.44 91.16C104.31 91.39 104.13 91.55 103.95 91.65L102.59 88.81ZM122.32 90.89C122.32 90.89 124.11 92.22 125.21 93.18C125.16 93.47 124.87 93.6 124.51 93.6H111.48C111.09 94.43 110.62 95.24 110.02 96.02C110.96 97.01 112.2 97.76 113.69 98.31C115.22 97.11 116.5 95.66 117.51 93.86L120.94 95.86C120.76 96.12 120.47 96.25 119.85 96.15C118.99 97.29 117.95 98.31 116.83 99.14C119.04 99.5 121.54 99.63 124.16 99.61L124.13 99.95C122.99 100.31 122.31 101.33 122.08 102.73C118.93 102.37 116.31 101.79 114.12 100.73C111.1 102.13 107.67 102.68 104.29 102.65L104.21 102.31C106.99 101.76 109.72 100.85 112.04 99.42C111.08 98.64 110.25 97.7 109.57 96.56C107.96 98.41 105.64 100.02 102.29 101.16L102.11 100.9C105.46 98.95 107.34 96.3 108.35 93.59H102.5L102.29 92.86H108.61C108.9 91.92 109.13 91.01 109.26 90.13L113.26 91.01C113.16 91.35 112.84 91.58 112.25 91.56C112.12 92 111.96 92.42 111.78 92.86H120.72L122.32 90.89ZM123.99 80.02C123.81 80.28 123.55 80.36 123.03 80.23C120.64 81.61 117.62 82.54 114.74 82.99L114.51 82.57C116.95 81.61 119.32 80.13 121.14 78.23L123.99 80.02ZM125.6 86.97C125.39 87.23 125.13 87.26 124.56 87.13C121.67 88.48 118.29 89.21 114.97 89.52L114.79 89.1C117.7 88.19 120.35 86.79 122.59 84.89L125.6 86.97ZM115.46 85.69C117.85 84.81 120.17 83.4 121.93 81.56L124.79 83.38C124.61 83.64 124.37 83.69 123.83 83.59C121.46 84.89 118.5 85.75 115.67 86.11L115.46 85.69ZM116.16 89.88C121.93 89 120.81 93.55 118.32 92.58C117.88 91.67 116.79 90.6 115.95 90.08L116.16 89.88Z" fill="white"/>
</svg>
