<svg width="314" height="142" viewBox="0 0 314 142" fill="none" xmlns="http://www.w3.org/2000/svg">
<g clip-path="url(#clip0)">
<path d="M252.95 1.94H64.78C32.09 1.94 5.60001 28.44 5.60001 61.12V63.54C5.60001 96.23 32.1 122.72 64.78 122.72H252.95C285.64 122.72 312.13 96.22 312.13 63.54V61.12C312.13 28.44 285.63 1.94 252.95 1.94Z" fill="#B88E8E" stroke="#B88E8E" stroke-width="3.3319" stroke-miterlimit="10"/>
<path d="M247.36 0H59.18C26.5 0 0 26.5 0 59.18V61.6C0 94.29 26.5 120.78 59.18 120.78H247.35C280.04 120.78 306.53 94.28 306.53 61.6V59.18C306.54 26.5 280.04 0 247.36 0Z" fill="#FFDFC9"/>
<path d="M51.64 7.52998C52.35 7.52998 53.07 7.48998 53.78 7.53998C55.55 7.65998 56.7 8.78998 56.81 10.46C56.93 12.3 55.98 13.63 54.15 13.91C51.79 14.27 49.36 14.3 47.03 14.81C41.59 15.98 36.86 18.57 32.82 22.41C31.27 23.88 29.49 24.14 28.1 23.14C26.36 21.89 26.25 19.62 27.99 17.92C33.37 12.66 39.78 9.34998 47.2 8.00998C47.9 7.87998 48.6 7.71998 49.31 7.66998C50.08 7.60998 50.86 7.65998 51.64 7.65998C51.64 7.60998 51.64 7.56998 51.64 7.52998Z" fill="#EDEDED"/>
<path d="M68.59 7.38C71.94 7.38 73.52 8.45 73.52 10.74C73.53 13.04 71.95 14.12 68.61 14.12C65.28 14.12 63.81 13.17 63.71 10.96C63.59 8.49 65.11 7.38 68.59 7.38Z" fill="#EDEDED"/>
<path d="M48.88 38.6201C48.88 38.6201 50.15 39.6501 50.93 40.4001C50.86 40.6701 50.63 40.8001 50.28 40.8001H46.08V44.1701H47.38L48.33 43.1201L50.45 44.7201C50.3 44.8901 49.93 45.1001 49.48 45.2001V51.7701C49.46 51.9201 48.51 52.3201 47.91 52.3201H47.61V50.7001H42.76V52.0001C42.76 52.2001 41.99 52.6201 41.21 52.6201H40.94V43.3201L42.89 44.1701H44.21V40.8001H39.84L39.64 40.0801H44.21V37.0001H41.49L41.44 36.8001C40.77 37.4201 40.04 38.0001 39.29 38.4701L39.01 38.1901C41.16 36.0201 43.23 32.1401 44.03 29.6201L47 30.4701C46.93 30.7701 46.65 30.9201 45.98 30.9701C52.8 33.0901 50.18 36.7701 48.55 35.3201C48.23 34.1701 47.28 32.5501 45.85 31.2201C44.95 32.8201 43.6 34.6701 41.98 36.2701H46.9L47.95 34.9201C47.95 34.9201 49.17 35.8901 49.92 36.6201C49.88 36.9001 49.66 37.0001 49.31 37.0001H46.09V40.0701H47.76L48.88 38.6201ZM42.76 44.9001V49.9701H47.61V44.9001H42.76ZM63.11 39.1001C62.91 39.3001 62.64 39.3501 62.14 39.3701C61.24 40.4201 59.59 41.9901 58.39 42.8901L58.07 42.7201C58.62 41.7701 59.39 40.2001 59.87 39.0201H57.07V50.0201C57.07 51.4401 56.75 52.4401 54.3 52.6401C54.28 52.0601 54.13 51.6101 53.8 51.3101C53.45 51.0101 52.88 50.7901 51.8 50.6401V50.2601C51.8 50.2601 54.12 50.4101 54.62 50.4101C55.02 50.4101 55.14 50.2901 55.14 49.9601V39.0201H50.19L49.97 38.2701H59.84L61.04 37.1001L63.11 39.1001ZM50.76 31.8301L50.53 31.0801H59.15L60.35 29.9301L62.4 31.9001C62.23 32.0501 61.93 32.1001 61.4 32.1501C60.38 33.2201 58.6 34.5501 57.1 35.5001C58.7 37.0201 57.82 38.7001 56.43 37.9701C55.83 36.6201 54.13 34.8701 52.78 33.9501L53.03 33.7301C54.7 34.0301 55.85 34.5601 56.63 35.1101C57.48 34.1601 58.43 32.8901 59.05 31.8401H50.76V31.8301Z" fill="#782A14"/>
<path d="M70.96 45.75C71.71 48.25 71.38 50.15 70.73 51.02C70.31 51.6 69.31 51.77 68.93 51.19C68.61 50.67 68.88 50.07 69.35 49.64C70 48.94 70.65 47.22 70.5 45.74H70.96V45.75ZM68.99 42.65C68.99 42.65 69.49 42.53 69.66 42.37C70.83 41.37 72.21 39.57 73.36 37.82C72.54 38.1 71.54 38.4 70.54 38.67C70.39 38.92 70.19 39.09 69.99 39.17L69.02 36.8C69.02 36.8 69.49 36.68 69.67 36.55C70.92 35.15 72.49 31.58 73.04 29.68L75.64 30.93C75.54 31.18 75.24 31.38 74.74 31.33C73.77 33.03 72.04 35.35 70.52 36.93C71.44 36.93 72.69 36.93 73.94 36.9C74.51 35.95 74.99 35.08 75.29 34.35L77.64 35.95C77.52 36.15 77.17 36.3 76.69 36.2C75.39 38.12 72.94 40.82 70.72 42.67C71.94 42.62 73.64 42.49 75.44 42.37C75.19 41.45 74.79 40.52 74.44 39.85L74.76 39.7C78.81 42.47 77.08 45.6 75.71 44.2C75.71 43.82 75.66 43.42 75.59 43.03C74.27 43.43 72.39 44 70.44 44.5C70.24 44.77 70.02 44.95 69.79 45.02L68.99 42.65ZM73.01 45.32C76.11 48.57 74.08 51.64 72.83 50.04C73.08 48.57 72.93 46.67 72.63 45.42L73.01 45.32ZM82.48 41.42C82.33 42.09 82.16 42.72 81.98 43.34H87.13L88.3 42.26L90.2 44.01C90.05 44.23 89.77 44.28 89.2 44.31C88.45 45.91 87.48 47.33 86.18 48.53C87.8 49.5 89.75 50.2 91.85 50.63L91.8 50.88C91.03 51.05 90.48 51.63 90.25 52.53C88.15 51.81 86.38 50.83 84.95 49.58C82.98 51 80.53 52.05 77.4 52.73L77.22 52.31C79.99 51.43 82.27 50.23 83.97 48.64C82.95 47.52 82.15 46.17 81.55 44.59C80.3 47.81 78.3 50.54 75.03 52.64L74.78 52.34C78.08 49.39 79.78 45.64 80.55 41.42H76.98L76.78 40.7H80.68C80.83 39.87 80.9 39.05 80.98 38.2H77.76L77.56 37.48H85.78C86.35 36.1 87.1 33.98 87.68 32.11L90.3 33.09C90.2 33.36 89.88 33.59 89.38 33.54C88.51 34.87 87.43 36.34 86.46 37.49H87.21L88.36 36.07C88.36 36.07 89.66 37.07 90.48 37.82C90.41 38.09 90.18 38.22 89.81 38.22H83.01C82.91 39.1 82.78 39.89 82.61 40.72H88.63L89.8 39.19C89.8 39.19 91.17 40.24 92 41.04C91.92 41.32 91.68 41.44 91.35 41.44H82.48V41.42ZM75.23 44.92C78.98 46.99 77.3 49.92 75.98 48.62C75.98 47.45 75.46 45.97 74.91 45.05L75.23 44.92ZM90.36 31.58C90.11 31.8 89.64 31.8 88.99 31.53C86.02 32.08 81.37 32.5 77.24 32.45L77.16 32C81.08 31.58 85.86 30.48 88.31 29.53L90.36 31.58ZM78.41 33.08C83.03 34.95 81.51 38.13 79.93 36.88C79.73 35.71 78.83 34.18 78.13 33.23L78.41 33.08ZM81.93 44.07C82.63 45.52 83.65 46.72 84.9 47.69C85.85 46.61 86.6 45.39 87.1 44.07H81.93ZM82.31 32.53C86.78 34.73 84.98 37.95 83.46 36.53C83.36 35.28 82.64 33.68 82.01 32.68L82.31 32.53Z" fill="#782A14"/>
<path d="M118.78 42.85C118.78 42.85 120.3 44.02 121.23 44.9C121.16 45.18 120.88 45.3 120.53 45.3H110.43V50.05C110.43 51.57 110.06 52.47 107.31 52.72C107.21 52.1 107.11 51.62 106.69 51.32C106.27 50.99 105.62 50.74 104.37 50.6V50.22C104.37 50.22 107.24 50.42 107.82 50.42C108.27 50.42 108.39 50.27 108.39 49.92V45.3H98.29L98.07 44.58H108.39V41.6L109.81 41.75C110.61 40.92 111.46 39.87 112.01 39H104.66L104.43 38.3C103.06 40.27 101.03 41.85 98.16 43.02L97.98 42.67C102.35 40.05 104.08 36.45 104.6 31.75H99.53L99.31 31H112.86L113.86 29.88L116.13 31.73C115.93 31.98 115.46 32.1 114.91 32.18C114.59 32.88 114.16 33.93 113.79 34.75H117.89L118.94 33.7L120.96 35.35C120.78 35.55 120.49 35.67 119.99 35.73C119.72 39.58 119.12 41.48 118.17 42.2C117.5 42.68 116.62 42.75 115.62 42.75C115.62 42.3 115.52 42.03 115.24 41.8C114.94 41.52 114.27 41.35 113.54 41.22V40.82C114.26 40.87 115.56 40.97 116.04 40.97C116.44 40.97 116.61 40.95 116.81 40.77C117.33 40.32 117.81 38.55 118.08 35.47H113.63L112.73 36.32L110.83 34.85C111.08 34.68 111.45 34.5 111.78 34.37C112.15 33.6 112.58 32.55 112.9 31.75H106.83C106.43 34.27 105.71 36.47 104.46 38.27H112.16L113.36 37.07L115.43 38.97C115.23 39.17 114.93 39.19 114.41 39.24C113.44 40.02 112.01 41.07 110.64 41.81L111.29 41.89C111.24 42.27 110.99 42.44 110.44 42.51V44.56H117.46L118.78 42.85Z" fill="#782A14"/>
<path d="M150.46 31.8801C150.28 32.0501 149.91 32.2801 149.41 32.3801V49.9501C149.41 51.4801 149.09 52.3501 146.56 52.6001C146.49 52.0001 146.36 51.5001 146.04 51.2001C145.67 50.8701 145.07 50.6501 143.97 50.4801V50.1001C143.97 50.1001 146.39 50.2701 146.92 50.2701C147.37 50.2701 147.49 50.1001 147.49 49.7201V43.2001H143.02C142.67 46.7201 141.57 50.1501 138 52.6001L137.65 52.3301C139.6 50.3101 140.5 47.9101 140.92 45.2801C140.82 45.4501 140.62 45.5301 140.35 45.5301H127.33L127.13 44.7801H129.85V34.3201H127.78L127.61 33.6001H129.86V29.9501L132.58 30.2301C132.51 30.5601 132.31 30.7801 131.73 30.8801V33.6001H135.85V29.9301L138.65 30.2301C138.57 30.5801 138.35 30.8101 137.75 30.9001V33.6001H138L138.97 32.2001C138.97 32.2001 140.09 33.2201 140.69 33.9201C140.64 34.1901 140.42 34.3201 140.09 34.3201H137.74V44.7701H138.01L139.06 43.2701C139.06 43.2701 140.21 44.3201 140.96 45.0701C141.21 43.4001 141.26 41.6501 141.26 39.8201V30.3701L143.48 31.2901H147.23L148.18 30.1201L150.46 31.8801ZM127.14 52.3701C128.59 51.0201 130.09 48.7001 130.96 46.1201L133.66 47.2701C133.54 47.5201 133.21 47.7201 132.69 47.6501C131.34 49.9501 129.44 51.6701 127.47 52.6701L127.14 52.3701ZM131.71 34.3201V37.1201H135.83V34.3201H131.71ZM131.71 40.8501H135.83V37.8501H131.71V40.8501ZM131.71 44.7701H135.83V41.5701H131.71V44.7701ZM134.96 46.2701C140.43 47.8701 138.86 51.6701 137.01 50.3201C136.76 49.0001 135.64 47.4001 134.69 46.4701L134.96 46.2701ZM147.48 42.4701V37.4701H143.13V39.7901C143.13 40.6701 143.11 41.5601 143.06 42.4601H147.48V42.4701ZM143.13 32.0001V36.7701H147.48V32.0001H143.13Z" fill="#782A14"/>
<path d="M177.31 41.4C177.31 41.4 178.91 42.6 179.91 43.48C179.84 43.75 179.56 43.88 179.21 43.88H169.29V49.7C169.29 51.25 168.84 52.4 165.77 52.65C165.69 51.97 165.47 51.45 165 51.15C164.45 50.77 163.7 50.53 162.1 50.32V49.94C162.1 49.94 165.72 50.19 166.45 50.19C166.95 50.19 167.12 50.02 167.12 49.59V43.87H156.57L156.34 43.15H167.11V38.33H158.11L157.91 37.58H167.11V33.1C164.14 33.43 160.96 33.65 157.94 33.65L157.87 33.2C163.94 32.62 171.22 31.1 174.97 29.65L177.22 31.8C177 32 176.5 32.03 175.8 31.75C173.95 32.15 171.73 32.55 169.3 32.85V37.57H174.62L175.99 35.87C175.99 35.87 177.54 37.04 178.51 37.92C178.46 38.19 178.19 38.32 177.84 38.32H169.29V43.14H175.89L177.31 41.4Z" fill="#782A14"/>
<path d="M198.38 49.87C199.68 50.07 201.15 50.12 202.85 50.12C204.25 50.12 207.47 50.12 209.05 50.09V50.42C208.35 50.57 207.95 51.24 207.93 52.02H202.73C196.86 52.02 193.68 50.94 191.68 46C190.66 48.57 188.98 51.02 186.13 52.67L185.88 52.4C189.03 49.63 190.28 45.18 190.65 41.4L193.62 41.93C193.52 42.28 193.22 42.5 192.67 42.53C192.47 43.45 192.24 44.41 191.9 45.35C192.97 47.52 194.37 48.72 196.32 49.4V38.52H191.72V39.52C191.72 39.72 190.87 40.17 190.05 40.17H189.73V30.45L191.88 31.37H202.7L203.75 30.22L206 31.97C205.88 32.15 205.5 32.35 204.98 32.45V39.32C204.96 39.47 203.96 39.92 203.28 39.92H202.96V38.52H198.39V43.47H203.26L204.58 41.8C204.58 41.8 206.15 42.95 207.1 43.8C207.03 44.08 206.75 44.2 206.4 44.2H198.38V49.87V49.87ZM202.96 37.77V32.07H191.74V37.77H202.96Z" fill="#782A14"/>
<path d="M223.96 31.63C223.81 31.83 223.44 32.01 222.99 32.1V50.2C222.99 51.55 222.74 52.35 220.52 52.58C220.45 52.05 220.35 51.61 220.05 51.38C219.73 51.11 219.2 50.91 218.23 50.76V50.36C218.23 50.36 220.33 50.53 220.8 50.53C221.22 50.53 221.32 50.38 221.32 50.01V41.54C220.72 42.12 220 42.87 219.17 43.66C219.15 43.93 218.99 44.23 218.77 44.36L218.07 42.96C217.84 46.36 217.17 49.93 215.05 52.71L214.63 52.48C216.45 48.46 216.5 43.41 216.5 38.73V30.26L218.5 31.11H221.1L221.95 30.06L223.96 31.63ZM218.16 38.7C218.16 39.82 218.16 41 218.09 42.25C218.84 41.93 220.04 41.33 221.31 40.68V37.88C221.16 37.93 220.96 37.95 220.74 37.9C220.17 37.43 219.14 36.8 218.17 36.38V38.7H218.16ZM218.16 31.83V35.7C219.76 35.58 220.76 35.87 221.31 36.3V31.83H218.16ZM236.13 49.57C236.13 49.57 237.43 50.57 238.2 51.32C238.13 51.6 237.88 51.72 237.53 51.72H223.81L223.61 50.99H229.68V48.09H224.81L224.61 47.37H229.68V44.75H226.73V45.22C226.73 45.37 225.96 45.8 225.21 45.8H224.94V36.63L226.89 37.48H229.69V35.38H224.07L223.87 34.66H229.69V32.29C227.99 32.41 226.17 32.49 224.52 32.49L224.45 32.07C227.95 31.6 232.32 30.55 234.57 29.7L236.67 31.72C236.42 31.94 235.92 31.94 235.3 31.69C234.23 31.87 232.93 32.02 231.5 32.14V34.66H234.95L236.07 33.26C236.07 33.26 237.32 34.23 238.12 34.98C238.07 35.25 237.82 35.38 237.47 35.38H231.5V37.48H234.1L235.07 36.43L237.14 38.03C236.99 38.2 236.64 38.41 236.17 38.48V44.93C236.17 45.1 235.25 45.48 234.65 45.48H234.35V44.76H231.5V47.38H234.22L235.29 46.01C235.29 46.01 236.54 46.98 237.26 47.71C237.21 47.98 236.98 48.11 236.64 48.11H231.49V51H235.04L236.13 49.57ZM226.73 38.2V40.72H229.68V38.2H226.73ZM229.68 44.02V41.45H226.73V44.02H229.68ZM231.48 38.2V40.72H234.33V38.2H231.48ZM234.33 44.02V41.45H231.48V44.02H234.33Z" fill="#782A14"/>
<path d="M253.96 31.65C253.81 31.82 253.44 32.03 252.99 32.1V50.1C252.99 51.5 252.72 52.35 250.44 52.55C250.36 52.03 250.24 51.53 249.94 51.28C249.59 51 249.09 50.78 248.07 50.66V50.26C248.07 50.26 250.24 50.44 250.72 50.44C251.14 50.44 251.24 50.29 251.24 49.91V41.29C250.56 41.96 249.74 42.84 248.79 43.74C248.76 44.06 248.61 44.34 248.36 44.46L247.44 42.74C247.24 46.19 246.59 49.86 244.39 52.71L243.96 52.48C245.76 48.46 245.78 43.38 245.78 38.73V30.23L247.83 31.11H251L251.87 30.06L253.96 31.65ZM247.51 38.72C247.51 39.87 247.51 41.07 247.43 42.34C248.23 41.99 249.68 41.26 251.23 40.44V38.12C251.05 38.19 250.83 38.22 250.58 38.17C249.91 37.57 248.66 36.87 247.51 36.42V38.72ZM247.51 31.83V35.78C249.46 35.61 250.66 36.03 251.23 36.55V31.83H247.51V31.83ZM267.18 44.25C267.06 44.47 266.75 44.5 266.38 44.37C265.46 45.04 263.73 45.94 262.31 46.64C263.63 48.49 265.43 49.86 267.66 50.59L267.64 50.84C266.89 51.04 266.32 51.64 266.09 52.59C262.44 50.69 260.64 47.32 259.72 42.29H257.32V49.94C258.57 49.67 260.07 49.34 261.54 48.99L261.61 49.34C260.51 49.92 258.46 51.04 256.16 52.09C256.01 52.39 255.79 52.59 255.59 52.69L254.37 50.47C255.29 49.97 255.42 49.8 255.42 49.39V42.29H253.7L253.5 41.56H255.92V30.26L258.22 31.18H262.94L264.16 29.66C264.16 29.66 265.58 30.71 266.46 31.51C266.39 31.78 266.16 31.91 265.81 31.91H257.86V34.66H262.38L263.53 33.21C263.53 33.21 264.85 34.21 265.68 34.98C265.61 35.26 265.36 35.38 265.01 35.38H257.86V38.15H262.48L263.63 36.7C263.63 36.7 264.93 37.7 265.75 38.47C265.7 38.75 265.43 38.87 265.1 38.87H257.85V41.54H264.12L265.34 39.99C265.34 39.99 266.74 41.06 267.61 41.86C267.53 42.14 267.29 42.26 266.93 42.26H260.18C260.58 43.63 261.18 44.93 261.9 46.06C262.95 45.01 264.1 43.64 264.75 42.74L267.18 44.25Z" fill="#782A14"/>
<path d="M55.56 86.75H62.48V88.45H55.56V86.75Z" fill="#C9690A"/>
<path d="M89.13 85C89.13 85 91.05 86.42 92.28 87.45C92.21 87.73 91.93 87.85 91.56 87.85H82.06V93.02C82.06 95.12 81.44 96.59 77.49 96.87C77.42 95.84 77.22 95.07 76.64 94.62C76.04 94.15 75.32 93.8 73.52 93.52V93.2C73.52 93.2 77.42 93.45 78.22 93.45C78.67 93.45 78.84 93.25 78.84 92.9V87.85H68.69L68.49 87.13H78.84V82.46H70.07L69.87 81.74H78.84V77.59C75.94 77.82 72.87 77.94 70.02 77.92L69.94 77.52C75.81 76.79 82.94 75.05 86.56 73.45L89.63 76.42C89.36 76.64 88.78 76.69 87.91 76.37C86.24 76.72 84.24 77.02 82.06 77.27V81.74H86.41L88.11 79.62C88.11 79.62 90.01 81.07 91.18 82.07C91.11 82.34 90.83 82.47 90.46 82.47H82.06V87.14H87.38L89.13 85Z" fill="#C9690A"/>
<path d="M111.16 93.42C112.31 93.54 113.61 93.59 115.08 93.59C116.48 93.59 119.75 93.59 121.33 93.56V93.86C120.38 94.08 119.91 95.11 119.88 96.28H114.93C109.18 96.28 106.08 95.13 104.28 90.33C103.21 92.88 101.38 95.25 98.21 96.85L98.01 96.6C101.21 93.6 102.23 89.05 102.41 85.35L106.36 86C106.26 86.35 105.98 86.58 105.39 86.6C105.19 87.6 104.94 88.63 104.57 89.62C105.47 91.2 106.62 92.14 108.17 92.74V82.34H104.65V83.34C104.65 83.64 103.35 84.26 102.15 84.26H101.7V74.13L104.82 75.35H114.34L115.71 73.85L118.58 76.05C118.43 76.25 118.08 76.45 117.58 76.55V83.1C117.56 83.3 116.11 83.92 115.08 83.92H114.58V82.37H111.16V87.32H114.86L116.56 85.2C116.56 85.2 118.53 86.62 119.68 87.62C119.63 87.9 119.33 88.02 118.96 88.02H111.16V93.42V93.42ZM114.58 81.67V76.07H104.63V81.67H114.58Z" fill="#C9690A"/>
<path d="M127.21 79.45C133.61 80.3 131.33 84.95 128.91 83.2C128.71 81.9 127.81 80.48 127.01 79.6L127.21 79.45ZM150.63 76.28C150.43 76.5 150.18 76.58 149.68 76.6C148.86 77.3 147.43 78.45 146.53 79.1L146.28 78.98C146.4 78.23 146.66 76.98 146.8 76.03H136.33C136.85 79.88 134.26 80.28 133.53 79.18C132.91 81.9 131.83 86.83 131.61 88.05C131.46 88.83 131.36 89.67 131.36 90.3C131.44 91.65 132.43 92.57 132.36 94.8C132.31 96.07 131.46 96.9 130.29 96.9C129.74 96.9 129.14 96.55 128.97 95.6C129.42 93 129.35 90.6 128.77 90.2C128.45 89.98 128.05 89.88 127.52 89.82V89.35H128.59C128.94 89.35 129.06 89.33 129.29 88.83C129.76 87.95 129.76 87.95 133.16 79.03L133.48 79.08C133.26 78.68 133.31 78.08 133.83 77.38C134.73 76.83 135.33 75.71 135.43 73.78H135.78C135.98 74.33 136.1 74.86 136.2 75.33H146.65L148.1 73.86L150.63 76.28ZM128.89 73.73C135.46 75.03 132.84 79.68 130.41 77.73C130.24 76.35 129.41 74.88 128.66 73.88L128.89 73.73ZM142.68 87.02C144.35 89.77 147.4 91.87 150.23 92.92L150.18 93.2C149.08 93.42 148.23 94.37 147.86 95.82C145.36 94.05 143.56 91.32 142.41 87.8V96.12C142.41 96.37 141.16 96.89 140.09 96.89H139.57V90.52C137.82 92.72 135.47 94.54 132.72 95.97L132.47 95.65C135.07 93.43 137.04 90.15 138.22 87.03H133.42L133.22 86.33H139.57V82.98L143.27 83.3C143.22 83.65 143.05 83.88 142.42 83.97V86.32H145.62L147.17 84.22C147.17 84.22 148.92 85.64 149.97 86.62C149.9 86.9 149.65 87.02 149.3 87.02H142.68V87.02ZM141.26 76.97C141.21 77.25 141.01 77.5 140.49 77.57C140.22 80.27 139.82 82.79 134.14 84.42L133.89 84.07C137.74 82.07 137.74 79.6 137.79 76.67L141.26 76.97ZM145.88 77.08C145.83 77.4 145.61 77.6 145.16 77.68V80.68C145.16 80.96 145.23 81.03 145.63 81.03H146.68H147.63C147.78 81.03 148.03 81.01 148.15 80.98C148.27 80.98 148.53 80.93 148.67 80.88H148.92L149.04 80.9C149.66 81.18 149.86 81.38 149.86 81.82C149.86 82.77 148.96 83.12 146.34 83.12H144.84C142.94 83.12 142.69 82.62 142.69 81.15V76.78L145.88 77.08Z" fill="#C9690A"/>
<path d="M176.83 80.57L178.75 82.57C178.57 82.74 178.25 82.9 177.85 82.97V87.44C177.8 87.54 176.88 88.06 175.78 88.06H175.31V87.36H164.86V87.69C164.86 87.81 164.51 88.04 164.04 88.21L166.24 89.09H173.51L174.78 87.74L177.5 89.76C177.38 89.93 177.03 90.16 176.55 90.24V95.91C176.52 96.08 175.1 96.56 174.23 96.56H173.76V95.41H166.11V95.94C166.11 96.19 164.91 96.79 163.81 96.79H163.41V88.42C163.19 88.47 162.99 88.5 162.76 88.5L162.38 88.47V80.7L165.03 81.77H166.73L166.61 81.69C166.36 80.72 165.61 79.67 164.96 79.04L165.16 78.86C169.21 78.91 169.33 81.06 168.28 81.76H171.48C171.78 80.84 172.1 79.61 172.3 78.74L175 79.41V78.71H161.5V82.46C161.5 87.11 161.25 93.03 156.4 96.88L156.1 96.68C158.52 92.56 158.72 87.31 158.72 82.48V73.88L161.92 75.05H174.74L176.01 73.65L178.78 75.7C178.63 75.9 178.28 76.12 177.76 76.22V79.09C177.74 79.21 176.71 79.57 175.86 79.67C175.76 79.97 175.46 80.14 174.94 80.12C174.27 80.57 173.29 81.22 172.37 81.74H175.79L176.83 80.57ZM175.01 78V75.78H161.51V78H175.01ZM164.86 86.67H168.86V82.47H164.86V86.67ZM165.38 82.87C169.98 84.07 168.33 87.24 166.68 86.02C166.5 85 165.76 83.8 165.11 83.05L165.38 82.87ZM166.11 89.82V91.9H173.76V89.82H166.11ZM173.76 94.72V92.62H166.11V94.72H173.76ZM175.31 86.67V82.47H171.26V86.67H175.31ZM171.61 86.07C172.01 85.27 172.51 83.97 172.93 82.77L175.33 84.04C175.18 84.29 174.83 84.44 174.36 84.34C173.64 85.04 172.76 85.76 171.99 86.31L171.61 86.07Z" fill="#C9690A"/>
<path d="M192.93 76.83C192.93 76.83 194.25 77.88 195.08 78.65C195.01 78.93 194.76 79.05 194.41 79.05H185.84L185.64 78.35H191.76L192.93 76.83ZM191.16 81.52L192.26 80.1C192.26 80.1 193.48 81.1 194.26 81.82C194.19 82.1 193.96 82.22 193.61 82.22H186.71L186.51 81.52H191.16ZM192.26 83.32C192.26 83.32 193.48 84.32 194.26 85.04C194.19 85.32 193.96 85.44 193.61 85.44H186.71L186.51 84.74H191.16L192.26 83.32ZM193.76 94.8C193.73 95 192.51 95.57 191.64 95.57H191.22V94.32H189.27V95.87C189.27 96.09 188.2 96.67 187.12 96.67H186.75V86.85L189.35 87.92H191L192.17 86.67L194.64 88.52C194.52 88.67 194.19 88.87 193.77 88.97V94.8H193.76ZM187.66 73.93C194.08 74.23 191.78 79.08 189.23 77.38C189.01 76.18 188.18 74.86 187.43 74.06L187.66 73.93ZM191.21 93.62V88.62H189.26V93.62H191.21ZM208.46 90.12C208.26 90.34 208.01 90.42 207.41 90.47C206.61 91.62 205.61 92.57 204.44 93.39C205.99 93.72 207.64 93.92 209.29 94.01V94.31C208.24 94.61 207.59 95.48 207.37 96.78C205.27 96.33 203.37 95.73 201.75 94.88C199.45 95.9 196.68 96.55 193.53 96.85L193.41 96.47C195.98 95.89 198.31 95.05 200.21 93.92C198.81 92.92 197.66 91.67 196.81 90.02H194.76L194.53 89.3H204.53L205.93 88.02H198.16V88.17C198.16 88.34 197.36 88.94 196.09 88.94H195.64V82.84C195.12 83.22 194.59 83.57 194.07 83.87L193.77 83.62C194.87 82.2 196.09 79.85 196.89 77.52L197.79 77.92V76.5H194.62L194.4 75.78H197.8V73.45L201.05 73.75C201 74 200.82 74.22 200.3 74.3V77.27L200.35 77.25C201.25 77.27 201.9 77.4 202.37 77.6V73.45L205.64 73.75C205.59 74 205.44 74.22 204.89 74.3V75.77H206.09L207.16 74.32C207.16 74.32 208.36 75.35 209.08 76.09C209.01 76.37 208.76 76.49 208.43 76.49H204.88V77.54C204.88 77.71 203.96 78.01 203.11 78.09C204.06 79.14 202.49 80.69 201.06 79.61C201.06 78.86 200.68 78.06 200.29 77.56C200.24 77.74 199.14 78.09 198.27 78.09H198.15L200.05 78.92C199.93 79.19 199.58 79.39 199.05 79.32C198.87 79.57 198.67 79.82 198.5 80.07H205.3L206.42 78.67C206.42 78.67 207.69 79.67 208.49 80.39C208.44 80.66 208.19 80.79 207.84 80.79H203.29V82.46H204.91L205.96 81.19C205.96 81.19 207.11 82.09 207.88 82.79C207.81 83.06 207.56 83.19 207.23 83.19H203.28V84.86H204.9L205.95 83.61C205.95 83.61 207.12 84.51 207.87 85.19C207.8 85.46 207.57 85.59 207.25 85.59H203.28V87.31H205.63L206.85 85.81C206.85 85.81 208.27 86.84 209.15 87.64C209.1 87.91 208.83 88.04 208.47 88.04H206.2L208.46 90.12ZM197.41 90.05C198.51 91.27 200.08 92.15 201.93 92.77C202.93 91.97 203.75 91.05 204.38 90.05H197.41ZM200.81 80.8H198.14V82.47H200.81V80.8ZM200.81 83.2H198.14V84.87H200.81V83.2ZM198.13 87.32H200.8V85.6H198.13V87.32Z" fill="#C9690A"/>
<path d="M236.01 93C236.01 93 237.81 94.55 238.83 95.57C238.78 95.84 238.51 95.97 238.16 95.97H221.61L221.41 95.25H228.98V90.8H223.86L223.66 90.1H228.98V86.15H226.63V86.85C226.63 87.15 225.43 87.8 224.23 87.8H223.78V83.4C223.68 83.57 223.48 83.65 223.21 83.65H220.41V89.82C221.51 89.5 222.68 89.15 223.83 88.8L223.93 89.08C222.36 90.25 219.88 91.93 216.43 94C216.36 94.32 216.11 94.6 215.83 94.7L214.51 91.43C215.16 91.31 216.23 91.01 217.53 90.66V83.66H215.03L214.83 82.96H217.53V76.76H214.98L214.78 76.04H220.13L221.63 73.99C221.63 73.99 222.83 74.99 223.78 75.87V74.2L226.78 75.4H234.05L235.42 73.9L238.17 76.07C238.02 76.27 237.67 76.49 237.17 76.6V86.4C237.14 86.63 235.8 87.28 234.77 87.28H234.29V86.18H231.82V90.13H233.67L235.17 88.06C235.17 88.06 236.82 89.46 237.79 90.43C237.74 90.71 237.47 90.83 237.09 90.83H231.82V95.28H234.44L236.01 93ZM221.71 80.97C221.71 80.97 223.06 82.27 223.78 83.17V76.75H223.63H220.41V82.95H220.48L221.71 80.97ZM226.63 76.1V80.4H228.98V76.1H226.63ZM228.98 85.42V81.12H226.63V85.42H228.98ZM231.83 76.1V80.4H234.3V76.1H231.83ZM234.31 85.42V81.12H231.84V85.42H234.31Z" fill="#C9690A"/>
<path d="M244.46 86.75H251.38V88.45H244.46V86.75Z" fill="#C9690A"/>
<path d="M303.11 118C299.8 118.17 296.73 118.3 293.65 118.48C290.96 118.63 289.57 120.58 290.28 123.2C291.53 127.74 292.8 132.27 294.07 136.8C294.15 137.09 294.23 137.37 294.32 137.71C290.98 138.64 287.73 139.55 284.36 140.48C284.26 140.12 284.16 139.78 284.07 139.43C282.83 134.99 281.6 130.55 280.36 126.12C279.56 123.26 277.41 122.35 274.78 123.77C272.13 125.19 269.49 126.64 266.65 128.18C269.3 114.08 271.92 100.18 274.57 86.07C284.14 96.78 293.55 107.31 303.11 118Z" fill="#EDEDED" stroke="black" stroke-width="2.4262" stroke-miterlimit="10" stroke-linecap="round" stroke-linejoin="round"/>
</g>
<defs>
<clipPath id="clip0">
<rect width="313.8" height="141.7" fill="white"/>
</clipPath>
</defs>
</svg>
