<svg width="90" height="86" viewBox="0 0 90 86" fill="none" xmlns="http://www.w3.org/2000/svg">
<g clip-path="url(#clip0)">
<path d="M87.24 38.48C87.31 37.06 87.41 35.64 87.45 34.22C87.63 28.19 87.2 22.25 84.88 16.58C79.83 4.20002 65.96 1.18002 56.16 10.33C52.1 14.13 50.07 19.02 48.7 24.25C48.08 26.63 47.61 29.05 47.08 31.45C46.77 32.85 45.72 33.25 44.73 32.23C43.32 30.77 42.07 29.16 40.7 27.67C39.94 26.84 39.08 26.08 38.24 25.33C35.63 23 33.12 20.54 29.71 19.28C27.27 18.38 24.81 18.19 22.33 18.78C15.1 20.53 9.80999 27 9.05999 34.58C8.25999 42.61 11.29 49.32 16.05 55.41C22.76 64.01 31.48 70.21 40.84 75.58C47.55 79.42 54.57 82.55 61.9 85.02C62.4 85.19 62.88 85.39 63.37 85.57C63.33 85.71 63.28 85.86 63.24 86C60.49 85.43 57.71 84.94 54.99 84.27C48.36 82.63 41.88 80.47 35.75 77.46C31.99 75.61 28.37 73.46 24.75 71.33C22.58 70.05 20.46 68.66 18.45 67.14C16.48 65.64 14.69 63.91 12.83 62.28C12.1 61.64 11.26 61.08 10.67 60.33C8.87999 58.06 7.13999 55.74 5.46999 53.38C4.61999 52.18 3.89999 50.89 3.21999 49.59C0.749991 44.86 -0.160009 39.85 0.0499913 34.48C0.189991 31.02 1.10999 27.86 2.59999 24.93C4.54999 21.1 7.40999 17.9 11.17 15.58C18.89 10.82 26.89 10.44 35.09 13.98C37.1 14.85 38.9 16.27 40.72 17.53C42.19 18.55 42.34 18.53 43.32 16.9C44.65 14.7 45.89 12.41 47.47 10.39C50.64 6.34002 54.58 3.24002 59.52 1.55002C66.08 -0.689983 72.5 -0.709983 78.57 2.96002C84.49 6.54002 87.44 12.18 88.72 18.76C89.97 25.17 89.29 31.51 87.76 37.8C87.7 38.05 87.6 38.28 87.52 38.52C87.42 38.51 87.33 38.49 87.24 38.48Z" fill="url(#paint0_linear)"/>
</g>
<defs>
<linearGradient id="paint0_linear" x1="89.3586" y1="43" x2="-7.07882e-06" y2="43" gradientUnits="userSpaceOnUse">
<stop stop-color="#613C17"/>
<stop offset="0.0188" stop-color="#7A5324"/>
<stop offset="0.0435" stop-color="#946B32"/>
<stop offset="0.0655" stop-color="#A47A3B"/>
<stop offset="0.0827" stop-color="#AA7F3E"/>
<stop offset="0.2687" stop-color="#AB7E3E"/>
<stop offset="0.4877" stop-color="#AE7E41"/>
<stop offset="0.5847" stop-color="#B68647"/>
<stop offset="0.734" stop-color="#CB9B56"/>
<stop offset="0.7603" stop-color="#D0A059"/>
<stop offset="0.948" stop-color="#C09050"/>
<stop offset="1" stop-color="#613C17"/>
</linearGradient>
<clipPath id="clip0">
<rect width="89.36" height="86" fill="white"/>
</clipPath>
</defs>
</svg>
