<svg width="171" height="161" viewBox="0 0 171 161" fill="none" xmlns="http://www.w3.org/2000/svg">
<path d="M71.85 160.15C110.427 160.15 141.7 128.877 141.7 90.3C141.7 51.7229 110.427 20.45 71.85 20.45C33.2729 20.45 2 51.7229 2 90.3C2 128.877 33.2729 160.15 71.85 160.15Z" fill="white"/>
<path d="M104.03 66.62C105.74 62.03 107.44 57.44 109.16 52.85C109.31 52.44 109.28 52.14 109.07 51.76C98.71 33.13 108.52 9.82 129.1 4.16C147.34 -0.85 166.18 10.82 169.83 29.42C170.07 30.63 170.18 31.87 170.35 33.09C170.38 33.28 170.43 33.47 170.47 33.66C170.47 35.05 170.47 36.44 170.47 37.83C170.3 39.07 170.21 40.33 169.95 41.55C167.18 54.78 159.33 63.52 146.39 67.36C137.85 69.89 129.55 68.68 121.71 64.41C121.36 64.22 121.07 64.17 120.68 64.32C115.95 66.09 111.21 67.85 106.48 69.61C106.38 69.65 106.3 69.71 106.2 69.76C105.9 69.76 105.59 69.76 105.29 69.76C103.77 69.03 103.43 68.22 104.03 66.62Z" fill="white"/>
<path d="M125.77 43.96C124.1 45.82 121.89 46.75 119.15 46.75C116.41 46.75 114.2 45.82 112.53 43.96C110.86 42.1 110.02 39.56 110.02 36.34C110.02 33.14 110.85 30.64 112.51 28.84C114.17 27.04 116.38 26.14 119.14 26.14C121.9 26.14 124.11 27.04 125.77 28.84C127.43 30.64 128.26 33.14 128.26 36.34C128.27 39.56 127.44 42.1 125.77 43.96ZM116.06 40.96C116.81 42.09 117.84 42.66 119.15 42.66C120.46 42.66 121.5 42.09 122.26 40.95C123.02 39.81 123.4 38.27 123.4 36.34C123.4 34.43 123.02 32.92 122.26 31.84C121.5 30.75 120.47 30.21 119.15 30.21C117.83 30.21 116.8 30.75 116.06 31.84C115.31 32.93 114.94 34.43 114.94 36.34C114.93 38.29 115.31 39.83 116.06 40.96Z" fill="white"/>
<path d="M138.55 46.75C135.87 46.75 133.86 45.96 132.51 44.37C131.16 42.79 130.49 40.34 130.49 37.04V28.03C130.49 27.61 130.64 27.25 130.95 26.95C131.25 26.65 131.62 26.49 132.03 26.49H133.7C134.14 26.49 134.5 26.64 134.8 26.95C135.1 27.25 135.24 27.62 135.24 28.03V37.53C135.24 39.37 135.51 40.69 136.05 41.47C136.59 42.25 137.42 42.64 138.56 42.64C139.7 42.64 140.54 42.24 141.09 41.45C141.65 40.66 141.92 39.35 141.92 37.52V28.02C141.92 27.6 142.07 27.24 142.38 26.94C142.68 26.64 143.05 26.48 143.46 26.48H144.97C145.4 26.48 145.77 26.63 146.07 26.94C146.37 27.24 146.51 27.61 146.51 28.02V37.03C146.51 40.35 145.85 42.8 144.54 44.38C143.23 45.96 141.23 46.75 138.55 46.75Z" fill="white"/>
<path d="M155.04 46.39C154.6 46.39 154.24 46.24 153.94 45.93C153.64 45.63 153.5 45.26 153.5 44.85V30.65C153.5 30.53 153.43 30.47 153.29 30.47H149.66C149.22 30.47 148.86 30.32 148.56 30.01C148.26 29.71 148.12 29.34 148.12 28.93V28.04C148.12 27.62 148.27 27.26 148.56 26.96C148.86 26.66 149.22 26.5 149.66 26.5H162.14C162.56 26.5 162.92 26.65 163.22 26.96C163.52 27.26 163.68 27.63 163.68 28.04V28.93C163.68 29.35 163.53 29.71 163.22 30.01C162.92 30.31 162.55 30.47 162.14 30.47H158.46C158.34 30.47 158.28 30.53 158.28 30.65V44.85C158.28 45.27 158.13 45.63 157.82 45.93C157.52 46.23 157.15 46.39 156.74 46.39H155.04V46.39Z" fill="white"/>
<path d="M70.38 158.15C108.957 158.15 140.23 126.877 140.23 88.3C140.23 49.7229 108.957 18.45 70.38 18.45C31.8029 18.45 0.530029 49.7229 0.530029 88.3C0.530029 126.877 31.8029 158.15 70.38 158.15Z" fill="#5A6648"/>
<path d="M102.56 64.62C104.27 60.03 105.97 55.44 107.69 50.85C107.84 50.44 107.81 50.14 107.6 49.76C97.24 31.13 107.05 7.82 127.63 2.16C145.87 -2.85 164.71 8.82 168.36 27.42C168.6 28.63 168.71 29.87 168.88 31.09C168.91 31.28 168.96 31.47 169 31.66C169 33.05 169 34.44 169 35.83C168.83 37.07 168.74 38.33 168.48 39.55C165.71 52.78 157.86 61.52 144.92 65.36C136.38 67.89 128.08 66.68 120.24 62.41C119.89 62.22 119.6 62.17 119.21 62.32C114.48 64.09 109.74 65.85 105.01 67.61C104.91 67.65 104.83 67.71 104.73 67.76C104.43 67.76 104.12 67.76 103.82 67.76C102.3 67.03 101.96 66.22 102.56 64.62Z" fill="#7F8460"/>
<path d="M124.3 41.96C122.63 43.82 120.42 44.75 117.68 44.75C114.94 44.75 112.73 43.82 111.06 41.96C109.39 40.1 108.55 37.56 108.55 34.34C108.55 31.14 109.38 28.64 111.04 26.84C112.7 25.04 114.91 24.14 117.67 24.14C120.43 24.14 122.64 25.04 124.3 26.84C125.96 28.64 126.79 31.14 126.79 34.34C126.8 37.56 125.97 40.1 124.3 41.96ZM114.59 38.96C115.34 40.09 116.37 40.66 117.68 40.66C118.99 40.66 120.03 40.09 120.79 38.95C121.55 37.81 121.92 36.27 121.92 34.34C121.92 32.43 121.54 30.92 120.79 29.84C120.03 28.75 119 28.21 117.68 28.21C116.36 28.21 115.34 28.75 114.59 29.84C113.84 30.93 113.47 32.43 113.47 34.34C113.46 36.29 113.84 37.83 114.59 38.96Z" fill="white"/>
<path d="M137.08 44.75C134.4 44.75 132.39 43.96 131.04 42.37C129.69 40.79 129.02 38.34 129.02 35.04V26.03C129.02 25.61 129.17 25.25 129.48 24.95C129.78 24.65 130.15 24.49 130.56 24.49H132.23C132.66 24.49 133.03 24.64 133.33 24.95C133.63 25.25 133.77 25.62 133.77 26.03V35.53C133.77 37.37 134.04 38.69 134.58 39.47C135.12 40.25 135.96 40.64 137.09 40.64C138.22 40.64 139.06 40.24 139.62 39.45C140.18 38.66 140.45 37.35 140.45 35.52V26.02C140.45 25.6 140.6 25.24 140.91 24.94C141.21 24.64 141.58 24.48 141.99 24.48H143.5C143.94 24.48 144.3 24.63 144.6 24.94C144.9 25.24 145.04 25.61 145.04 26.02V35.03C145.04 38.35 144.38 40.8 143.07 42.38C141.76 43.96 139.76 44.75 137.08 44.75Z" fill="white"/>
<path d="M153.57 44.39C153.13 44.39 152.77 44.24 152.47 43.93C152.17 43.63 152.03 43.26 152.03 42.85V28.65C152.03 28.53 151.96 28.47 151.82 28.47H148.19C147.75 28.47 147.39 28.32 147.09 28.01C146.79 27.71 146.65 27.34 146.65 26.93V26.04C146.65 25.62 146.8 25.26 147.09 24.96C147.39 24.66 147.75 24.5 148.19 24.5H160.67C161.09 24.5 161.45 24.65 161.75 24.96C162.05 25.26 162.21 25.63 162.21 26.04V26.93C162.21 27.35 162.06 27.71 161.75 28.01C161.45 28.31 161.08 28.47 160.67 28.47H156.99C156.87 28.47 156.81 28.53 156.81 28.65V42.85C156.81 43.27 156.66 43.63 156.35 43.93C156.05 44.23 155.68 44.39 155.27 44.39H153.57V44.39Z" fill="white"/>
<path d="M36.01 90.89C35.65 93.33 34.94 95.52 33.8 97.39C34.97 98.4 36.4 99.18 38.14 99.78L38.09 100.04C36.84 100.48 36.22 101.31 35.96 102.74C34.43 101.86 33.26 100.69 32.35 99.28C31.08 100.66 29.44 101.83 27.33 102.76L27.12 102.45C29.07 101.02 30.42 99.36 31.38 97.48C30.76 96.1 30.31 94.54 29.95 92.85C29.33 93.84 28.6 94.64 27.77 95.32L27.43 95.09C27.9 94.08 28.29 92.88 28.6 91.58C28.55 91.61 28.5 91.61 28.42 91.61H26.96V102.06C26.93 102.19 26.18 102.74 24.91 102.74H24.47V99.31C23.14 99.8 21.45 100.4 19.3 101.13C19.14 101.47 18.91 101.65 18.65 101.73L17.27 99.03C17.79 99 18.57 98.95 19.48 98.87V91.62H18.28C18.18 95.13 17.58 99.71 13.76 102.72L13.5 102.49C15.32 98.88 15.4 94.3 15.4 90.5V84.6L18.75 85.82H33.47L34.64 84.47C34.25 84.63 33.55 84.78 32.61 84.78H32.12V84.13H29.47V84.52C29.47 84.7 28.66 85.14 27.29 85.14H26.8V78.93L29.76 80.07H32.05L33.35 78.61L35.87 80.48C35.71 80.71 35.48 80.84 34.99 80.95V84.04L35.12 83.88C35.12 83.88 36.91 85.18 38.06 86.14C37.98 86.43 37.7 86.56 37.33 86.56H25.86C26.3 86.92 27.42 87.78 28.15 88.48C28.07 88.77 27.81 88.9 27.45 88.9H24.59V90.88H25.32L26.67 89.09C26.67 89.09 27.89 90.1 28.78 90.91C29.09 89.53 29.27 88.08 29.35 86.59L33.09 87.34C32.99 87.68 32.7 87.91 32.13 87.94C31.92 88.72 31.66 89.45 31.38 90.15H33.88L35.34 88.2C35.34 88.2 36.98 89.55 37.97 90.49C37.89 90.75 37.63 90.88 37.24 90.88H36.01V90.89ZM19.73 84.52C19.73 84.7 18.9 85.14 17.52 85.14H17.05V78.9L19.99 80.04H22.28L23.53 78.61L26.05 80.48C25.89 80.71 25.66 80.84 25.11 80.95V84.23C25.11 84.33 24.23 84.78 22.82 84.78H22.35V84.13H19.72V84.52H19.73ZM21.89 90.89V88.91H19.13L18.92 88.16H24.3L25.5 86.57H18.27V90.47V90.89H21.89ZM19.73 80.8V83.37H22.36V80.8H19.73ZM24.46 91.62H21.94V93.44H24.46V91.62ZM24.46 94.19H21.94V96.06H24.46V94.19ZM24.46 98.46V96.82H21.94V98.69L24.46 98.46ZM32.11 83.38V80.8H29.46V83.37H32.11V83.38ZM31.04 90.89C30.83 91.36 30.6 91.8 30.36 92.22C30.8 93.49 31.4 94.64 32.15 95.65C32.67 94.17 32.96 92.58 33.11 90.89H31.04Z" fill="white"/>
<path d="M63.2 98.69C63.2 98.69 65.28 100.28 66.53 101.37C66.45 101.66 66.17 101.79 65.78 101.79H42.38L42.17 101.04H52.67V98.05H44.45L44.22 97.3H52.67V94.6H48.51V95.17C48.51 95.46 47.16 96.13 45.91 96.13H45.44V85.67L48.69 86.97H52.67V84.58H42.84L42.63 83.88H52.67V81.77C49.86 81.93 46.92 82 44.22 81.98L44.17 81.54C49.89 80.94 57.14 79.54 60.92 78.32L63.57 81C63.26 81.23 62.69 81.23 61.91 80.9C60.17 81.16 58.06 81.39 55.8 81.58V83.89H61.31L63 81.84C63 81.84 64.87 83.22 66.07 84.21C65.99 84.47 65.71 84.6 65.34 84.6H55.8V86.99H59.8L61.23 85.43L64.19 87.69C64.06 87.9 63.72 88.13 63.18 88.24V94.84C63.15 94.94 62.61 95.2 61.96 95.41C62.32 95.67 63.88 96.81 64.87 97.65C64.79 97.94 64.51 98.07 64.12 98.07H55.8V101.06H61.36L63.2 98.69ZM48.51 87.69V90.37H52.67V87.69H48.51ZM52.67 93.86V91.08H48.51V93.86H52.67ZM55.79 87.69V90.37H60.05V87.69H55.79ZM60.06 91.07H55.8V93.85H60.06V91.07ZM55.79 97.29H60.24L61.8 95.44C61.38 95.54 60.97 95.62 60.58 95.62H60.06V94.58H55.8V97.29H55.79Z" fill="white"/>
<path d="M94.12 91.98C94.09 92.29 93.89 92.53 93.26 92.63V101.81C93.26 102.02 91.93 102.54 90.82 102.54H90.3V100.36H75.74L74.8 101.87L71.76 100.08C71.97 99.85 72.28 99.53 72.59 99.33V91.56L76.52 91.95C76.47 92.24 76.23 92.44 75.56 92.55V99.62H81.25V89.28H76.96L76.05 90.79L73.06 89.02C73.24 88.79 73.55 88.47 73.87 88.24V80.96L77.74 81.32C77.69 81.61 77.45 81.84 76.78 81.94V88.54H81.25V78.56L85.28 78.95C85.23 79.34 85.05 79.6 84.34 79.7V88.54H89.02V80.97L92.84 81.31C92.81 81.65 92.61 81.88 91.98 81.99V90.05C91.98 90.26 90.68 90.75 89.54 90.75H89.02V89.27H84.34V99.6H90.29V91.62L94.12 91.98Z" fill="white"/>
<path d="M99.47 84.6C106.52 84.89 104.51 90.22 101.78 88.53C101.42 87.18 100.27 85.67 99.28 84.79L99.47 84.6ZM107.56 83.77C106.52 86.79 104.67 92.35 104.34 93.68C104.11 94.54 103.9 95.45 103.92 96.1C103.97 97.45 105.04 98.36 104.93 100.6C104.9 101.9 104.02 102.76 102.72 102.76C102.12 102.76 101.52 102.37 101.32 101.43C101.81 98.75 101.68 96.41 101.09 96C100.7 95.77 100.28 95.64 99.71 95.58V95.09H100.93C101.32 95.09 101.42 95.09 101.74 94.57C102.31 93.61 102.31 93.61 107.15 83.68L107.56 83.77ZM101.74 78.8C109.02 79.11 107.17 84.52 104.29 82.96C103.85 81.53 102.57 79.94 101.56 78.98L101.74 78.8ZM123.86 84.37C123.65 84.63 123.37 84.81 122.74 84.94V101.45C122.74 101.63 121.78 102.26 120.43 102.26H119.94V100.31H110.68V101.79C110.68 102 109.85 102.57 108.44 102.57H108V82.75L110.99 83.92H113.77V78.36L117.49 78.72C117.44 79.06 117.26 79.29 116.66 79.4V83.92H119.81L121.21 82.28L123.86 84.37ZM110.68 84.65V91.36H113.77V84.65H110.68ZM110.68 99.55H113.77V92.11H110.68V99.55ZM116.66 84.65V91.36H119.94V84.65H116.66ZM119.94 99.55V92.11H116.66V99.55H119.94Z" fill="white"/>
</svg>
