<svg width="315" height="142" viewBox="0 0 315 142" fill="none" xmlns="http://www.w3.org/2000/svg">
<g clip-path="url(#clip0)">
<path d="M253.18 1.94H65.01C32.32 1.94 5.82999 28.44 5.82999 61.12V63.54C5.82999 96.23 32.33 122.72 65.01 122.72H253.18C285.87 122.72 312.36 96.22 312.36 63.54V61.12C312.37 28.44 285.87 1.94 253.18 1.94Z" fill="#C9BB85" stroke="#C9BB85" stroke-width="3.3319" stroke-miterlimit="10"/>
<path d="M247.36 0H59.18C26.5 0 0 26.5 0 59.18V61.6C0 94.29 26.5 120.78 59.18 120.78H247.35C280.04 120.78 306.53 94.28 306.53 61.6V59.18C306.54 26.5 280.04 0 247.36 0Z" fill="#FFE5B4"/>
<path d="M51.64 7.52998C52.35 7.52998 53.07 7.48998 53.78 7.53998C55.55 7.65998 56.7 8.78998 56.81 10.46C56.93 12.3 55.98 13.63 54.15 13.91C51.79 14.27 49.36 14.3 47.03 14.81C41.59 15.98 36.86 18.57 32.82 22.41C31.27 23.88 29.49 24.14 28.1 23.14C26.36 21.89 26.25 19.62 27.99 17.92C33.37 12.66 39.78 9.34998 47.2 8.00998C47.9 7.87998 48.6 7.71998 49.31 7.66998C50.08 7.60998 50.86 7.65998 51.64 7.65998C51.64 7.60998 51.64 7.56998 51.64 7.52998Z" fill="#EDEDED"/>
<path d="M68.59 7.38C71.94 7.38 73.52 8.45 73.52 10.74C73.53 13.04 71.95 14.12 68.61 14.12C65.28 14.12 63.81 13.17 63.71 10.96C63.59 8.49 65.11 7.38 68.59 7.38Z" fill="#EDEDED"/>
<path d="M65.86 37.77C70.06 39.85 68.56 42.69 67.21 41.49C67.14 41.07 66.99 40.57 66.76 40.07C65.46 40.4 63.49 40.87 61.41 41.29C61.26 41.44 61.14 41.56 60.99 41.62L60.14 39.65C59.47 40.15 58.64 40.8 57.62 41.52V50.04C57.62 51.54 57.37 52.39 55.22 52.64C55.2 52.02 55.07 51.52 54.84 51.19C54.57 50.86 54.14 50.67 53.32 50.54V50.14C53.32 50.14 54.99 50.26 55.37 50.26C55.72 50.26 55.82 50.16 55.82 49.84V42.82C55.4 43.15 54.95 43.44 54.5 43.77C54.43 44.07 54.25 44.34 54 44.44L52.98 42.19C53.58 41.99 54.58 41.59 55.83 41.07V35.92H53.36L53.18 35.2H55.83V29.6L58.55 29.9C58.5 30.25 58.25 30.5 57.63 30.57V35.19H57.98L58.95 33.77C58.95 33.77 60.1 34.77 60.75 35.52C60.7 35.79 60.48 35.92 60.13 35.92H57.63V40.34C58.4 39.99 59.2 39.64 60.03 39.29L60.18 39.62C60.25 39.6 60.58 39.52 60.7 39.45C61.92 38.73 63.42 36.6 63.97 35.53L66.24 36.83C66.14 37.05 65.84 37.23 65.29 37.13C64.44 37.93 63.14 38.95 61.89 39.73C63.14 39.68 64.79 39.61 66.51 39.53C66.24 38.93 65.89 38.36 65.56 37.91L65.86 37.77ZM66.71 41.57L68.46 42.85C68.36 42.97 68.11 43.12 67.81 43.17V50.42C67.81 51.77 67.59 52.49 65.74 52.69C65.71 52.19 65.64 51.77 65.42 51.49C65.2 51.24 64.82 51.04 64.17 50.94V50.54C64.17 50.54 65.47 50.64 65.79 50.64C66.11 50.64 66.19 50.52 66.19 50.24V47.07C65.52 47.52 64.62 48.12 63.57 48.79C63.5 49.09 63.32 49.29 63.12 49.39L62.22 47.77C61.97 49.54 61.27 51.44 59.17 52.77L58.9 52.45C60.57 50.53 60.67 48.15 60.67 45.83V41.53L62.64 42.38L66.19 42.41V42.38H66.01L66.71 41.57ZM62.71 35.85C62.71 36 61.91 36.43 61.21 36.43H60.96V30.1L62.86 30.93H73.28L74.18 30.01L76.1 31.46C75.98 31.63 75.65 31.81 75.28 31.86V35.58C75.26 35.75 74.36 36.13 73.78 36.13H73.51V35.4H62.71V35.85V35.85ZM62.31 45.82C62.31 46.42 62.28 47.1 62.21 47.77C62.98 47.57 64.56 47.07 66.18 46.55V43.1H62.31V44.3C66.51 43.73 66.33 46.47 64.76 46.13C64.21 45.68 63.24 45.15 62.31 44.85V45.82ZM62.71 31.67V34.67H65.23V31.67H62.71ZM66.91 31.67V34.67H69.46V31.67H66.91ZM70.86 43C69.34 43 69.09 42.62 69.09 41.58V36.08L71.39 36.35C71.34 36.63 71.09 36.85 70.67 36.93V38.63H72.87L73.77 37.26C73.77 37.26 74.84 38.23 75.42 38.96C75.37 39.24 75.15 39.36 74.8 39.36H70.68V41.26C70.68 41.56 70.73 41.66 71.28 41.66H72.68C73.2 41.66 73.73 41.66 73.95 41.64C74.07 41.64 74.22 41.64 74.33 41.61C74.45 41.61 74.65 41.58 74.8 41.53H75.05L75.13 41.56C75.63 41.73 75.83 41.83 75.83 42.16C75.83 42.81 75.18 43.04 72.53 43.04L70.86 43ZM75.58 50.37C76.1 50.57 76.23 50.75 76.23 51.05C76.23 51.72 75.53 51.97 72.76 51.97H70.96C69.39 51.97 69.11 51.6 69.11 50.5V43.9L71.41 44.17C71.39 44.47 71.16 44.7 70.69 44.77V46.74H72.91L73.81 45.34C73.81 45.34 74.88 46.34 75.48 47.06C75.43 47.34 75.18 47.46 74.86 47.46H70.69V50.18C70.69 50.48 70.76 50.56 71.36 50.56H72.83C73.45 50.56 74 50.54 74.2 50.54C74.4 50.54 74.5 50.49 74.6 50.31C74.75 50.06 75 49.11 75.2 48.19H75.5L75.58 50.37ZM71.13 31.67V34.67H73.5V31.67H71.13Z" fill="#782A14"/>
<path d="M90.33 49.67C90.33 50.99 90.06 51.77 87.88 51.99C87.81 51.47 87.71 51.07 87.43 50.84C87.11 50.56 86.58 50.36 85.61 50.22V49.84C85.61 49.84 87.71 50.01 88.16 50.01C88.59 50.01 88.68 49.86 88.68 49.46V41.24C88.08 41.84 87.33 42.64 86.46 43.54C86.44 43.82 86.28 44.09 86.06 44.21L85.39 42.94C85.17 46.31 84.49 49.91 82.37 52.69L81.94 52.46C83.79 48.44 83.84 43.39 83.84 38.71V30.24L85.79 31.09H88.46L89.31 30.06L91.31 31.61C91.16 31.81 90.79 31.99 90.34 32.08V49.67H90.33ZM85.49 38.7C85.49 39.8 85.49 40.97 85.44 42.2C86.19 41.85 87.41 41.2 88.69 40.53V37.65C88.52 37.8 88.24 37.88 87.92 37.8C87.37 37.35 86.42 36.77 85.5 36.38V38.7H85.49ZM85.49 31.83V35.7C87.24 35.55 88.24 35.95 88.69 36.45V31.83H85.49V31.83ZM105.01 50.12C105.56 50.34 105.66 50.57 105.66 50.92C105.66 51.62 104.99 51.97 102.16 51.97H100.44C98.77 51.97 98.47 51.52 98.47 50.32V42.9H96.97C96.75 46.92 96.02 50.35 90.45 52.67L90.13 52.27C94.55 49.75 94.98 46.55 95.05 42.9H94.38V43.55C94.38 43.73 93.58 44.15 92.83 44.15H92.58V36.1C92.08 36.53 91.53 36.9 91.01 37.25L90.74 36.95C92.56 35.03 94.19 32 94.91 29.9L97.61 31C97.49 31.28 97.26 31.4 96.69 31.35C95.89 32.72 94.54 34.4 92.94 35.8L94.51 36.47H100.73L101.68 35.47L103.7 37.02C103.55 37.17 103.23 37.37 102.83 37.44V43.21C102.81 43.38 101.88 43.78 101.26 43.78H100.96V42.88H100.29V42.93V49.88C100.29 50.23 100.36 50.3 100.91 50.3H102.28C102.83 50.3 103.3 50.3 103.53 50.28C103.73 50.28 103.83 50.23 103.93 50.03C104.08 49.65 104.4 48.33 104.63 47.03H104.95L105.01 50.12ZM100.93 37.22H94.36V42.17H100.93V37.22ZM99.16 30.28C106.58 33 105.43 37.6 103.26 36.28C102.56 34.38 100.49 31.98 98.89 30.48L99.16 30.28Z" fill="#782A14"/>
<path d="M114.89 38.1V51.9C114.89 52.17 114.21 52.65 113.34 52.65H112.99V30.25L115.01 31.17H119.73L120.68 30.15L122.73 31.73C122.58 31.9 122.23 32.1 121.78 32.18V38.68C121.76 38.83 120.86 39.2 120.26 39.2H119.96V38.1H114.89V38.1ZM114.89 31.9V34.37H119.96V31.9H114.89ZM119.96 37.37V35.1H114.89V37.37H119.96V37.37ZM118.01 42.02C118.71 44.62 118.03 46.49 117.26 47.29C116.74 47.84 115.86 47.99 115.51 47.44C115.21 46.94 115.49 46.39 115.98 45.99C116.75 45.34 117.58 43.61 117.55 42.02H118.01ZM127.16 47.65C127.71 47.85 127.83 48.05 127.83 48.4C127.83 49.12 127.08 49.52 123.81 49.52H121.66C119.86 49.52 119.54 49.1 119.54 47.85V41.08L121.99 41.35C121.97 41.68 121.74 41.9 121.27 41.97V47.44C121.27 47.77 121.37 47.86 122.07 47.86H123.92C124.77 47.86 125.42 47.84 125.67 47.81C125.9 47.78 125.99 47.76 126.12 47.56C126.27 47.23 126.54 46.16 126.79 45.06H127.09L127.16 47.65ZM122.46 38.92C127.06 41.89 125.36 45.54 123.78 44.04C123.78 42.44 122.91 40.39 122.08 39.07L122.46 38.92ZM134.41 31.75C134.23 31.95 133.84 32.17 133.34 32.28V49.9C133.34 51.4 133.02 52.32 130.32 52.6C130.25 51.98 130.1 51.45 129.67 51.18C129.27 50.86 128.6 50.63 127.35 50.46V50.06C127.35 50.06 130.22 50.26 130.77 50.26C131.29 50.26 131.42 50.11 131.42 49.69V38.1H126.22V38.6C126.22 38.77 125.4 39.17 124.65 39.17H124.38V30.3L126.35 31.17H131.17L132.14 30L134.41 31.75ZM126.21 31.9V34.37H131.41V31.9H126.21ZM131.41 37.37V35.1H126.21V37.37H131.41V37.37ZM127.76 41.6C132.31 44.62 130.33 48.25 128.76 46.57C128.78 45.02 128.09 43.05 127.44 41.72L127.76 41.6Z" fill="#782A14"/>
<path d="M141.16 45.02C142.26 44.97 143.96 44.85 145.86 44.65V41.98H142.16L141.98 41.23H145.85V38.9L148.12 39.1C147.84 38.9 147.8 38.52 147.8 37.98V35.86H146.13C145.51 37.91 144.26 39.38 141.23 40.18L140.91 39.83C142.96 39.05 143.76 37.56 144.08 35.86H141.26L141.06 35.11H145.81V32.73H142.06L141.86 32.01H145.81V29.59L148.31 29.87C148.26 30.15 148.06 30.34 147.56 30.45V32H149.16L150.21 30.78C150.21 30.78 151.38 31.66 152.13 32.33C152.08 32.6 151.83 32.73 151.51 32.73H147.56V35.11H149.78L150.85 33.81C150.85 33.81 152.1 34.73 152.87 35.46C152.82 35.74 152.57 35.86 152.22 35.86H149.5V36.04V37.69C149.5 37.94 149.55 38.02 149.85 38.02H150.53C150.73 38.02 150.98 38.02 151.1 37.99H151.45C151.57 37.99 151.75 37.94 151.9 37.89H152.1L152.17 37.94C152.69 38.09 152.87 38.21 152.87 38.54C152.87 39.16 152.3 39.39 150.3 39.39H149.33C148.83 39.39 148.48 39.34 148.26 39.22C148.21 39.44 148.04 39.6 147.64 39.67V41.24H149.36L150.38 40.09C150.38 40.09 151.53 40.91 152.28 41.59C152.23 41.87 151.98 41.99 151.63 41.99H147.63V44.46C149.2 44.29 150.9 44.06 152.53 43.81L152.58 44.23C150.11 45.06 146.98 45.93 142.76 46.75C142.61 47.05 142.36 47.23 142.11 47.3L141.16 45.02ZM145.26 46.6C145.78 49.6 144.49 51.5 143.36 52.25C142.61 52.75 141.61 52.77 141.26 52.1C141.03 51.5 141.38 50.93 141.96 50.63C143.18 50.03 144.61 48.46 144.86 46.58L145.26 46.6ZM148.56 47.02C152.96 50.07 150.68 53.77 149.06 51.94C149.24 50.39 148.76 48.47 148.24 47.14L148.56 47.02ZM163.78 45.05C164.1 45.6 164.25 46.1 164.06 46.47C163.61 47.27 162.51 46.87 161.89 46.27C159.64 44.1 159.34 40.02 159.29 34.55H157.34C157.27 36.2 157.11 37.75 156.79 39.2C160.11 41.92 159.04 44.67 157.39 43.52C157.17 42.77 156.74 41.94 156.22 41.12C155.35 43.29 153.87 45.22 151.25 46.74L150.93 46.34C153.3 44.46 154.45 42.19 155.03 39.54C154.31 38.67 153.51 37.89 152.78 37.27L153.05 37.05C153.9 37.4 154.62 37.77 155.27 38.15C155.42 37 155.49 35.8 155.52 34.55H152.7L152.48 33.8H155.55C155.57 32.53 155.57 31.23 155.57 29.83L158.27 30.11C158.22 30.46 158 30.69 157.45 30.76C157.43 31.81 157.4 32.81 157.38 33.81H159.03L159.95 32.61L162.02 34.28C161.84 34.45 161.59 34.58 161.12 34.66C161.07 38.83 161.32 42.76 162.64 44.38C162.82 44.58 162.91 44.58 163.06 44.26C163.26 43.81 163.51 42.99 163.74 42.26L164.01 42.31L163.78 45.05ZM153.53 46.92C158.8 49.54 156.98 53.54 155.2 51.92C155.15 50.35 154.15 48.35 153.25 47.1L153.53 46.92ZM158.91 46.75C165.31 49.3 163.48 54.17 161.38 52.45C161.23 50.57 159.93 48.33 158.63 46.93L158.91 46.75Z" fill="#782A14"/>
<path d="M184.13 32.63C183.61 33.9 182.93 35.2 182.13 36.43L183.45 36.93C183.38 37.15 183.13 37.33 182.68 37.4V52.15C182.68 52.3 181.78 52.7 181.03 52.7H180.66V38.67C177.94 42.39 174.34 45.77 170.24 48.19L169.97 47.89C175.07 43.94 179.59 37.97 181.47 32.62H170.57L170.35 31.87H188.95L190.4 30.07C190.4 30.07 192.05 31.32 193.07 32.22C193 32.5 192.75 32.62 192.37 32.62H184.13V32.63ZM184.03 38.85C194.68 42.35 194.03 47.77 191.43 46.47C190.13 44.05 186.43 40.92 183.81 39.1L184.03 38.85Z" fill="#782A14"/>
<path d="M207.16 41.85C206.99 42.05 206.74 42.1 206.21 42.15C205.69 43.97 204.69 46.02 203.19 47.62C203.34 47.65 203.46 47.72 203.64 47.87C205.79 49.89 208.71 50.19 213.94 50.19C216.99 50.17 219.46 50.17 222.59 50.02V50.37C221.69 50.52 221.22 51.17 221.12 51.97H213.3C207.95 51.97 205.58 51.27 203.38 48.65C203.03 48.25 202.81 48.33 202.61 48.68C202.21 49.4 201.49 50.75 201.01 51.8C201.11 52 201.08 52.15 200.91 52.33L199.29 50.36C200.16 49.71 201.49 48.44 202.26 47.86C203.31 46.26 204.08 43.98 204.41 42.04H202.29L201.57 42.66L200 41.36C200.23 41.21 200.6 41.06 200.95 40.96C201.7 39.76 202.72 37.96 203.35 36.66H199.9L199.68 35.93H203.4L204.27 34.98L206.14 36.65C205.91 36.85 205.47 37 204.99 37.02C204.37 38.17 203.37 39.97 202.57 41.27H204.29L205.39 40.22L207.16 41.85ZM200.91 29.9C206.16 31.48 204.46 35.27 202.63 33.85C202.48 32.58 201.51 31.03 200.63 30.08L200.91 29.9ZM206.03 32.42H213.13C213.06 32.37 212.98 32.32 212.91 32.27C212.81 31.37 212.14 30.27 211.54 29.65L211.77 29.48C215.09 30.08 215.17 31.86 214.34 32.43H218.29L219.56 30.88C219.56 30.88 221.01 31.96 221.88 32.78C221.83 33.06 221.58 33.18 221.26 33.18H206.24L206.03 32.42ZM220.36 47.42C220.36 48.67 220.09 49.34 217.91 49.54C217.86 49.14 217.76 48.76 217.48 48.54C217.21 48.34 216.76 48.12 215.86 48.02V47.62C215.86 47.62 217.63 47.77 218.08 47.77C218.46 47.77 218.56 47.62 218.56 47.29V37.17H209.11V48.77C209.11 48.97 208.39 49.37 207.64 49.37H207.34V35.55L209.26 36.43H211.06C210.91 36.38 210.76 36.28 210.61 36.16C210.61 35.26 210.11 34.16 209.61 33.51L209.88 33.36C213.05 34.19 212.83 36.03 211.85 36.43H215.22C215.57 35.53 215.89 34.28 216.04 33.33L218.94 34.03C218.84 34.33 218.54 34.56 218.02 34.53C217.52 35.13 216.77 35.83 216.05 36.43H218.3L219.22 35.36L221.42 37.03C221.27 37.21 220.85 37.43 220.35 37.51V47.42H220.36ZM215.31 47.3V46.48H212.19V47.4C212.19 47.55 211.52 47.87 210.92 47.87H210.69V41.57L212.31 42.3H213.13V40.05H209.88L209.68 39.33H213.13V37.58L215.33 37.83C215.31 38.11 215.11 38.31 214.66 38.38V39.33H215.76L216.63 38.21C216.63 38.21 217.7 39.04 218.33 39.66C218.26 39.93 218.03 40.06 217.71 40.06H214.66V42.31H215.36L216.11 41.43L217.73 42.85C217.55 43.02 217.21 43.2 216.81 43.27V46.84C216.76 46.94 216.19 47.29 215.61 47.29H215.31V47.3ZM215.31 45.75V43.03H212.19V45.75H215.31Z" fill="#782A14"/>
<path d="M251.06 50.22C251.73 51.44 251.83 52.02 251.51 52.29C250.69 53.07 249.06 52.07 248.19 50.97C246.44 48.95 245.27 46.45 244.47 43.57C243.32 44.42 242.05 45.09 240.7 45.59L240.45 45.29C241.77 44.52 243.02 43.52 244.12 42.32C243.52 39.67 243.2 36.77 243.05 33.7H232.5V38.42C232.5 42.42 232.32 48.14 228.9 52.04L228.55 51.82C230.52 47.77 230.65 42.8 230.65 38.42V32.07L232.82 32.95H243.02C242.97 31.83 242.94 30.68 242.94 29.53L245.86 29.86C245.84 30.16 245.61 30.46 244.96 30.56C244.96 31.36 244.96 32.13 244.96 32.96H248.66L249.73 31.54C249.73 31.54 251 32.54 251.73 33.31C251.66 33.58 251.41 33.71 251.11 33.71H244.99C245.06 35.98 245.26 38.26 245.66 40.38C246.66 38.91 247.51 37.16 248.11 35.18L250.81 36.28C250.66 36.58 250.36 36.78 249.79 36.7C248.82 39 247.57 40.8 246.07 42.27C246.74 44.97 247.82 47.37 249.42 49.04C249.77 49.46 249.92 49.46 250.12 48.96C250.44 48.36 250.94 47.16 251.24 46.14L251.54 46.19L251.06 50.22ZM233.19 45.85C233.86 48.22 233.54 50.05 232.94 50.85C232.54 51.35 231.67 51.57 231.32 51.07C231.05 50.62 231.27 50.07 231.72 49.67C232.34 48.97 232.87 47.27 232.72 45.85H233.19ZM240.83 34.47C240.83 34.47 242.1 35.47 242.9 36.19C242.85 36.46 242.6 36.59 242.25 36.59H233.38L233.18 35.87H239.73L240.83 34.47ZM235.63 43.75C235.63 43.92 234.83 44.33 234.11 44.33H233.84V37.46L235.76 38.29H239.66L240.61 37.29L242.71 38.84C242.56 39.01 242.16 39.22 241.74 39.31V43.23C241.72 43.38 240.79 43.73 240.19 43.73H239.89V42.83H235.64V43.75H235.63ZM241.78 50.27C242.28 50.44 242.4 50.67 242.4 50.97C242.4 51.67 241.68 52.02 238.6 52.02H236.53C234.83 52.02 234.53 51.64 234.53 50.49V45.02L236.88 45.27C236.85 45.6 236.61 45.82 236.16 45.89V50.09C236.16 50.42 236.23 50.49 236.93 50.49H238.65C239.45 50.49 240.07 50.47 240.3 50.44C240.52 50.44 240.6 50.39 240.7 50.19C240.88 49.84 241.12 48.74 241.37 47.54H241.69L241.78 50.27ZM235.63 39V42.1H239.88V39H235.63ZM237.21 44.15C241.48 46.47 239.83 49.6 238.46 48.22C238.44 46.92 237.64 45.3 236.91 44.32L237.21 44.15ZM242.01 45.6C246.58 48.37 244.93 51.8 243.43 50.37C243.41 48.87 242.51 46.97 241.71 45.75L242.01 45.6ZM246.13 29.7C250.25 30.45 248.8 33.15 247.4 32.1C247.22 31.33 246.48 30.4 245.88 29.9L246.13 29.7Z" fill="#782A14"/>
<path d="M39.94 86.75H46.86V88.45H39.94V86.75Z" fill="#C9690A"/>
<path d="M60.43 83.07C66.75 85.17 64.45 89.82 62.05 87.89C61.85 86.61 61.15 85.22 60.43 84.07V96.07C60.41 96.24 59.48 96.89 58.08 96.89H57.56V87.72C56.31 89.47 54.74 91.02 52.96 92.32L52.69 92.04C54.76 89.39 56.26 85.54 57.09 81.99H53.17L52.97 81.26H57.57V77.34C56.07 77.49 54.55 77.62 53.12 77.67L53.07 77.34C56.19 76.42 60.19 74.69 62.14 73.44L65.31 76.39C65.01 76.66 64.41 76.69 63.61 76.39C62.71 76.59 61.61 76.79 60.44 76.96V81.26H61.21L62.68 79.14C62.68 79.14 64.38 80.61 65.38 81.59C65.3 81.87 65.03 81.99 64.68 81.99H60.43V83.07V83.07ZM70.41 85.4C78.93 91.6 76.91 98.67 73.78 95.95C73.63 94.85 73.35 93.7 72.98 92.53C70.96 93.43 68.06 94.65 64.61 95.88C64.43 96.16 64.23 96.33 63.99 96.43L62.27 92.66C62.27 92.66 63.12 92.36 63.34 91.96C64.96 88.76 67.74 79.41 68.36 73.96L72.86 75.63C72.74 75.96 72.36 76.23 71.71 76.23C70.26 81.2 67.01 88.38 64.19 92.6C66.16 92.45 69.34 92.1 72.71 91.73C71.96 89.56 70.99 87.36 70.06 85.53L70.41 85.4Z" fill="#C9690A"/>
<path d="M105.56 77.77C105.38 77.97 105.13 78.05 104.64 78.07C103.89 78.85 102.64 79.9 101.64 80.49L101.41 80.32C101.53 79.54 101.64 78.4 101.71 77.5H86.21C86.39 79.3 85.74 80.55 84.89 81.07C84.09 81.59 82.89 81.42 82.54 80.49C82.27 79.61 82.79 78.92 83.54 78.54C84.44 78.06 85.41 76.79 85.34 75.39H85.69C85.89 75.89 86.01 76.34 86.12 76.79H93.57C93.42 76.74 93.27 76.67 93.12 76.57C93 75.42 92.2 74.22 91.37 73.57L91.55 73.42C96.6 73.12 96.45 76.14 94.85 76.79H101.5L102.97 75.27L105.56 77.77ZM91.81 87.37C90.71 87.37 89.96 87.29 89.46 87.1C87.41 87.87 85.19 88.5 82.79 88.9L82.64 88.53C84.76 87.88 86.74 87.06 88.61 86.08C88.54 85.83 88.51 85.51 88.51 85.13V79.3L91.86 79.58C91.81 79.93 91.59 80.13 91.11 80.23V84.55V84.63C94.16 82.66 96.63 80.33 98.13 77.93L101.08 79.88C100.88 80.1 100.66 80.21 100.06 80.03C98.56 81.85 96.46 83.55 93.86 85.03H95.33C96.5 85.03 97.55 85.01 97.95 84.98C98.32 84.93 98.52 84.88 98.7 84.71C98.95 84.38 99.3 83.61 99.72 82.56H99.97L100.07 84.73C100.87 85.01 101.09 85.28 101.09 85.78C101.09 86.93 99.99 87.38 95.07 87.38H91.81V87.37ZM86.74 80.47C87.89 83.37 87.01 85.37 85.77 86.02C84.92 86.49 83.77 86.24 83.47 85.32C83.25 84.44 83.77 83.79 84.54 83.44C85.44 82.99 86.44 81.82 86.39 80.47H86.74ZM99.73 88.95L103.58 89.27C103.56 89.6 103.35 89.87 102.68 89.97V96.27C102.68 96.47 101.41 96.92 100.23 96.92H99.73V95.22H88.41L87.49 96.54L84.44 94.97C84.66 94.72 85.01 94.42 85.36 94.19V89L89.18 89.38C89.13 89.76 88.91 90 88.26 90.1V94.52H92.51V87.9L96.26 88.2C96.21 88.53 96.06 88.75 95.46 88.85V94.52H99.73V88.95V88.95ZM91.46 77.72C97.36 78.07 95.31 82.67 92.96 81.09C92.86 79.92 92.06 78.59 91.26 77.87L91.46 77.72ZM100.13 80.82C107.35 82.29 104.83 87.77 102.23 85.69C102.11 84.02 101.08 82.14 99.93 80.99L100.13 80.82Z" fill="#C9690A"/>
<path d="M135.06 79.1C134.86 79.32 134.61 79.37 134.09 79.4C133.27 80.07 131.87 81 130.79 81.47L130.57 81.32C130.77 80.67 131.02 79.67 131.17 78.85H116.22V83.92C116.22 87.94 116 93.37 111.65 96.94L111.38 96.74C113.28 92.94 113.38 88.14 113.38 83.92V77L116.68 78.15H121.45V73.4L125.27 73.7C125.22 74.05 125.02 74.3 124.4 74.43V75.9H127.8L129.4 73.93C129.4 73.93 131.2 75.28 132.3 76.23C132.22 76.51 131.95 76.63 131.6 76.63H124.4V78.15H131.05L132.5 76.68L135.06 79.1ZM125.13 87.62C124.96 87.82 124.73 87.9 124.21 87.95C123.56 89.87 122.59 91.57 121.16 92.97C122.63 93.87 124.58 94.07 127.18 94.07C128.93 94.07 133.03 94.07 134.88 94.05V94.35C133.98 94.52 133.56 95.47 133.53 96.52H127.08C123.78 96.52 121.48 95.97 119.91 94.05C118.41 95.2 116.46 96.07 114.01 96.67L113.83 96.29C116.08 95.39 117.8 94.19 119.05 92.72C118.73 92 118.4 91.17 118.13 90.22C117.48 91.14 116.73 92.02 115.86 92.74L115.56 92.54C116.83 90.52 117.71 87.14 118.01 84.32L121.31 85.04C121.21 85.29 121.01 85.44 120.41 85.39C120.26 85.89 120.09 86.39 119.89 86.89H121.54L122.86 85.56L125.13 87.56V85.51L127.95 86.59H128.85L130.07 85.29L132.29 87.16C132.11 87.34 131.87 87.46 131.47 87.54V90.59C131.47 90.84 131.49 90.89 131.69 90.89H131.94H132.19C132.29 90.86 132.42 90.86 132.51 90.74C132.66 90.57 132.94 89.99 133.16 89.34H133.43L133.5 90.76C134.05 91.03 134.17 91.26 134.17 91.66C134.17 92.56 133.37 92.88 131.62 92.88H130.8C129.2 92.88 129.08 92.36 129.08 91.01V87.31H127.56V87.83C127.56 89.31 127.09 91.85 123.46 93.25L123.23 92.95C124.95 91.35 125.1 89.38 125.1 87.83V87.62H125.13ZM124.86 79.42C124.84 79.72 124.61 79.95 124.16 80.02V81.14L126.43 80.94L127.58 79.29C127.58 79.29 129.1 80.27 130.03 80.94C130.01 81.21 129.76 81.39 129.43 81.41L124.16 81.88V82.63C124.16 82.96 124.23 83.05 124.98 83.05H127.45C128.3 83.05 129.22 83.02 129.57 83.02C129.82 83 130.17 82.97 130.34 82.95C130.54 82.9 130.86 82.85 131.09 82.8H131.31L131.46 82.83C132.23 83.13 132.46 83.33 132.46 83.8C132.46 84.9 131.44 85.12 127.14 85.12H124.42C121.87 85.12 121.42 84.65 121.42 82.97V82.12L117.17 82.5L116.92 81.8L121.42 81.38V79.11L124.86 79.42ZM119.56 87.62C119.26 88.32 118.89 89 118.51 89.64C118.86 90.52 119.28 91.22 119.76 91.79C120.63 90.54 121.26 89.17 121.63 87.62H119.56Z" fill="#C9690A"/>
<path d="M145.44 90.4C146.19 93.6 144.97 95.67 143.62 96.5C142.72 97.05 141.52 96.88 141.15 95.95C140.85 95.1 141.37 94.4 142.1 94C143.3 93.5 144.77 92.15 145.07 90.45C144.37 90.65 143.62 90.83 142.85 91.03C142.67 91.36 142.43 91.53 142.18 91.58L140.91 88.56C141.98 88.56 143.56 88.48 145.41 88.36V85.89H142.04L141.84 85.19H145.41V82.89L147.71 83.09C147.51 82.79 147.48 82.37 147.48 81.74V79.7H146.28C145.56 81.92 144.16 83.45 140.91 84.3L140.64 83.95C142.51 83.05 143.24 81.5 143.51 79.7H141.04L140.84 79H145.29V76.6H141.79L141.59 75.9H145.29V73.43L148.54 73.7C148.49 74 148.34 74.2 147.84 74.28V75.9H148.89L150.09 74.45C150.09 74.45 151.49 75.45 152.34 76.2C152.27 76.47 152.02 76.6 151.69 76.6H147.84V79H149.41L150.68 77.33C150.68 77.33 152.1 78.48 152.95 79.3C152.9 79.58 152.65 79.7 152.3 79.7H149.83V79.92V81.37C149.83 81.62 149.88 81.72 150.13 81.72H150.56C150.73 81.72 150.88 81.72 151.01 81.69C151.11 81.69 151.31 81.69 151.44 81.67C151.56 81.67 151.79 81.62 151.91 81.57H152.13L152.25 81.62C152.82 81.82 153.02 82.04 153.02 82.42C153.02 83.22 152.35 83.54 150.2 83.54H149.25C148.9 83.54 148.6 83.52 148.38 83.47C148.31 83.54 148.18 83.59 147.98 83.62V85.17H149.08L150.28 83.75C150.28 83.75 151.6 84.75 152.4 85.47C152.35 85.75 152.1 85.87 151.78 85.87H147.98V88.19C149.45 88.07 151.05 87.91 152.6 87.74L152.63 88.09C150.78 88.79 148.43 89.56 145.33 90.39H145.44V90.4ZM148.28 90.82C153.95 93.77 150.83 98.37 148.65 95.94C148.85 94.24 148.48 92.37 148.03 90.94L148.28 90.82ZM163.88 88.32C164.25 88.94 164.4 89.64 164.18 90.22C163.71 91.29 162.43 90.99 161.66 90.44C159.19 88.54 158.99 84.32 158.99 78.47H157.59C157.52 80.09 157.37 81.57 157.07 82.97C160.39 85.69 158.89 88.77 156.77 87.37C156.62 86.85 156.39 86.32 156.12 85.77C155.2 87.69 153.7 89.34 151.22 90.67L150.92 90.32C153.09 88.35 154.09 86.05 154.59 83.35C153.94 82.47 153.27 81.68 152.67 81L152.92 80.83C153.62 81.05 154.24 81.33 154.82 81.6C154.92 80.63 154.97 79.58 154.99 78.48H152.69L152.47 77.78H155.02C155.02 76.48 155.02 75.13 155.02 73.68L158.52 74.01C158.47 74.36 158.25 74.58 157.7 74.66C157.68 75.74 157.65 76.78 157.63 77.78H158.68L159.9 76.26L162.47 78.31C162.29 78.51 162.07 78.63 161.57 78.71C161.5 82.93 161.62 86.41 162.74 87.66C162.89 87.83 163.01 87.83 163.14 87.56C163.36 87.09 163.66 86.21 163.86 85.49L164.11 85.54L163.88 88.32ZM153.36 90.72C159.78 93.17 157.16 98.14 154.78 95.97C154.78 94.25 153.98 92.25 153.13 90.87L153.36 90.72ZM158.26 90.45C166.11 92.65 163.66 98.67 160.78 96.45C160.56 94.4 159.31 92.13 158.03 90.6L158.26 90.45Z" fill="#C9690A"/>
<path d="M176.76 88.47C180.91 91.99 178.68 95.67 177.08 93.79C177.13 93.17 177.1 92.46 177.03 91.77C175.78 92.59 174.06 93.64 171.81 94.87C171.69 95.2 171.43 95.42 171.16 95.49L169.91 92.52C170.61 92.42 171.88 92.22 173.36 91.94V86.82H172.74V87.4C172.74 87.6 171.89 88.07 171.02 88.07H170.72V77.37L172.87 78.27H173.37V73.45L176.49 73.75C176.44 74.07 176.24 74.3 175.64 74.4V78.27H176.09L177.09 77.22L179.21 78.82C179.09 78.97 178.76 79.17 178.34 79.24V87C178.31 87.17 177.32 87.6 176.64 87.6H176.32V86.82H175.62V91.49L176.97 91.22C176.85 90.27 176.65 89.37 176.42 88.6L176.76 88.47ZM172.74 86.12H173.64V79H172.74V86.12ZM175.36 79V86.12H176.31V79H175.36ZM192.93 94.67C193.45 95.42 193.53 95.72 193.31 96.14C192.81 97.01 191.54 96.64 190.91 96.19C189.74 95.19 189.24 93.69 188.99 91.89C188.89 91.96 188.76 91.99 188.59 91.99H186.62V93.71L188.77 93.19L188.84 93.49C188.24 94.01 186.89 95.06 185.49 96.09C185.29 96.52 184.97 96.79 184.69 96.92L183.59 94.52C184.26 94.14 184.36 93.94 184.36 93.5V91.9C184.26 91.95 184.11 91.97 183.96 91.97H181.84V93.77C182.49 93.62 183.14 93.45 183.81 93.27L183.88 93.57C183.33 94.07 182.08 95.07 180.73 96.07C180.53 96.52 180.21 96.79 179.93 96.92L178.81 94.52C179.51 94.14 179.61 93.94 179.61 93.5V86.43L182.51 86.75C182.46 87.03 182.28 87.23 181.83 87.3V88.75H182.13L183 87.63C183 87.63 183.75 88.23 184.35 88.8V86.43L187.27 86.75C187.22 87.03 187.05 87.23 186.6 87.3V88.83H186.72L187.59 87.71C187.59 87.71 188.24 88.23 188.81 88.78C188.81 88.03 188.81 87.21 188.81 86.36L191.66 86.61C191.64 86.91 191.41 87.18 190.91 87.26C190.81 90.23 190.64 93.03 191.68 94.23C191.85 94.38 191.93 94.38 192.08 94.13C192.3 93.7 192.6 92.9 192.83 92.16L193.1 92.21L192.93 94.67ZM184.18 74.8C184.08 75 183.83 75.15 183.46 75.05C182.81 75.4 180.96 76.25 179.94 76.72C185.99 77.6 183.81 80.92 181.74 79.77C181.49 78.85 180.47 77.52 179.24 76.8C179.89 75.95 181.01 74.3 181.36 73.65L184.18 74.8ZM190.03 79.5C189.63 78.6 188.61 77.45 187.36 76.75C188.08 75.92 189.36 74.3 189.76 73.65L192.61 74.9C192.51 75.1 192.26 75.23 191.86 75.12C191.19 75.47 189.19 76.24 188.09 76.67C193.04 77.25 192.79 79.44 191.41 79.82L192.86 80.89C192.71 81.07 192.36 81.27 191.91 81.34V85.44C191.89 85.61 190.71 86.14 189.94 86.14H189.51V85.44H181.84V85.56C181.84 85.71 181.09 86.23 179.92 86.23H179.52V79.3L182.14 80.3H189.29L190.03 79.5ZM181.83 81V84.4C183.15 83.48 184.5 82.2 185.33 81H181.83ZM183.01 90.2C183.01 90.2 183.76 90.8 184.36 91.37V89.35C184.26 89.4 184.14 89.43 183.99 89.43H181.84V91.3H182.14L183.01 90.2ZM189.51 84.75V81H186.54L187.74 81.65C187.64 81.88 187.36 81.93 186.94 81.82C186.74 82.02 186.54 82.25 186.29 82.44C190.14 82.49 189.61 84.99 188.21 84.59C187.76 84.17 186.74 83.49 185.56 82.99C184.59 83.66 183.41 84.29 182.29 84.74H189.51V84.75ZM188.21 74.78C188.11 75 187.86 75.13 187.46 75.03C186.81 75.41 184.99 76.25 183.91 76.73C189.96 77.61 187.83 80.9 185.83 79.75C185.51 78.85 184.48 77.53 183.21 76.8C183.88 75.95 185.06 74.28 185.41 73.65L188.21 74.78ZM187.61 90.17C187.61 90.17 188.33 90.77 188.93 91.32C188.88 90.74 188.86 90.12 188.83 89.5C188.76 89.52 188.68 89.52 188.58 89.52H186.61V91.29H186.73L187.61 90.17Z" fill="#C9690A"/>
<path d="M209.33 76.35C209.13 76.58 208.78 76.68 208.21 76.7C207.34 78.22 205.71 80.85 204.44 82.4C206.91 84.07 207.96 86.5 207.96 88.52C207.99 90.94 207.11 92.39 204.39 92.44C204.39 91.61 204.27 90.61 204.09 90.24C203.89 89.99 203.54 89.76 203.07 89.64V95.96C203.07 96.19 202.2 96.88 200.82 96.88H200.32V74.03L203.39 75.2H205.09L206.56 73.75L209.33 76.35ZM204.26 89.3C204.51 89.3 204.66 89.27 204.83 89.18C205.15 88.98 205.35 88.53 205.35 87.76C205.35 86.06 204.95 84.14 203.78 82.49C204.25 80.87 204.9 77.92 205.23 75.94H203.06V89.3H204.26ZM213.16 88.95C213.06 89.2 212.81 89.27 212.34 89.22C211.27 91.22 208.87 93.54 206.32 94.84L206.12 94.54C207.87 92.66 209.29 89.72 209.82 87.52L213.16 88.95ZM216.81 74.35C216.74 74.65 216.49 74.8 215.79 74.87C217.29 77.25 220.51 78.54 223.14 79.32V79.65C221.94 80.03 221.22 81.2 221.04 82.37C218.54 80.77 216.42 78.3 215.47 75.12C213.82 78.42 210.17 81.49 206.57 83.19L206.39 82.97C209.24 80.59 212.14 76.35 212.76 73.42L216.81 74.35ZM216.18 86.15V93.47C216.18 95.35 215.76 96.59 212.78 96.84C212.73 95.99 212.66 95.32 212.35 94.92C212.05 94.52 211.58 94.22 210.5 94.04V93.7C210.5 93.7 212.5 93.82 212.95 93.82C213.32 93.82 213.42 93.67 213.42 93.4V86.15H208.02L207.84 85.43H213.41V82.23H210.04L209.84 81.51H216.09L217.49 79.79C217.49 79.79 219.06 80.96 220.04 81.84C219.97 82.12 219.72 82.24 219.37 82.24H216.17V85.44H218.37L219.82 83.52C219.82 83.52 221.44 84.87 222.42 85.77C222.34 86.04 222.07 86.17 221.72 86.17H216.18V86.15ZM217.33 87.75C224.95 90.65 222.63 96.15 219.93 94C219.55 91.97 218.21 89.6 217.08 87.88L217.33 87.75Z" fill="#C9690A"/>
<path d="M250.78 92.8C251.8 93.18 252.08 93.55 252.08 94.18C252.08 95.58 250.78 96.08 245.16 96.08H241.86C238.74 96.08 237.59 95.55 237.59 93.06V88.29L228.69 89.36L228.41 88.69L237.58 87.59V83.09L230.26 84L229.99 83.33L237.59 82.38V78.16C234.84 78.56 231.99 78.86 229.29 79.01L229.24 78.63C235.24 77.53 242.59 75.31 246.29 73.46L249.26 76.13C248.99 76.38 248.44 76.43 247.64 76.13C245.72 76.68 243.32 77.21 240.74 77.65V78.13V81.98L244.49 81.51L246.04 79.04C246.04 79.04 248.21 80.24 249.61 81.14C249.56 81.44 249.31 81.61 248.96 81.66L240.74 82.69V87.21L246.86 86.46L248.41 83.99C248.41 83.99 250.66 85.19 252.06 86.11C252.04 86.41 251.76 86.58 251.41 86.63L240.74 87.91V92.28C240.74 92.95 241.06 93.15 242.24 93.15H245.46C246.58 93.15 247.53 93.15 248.03 93.13C248.45 93.08 248.7 92.98 248.93 92.65C249.31 92.13 249.81 90.73 250.43 88.83H250.68L250.78 92.8Z" fill="#C9690A"/>
<path d="M258.09 86.75H265.01V88.45H258.09V86.75Z" fill="#C9690A"/>
<path d="M306.26 118C302.95 118.17 299.88 118.3 296.8 118.48C294.11 118.63 292.72 120.58 293.43 123.2C294.68 127.74 295.95 132.27 297.22 136.8C297.3 137.09 297.38 137.37 297.47 137.71C294.13 138.64 290.88 139.55 287.51 140.48C287.41 140.12 287.31 139.78 287.22 139.43C285.98 134.99 284.75 130.55 283.51 126.12C282.71 123.26 280.56 122.35 277.93 123.77C275.28 125.19 272.64 126.64 269.8 128.18C272.45 114.08 275.07 100.18 277.72 86.07C287.29 96.78 296.7 107.31 306.26 118Z" fill="#EDEDED" stroke="black" stroke-width="2.4262" stroke-miterlimit="10" stroke-linecap="round" stroke-linejoin="round"/>
</g>
<defs>
<clipPath id="clip0">
<rect width="314.03" height="141.7" fill="white"/>
</clipPath>
</defs>
</svg>
