<svg width="315" height="142" viewBox="0 0 315 142" fill="none" xmlns="http://www.w3.org/2000/svg">
<g clip-path="url(#clip0)">
<path d="M253.69 1.94H65.51C32.82 1.94 6.32999 28.44 6.32999 61.12V63.54C6.32999 96.23 32.83 122.72 65.51 122.72H253.68C286.37 122.72 312.86 96.22 312.86 63.54V61.12C312.87 28.44 286.37 1.94 253.69 1.94Z" fill="#BFB492" stroke="#BFB492" stroke-width="3.3319" stroke-miterlimit="10"/>
<path d="M247.36 0H59.18C26.5 0 0 26.5 0 59.18V61.6C0 94.29 26.5 120.78 59.18 120.78H247.35C280.04 120.78 306.53 94.28 306.53 61.6V59.18C306.54 26.5 280.04 0 247.36 0Z" fill="#F1DFBB"/>
<path d="M51.64 7.52998C52.35 7.52998 53.07 7.48998 53.78 7.53998C55.55 7.65998 56.7 8.78998 56.81 10.46C56.93 12.3 55.98 13.63 54.15 13.91C51.79 14.27 49.36 14.3 47.03 14.81C41.59 15.98 36.86 18.57 32.82 22.41C31.27 23.88 29.49 24.14 28.1 23.14C26.36 21.89 26.25 19.62 27.99 17.92C33.37 12.66 39.78 9.34998 47.2 8.00998C47.9 7.87998 48.6 7.71998 49.31 7.66998C50.08 7.60998 50.86 7.65998 51.64 7.65998C51.64 7.60998 51.64 7.56998 51.64 7.52998Z" fill="#EDEDED"/>
<path d="M68.59 7.38C71.94 7.38 73.52 8.45 73.52 10.74C73.53 13.04 71.95 14.12 68.61 14.12C65.28 14.12 63.81 13.17 63.71 10.96C63.59 8.49 65.11 7.38 68.59 7.38Z" fill="#EDEDED"/>
<path d="M49.46 36.02C49.01 36.14 48.54 36.29 48.01 36.44C47.76 39.71 47.19 42.91 45.94 45.74C49.51 48.46 48.09 50.46 46.61 49.56C46.24 48.91 45.69 48.19 45.04 47.46C43.82 49.51 42.14 51.33 39.82 52.71L39.52 52.46C41.54 50.81 42.99 48.76 44.02 46.41C42.75 45.21 41.32 44.08 40.12 43.26C40.49 41.96 40.94 40.01 41.34 37.94L40.62 38.09C40.5 38.42 40.22 38.59 39.97 38.64L39.27 36.32C39.87 36.32 40.69 36.29 41.67 36.24C42.17 33.64 42.52 31.04 42.64 29.49L45.49 29.99C45.41 30.29 45.21 30.54 44.54 30.59C44.32 32.01 43.94 34.01 43.52 36.14C44.34 36.06 45.22 36.02 46.12 35.94C46.17 35.02 46.17 34.12 46.17 33.19L49.12 33.69C49.02 34.12 48.72 34.31 48.15 34.36C48.13 34.81 48.1 35.28 48.08 35.76L49.45 35.61L49.46 36.02ZM44.61 44.87C45.43 42.4 45.88 39.7 46.06 36.95C45.19 37.17 44.26 37.37 43.21 37.6C42.76 39.67 42.29 41.75 41.81 43.42C42.89 43.92 43.84 44.37 44.61 44.87ZM50.58 45.12C51.43 47.72 50.98 49.64 50.23 50.49C49.73 51.07 48.71 51.16 48.33 50.54C48.03 49.96 48.33 49.34 48.88 48.96C49.58 48.29 50.28 46.64 50.15 45.11H50.58V45.12ZM62.58 43.12C62.4 43.35 62.13 43.47 61.61 43.54C61.46 48.34 61.06 50.94 60.11 51.79C59.51 52.32 58.64 52.59 57.64 52.57C57.64 52.07 57.54 51.6 57.19 51.35C56.87 51.07 55.94 50.82 55.07 50.68L55.1 50.28C56.02 50.36 57.62 50.45 58.12 50.45C58.52 50.45 58.69 50.43 58.89 50.25C59.41 49.75 59.71 47.35 59.84 43.3H51.69V43.95C51.69 44.1 51.09 44.55 50.17 44.55H49.85V30.4L52.02 31.28H58.67L59.89 29.81C59.89 29.81 61.24 30.83 62.09 31.63C62.04 31.91 61.79 32.03 61.44 32.03H56.74V35.1H58.21L59.36 33.63C59.36 33.63 60.68 34.65 61.46 35.43C61.41 35.71 61.16 35.83 60.81 35.83H56.74V38.8H58.21L59.36 37.3C59.36 37.3 60.68 38.35 61.46 39.12C61.41 39.4 61.16 39.52 60.81 39.52H56.74V42.57H59.61L60.61 41.52L62.58 43.12ZM51.68 32.03V35.1H54.95V32.03H51.68ZM54.96 35.82H51.69V38.79H54.96V35.82ZM51.68 42.57H54.95V39.52H51.68V42.57ZM52.11 45.1C55.36 48.17 53.31 51.2 52.08 49.62C52.33 48.2 52.11 46.37 51.76 45.2L52.11 45.1ZM54.36 44.65C58.18 47 56.36 50.05 55.01 48.62C55.11 47.4 54.61 45.8 54.04 44.8L54.36 44.65ZM56.63 44.02C60.63 45.62 59.03 48.72 57.63 47.44C57.68 46.32 57.03 44.99 56.33 44.19L56.63 44.02Z" fill="#782A14"/>
<path d="M76.08 46.82C76.05 47.02 75.18 47.49 74.56 47.49H74.31V45.54H71.49V48.06C71.49 48.28 70.79 48.73 70.02 48.73H69.7V31.33L71.62 32.18H74.07L75.04 31.1L77.11 32.75C76.96 32.95 76.59 33.15 76.09 33.25V46.82H76.08ZM74.31 44.82V32.95H71.49V44.82H74.31ZM74.86 51.17C76.93 48.8 78.53 44.9 79.03 42.12L81.85 43.02C81.78 43.32 81.53 43.49 80.88 43.52C79.91 46.27 77.93 49.47 75.16 51.42L74.86 51.17ZM89.16 37.85C89.16 37.85 90.63 38.97 91.53 39.82C91.45 40.09 91.21 40.22 90.85 40.22H84.63V51.97C84.63 52.22 83.81 52.67 83.08 52.67H82.68V40.22H77.06L76.89 39.5H82.69V29.65L85.54 29.95C85.46 30.3 85.26 30.57 84.64 30.68V39.5H87.86L89.16 37.85ZM77.36 31.7C82.93 35.25 81.33 39.27 79.56 37.7C79.31 35.85 78.06 33.45 77.04 31.85L77.36 31.7ZM90.98 32.42C90.86 32.72 90.58 32.92 90.03 32.87C88.91 34.92 87.43 36.94 85.93 38.24L85.61 38.01C86.48 36.41 87.51 33.81 88.18 31.39L90.98 32.42ZM85.96 42.4C93.26 46.9 91.63 52.12 89.51 50.27C89.16 47.77 87.24 44.62 85.69 42.57L85.96 42.4Z" fill="#782A14"/>
<path d="M119.93 49.57C120.83 49.85 121.1 50.07 121.1 50.52C121.1 51.72 119.65 51.97 112.15 51.97H106.88C103.43 51.97 102.16 51.52 102.16 49.15V39.2L98.41 40.17L97.99 39.52L102.16 38.44V32.02L105.08 32.37C105.03 32.7 104.78 32.97 104.16 33.04V37.91L109.16 36.64V29.62L112.08 29.94C112.01 30.29 111.81 30.54 111.16 30.64V36.11L115.86 34.89H115.74L117.04 33.56L119.14 35.78C118.94 35.98 118.67 36.06 118.14 36.11C117.54 39.08 116.32 43.33 114.74 46.18L114.44 45.98C115.14 42.93 115.61 38.63 115.81 35.63L111.16 36.85V46.6C111.16 46.83 110.29 47.27 109.54 47.27H109.16V37.37L104.16 38.65V48.72C104.16 49.69 104.66 50.04 106.78 50.04H112.28C114.68 50.04 116.43 49.99 117.2 49.92C117.8 49.87 118.05 49.7 118.22 49.42C118.54 48.84 118.97 47.62 119.57 45.35H119.87L119.93 49.57Z" fill="#782A14"/>
<path d="M135.63 32.88C135.63 32.88 136.93 33.88 137.7 34.63C137.65 34.91 137.4 35.03 137.08 35.03H127.41L127.24 34.31H134.54L135.63 32.88ZM133.98 37.47L135 36.15C135 36.15 136.2 37.07 136.95 37.8C136.88 38.07 136.65 38.2 136.3 38.2H128.48L128.28 37.48H133.98V37.47ZM135.01 39.37C135.01 39.37 136.21 40.29 136.96 41.02C136.89 41.3 136.66 41.42 136.31 41.42H128.49L128.29 40.7H133.99L135.01 39.37ZM135.88 50.97C135.86 51.12 134.96 51.52 134.36 51.52H134.06V50.32H130.46V51.77C130.46 51.97 129.69 52.39 128.94 52.39H128.67V43.07L130.57 43.92H133.84L134.81 42.9L136.91 44.5C136.73 44.7 136.36 44.88 135.89 44.97V50.97H135.88ZM130.16 29.83C135.46 30.93 133.78 34.75 131.83 33.4C131.63 32.23 130.71 30.83 129.93 29.98L130.16 29.83ZM134.06 49.6V44.68H130.46V49.6H134.06ZM135.68 52.09C140.65 49.54 144.73 46.09 147.6 40.52L150.25 41.89C150.1 42.17 149.82 42.27 149.25 42.14C148.05 43.96 146.73 45.56 145.28 46.91C151.68 49.18 150.33 53.28 148.23 51.96C147.68 50.49 146.16 48.59 144.86 47.29C142.29 49.56 139.34 51.21 135.91 52.49L135.68 52.09ZM137.68 34.32L137.48 33.6H146.88L148.1 32C148.1 32 149.5 33.12 150.35 33.92C150.3 34.19 150.03 34.32 149.68 34.32H142.03L144.63 35.32C144.51 35.54 144.21 35.77 143.71 35.72C142.69 36.92 141.01 38.47 139.49 39.54C140.81 39.44 142.66 39.32 144.61 39.14C145.08 38.34 145.53 37.52 145.96 36.67L148.53 37.94C148.38 38.19 148.13 38.29 147.56 38.22C145.14 42.09 141.86 44.97 137.69 46.89L137.44 46.47C140.09 44.77 142.31 42.62 144.11 39.9C142.76 40.3 141.04 40.77 139.21 41.22C139.03 41.5 138.81 41.67 138.59 41.75L137.74 39.45C137.74 39.45 138.19 39.37 138.34 39.25C139.66 38.3 141.31 35.7 141.91 34.33H137.68V34.32ZM141.73 29.53C146.83 30.95 145 34.6 143.15 33.18C142.95 32.03 142.13 30.56 141.45 29.68L141.73 29.53Z" fill="#782A14"/>
<path d="M160.01 34.5C160.06 35.97 159.39 36.95 158.66 37.38C157.99 37.76 157.11 37.68 156.89 37.03C156.66 36.43 157.09 35.91 157.66 35.63C158.53 35.21 159.33 34.03 159.21 32.71L159.61 32.68C159.76 33.06 159.86 33.43 159.91 33.78H166.93V31.9H159.86L159.66 31.17H173.26L174.51 29.67C174.51 29.67 175.91 30.72 176.78 31.49C176.71 31.77 176.46 31.89 176.11 31.89H168.91V33.76H176.48L177.63 32.59L179.7 34.59C179.52 34.79 179.28 34.81 178.78 34.84C178.16 35.61 177.03 36.69 176.18 37.26L175.86 37.09C176.11 36.42 176.41 35.34 176.61 34.49H168.91V40.01C168.91 40.13 168.26 40.53 167.26 40.53H166.94V34.5H160.01ZM178.48 50.12C179.3 50.44 179.4 50.52 179.4 50.87C179.4 51.6 178.68 52.07 176.15 52.07H170C167.48 52.07 166.93 51.67 166.93 49.42V47.7H161.93V48.9C161.93 49.05 161.06 49.52 160.26 49.52H159.99V40.17L160.51 40.4L159.71 38.62C160.88 38.52 163.51 38.2 166.08 37.85L166.13 38.23C165.01 38.68 163.38 39.33 161.16 40.08C161.08 40.3 160.96 40.46 160.84 40.55L162.09 41.1H173.89L174.59 40.33C173.34 39.68 171.22 38.81 169.67 38.41L169.82 37.99C175.52 37.77 176.44 40.01 175.44 40.44L177.06 41.69C176.91 41.86 176.54 42.07 176.09 42.16V48.13C176.06 48.3 175.09 48.78 174.44 48.78H174.12V47.7H168.9V49.55C168.9 50.37 169 50.45 170.07 50.45H176.27C176.89 50.45 177.17 50.45 177.37 50.18C177.54 49.9 177.79 49.08 178.12 47.83H178.44L178.48 50.12ZM160.36 35.4C165.98 34.75 166.33 37.67 164.73 37.55C163.71 36.93 161.71 36.1 160.21 35.8L160.36 35.4ZM161.93 41.82V43.97H166.93V41.82H161.93ZM166.93 46.95V44.73H161.93V46.95H166.93ZM168.88 41.82V43.97H174.1V41.82H168.88ZM174.11 46.95V44.73H168.89V46.95H174.11ZM169.73 37.07C171.15 36.45 173.38 35.24 174.28 34.67L175.5 36.49C175.32 36.61 175.1 36.57 174.83 36.39C173.86 36.66 171.56 37.16 169.83 37.39L169.73 37.07Z" fill="#782A14"/>
<path d="M207.51 36.65C207.29 36.87 206.99 36.97 206.41 37.07C206.18 44.59 205.61 49.92 204.31 51.29C203.54 52.12 202.49 52.46 200.99 52.46C201.02 51.84 200.87 51.29 200.44 50.96C199.94 50.61 198.64 50.23 197.39 50.04L197.42 49.62C198.82 49.77 201.04 49.94 201.69 49.94C202.21 49.94 202.44 49.87 202.71 49.62C203.66 48.77 204.13 43.55 204.36 36.77H197.31C196.81 43.17 194.91 48.72 186.24 52.67L185.97 52.25C193.07 48.1 194.74 42.85 195.17 36.78H187.37L187.14 36.03H195.19C195.31 34.01 195.29 31.86 195.29 29.66L198.41 29.99C198.33 30.37 198.14 30.61 197.51 30.69C197.49 32.51 197.46 34.31 197.36 36.04H204.11L205.31 34.76L207.51 36.65Z" fill="#782A14"/>
<path d="M235.43 36.92C235.43 36.92 237.13 38.25 238.1 39.19C238.03 39.44 237.78 39.57 237.45 39.57H227.6V51.8C227.6 52.05 226.7 52.6 225.85 52.6H225.45V39.57H215.35L215.13 38.85H225.45V29.73L228.57 30.06C228.49 30.44 228.29 30.71 227.6 30.83V38.85H233.95L235.43 36.92Z" fill="#782A14"/>
<path d="M256.88 49.87C258.18 50.07 259.65 50.12 261.35 50.12C262.75 50.12 265.97 50.12 267.55 50.09V50.42C266.85 50.57 266.45 51.24 266.43 52.02H261.23C255.36 52.02 252.18 50.94 250.18 46C249.16 48.57 247.48 51.02 244.63 52.67L244.38 52.4C247.53 49.63 248.78 45.18 249.15 41.4L252.12 41.93C252.02 42.28 251.72 42.5 251.17 42.53C250.97 43.45 250.74 44.41 250.4 45.35C251.47 47.52 252.87 48.72 254.82 49.4V38.52H250.22V39.52C250.22 39.72 249.37 40.17 248.55 40.17H248.23V30.45L250.38 31.37H261.2L262.25 30.22L264.5 31.97C264.38 32.15 264 32.35 263.48 32.45V39.32C263.46 39.47 262.46 39.92 261.78 39.92H261.46V38.52H256.89V43.47H261.76L263.08 41.8C263.08 41.8 264.65 42.95 265.6 43.8C265.53 44.08 265.25 44.2 264.9 44.2H256.88V49.87V49.87ZM261.46 37.77V32.07H250.24V37.77H261.46Z" fill="#782A14"/>
<path d="M84.81 86.75H91.73V88.45H84.81V86.75Z" fill="#C9690A"/>
<path d="M106.23 80.12C105.98 83.32 105.48 86.47 104.31 89.32C108.48 92.04 106.23 94.54 104.43 93.39C104.13 92.79 103.71 92.19 103.23 91.57C102.01 93.64 100.36 95.47 98.08 96.89L97.78 96.67C99.7 94.87 101.03 92.67 101.95 90.25C100.83 89.13 99.53 88.08 98.38 87.35C98.7 86.07 99.08 84.25 99.43 82.28L99.03 82.38C98.88 82.71 98.58 82.91 98.31 82.96L97.59 80.04C98.16 80.06 98.91 80.04 99.81 80.01C100.23 77.41 100.56 74.86 100.66 73.39L104.11 73.94C104.01 74.21 103.86 74.46 103.14 74.54C102.94 75.89 102.62 77.81 102.24 79.89C102.76 79.86 103.29 79.84 103.81 79.79C103.83 78.91 103.83 78.04 103.83 77.17L107.28 77.75C107.18 78.15 106.9 78.4 106.33 78.42C106.3 78.82 106.28 79.19 106.26 79.59L106.93 79.51L106.95 79.86L106.23 80.12ZM102.59 88.37C103.27 86 103.61 83.5 103.76 80.97C103.19 81.17 102.59 81.35 101.94 81.55C101.51 83.67 101.07 85.8 100.64 87.55C101.36 87.8 102.01 88.07 102.59 88.37ZM120.76 84.77C120.56 84.97 120.24 84.97 119.86 84.8C119.14 85.13 117.84 85.6 116.44 86.02C117.26 89.52 119.21 91.52 121.66 92.82L121.61 93.07C120.56 93.29 119.76 94.14 119.36 95.42C117.26 93.27 116.36 90.62 115.96 86.17C115.49 86.29 115.01 86.42 114.56 86.52C116.46 89.99 116.31 94.14 115.13 95.74C114.56 96.52 113.36 96.82 111.66 96.82C111.63 96.02 111.46 95.47 111.11 95.1C110.81 94.8 110.01 94.5 109.09 94.25L109.07 93.95C110.07 94.03 111.64 94.1 112.22 94.1C112.54 94.1 112.79 94.07 112.89 93.85C113.19 93.3 113.39 92.15 113.39 90.8C111.49 92.32 108.87 93.77 106.12 94.52L105.97 94.22C108.82 92.6 111.44 90.05 113.04 87.45L112.97 87.17C111.17 88.34 108.7 89.55 106.42 90.27L106.26 90C108.38 88.67 110.66 86.33 111.91 84.3C111.84 84.15 111.76 84 111.66 83.85C110.24 84.77 108.54 85.55 106.86 86.15L106.63 85.85C108.3 84.73 109.85 83.08 110.93 81.55H108.21L108.01 80.83H115.63L117.08 79.08L117.5 79.41C117.62 78.91 117.77 78.33 117.88 77.83H109.61C109.73 78.93 109.49 79.75 109.01 80.16C108.46 80.58 107.39 80.46 107.06 79.66C106.79 78.86 107.23 78.19 107.93 77.81C108.33 77.36 108.75 76.31 108.5 75.54H108.88C109.15 76.11 109.35 76.64 109.48 77.14H117.75L119.12 75.72L121.57 78.09C121.39 78.29 121.12 78.34 120.62 78.37C120 78.82 119.05 79.47 118.2 79.97C118.67 80.35 119.2 80.79 119.65 81.17C119.58 81.45 119.3 81.57 118.97 81.57H114.47C113.82 82.29 113.05 82.95 112.15 83.57C113 84.3 113.7 85.12 114.25 86.02C115.75 84.85 117.52 83.12 118.32 82.25L120.76 84.77ZM111.66 73.38C117.83 74.15 114.86 78.6 112.53 76.58C112.53 75.46 112.01 74.26 111.46 73.51L111.66 73.38Z" fill="#C9690A"/>
<path d="M136.03 84.4C135.28 84.92 134.26 85.55 132.98 86.3V93.3C132.98 95.35 132.58 96.52 129.48 96.82C129.41 95.84 129.28 95.12 128.96 94.67C128.61 94.17 128.11 93.87 127.06 93.67V93.3C127.06 93.3 129.21 93.45 129.71 93.45C130.11 93.45 130.21 93.33 130.21 93.02V87.87L129.01 88.49C128.89 88.84 128.61 89.09 128.34 89.14L126.99 85.74C127.66 85.64 128.81 85.46 130.21 85.21V80.01H127.36L127.16 79.28H130.21V73.41L133.91 73.76C133.83 74.14 133.59 74.38 132.99 74.46V79.28H133.11L134.33 77.36C134.33 77.36 135.75 78.71 136.5 79.61C136.45 79.89 136.2 80.01 135.85 80.01H132.98V84.68C133.95 84.51 134.98 84.28 135.98 84.08L136.03 84.4ZM148.36 85.62C148.36 85.62 149.68 86.67 150.46 87.42C150.41 87.7 150.16 87.82 149.81 87.82H146.24C145.79 89.44 145.09 90.92 143.92 92.22C151.44 94.74 147.97 97.92 145.69 96.47C144.84 95.65 143.59 94.75 142.04 93.85C140.19 95.12 137.57 96.17 133.97 96.87L133.8 96.54C136.82 95.59 138.95 94.39 140.45 92.97C139.05 92.25 137.48 91.55 135.73 90.95C136.18 90.23 136.73 89.05 137.25 87.83H133.98L133.78 87.13H137.53C138.15 85.66 138.68 84.21 138.93 83.36L142.55 84.16C142.48 84.43 142.28 84.71 141.53 84.73C141.26 85.38 140.93 86.23 140.53 87.13H143.53C143.68 86.28 143.75 85.41 143.78 84.53L147.6 85.08C147.55 85.48 147.22 85.68 146.65 85.7C146.58 86.18 146.5 86.65 146.4 87.12H147.2L148.36 85.62ZM147.41 80.77C147.41 80.77 149.08 82.05 150.06 82.94C150.01 83.22 149.76 83.34 149.41 83.34H134.61L134.41 82.61H143.11C143.66 81.14 144.18 79.21 144.48 77.79L148.08 78.69C147.96 78.99 147.68 79.22 147.13 79.19C146.36 80.21 145.11 81.54 143.86 82.61H145.96L147.41 80.77ZM135.66 77.7L135.46 76.98H145.41L146.81 75.13C146.81 75.13 148.43 76.41 149.38 77.3C149.31 77.57 149.06 77.7 148.68 77.7H135.66V77.7ZM137.26 77.88C143.16 79.55 140.81 83.88 138.58 82.1C138.43 80.72 137.68 79.1 137.01 78.03L137.26 77.88ZM140.21 87.82C139.69 88.97 139.16 90.12 138.69 90.94C139.79 91.14 140.79 91.34 141.66 91.56C142.51 90.41 143.03 89.14 143.36 87.81H140.21V87.82ZM139.88 73.25C145.98 73.85 143.38 78.37 141 76.5C140.95 75.4 140.33 74.13 139.68 73.4L139.88 73.25Z" fill="#C9690A"/>
<path d="M176.43 86.75C176.43 86.75 178.3 88.15 179.4 89.13C179.35 89.4 179.08 89.53 178.73 89.53H168.96C168.14 93 165.86 95.43 156.79 96.9L156.64 96.5C162.94 94.6 164.96 92.43 165.69 89.53H157.67L157.47 88.81H165.84C165.99 87.91 166.04 86.96 166.09 85.89L170.24 86.19C170.19 86.54 169.94 86.81 169.37 86.89C169.3 87.56 169.22 88.19 169.12 88.81H174.79L176.43 86.75ZM166.36 84.9V81.93H159.49L159.29 81.21H166.36V78.38H158.14L157.92 77.66H164.24C163.97 77.58 163.69 77.46 163.42 77.26C163.3 75.96 162.52 74.59 161.75 73.71L161.95 73.56C167.22 74.01 166.77 77.21 165.05 77.66H169.67C170.19 76.41 170.72 74.71 171.04 73.46L174.96 74.34C174.86 74.67 174.58 74.87 174.01 74.84C173.16 75.67 171.76 76.79 170.46 77.66H174.36L175.96 75.66C175.96 75.66 177.78 77.01 178.86 77.98C178.79 78.25 178.54 78.38 178.16 78.38H169.54V81.21H172.96L174.46 79.36C174.46 79.36 176.18 80.61 177.23 81.53C177.16 81.81 176.88 81.93 176.53 81.93H169.53V84.9H174.88L176.5 82.83C176.5 82.83 178.35 84.23 179.4 85.23C179.35 85.51 179.08 85.63 178.75 85.63H157.01L156.81 84.9H166.36ZM169.83 90.35C180.93 91.27 180.38 97.72 176.98 96.62C175.41 94.5 172.13 92 169.63 90.6L169.83 90.35Z" fill="#C9690A"/>
<path d="M204.36 87.35V86.35H202.19V89.35H204.44L205.81 87.53C205.81 87.53 207.36 88.78 208.31 89.65C208.24 89.93 207.96 90.05 207.61 90.05H202.19V93.52C202.79 93.57 203.41 93.6 204.11 93.6C205.28 93.6 208.06 93.6 209.38 93.57V93.87C208.58 94.04 208.21 95.02 208.21 96.14H203.99C200.34 96.14 198.17 95.22 196.89 91.87C195.84 94.27 194.27 95.82 192.17 96.84L191.87 96.59C193.89 94.37 195.04 91.22 195.12 87.22L198.84 87.84C198.77 88.19 198.49 88.44 197.92 88.49C197.72 89.41 197.5 90.26 197.22 91.04C197.82 91.96 198.57 92.57 199.52 92.96V86.34H195.52L195.3 85.62H199.52V82.92H194.3L194.12 82.22H199.52V79.77H195.35L195.12 79.05H199.52V77.05H194.27L194.17 76.7C194.05 76.75 193.92 76.77 193.77 76.82V93.24C193.75 93.46 192.45 94.09 191.45 94.09H191.03V92.02H189.06V94.17C189.06 94.49 188.04 95.17 186.84 95.17H186.41V74.45L189.16 75.65H190.78L192.1 74.15L194.77 76.3L194.72 76.35H199.52V73.43L202.99 73.78C202.94 74.08 202.77 74.33 202.19 74.43V76.35H205.09L206.51 74.43C206.51 74.43 208.11 75.75 209.06 76.65C208.99 76.93 208.74 77.05 208.39 77.05H202.19V79.05H204.11L205.36 77.75L207.91 79.67C207.79 79.87 207.46 80.05 207.01 80.15V82.22H207.08L207.98 80.8C207.98 80.8 209.05 81.82 209.6 82.52C209.55 82.8 209.33 82.92 209 82.92H207V86.67C206.97 86.84 205.68 87.34 204.8 87.34H204.36V87.35ZM189.04 76.35V80.65H191.01V76.35H189.04ZM189.04 81.37V85.94H191.01V81.37H189.04ZM191.01 91.35V86.68H189.04V91.35H191.01ZM202.18 82.22H204.35V79.77H202.18V82.22ZM204.36 85.62V82.92H202.19V85.62H204.36Z" fill="#C9690A"/>
<path d="M215.21 86.75H222.13V88.45H215.21V86.75Z" fill="#C9690A"/>
<path d="M299.96 118C296.65 118.17 293.58 118.3 290.5 118.48C287.81 118.63 286.42 120.58 287.13 123.2C288.38 127.74 289.65 132.27 290.92 136.8C291 137.09 291.08 137.37 291.17 137.71C287.83 138.64 284.58 139.55 281.21 140.48C281.11 140.12 281.01 139.78 280.92 139.43C279.68 134.99 278.45 130.55 277.21 126.12C276.41 123.26 274.26 122.35 271.63 123.77C268.98 125.19 266.34 126.64 263.5 128.18C266.15 114.08 268.77 100.18 271.42 86.07C280.99 96.78 290.4 107.31 299.96 118Z" fill="#EDEDED" stroke="black" stroke-width="2.4262" stroke-miterlimit="10" stroke-linecap="round" stroke-linejoin="round"/>
</g>
<defs>
<clipPath id="clip0">
<rect width="314.53" height="141.7" fill="white"/>
</clipPath>
</defs>
</svg>
