<svg width="151" height="105" viewBox="0 0 151 105" fill="none" xmlns="http://www.w3.org/2000/svg">
<path d="M69.3574 89.3537C78.4835 84.4771 89.8289 74.4653 94.4467 68.703L103.404 73.9279C102.956 74.9928 101.632 75.5202 99.2337 75.2615C92.5857 80.4067 81.1507 86.9652 70.2531 90.4186L69.3574 89.3537ZM71.6663 23.1422C89.6598 23.2318 84.9624 36.2591 78.3143 32.3579C77.339 29.0737 73.8856 25.7098 70.9597 23.9383L71.6663 23.1422ZM141.51 56.6411C141.51 56.6411 147.004 60.9005 150.288 63.9957C150.019 64.971 149.134 65.4089 147.89 65.4089H113.585V91.1152C113.585 91.8218 110.39 93.3345 107.643 93.3345H106.23V65.4089H71.8455L71.0493 62.7516H106.24V52.1128L116.879 53.2673C116.7 54.5113 115.904 55.397 113.605 55.6558V62.7516H136.743L141.51 56.6411ZM76.722 42.2801C77.966 42.2801 78.3143 42.1905 79.4688 40.857C81.4194 38.5481 81.4194 38.5481 99.8607 16.3946L101.194 17.0117C97.3826 23.0427 87.7191 37.0453 86.1268 39.6129C85.0619 41.6531 84.1761 43.6038 84.1761 45.1065C84.1761 47.5846 86.485 49.4457 86.3059 53.6156C86.2163 56.2728 84.4448 57.9547 80.9915 57.9547C79.4887 57.9547 78.2447 56.9794 77.7968 55.1184C78.593 49.0874 78.2447 45.9923 76.3737 45.1065C75.0401 44.4895 73.8956 44.2208 72.2933 44.1312V42.2702H76.722V42.2801ZM77.6873 12.5034C95.8599 11.7072 93.0236 25.1824 86.1068 22.1669C84.6041 18.803 80.5237 15.1606 76.8912 13.2995L77.6873 12.5034ZM111.554 24.5554C112.082 20.2959 112.002 15.9567 111.734 11.4385L122.989 12.2347C122.721 13.827 121.656 14.6232 119.715 14.8919C119.626 18.2557 119.446 21.3608 118.919 24.5554H126.184L129.906 20.475L136.912 26.5956C136.385 27.2126 135.579 27.75 133.897 27.9292V45.833C133.897 46.8083 134.166 46.9875 135.668 46.9875H139.211C140.545 46.9875 141.869 46.9875 142.406 46.8979C143.023 46.8979 143.381 46.8084 143.74 46.0122C144.267 44.8577 145.332 40.429 146.307 36.1695H147.372L147.641 46.2709C149.591 47.1567 149.95 47.9528 149.95 49.2864C149.95 51.9436 147.113 53.2772 138.694 53.2772H133.549C127.876 53.2772 127.08 51.6849 127.08 47.3358V27.123H118.571C116.182 39.6229 109.265 50.1722 90.2967 56.2828L89.6797 55.1283C103.772 48.4803 109.534 38.4685 111.306 27.123H97.9897L97.1935 24.5554H111.554V24.5554ZM117.575 70.6536C151.343 75.0823 151.522 91.3939 142.744 89.0949C137.34 83.3326 125.278 75.7093 116.859 71.8081L117.575 70.6536Z" fill="#D9D4CD"/>
<path d="M60.5896 79.0737C59.047 79.0637 57.5044 79.0537 55.9718 79.0836C55.1856 79.1035 54.7377 78.7253 54.688 77.8993C54.5685 76.0183 54.1008 74.3364 53.3046 72.8834C51.0853 68.8429 47.4926 66.4941 41.999 65.489C41.6308 65.4193 41.2526 65.5288 40.9739 65.7876C40.7052 66.0364 40.5659 66.3747 40.6057 66.7231C40.6355 67.0316 40.8246 67.3699 41.0237 67.7282C41.1033 67.8675 41.1829 68.0069 41.2526 68.1462C41.3919 68.4249 41.5611 68.7035 41.7203 68.9822C42.0687 69.5694 42.4269 70.1764 42.6061 70.8532C42.8051 71.5996 42.6558 72.2764 42.1781 72.7242C41.6706 73.1919 40.9043 73.3014 40.1081 73.0128C39.6005 72.8336 39.093 72.6147 38.6153 72.3858C35.7092 70.9627 32.5942 70.4252 29.3697 70.7835C28.8423 70.8432 28.4243 70.893 28.1257 70.6243C27.8272 70.3556 27.8272 69.9575 27.8272 69.3405V65.9667C27.8272 63.4488 27.8371 60.9409 27.8073 58.423C27.7973 57.2287 27.7177 56.2634 27.5585 55.3876C26.8519 51.5361 25.0605 47.9533 22.0848 44.4402C21.6071 43.8829 21.3981 43.3057 21.408 42.5892V41.6537C21.418 39.4443 21.4279 37.1553 21.3583 34.916C21.2886 32.5773 19.1887 30.4277 16.8798 30.2983C15.0387 30.1988 13.1478 30.1988 11.2569 30.2983C8.98779 30.4177 6.95755 32.438 6.81822 34.7071C6.65899 37.2747 6.62913 39.2353 6.7187 41.0764C6.79832 42.7583 6.35047 44.1019 5.19602 45.5648C1.90187 49.7248 0.299578 53.9545 0.299578 58.5026C0.279673 70.3158 0.289626 82.129 0.299578 93.9322C0.299578 94.5094 0.319482 95.1862 0.478716 95.8231C1.04599 98.1818 2.76771 99.5452 5.20598 99.5452C9.01764 99.5651 12.8293 99.5651 16.641 99.5352C16.6509 99.5352 16.6509 99.5352 16.6609 99.5352C17.3575 99.5352 17.875 99.7641 18.3428 100.282C19.6664 101.715 21.1393 103.168 23.0203 104.083H44.4671C44.6861 103.944 44.905 103.815 45.124 103.685C45.6813 103.357 46.2087 103.048 46.6765 102.66C50.0702 99.9035 52.6478 96.3903 54.5486 91.9218C54.9467 90.9764 55.5538 90.3195 56.4992 89.7821C57.5542 89.195 58.7484 88.5182 59.7237 87.6822C61.4355 86.2093 62.2814 84.1592 62.4606 81.0342C62.5004 80.3177 62.381 79.8201 62.1023 79.5215C61.8037 79.2329 61.3161 79.0836 60.5896 79.0737ZM37.3713 74.7544C37.8191 74.9833 38.2868 75.1625 38.7944 75.3515C39.0034 75.4312 39.2024 75.5108 39.4114 75.5904C40.7649 76.1378 42.1582 76.0084 43.3226 75.2122C44.5467 74.3862 45.3031 72.963 45.3031 71.4802V69.3703L45.9102 69.5793C49.3238 70.7437 52.0506 74.7644 51.9909 78.5462L51.981 79.004H18.9399L19.7858 77.9491C19.9451 77.75 20.0745 77.5709 20.2337 77.4116C22.1545 75.4013 24.6126 74.1473 27.5485 73.6796C31.5791 73.0327 34.6145 73.3611 37.3713 74.7544ZM9.38587 38.6083C9.38587 37.5235 9.38587 36.4487 9.39582 35.3639C9.40577 34.0104 10.4806 32.9256 11.844 32.8958C13.2473 32.8659 14.7302 32.8659 16.2628 32.8958C17.6262 32.9157 18.721 33.9905 18.7508 35.344C18.7707 36.6378 18.7707 37.9316 18.7707 39.2253C18.7707 40.0912 18.7707 40.967 18.7707 41.8328C18.7707 42.1712 18.6812 42.42 18.502 42.6091C18.2532 42.8579 17.9049 42.8777 17.6561 42.8777C16.7803 42.8678 15.9145 42.8678 15.0387 42.8678H14.0037H12.9885C12.1625 42.8678 11.3365 42.8578 10.5105 42.8777C10.4906 42.8777 10.4707 42.8777 10.4607 42.8777C10.2218 42.8777 9.90338 42.8379 9.66453 42.6091C9.41573 42.3602 9.38587 42.0119 9.38587 41.7731C9.39582 40.7181 9.38587 39.6632 9.38587 38.6083ZM14.5311 96.7984C14.3918 96.8282 14.2923 96.8382 14.1828 96.8382H4.98703C4.08139 96.8382 3.41459 96.3505 3.15584 95.4847C2.98665 94.9373 2.96675 94.3502 2.96675 93.9521C2.96675 90.2598 2.96675 86.5577 2.96675 82.8654C2.9767 75.1625 2.9767 67.1908 2.92694 59.3485C2.89708 55.1189 4.26052 51.2575 7.20635 47.197C8.10205 45.9629 9.13707 45.4653 10.6299 45.535C12.3018 45.6146 14.0136 45.6046 15.6756 45.5847C16.6808 45.5748 17.6859 45.5748 18.6812 45.5847C19.0792 45.5847 19.6465 45.7639 19.9749 46.142C22.6222 49.1874 24.2245 52.3522 24.9012 55.8255C25.0704 56.6814 25.15 57.5074 25.16 58.2837C25.1699 60.2144 25.1699 62.1351 25.1699 64.0658C25.1699 66.1259 25.1699 68.186 25.1799 70.2461C25.1799 71.0821 24.8515 71.5498 24.0752 71.8186C20.6915 72.9929 18.0442 75.1824 16.213 78.3173C15.9045 78.8448 15.5164 79.0737 14.8396 79.0637C13.8245 79.0438 12.8094 79.0438 11.7943 79.0637C11.0678 79.0737 10.5901 79.2229 10.3313 79.5215C10.0825 79.8101 10.0029 80.2679 10.0726 80.9347C10.7095 86.3288 12.1526 90.9465 14.4814 95.0568C14.6008 95.2757 14.7202 95.5046 14.8496 95.7435L15.3273 96.6491L14.5311 96.7984ZM59.5645 82.318C59.465 83.781 58.9077 84.9454 57.8925 85.7814C57.1959 86.3586 56.3599 86.8861 55.4145 87.3538C53.7823 88.1599 52.7075 89.3144 52.0108 90.9764C50.309 95.0568 47.8608 98.3509 44.7358 100.769C44.3079 101.098 43.6709 101.317 43.1136 101.317C40.2574 101.327 37.4011 101.337 34.5548 101.337C31.2806 101.337 28.0063 101.337 24.7321 101.356C24.7221 101.356 24.7121 101.356 24.7022 101.356C23.7766 101.356 23.0302 101.068 22.2838 100.431C19.6465 98.1618 17.4969 95.3056 15.8846 91.9218C14.4814 88.976 13.5359 85.8511 12.9985 82.3678L12.9189 81.8304H59.5944L59.5645 82.318Z" fill="#D9D4CD"/>
<path d="M71.7551 85.2433C69.5756 76.5551 67.3862 67.8569 65.2166 59.1587C65.0972 58.681 65.1071 57.9943 65.4057 57.5564C67.0279 55.148 67.7842 52.3415 67.7942 48.7289C67.8042 45.4347 66.7791 42.3297 65.6346 39.1848C65.3758 38.4782 64.9379 38.1498 64.311 38.2294C63.3854 38.3389 62.838 37.9507 62.6689 37.065C62.6489 36.9555 62.6091 36.8461 62.5693 36.7466L61.813 34.5272C61.2457 32.8752 60.6884 31.2231 60.1112 29.581C59.9519 29.1431 59.6733 28.8147 59.305 28.6455C58.9866 28.5062 58.6283 28.5062 58.2999 28.6455C57.6331 28.9242 57.3445 29.6706 57.6132 30.4568C58.1406 32.0392 58.688 33.6116 59.2254 35.194L60.1211 37.8015C60.2007 38.0403 60.2704 38.2792 60.35 38.5379L60.5988 39.354L58.1904 40.1701L57.9217 39.4834C57.8421 39.2943 57.7824 39.1351 57.7226 38.9758L55.8019 33.3628C55.5431 32.6065 55.2943 31.8401 54.9958 31.0937C54.7768 30.5464 54.2593 30.2379 53.6025 30.2976C53.0551 30.3473 52.6471 30.7255 52.5475 31.2828C52.4878 31.5913 52.5276 31.9894 52.6471 32.3477C53.1248 33.8007 53.6224 35.2537 54.12 36.7067C54.4882 37.7716 54.8564 38.8465 55.2147 39.9113C55.2744 40.1004 55.4635 40.7473 55.1351 41.1056C54.7569 41.5335 54.2494 41.7127 53.7617 41.6131C53.2541 41.5136 52.8461 41.1155 52.6471 40.5582L51.8409 38.1896C51.2637 36.4778 50.6765 34.776 50.0794 33.0742C49.9102 32.5766 49.5719 32.2084 49.1539 32.0591C48.7956 31.9297 48.4174 31.9695 48.079 32.1785C47.4919 32.5268 47.3028 33.1936 47.5814 33.9998C48.079 35.4727 48.5866 36.9356 49.0842 38.4085L50.0894 41.3444C50.159 41.5534 50.2187 41.7724 50.2884 42.0013L50.4775 42.678L49.9699 42.9268C49.8406 42.9965 49.741 43.0463 49.6316 43.0861C49.3927 43.1657 49.1638 43.2353 48.8852 43.3249L48.1089 43.5637L47.8103 42.7974C47.7208 42.5785 47.6411 42.3795 47.5715 42.1804L47.1435 40.9364C46.4469 38.9062 45.7403 36.866 45.0635 34.8357C44.8545 34.2187 44.5062 33.8803 43.9688 33.7609C43.8693 33.741 43.7698 33.7311 43.6702 33.7311C43.3219 33.7311 43.0034 33.8704 42.7646 34.1391C42.4262 34.5073 42.3267 35.0348 42.4959 35.5523C43.2025 37.7119 43.9489 39.8616 44.6854 42.0112L45.1332 43.3249C45.2725 43.713 45.4915 44.3699 44.7351 44.9272C44.1878 45.3253 44.2475 45.9423 44.3868 46.3802L44.5958 47.0171C45.3024 49.2066 46.0289 51.4657 47.2928 53.4263C49.5918 57.0091 52.3186 59.3578 55.6327 60.6217C56.2298 60.8506 56.608 61.2288 56.8867 61.8856C61.7533 73.231 66.6298 84.5765 71.5063 95.9219L71.5959 96.1309C71.7551 96.5191 71.9144 96.8773 72.1134 97.2057C72.4319 97.7232 72.9992 97.9223 73.5963 97.7332C74.2631 97.5242 74.5019 97.1759 74.4621 96.4593C74.4422 96.0911 74.3726 95.683 74.2332 95.1556L71.7551 85.2433ZM65.2863 74.5447L64.9976 73.9377C64.9081 73.7585 64.8285 73.5893 64.7488 73.4102L63.465 70.4246C61.9324 66.8716 60.3998 63.3287 58.897 59.7658C58.5686 58.9895 58.1008 58.5716 57.2848 58.3427C54.2294 57.4669 51.7414 55.4366 49.6913 52.1226C49.1141 51.1871 48.6861 50.162 48.2781 49.1668C48.079 48.6891 47.8899 48.2114 47.671 47.7536C47.5217 47.4252 47.5018 47.1565 47.6113 46.9077C47.7506 46.5793 48.079 46.43 48.3179 46.3504L53.4631 44.6087C56.4786 43.5837 59.5041 42.5686 62.5295 41.5634C62.9177 41.434 63.6143 41.6729 63.7735 42.0908C65.4156 46.4797 65.5848 50.172 64.3408 53.705C64.0124 54.6405 63.4849 55.576 62.8082 56.4119C62.231 57.1484 62.0916 57.7853 62.3305 58.691C63.266 62.2937 64.1716 65.9063 65.0773 69.5189L65.963 73.0718C66.0028 73.241 66.0426 73.4201 66.0725 73.5993L66.1919 74.1865L65.2863 74.5447Z" fill="#D9D4CD"/>
<path d="M15.5266 0.759962C22.2543 0.759962 26.7725 4.90004 26.7725 12.3542C26.7725 19.7785 21.7865 23.9186 14.8996 23.9186H5.45508V22.7144L8.67957 22.366C8.73928 19.3306 8.73928 16.2355 8.73928 12.7324V11.5281C8.73928 8.43303 8.73928 5.33793 8.67957 2.30253L5.45508 1.9542V0.75H15.5266V0.759962ZM14.6807 22.5253C20.2041 22.5253 23.1798 18.7634 23.1798 12.3542C23.1798 5.68626 20.2141 2.1234 14.9693 2.1234H11.9737C11.914 5.18865 11.914 8.34347 11.914 11.5381V12.7423C11.914 16.2455 11.914 19.4103 11.9737 22.5352H14.6807V22.5253Z" fill="#D9D4CD"/>
<path d="M45.9798 8.59223L44.049 8.9107L38.237 24.2569C35.9978 30.1983 33.8183 32.537 31.2904 32.537C29.6483 32.537 28.1953 31.6513 28.1953 30.3575C28.4143 29.3822 29.3995 28.9344 30.4047 28.9344C31.38 28.9344 32.0169 29.3424 32.9325 30.1983L33.1813 30.4471C34.7339 29.2429 35.739 27.3819 36.5252 25.3019L36.6845 24.9237L30.2455 8.85099L28.2849 8.60219V7.52734H36.4954V8.60219L33.4898 8.92064L38.038 21.2414L42.397 8.95049L39.272 8.60219V7.52734H45.9698V8.59223H45.9798Z" fill="#D9D4CD"/>
<path d="M49.711 15.5487C49.7707 20.1267 52.0796 22.4356 55.4633 22.4356C57.7424 22.4356 59.0958 21.4205 60.3299 19.9376L61.0266 20.4153C59.7626 22.8437 57.5533 24.3663 54.488 24.3663C49.8404 24.3663 46.6855 21.2414 46.6855 15.8374C46.6855 10.503 50.3479 7.05957 54.6174 7.05957C58.3494 7.05957 61.0962 9.58742 61.0962 13.6578C61.0962 14.4441 60.9967 15.1108 60.8474 15.5886L49.711 15.5487ZM56.4088 14.3147C57.9215 14.3147 58.2698 13.5285 58.2698 12.384C58.2698 10.2343 56.6874 8.37326 54.4482 8.37326C52.3284 8.37326 50.0892 10.1447 49.7408 14.245L56.4088 14.3147Z" fill="#D9D4CD"/>
</svg>
