<svg width="150" height="110" viewBox="0 0 150 110" fill="none" xmlns="http://www.w3.org/2000/svg">
<path d="M128.892 48.9305L135.698 54.6503C135.112 55.2355 134.187 55.7452 132.422 55.9151C131.157 65.6652 128.382 72.9801 124.607 75.5002C122.256 77.0104 119.057 77.8504 115.271 77.8504C115.271 76.0004 114.847 74.3204 113.591 73.3954C112.251 72.3855 108.881 71.4605 105.351 70.9602V69.6105C109.136 69.9503 115.772 70.4505 117.622 70.4505C119.132 70.4505 119.887 70.2806 120.727 69.6954C122.747 68.2702 124.682 62.6354 125.853 54.9806H100.291C96.0061 68.6006 83.6503 74.9056 64.0546 77.8504L63.6299 76.5856C79.7708 72.4704 88.7663 66.0805 91.9567 54.9806H65.7631L65.008 52.5455H125.371L128.892 48.9305ZM131.752 5.72046C131.752 5.72046 136.547 9.2505 139.653 12.0255C139.398 12.9504 138.558 13.3752 137.387 13.3752H65.2534L64.4983 10.94H90.2199C89.9651 10.7701 89.6347 10.6002 89.2949 10.4398C88.6247 7.24952 85.9346 3.37968 83.3294 1.18992L84.1694 0.604726C96.7801 1.8695 96.7801 9.25994 93.3348 10.9495H107.881C109.646 7.83471 111.496 3.30417 112.506 0.0195312L122.511 3.04933C122.086 3.97431 121.086 4.64446 119.321 4.47456C117.216 6.57937 114.28 8.92959 111.335 10.9495H127.561L131.752 5.72046ZM86.0195 41.8609C86.0195 41.8609 91.5697 42.2857 92.995 42.2857C94.1749 42.2857 94.4203 41.7854 94.4203 40.7755V37.5003H77.3638C76.2689 42.1252 73.5787 46.6652 66.8581 49.7705L66.018 48.7606C71.5682 43.6354 71.9835 37.1605 71.9835 30.1854V15.4706L79.2894 18.4909H93.5803L96.7707 14.8759L104.341 20.4258C103.841 21.096 102.406 21.8511 100.726 22.1059V41.3607C100.726 45.6458 99.8007 48.1659 92.4853 48.7606C92.3154 47.2504 91.985 45.8157 91.145 44.9757C90.3049 44.2206 88.8701 43.5505 86.0195 43.1257V41.8609ZM94.4298 35.0557V29.1754H78.119V30.1004C78.119 31.7805 78.034 33.3756 77.8641 35.0557H94.4298ZM78.119 20.9355V26.7403H94.4298V20.9355H78.119ZM108.126 17.3205L117.206 18.1606C117.037 19.3404 116.281 20.0955 114.176 20.4258V38.6707C114.176 39.3408 111.486 40.5207 109.221 40.5207H108.126V17.3205V17.3205ZM115.271 42.7104C115.271 42.7104 121.662 43.1352 123.002 43.1352C124.267 43.1352 124.512 42.7954 124.512 41.7099V16.4805L133.848 17.4904C133.593 18.6702 132.838 19.3404 130.988 19.5952V41.7854C130.988 46.5803 129.978 48.9305 122.247 49.6006C122.077 48.0055 121.822 46.6558 120.822 45.8157C119.897 45.0606 118.386 44.3055 115.271 43.9658V42.7104V42.7104Z" fill="#D9D4CD"/>
<path d="M76.8155 83.2206C76.4285 83.9379 75.815 84.1456 75.0127 84.1362C72.7095 84.0984 70.4064 84.1362 68.1032 84.1173C59.2399 84.0701 52.5475 77.3875 52.5192 68.5247C52.5098 66.0423 52.5381 63.5694 51.7546 61.172C51.6791 60.9455 51.5942 60.7189 51.4809 60.3886C46.9218 62.5689 42.4193 64.7115 37.8508 66.8918C38.7381 68.9872 39.2006 71.007 39.1156 73.1402C39.0307 75.2733 38.4549 77.2648 37.4355 79.1714C37.898 79.5395 38.3322 79.8605 38.7475 80.2191C42.2872 83.2772 43.5048 88.2514 41.768 92.5743C40.0218 96.9066 35.8025 99.6344 31.1395 99.4456C25.3439 99.2096 20.9547 94.7735 20.6055 88.7988C20.294 83.5038 24.3717 78.5768 29.7898 77.6518C30.0918 77.6046 30.4411 77.312 30.5921 77.0289C31.8852 74.6598 31.8758 72.1491 31.2623 69.6007C31.2528 69.5724 31.2434 69.5535 31.2434 69.5252C30.677 67.4015 30.677 67.3826 28.5438 67.0145C26.4483 66.6558 24.4 66.8918 22.4555 67.7507C22.2007 67.864 21.9175 68.2132 21.8798 68.4869C21.0491 73.933 16.3295 77.9444 10.8171 77.85C5.29518 77.7745 0.726639 73.6593 0.0753388 68.2226C-0.509888 63.239 2.27466 58.4914 6.85264 56.6792C11.5911 54.8104 16.8393 56.3017 19.8503 60.3697C19.9636 60.5302 20.0958 60.6812 20.1901 60.7944C21.4644 60.4169 22.6821 59.9544 23.9469 59.709C26.4483 59.2276 28.9308 59.4164 31.3095 60.3791C31.8947 60.6151 32.159 60.5207 32.4421 59.9355C34.2073 56.2639 36.0196 52.6206 37.8225 48.9679C37.8508 48.9018 37.8697 48.8263 37.9357 48.6281C37.2844 48.5337 36.6614 48.4298 36.0385 48.3732C34.2733 48.2222 32.4893 48.175 30.7337 47.939C26.3917 47.3444 22.5405 45.5605 19.1802 42.7761C14.6682 39.0384 11.8082 34.2719 10.7321 28.4955C10.4678 27.0797 10.4112 25.6167 10.3262 24.1726C10.2696 23.2665 10.7699 22.804 11.6855 22.7474C11.8837 22.7379 12.0819 22.7474 12.2896 22.7474C23.777 22.7474 35.255 22.7568 46.7424 22.7474C52.4531 22.7379 57.4559 24.5407 61.5713 28.5332C65.4603 32.2992 67.6407 36.9242 67.7634 42.3419C67.905 49.1661 67.82 55.9996 67.82 62.8332C67.8106 68.8267 69.5852 74.1973 73.3891 78.86C74.2103 79.8605 75.1826 80.7383 76.0793 81.6821C76.3341 81.9464 76.5796 82.2201 76.8344 82.4844C76.8155 82.7204 76.8155 82.9658 76.8155 83.2206ZM67.9428 75.0373C67.8956 74.8769 67.8672 74.7825 67.8295 74.6881C65.885 70.554 65.2526 66.1745 65.2904 61.6345C65.347 55.6598 65.3281 49.6757 65.2904 43.7011C65.2809 42.257 65.2054 40.7846 64.8845 39.3876C62.9117 30.8551 55.8229 25.2675 47.0445 25.2486C42.7214 25.2392 38.3888 25.2486 34.0657 25.2486C33.8014 25.2486 33.5465 25.2675 33.2917 25.2863C33.1878 28.3633 35.2267 30.8929 38.3511 31.412C39.9651 31.6763 41.6359 31.6763 43.2783 31.7235C46.5065 31.8179 49.7252 31.9689 52.8401 32.9316C55.181 33.6584 57.2765 34.7533 58.7018 36.8487C59.7307 38.3683 60.1649 40.0672 60.1271 41.8889C60.1177 42.6157 59.6363 43.097 58.985 43.1348C58.3054 43.1725 57.8146 42.7856 57.6824 42.0588C57.6258 41.7379 57.6635 41.4075 57.6352 41.0866C57.4653 39.1234 56.5497 37.6132 54.8412 36.4994C53.5481 38.6137 52.3021 40.643 51.0467 42.71C51.3865 42.9838 51.6602 43.2009 51.934 43.4085C56.4648 46.948 59.2587 51.5729 60.6369 57.1228C61.3448 59.9922 61.392 62.9087 61.5147 65.8252C61.5713 67.2693 61.7129 68.7229 61.9867 70.1387C62.638 73.48 64.5447 75.0184 67.9428 75.0373ZM46.7424 49.6946C47.8374 50.7518 48.9418 51.6956 49.8951 52.7716C52.8401 56.1129 54.5486 60.0205 54.879 64.4755C55.0017 66.0895 54.9734 67.7224 55.03 69.3458C55.2094 74.8391 59.1644 79.7566 64.488 81.163C67.0272 81.8331 69.5946 81.5877 72.162 81.5594C72.1809 81.5594 72.2092 81.4839 72.2092 81.4745C71.3597 80.3041 70.5385 79.1526 69.6796 78.0105C69.5474 77.8406 69.302 77.6896 69.0849 77.6518C68.5185 77.5574 67.9428 77.5291 67.367 77.4914C63.327 77.2554 60.769 75.1978 59.7118 71.2902C59.0794 68.9589 58.9378 66.5614 58.9378 64.1546C58.9284 59.8128 58.0317 55.6693 55.9267 51.8372C54.407 49.0622 52.3493 46.7403 49.6969 44.8432C48.6869 46.5138 47.7052 48.1278 46.7424 49.6946ZM12.8371 25.2863C12.9503 27.41 13.2996 29.411 14.0547 31.2987C17.6133 40.1711 24.1357 45.0508 33.7259 45.7398C35.3966 45.8625 37.0579 46.0608 38.7097 46.2684C39.1345 46.325 39.3327 46.1929 39.5404 45.8531C40.3333 44.5223 41.1545 43.2103 41.9568 41.8889C42.0418 41.7473 42.089 41.5868 42.1739 41.417C42.0229 41.3698 41.9379 41.332 41.8435 41.3131C39.5121 41.0583 37.19 40.7279 34.8491 40.5864C31.2245 40.3598 27.8642 39.4443 24.9569 37.179C22.0969 34.9609 20.2468 32.0444 19.0858 28.6748C18.7082 27.5705 18.4156 26.4379 18.0852 25.2958C16.3484 25.2863 14.6305 25.2863 12.8371 25.2863ZM20.6149 25.2863C20.9358 26.334 21.2096 27.3157 21.5399 28.269C23.5599 34.1681 28.6099 37.868 34.8397 38.0474C37.7186 38.1323 40.5881 38.2928 43.3632 39.1328C43.8258 39.2744 44.0523 39.0951 44.3071 38.793C45.6097 37.2356 47.1766 36.0181 49.0173 35.1497C49.1777 35.0742 49.3193 34.9421 49.6025 34.7438C48.4321 34.6211 47.4409 34.4607 46.4498 34.4135C44.0523 34.2814 41.6453 34.2908 39.2572 34.0831C35.6326 33.7717 32.7914 32.1954 31.4133 28.6371C31.0074 27.5799 30.8469 26.4379 30.5543 25.2769C27.3356 25.2863 24.0413 25.2863 20.6149 25.2863ZM51.547 37.0091C51.5187 36.9619 51.4903 36.9053 51.462 36.8581C50.9429 37.0469 50.3954 37.1884 49.8951 37.4339C47.7808 38.491 46.2044 40.1711 44.8829 42.0682C42.1739 45.9475 39.984 50.1288 37.898 54.3762C36.265 57.7175 34.4999 61.0021 32.8292 64.3151C32.6781 64.6171 32.6309 65.0418 32.7064 65.3627C32.933 66.3632 33.2539 67.3354 33.5182 68.3265C34.1601 70.6956 34.4244 73.093 33.8297 75.5093C33.6598 76.1983 33.4144 76.8779 33.1973 77.6046C33.6409 77.7179 34.0468 77.7651 34.4055 77.9161C34.953 78.1332 35.2361 78.0011 35.491 77.4536C37.0107 74.235 37.0296 71.0353 35.4532 67.8545C35.0568 67.0523 35.0568 66.3916 35.4816 65.6081C36.4443 63.8526 37.3316 62.0592 38.2472 60.2848C40.0595 56.8019 41.768 53.2719 43.7219 49.874C46.1006 45.7398 48.6775 41.719 51.1788 37.6415C51.311 37.4433 51.4243 37.2262 51.547 37.0091ZM10.9964 75.3394C15.6782 75.3488 19.4916 71.6017 19.5011 66.9673C19.5105 62.2386 15.7726 58.4348 11.1003 58.4159C6.34293 58.397 2.52952 62.1819 2.54839 66.9012C2.55783 71.5545 6.33349 75.3299 10.9964 75.3394ZM31.2811 96.9349C35.7458 97.2181 39.7669 93.5559 40.0312 88.9782C40.2861 84.4571 36.7275 80.3418 32.31 80.0587C27.4016 79.7472 23.39 83.2017 23.1257 88.0909C22.8709 92.8197 26.571 96.8028 31.2811 96.9349ZM48.9795 55.4994C48.668 55.6882 48.4321 55.8203 48.1961 55.9619C46.195 57.1889 44.2411 58.5103 42.1833 59.6241C40.7486 60.398 40.3993 61.7855 39.7952 63.0975C43.3538 61.4457 46.9124 59.7845 50.5842 58.0856C50.0178 57.1795 49.5176 56.3583 48.9795 55.4994ZM30.7053 62.786C27.5244 61.625 24.4472 61.7006 21.3795 63.1635C21.5683 63.862 21.7382 64.5038 21.8798 65.0418C23.2862 64.8059 24.6077 64.4661 25.9386 64.4094C27.2884 64.3528 28.6476 64.5793 29.9597 64.6832C30.1862 64.0791 30.4222 63.475 30.7053 62.786ZM47.3277 53.5833C46.6292 52.9887 46.044 52.4885 45.3926 51.941C44.6847 53.3096 44.0429 54.5461 43.401 55.792C43.4482 55.8297 43.4954 55.8675 43.5426 55.9052C44.7697 55.1501 45.9873 54.4045 47.3277 53.5833Z" fill="#D9D4CD"/>
<path d="M11.0054 72.7074C7.78657 72.7074 5.20963 70.121 5.2002 66.8833C5.2002 63.6173 7.78657 61.0309 11.0526 61.0215C14.2336 61.0121 16.8861 63.674 16.8766 66.855C16.8672 70.1116 14.262 72.7074 11.0054 72.7074ZM11.0337 70.1965C12.9121 70.1871 14.3752 68.7334 14.3658 66.8739C14.3563 65.0427 12.8461 63.5324 11.0148 63.5418C9.16471 63.5512 7.6733 65.0521 7.68274 66.8833C7.69218 68.7429 9.16471 70.1965 11.0337 70.1965Z" fill="#D9D4CD"/>
<path d="M25.7491 88.4133C25.8341 85.1662 28.4865 82.5704 31.6298 82.6553C34.8675 82.7403 37.4917 85.3928 37.435 88.5172C37.3784 91.8115 34.6976 94.4168 31.4411 94.3318C28.2034 94.2468 25.6642 91.6038 25.7491 88.4133ZM31.526 91.8209C33.395 91.8398 34.9053 90.3956 34.9336 88.5549C34.9619 86.7331 33.4516 85.1851 31.6298 85.1662C29.7892 85.1473 28.2789 86.6199 28.2317 88.4605C28.1939 90.3106 29.6476 91.7926 31.526 91.8209Z" fill="#D9D4CD"/>
<path d="M61.0338 88.3748C60.9771 91.2252 60.9771 94.1606 60.9771 97.0961V98.7101C60.9771 101.589 60.9771 104.496 61.0338 107.394L64.0921 107.724V108.866H54.8983V107.724L57.9283 107.394C57.9849 104.581 57.9849 101.674 57.9849 98.257H47.281C47.281 101.608 47.281 104.553 47.3376 107.394L50.3676 107.724V108.866H41.1738V107.724L44.2321 107.394C44.2887 104.515 44.2887 101.645 44.2887 98.7101V97.0961C44.2887 94.1606 44.2887 91.2535 44.2321 88.3748L41.1738 88.0444V86.9023H50.3676V88.0444L47.3376 88.3748C47.281 91.1875 47.281 94.0663 47.281 96.9734H57.9755C57.9755 94.0946 57.9755 91.2252 57.9189 88.3748L54.8889 88.0444V86.9023H64.0826V88.0444L61.0338 88.3748Z" fill="#D9D4CD"/>
<path d="M81.2896 107.544C80.544 108.771 79.6096 109.224 78.4769 109.224C76.8629 109.224 75.8058 108.233 75.5415 106.647C73.7482 108.412 72.6061 109.28 70.624 109.28C68.2266 109.28 66.2822 107.902 66.2822 105.269C66.2822 103.258 67.4243 101.824 71.7 100.295C72.7477 99.9078 74.154 99.5113 75.4754 99.2187V98.1994C75.4754 94.9619 74.5505 94.1219 72.3324 94.1219C71.7661 94.1219 71.162 94.2163 70.473 94.3956L69.85 96.642C69.5763 97.6614 69.0383 98.171 68.1983 98.171C67.3016 98.171 66.8202 97.718 66.7353 96.9157C67.3016 94.3956 69.699 92.876 73.0875 92.876C76.5326 92.876 78.1749 94.4334 78.1749 98.5108V105.637C78.1749 107.194 78.6279 107.732 79.3736 107.732C79.9116 107.732 80.2703 107.43 80.695 106.921L81.2896 107.544ZM75.4754 100.238C74.3051 100.568 73.1724 100.955 72.4456 101.229C69.5669 102.333 69.0572 103.627 69.0572 104.825C69.0572 106.59 70.1993 107.374 71.7283 107.374C72.8987 107.374 73.6444 106.892 75.4754 105.458V100.238Z" fill="#D9D4CD"/>
<path d="M90.0691 107.847V108.866H82.5182V107.847L85.0383 107.488C85.0666 105.808 85.0949 103.505 85.0949 101.976V100.239C85.0949 98.4081 85.0666 97.3321 85.01 95.8974L82.3389 95.6614V94.6704L87.3696 92.9053L87.8227 93.2074L87.7661 97.5775V101.985C87.7661 103.514 87.7944 105.817 87.8227 107.497L90.0691 107.847ZM84.2549 87.0817C84.2549 85.883 85.1799 85.0713 86.3786 85.0713C87.5207 85.0713 88.474 85.883 88.474 87.0817C88.474 88.2521 87.5112 89.1205 86.3786 89.1205C85.1893 89.1205 84.2549 88.2521 84.2549 87.0817Z" fill="#D9D4CD"/>
<path d="M97.5633 97.1523C98.6393 94.4529 100.527 92.8672 102.358 92.8672C103.377 92.8672 104.331 93.3202 104.727 94.0942C104.727 95.4723 104.189 96.3406 102.868 96.3406C102.084 96.3406 101.461 95.9819 100.829 95.4156L100.442 95.0569C99.0923 96.048 98.224 97.3977 97.5916 99.3987V101.975C97.5916 103.505 97.6199 105.779 97.6482 107.459L100.376 107.846V108.866H92.4098V107.846L94.8072 107.488C94.8355 105.836 94.8638 103.505 94.8638 101.975V100.267C94.8638 98.4077 94.8355 97.275 94.7789 95.9536L92.1738 95.6799V94.6888L96.7893 92.8955L97.2424 93.1975L97.5633 97.1523Z" fill="#D9D4CD"/>
<path d="M119.255 105.27C118.292 107.818 116.225 109.281 113.176 109.281C108.74 109.281 105.776 106.138 105.776 101.135C105.776 95.9536 109.457 92.8672 113.441 92.8672C116.348 92.8672 118.745 94.6322 119.189 97.0579C119.009 97.8697 118.528 98.2566 117.754 98.2566C116.706 98.2566 116.197 97.662 116.017 96.7276L115.385 94.4246C114.752 94.2169 114.13 94.1225 113.62 94.1225C110.628 94.1225 108.589 96.5766 108.589 100.833C108.589 105.062 110.864 107.45 114.016 107.45C115.904 107.45 117.546 106.525 118.603 104.968L119.255 105.27Z" fill="#D9D4CD"/>
<path d="M138.368 107.875V108.866L133.819 109.14L133.517 106.176C131.837 108.243 129.741 109.291 127.674 109.291C125.003 109.291 123.361 107.733 123.389 103.363L123.483 95.0101L121.114 94.5287V93.566L125.937 93.0846L126.268 93.415L126.117 98.0588V103.212C126.117 106.148 127.042 107.167 128.844 107.167C130.43 107.167 131.988 106.45 133.432 105.006L133.517 95.029L131.176 94.5759V93.5849L135.905 93.0752L136.207 93.4055L136.112 98.0493V107.516L138.368 107.875Z" fill="#D9D4CD"/>
<path d="M149.997 107.602C149.157 108.65 147.874 109.282 146.194 109.282C143.853 109.282 142.475 108.084 142.475 105.45C142.475 104.667 142.503 103.949 142.503 102.722V94.7562H139.719V93.5858L142.654 93.2272L143.523 88.791H145.41L145.231 93.3121H149.639V94.7468H145.203V105.318C145.203 107.055 145.92 107.772 147.09 107.772C147.874 107.772 148.468 107.47 149.337 106.847L149.997 107.602Z" fill="#D9D4CD"/>
</svg>
