<svg width="151" height="97" viewBox="0 0 151 97" fill="none" xmlns="http://www.w3.org/2000/svg">
<path d="M68.538 54.8767C67.9729 55.6058 67.2438 55.9339 65.4576 55.5238C61.557 57.7931 55.0681 60.5545 49.1443 62.4227C54.6671 65.5031 63.1063 67.5355 76.0931 68.6747L75.9291 69.7318C72.4386 70.2969 70.4062 71.6821 70.0053 75.3367C48.4152 72.0102 42.0813 64.7011 39.4839 54.2297C37.9437 62.9969 32.5029 70.3789 1.49862 75.0906L0.769531 73.7874C31.7739 67.3714 32.585 58.6862 32.9951 47.3216L39.566 47.8866L38.9189 46.8295C44.5966 43.1749 48.8253 38.3083 51.5776 32.8675H46.793C42.0813 39.2014 34.8634 44.068 26.4151 47.5585L25.604 46.3373C31.4458 42.7648 36.4036 37.8982 39.812 32.8675H33.6421C29.7415 35.9479 25.0389 38.4723 19.9262 40.4955L19.1151 39.1923C24.5559 35.8658 29.2585 31.3182 32.43 26.6065H22.1135L21.4664 24.1731H64.4095L68.1461 19.6255C68.1461 19.6255 72.3657 22.8699 74.963 25.3032C74.717 26.1963 73.9879 26.6065 72.8487 26.6065H40.049C38.9918 27.9826 37.7797 29.2859 36.4765 30.5071H62.9422L66.1046 27.4267L72.2745 32.3754C71.7095 33.0224 70.8164 33.4325 69.1941 33.5145C67.736 40.9786 65.7857 45.8543 62.8602 47.8046C61.32 48.8618 59.0416 49.3448 56.6083 49.4268C56.6083 47.9687 56.1982 46.7474 55.3142 46.0183C54.339 45.2072 51.8237 44.4782 49.3084 44.0681V42.7648C51.9057 43.0109 56.2073 43.3299 57.5835 43.3299C58.3946 43.3299 59.0416 43.1658 59.5338 42.7648C60.837 41.7076 62.3772 38.0531 63.4344 32.8584H58.5677C54.7492 39.3563 48.4243 44.387 40.3862 47.9595L42.6555 48.1236C42.4914 49.0987 41.7623 49.9098 40.0581 50.0739C41.0332 54.6216 43.1385 58.431 47.3672 61.3565C52.2338 57.948 57.6746 52.9993 60.518 49.6638L68.538 54.8767ZM1.98164 12.4258C18.705 14.294 13.4283 26.3877 7.34041 22.0861C6.85739 18.7597 4.01396 15.1051 1.25255 13.0728L1.98164 12.4258ZM6.28323 33.3687C7.42243 33.3687 7.65938 33.3687 8.63453 32.0655C10.3388 29.7962 10.3388 29.7962 24.7017 9.74638L25.923 10.3114C22.9246 16.0712 15.7796 28.3289 14.6404 30.7622C13.6652 32.7125 13.0182 34.5808 13.0182 36.121C13.1002 38.6364 15.2874 41.0697 15.0505 45.6173C14.8864 48.2967 13.2642 50.001 10.1838 50.001C8.80769 50.001 7.6685 48.8618 7.34041 47.0755C8.15151 40.7416 7.82343 36.9321 6.11919 36.039C4.98 35.474 3.92282 35.1459 2.46465 35.0638V33.3596H6.28323V33.3687ZM8.31556 1.47126C24.8749 3.25752 20.2452 15.0231 14.2394 11.2957C13.4283 7.96923 10.3388 4.23267 7.58647 2.12744L8.31556 1.47126ZM12.9361 50.6571C30.7076 52.6074 26.8981 65.2662 20.4001 61.6937C19.2609 58.0391 15.4515 53.7375 12.125 51.3862L12.9361 50.6571ZM35.1823 21.111C35.1823 21.594 33.3141 22.8972 30.3157 22.8972H29.3405V1.22519L36.2395 4.06862H56.6903L59.8527 0.660156L66.7517 5.85488C66.2687 6.50195 64.9655 7.15812 63.4253 7.4771V20.5459C63.3432 21.029 60.3449 22.2502 58.3946 22.2502H57.5014V19.8989H35.1823V21.111ZM35.1823 6.41992V10.7215H57.5014V6.41992H35.1823ZM57.5014 17.5385V13.0728H35.1823V17.5385H57.5014Z" fill="#D9D4CD"/>
<path d="M83.429 15.1975C83.429 17.5397 83.429 19.8272 83.4837 22.224L86.4912 22.5703V23.6731H77.5234V22.5703L80.4762 22.2514C80.5309 19.4717 80.5309 16.7012 80.5309 13.8669V12.3085C80.5309 9.47415 80.5309 6.66717 80.4762 3.88753L77.5234 3.56857V2.46582H86.0264C91.3487 2.46582 93.9825 4.98116 93.9825 8.74506C93.9825 12.272 91.4945 15.1975 85.1059 15.1975H83.429ZM83.4837 3.71437C83.429 6.52135 83.429 9.41036 83.429 12.3085V13.9307H85.4522C89.4166 13.9307 91.0024 11.8163 91.0024 8.75417C91.0024 5.5462 89.2982 3.7235 85.5069 3.7235H83.4837V3.71437Z" fill="#D9D4CD"/>
<path d="M98.2119 16.0082C98.2666 20.2005 100.381 22.3148 103.48 22.3148C105.567 22.3148 106.806 21.3852 107.936 20.0273L108.574 20.4648C107.417 22.6885 105.393 24.0829 102.586 24.0829C98.3304 24.0829 95.4414 21.2212 95.4414 16.2725C95.4414 11.3877 98.7952 8.23438 102.705 8.23438C106.123 8.23438 108.638 10.5492 108.638 14.2767C108.638 14.9966 108.547 15.6072 108.41 16.0447L98.2119 16.0082ZM104.345 14.8782C105.731 14.8782 106.05 14.1582 106.05 13.1101C106.05 11.1416 104.601 9.43736 102.55 9.43736C100.609 9.43736 98.5582 11.0596 98.2393 14.8144L104.345 14.8782Z" fill="#D9D4CD"/>
<path d="M116.229 12.3622C117.268 9.75568 119.09 8.22461 120.858 8.22461C121.843 8.22461 122.772 8.66205 123.146 9.40936C123.146 10.7399 122.626 11.5784 121.35 11.5784C120.594 11.5784 119.992 11.2321 119.382 10.6853L119.008 10.3389C117.705 11.2959 116.867 12.5991 116.265 14.5312V17.0192C116.265 18.4956 116.292 20.692 116.32 22.3142L118.954 22.6878V23.6721H111.253V22.6878L113.567 22.3415C113.595 20.7466 113.622 18.4956 113.622 17.0192V15.3696C113.622 13.5743 113.595 12.4806 113.531 11.2047L111.016 10.9404V9.98352L115.472 8.25195L115.91 8.54358L116.229 12.3622Z" fill="#D9D4CD"/>
<path d="M150.769 22.6878V23.6721H143.506V22.6878L145.848 22.3415C145.875 20.7466 145.903 18.5503 145.903 17.0192V14.0391C145.903 11.0863 145.064 10.2478 143.241 10.2478C141.911 10.2478 140.58 10.822 138.903 12.3622C138.958 12.8543 138.994 13.3738 138.994 13.9844V17.0192C138.994 18.5503 139.022 20.7466 139.086 22.3415L141.255 22.6878V23.6721H133.964V22.6878L136.361 22.3415C136.388 20.7466 136.415 18.5503 136.415 17.0192V14.0937C136.415 11.2047 135.604 10.2478 133.809 10.2478C132.36 10.2478 131.12 10.8584 129.498 12.3348V17.0192C129.498 18.4956 129.525 20.7193 129.553 22.3415L131.749 22.6878V23.6721H124.458V22.6878L126.8 22.3415C126.828 20.7193 126.855 18.4956 126.855 17.0192V15.3696C126.855 13.5743 126.855 12.4806 126.773 11.2047L124.258 10.9404V9.98352L128.714 8.25195L129.152 8.54358L129.416 11.1136C130.974 9.34558 133.007 8.22461 134.939 8.22461C136.907 8.22461 138.147 9.11773 138.703 11.2047C140.38 9.18152 142.403 8.22461 144.426 8.22461C146.996 8.22461 148.473 9.81948 148.473 13.7201V17.0192C148.473 18.5503 148.5 20.7466 148.527 22.3415L150.769 22.6878Z" fill="#D9D4CD"/>
<path d="M68.8755 79.1096C69.8871 84.2223 72.9766 87.5943 78.0346 88.8338C83.0471 90.055 87.2849 88.4966 90.6204 84.5413C90.8209 84.2952 91.0305 84.0582 91.231 83.8122C91.3677 83.9215 91.4224 83.9489 91.4589 83.9945C91.5044 84.0674 91.55 84.1585 91.5773 84.2405C92.7712 87.8495 94.922 90.7749 97.9295 93.0989C98.1938 93.2994 99.7887 94.393 101.147 95.031C106.068 97.3185 111.044 97.1089 116.011 95.031C118.444 93.6822 118.891 93.2721 119.374 92.9075C122.208 90.7385 124.222 87.968 125.398 84.5868C125.489 84.3225 125.626 84.0765 125.753 83.8031C125.917 83.9033 125.972 83.9307 126.008 83.9671C126.145 84.1312 126.282 84.2952 126.418 84.4592C129.289 88.0226 133.044 89.6266 137.537 89.1254C142.158 88.6059 145.557 86.0906 147.407 81.8072C149.257 77.5056 148.738 73.3316 145.958 69.5312C145.457 68.8477 145.411 68.4649 145.94 67.7632C151.162 60.9189 147.817 50.7846 139.524 48.57C137.947 48.1508 137.419 47.5949 137.209 46C136.134 37.8707 127.184 33.1499 119.82 36.7589C119.073 37.1234 118.699 37.0323 118.18 36.3761C115.71 33.2137 112.374 31.637 108.41 31.6826C104.446 31.7282 101.156 33.3777 98.7315 36.5857C98.3669 37.0687 98.0571 37.1598 97.5194 36.8773C95.4142 35.7837 93.1631 35.41 90.7936 35.6105C84.8424 36.1118 79.912 41.2063 79.6933 47.1574C79.6659 47.9047 79.3834 48.1417 78.709 48.2602C69.6592 49.9462 65.6037 60.4997 71.1903 67.827C71.6733 68.4649 71.6551 68.8295 71.1812 69.4492C68.9939 72.32 68.1737 75.5826 68.8755 79.1096ZM74.6535 69.5768C74.9633 69.2943 75.2641 69.0026 75.7197 68.5743C75.2914 68.228 74.9269 67.9546 74.5988 67.6447C69.9509 63.3249 70.1969 56.5808 75.1638 52.6529C76.9501 51.2403 79.0462 50.6661 81.3064 50.657C82.5731 50.6479 82.5549 50.6297 82.4091 49.3447C81.9534 45.2709 83.3569 41.9718 86.7927 39.7572C90.3197 37.4788 93.9378 37.6702 97.4647 39.9213C97.9477 40.2311 98.4125 40.5774 98.8955 40.9055C98.9411 40.9329 99.014 40.9329 99.2145 40.9693C100.992 36.9594 103.935 34.3438 108.547 34.3438C113.122 34.3529 116.075 36.9138 117.897 41.0787C118.371 40.7597 118.736 40.5227 119.091 40.2585C123.192 37.3057 127.886 37.4424 131.595 40.7597C134.174 43.0563 135.095 46.0365 134.657 49.4449C134.511 50.5932 134.539 50.6661 135.696 50.657C140.946 50.5841 144.755 54.2113 145.584 58.3945C146.25 61.7391 145.356 64.6737 143.005 67.1435C142.568 67.6082 142.094 68.0366 141.638 68.4832C141.602 68.5196 141.602 68.5925 141.565 68.711C142.021 69.1576 142.504 69.6132 142.969 70.0871C146.122 73.2496 146.669 77.8428 144.372 81.871C142.34 85.4435 137.792 87.3118 133.718 86.2637C129.563 85.1883 126.482 81.3059 126.464 77.0043C126.437 71.0896 126.464 69.7226 126.437 63.8079C126.437 63.4069 126.254 62.6869 126.054 62.6505C125.389 62.532 124.669 62.5867 124.003 62.7234C123.867 62.7507 123.766 63.3613 123.766 63.6985C123.757 70.2238 123.794 72.1924 123.776 78.7177C123.757 85.5437 119.392 91.3673 112.867 93.3541C104.045 96.0335 94.6577 90.0003 93.4912 80.8867C93.3818 80.0118 93.318 79.1278 93.318 78.2438C93.3089 71.9008 93.3363 70.1145 93.318 63.7715C93.318 63.3887 93.154 62.696 92.9899 62.6778C92.2882 62.5776 91.5591 62.6232 90.8574 62.7507C90.7298 62.769 90.6478 63.3887 90.6386 63.735C90.6295 69.5039 90.6022 70.7069 90.6386 76.4758C90.6569 79.0731 89.8275 81.3059 88.1689 83.2745C84.0769 88.1502 75.9294 87.4485 72.7396 81.9348C70.2516 77.6332 70.9716 72.9579 74.6535 69.5768Z" fill="#D9D4CD"/>
<path d="M80.9237 83.7386C77.1143 83.7203 74.0977 80.6491 74.1341 76.8305C74.1706 73.0757 77.2692 70.0226 80.9875 70.05C84.715 70.0864 87.7862 73.1668 87.8045 76.8943C87.8318 80.6582 84.715 83.7568 80.9237 83.7386ZM79.3197 80.5944C80.541 81.4784 82.7009 81.1047 84.0041 79.7468C85.0248 78.6897 85.6537 76.2837 84.6056 75.2812C82.8376 77.0583 81.0787 78.8355 79.3197 80.5944ZM77.2601 78.5985C79.1192 76.8031 80.8873 75.0898 82.71 73.3218C81.1971 72.3922 79.3835 72.6929 78.1076 73.8504C76.9775 74.8711 76.3487 76.949 77.2601 78.5985Z" fill="#D9D4CD"/>
<path d="M136.124 53.5459C139.943 53.5459 142.968 56.5898 142.95 60.4084C142.932 64.1541 139.87 67.2163 136.133 67.2163C132.388 67.2163 129.234 64.0539 129.28 60.3264C129.316 56.5625 132.369 53.5368 136.124 53.5459ZM139.897 58.8409C138.129 60.5907 136.343 62.3679 134.575 64.1177C135.905 64.9196 137.956 64.5369 139.214 63.1425C140.398 61.8301 140.626 59.8343 139.897 58.8409ZM137.628 56.5625C136.015 55.797 134.028 56.3073 132.861 57.7655C131.822 59.0687 131.631 60.8641 132.36 61.7663C134.101 60.0439 135.851 58.3214 137.628 56.5625Z" fill="#D9D4CD"/>
<path d="M125.124 54.6762C121.351 54.6944 118.298 51.6869 118.261 47.9322C118.225 44.15 121.278 41.0514 125.069 41.015C128.815 40.9785 131.95 44.1136 131.941 47.8775C131.931 51.6231 128.887 54.658 125.124 54.6762ZM128.678 45.9819C126.773 47.7863 124.95 49.527 123.073 51.3042C124.723 52.4707 126.946 51.9057 128.003 50.8394C129.279 49.5453 129.617 47.6496 128.678 45.9819ZM126.518 44.0589C125.661 43.2478 123.219 43.6579 121.998 45.0523C120.849 46.3555 120.558 48.3423 121.323 49.2445C123.055 47.522 124.786 45.7905 126.518 44.0589Z" fill="#D9D4CD"/>
<path d="M108.548 50.8119C104.757 50.8119 101.758 47.8318 101.722 44.0406C101.695 40.2493 104.757 37.1416 108.539 37.1416C112.321 37.1416 115.392 40.2402 115.365 44.0406C115.338 47.8318 112.339 50.8119 108.548 50.8119ZM106.598 47.5219C108.357 48.57 110.425 48.1599 111.692 46.7017C112.84 45.3894 113.041 43.4208 111.993 42.0811C110.207 43.8856 108.439 45.6628 106.598 47.5219ZM110.07 40.2402C108.593 39.42 106.579 39.8757 105.376 41.2792C104.255 42.5915 104.028 44.4689 104.839 45.4714C106.561 43.7489 108.293 42.0174 110.07 40.2402Z" fill="#D9D4CD"/>
<path d="M142.95 76.9324C142.941 80.7509 139.888 83.7675 136.06 83.7402C132.315 83.7128 129.243 80.6142 129.271 76.8959C129.298 73.1593 132.378 70.079 136.097 70.0607C139.87 70.0334 142.959 73.1411 142.95 76.9324ZM139.642 74.9456C137.774 76.7957 135.996 78.5637 134.174 80.359C135.659 81.4071 137.637 81.161 138.949 79.9672C140.289 78.7459 140.672 76.6954 139.642 74.9456ZM137.528 73.0956C136.243 72.3391 134.265 72.7766 133.016 74.1071C132.014 75.1734 131.485 77.5976 132.287 78.2994C134.046 76.5587 135.796 74.818 137.528 73.0956Z" fill="#D9D4CD"/>
<path d="M74.1339 60.4084C74.1156 56.5898 77.1414 53.5459 80.9599 53.5459C84.7147 53.5459 87.7678 56.5625 87.8133 60.3264C87.8589 64.0538 84.7147 67.2162 80.9599 67.2254C77.2234 67.2162 74.1521 64.1541 74.1339 60.4084ZM84.7421 58.8318C82.9558 60.618 81.1695 62.4043 79.4197 64.145C80.7412 64.8832 82.6733 64.5642 83.9309 63.2701C85.1795 61.9942 85.4711 60.1168 84.7421 58.8318ZM82.4272 56.5534C80.9235 55.8061 78.9367 56.28 77.7611 57.6835C76.7039 58.9502 76.4761 60.8185 77.196 61.7663C78.9185 60.053 80.6501 58.3214 82.4272 56.5534Z" fill="#D9D4CD"/>
<path d="M92.0328 54.6764C88.2689 54.7037 85.2068 51.7054 85.1521 47.9415C85.0974 44.1867 88.1687 41.0607 91.9599 41.0152C95.6783 40.9696 98.786 44.0317 98.8315 47.7774C98.8771 51.5686 95.8423 54.649 92.0328 54.6764ZM90.365 51.5778C91.4678 52.4618 93.8282 51.9605 94.94 50.794C96.1977 49.4817 96.5167 47.4676 95.6874 46.2281C93.9376 47.9961 92.1695 49.7733 90.365 51.5778ZM88.1231 49.1991C89.882 47.4676 91.6409 45.736 93.3907 44.0226C92.2607 43.2024 90.1281 43.8403 89.1165 44.8246C87.8679 46.0367 87.4669 47.8686 88.1231 49.1991Z" fill="#D9D4CD"/>
<path d="M91.459 63.9448C91.459 63.9448 101.484 63.9448 107.863 53.9199C107.863 53.9199 110.388 60.2994 124.614 63.9448" stroke="#D9D4CD" stroke-width="3" stroke-miterlimit="10"/>
</svg>
