<svg width="151" height="150" viewBox="0 0 151 150" fill="none" xmlns="http://www.w3.org/2000/svg">
<path d="M75.25 150C116.671 150 150.25 116.421 150.25 75C150.25 33.5786 116.671 0 75.25 0C33.8287 0 0.25 33.5786 0.25 75C0.25 116.421 33.8287 150 75.25 150Z" fill="#CDC6BC"/>
<path d="M49.2451 28.191C49.1415 28.1185 48.9861 28.0874 48.8514 28.0667C47.2352 27.8491 45.5879 28.0978 43.9923 28.4604C42.2725 28.8437 40.5941 29.3618 38.9571 30.0041C36.5535 30.9366 34.2638 32.1384 32.1399 33.5578C31.0832 34.2727 30.0575 35.0393 29.0836 35.8578C28.5966 36.2723 28.1304 36.6867 27.6642 37.1218C27.1565 37.6088 26.5867 38.0853 26.1515 38.6241C22.1627 43.5868 20.4221 49.8549 19.4068 56.0298C18.3811 62.2669 17.9978 68.68 19.2307 74.886C20.2149 79.8694 22.2974 84.7389 25.6335 88.7173C26.4312 89.6601 27.1565 90.603 28.1718 91.3593C29.2908 92.1985 30.5962 92.8098 31.9741 93.1413C32.3678 93.2345 32.834 93.2863 33.1345 93.0273C33.3417 92.8408 33.4039 92.5507 33.4453 92.271C33.8494 89.8881 34.212 87.4948 34.5539 85.1015C34.8958 82.7082 35.2066 80.3046 35.4967 77.9113C35.6418 76.7095 35.7764 75.5076 35.9008 74.3058C36.0044 73.3319 35.9733 72.2648 36.3981 71.3634C36.8022 70.5242 36.8125 69.6539 36.999 68.7629C37.7967 63.334 38.5635 57.7807 39.8378 52.3933C41.1329 46.9229 43.0703 41.5458 45.3703 36.3862C46.51 33.8168 47.8051 31.3096 49.2245 28.8748C49.3281 28.6987 49.4316 28.4811 49.328 28.2946C49.3177 28.2532 49.2866 28.2118 49.2451 28.191ZM23.81 69.3224C24.1726 68.3692 24.9186 67.6025 25.4988 66.7633C25.8407 66.2557 26.1308 65.7066 26.2448 65.1056C26.2862 64.8984 26.224 64.5876 26.3484 64.4115C26.4934 64.1939 26.6488 64.2664 26.7731 64.4426C27.0528 64.8466 27.3741 65.23 27.7367 65.5822C28.0993 65.9345 28.4826 66.266 28.9074 66.5561C29.1146 66.7012 29.3322 66.8359 29.5498 66.9602C29.612 67.0016 30.1714 67.3332 30.2128 67.3021C28.9074 68.4417 28.2132 70.1927 28.3997 71.8814C27.0736 70.7003 25.6024 69.4674 23.81 69.3224ZM30.6065 76.9374C30.6065 76.9892 30.5858 77.041 30.5755 77.0928C30.5962 77.2793 30.5962 77.4658 30.5444 77.6523C30.5029 77.8388 30.4097 77.9942 30.275 78.1392C30.1714 78.2946 30.0264 78.4189 29.8606 78.5018C29.6327 78.6262 29.3736 78.6987 29.1042 78.6987C28.8349 78.6987 28.5862 78.6365 28.3479 78.5018C28.12 78.3775 27.9439 78.2014 27.8092 77.9942C27.8092 77.9942 27.6642 77.6626 27.6538 77.6523V77.6419L27.602 77.2689C27.5916 77.1446 27.6227 76.9996 27.6538 76.8856C27.6538 76.8752 27.6538 76.8752 27.6642 76.8649C27.6745 76.8545 27.8092 76.5437 27.8092 76.5333C27.8092 76.5333 27.8092 76.523 27.8195 76.523L27.8299 76.5126C27.8299 76.5126 27.8299 76.5126 27.8299 76.5022C27.8817 76.4297 28.0061 76.2847 28.0579 76.2225C28.0682 76.2122 28.0682 76.2018 28.0786 76.2018C28.0889 76.1914 28.0993 76.1811 28.1097 76.1707L28.12 76.1603C28.12 76.1603 28.1407 76.15 28.1511 76.1396C28.2651 75.9531 28.4205 75.8081 28.6173 75.7045C28.7209 75.663 28.8245 75.6216 28.9385 75.5802C29.1768 75.518 29.4047 75.518 29.643 75.5802C29.7466 75.6216 29.8502 75.663 29.9642 75.7045C30.1196 75.7874 30.2439 75.891 30.3371 76.0257C30.4511 76.15 30.534 76.295 30.5755 76.4608C30.6376 76.6059 30.648 76.7716 30.6065 76.9374ZM30.8034 46.7986C30.7205 46.9022 30.6376 46.9954 30.5547 47.099C30.3579 47.2855 30.13 47.4098 29.8606 47.4824H29.8502C29.7673 47.5134 29.6845 47.5238 29.6016 47.5238C29.3944 47.5652 29.1871 47.5549 28.9799 47.4927C28.8556 47.4409 28.7313 47.3891 28.607 47.3477C28.5033 47.2752 28.3998 47.1923 28.2961 47.1197C28.2133 47.0161 28.1304 46.9229 28.0579 46.8193L27.9024 46.467C27.9024 46.467 27.8507 46.0837 27.8507 46.0733C27.861 46.0112 27.8713 45.9386 27.8817 45.8765C27.8921 45.8143 27.9025 45.7418 27.9128 45.6796C28.0371 45.3377 28.0164 45.3895 28.1925 45.172C28.2339 45.1202 28.2754 45.0684 28.3169 45.0166C28.4205 44.9337 28.5241 44.8611 28.6277 44.7886C28.6277 44.7886 28.6277 44.7886 28.6381 44.7886C28.6588 44.7783 28.9903 44.6436 29.011 44.6332C29.011 44.6332 29.011 44.6332 29.0214 44.6332C29.0318 44.6332 29.0317 44.6332 29.0421 44.6332C29.3218 44.5607 29.6016 44.5607 29.871 44.6332C30.1403 44.7057 30.3683 44.8301 30.5651 45.0166C30.7205 45.1512 30.8241 45.3067 30.8863 45.4931C30.9795 45.6693 31.0313 45.8661 31.021 46.063C31.021 46.3116 30.9484 46.5603 30.8034 46.7986ZM34.5539 63.6552C33.2174 63.6552 33.2174 61.6867 34.5539 61.6867C35.8904 61.6867 35.8904 63.6552 34.5539 63.6552ZM33.6007 56.0609C32.948 54.9834 32.202 53.8334 30.9795 53.3775C31.4354 52.787 32.1192 52.4036 32.7098 51.927C33.062 51.6473 33.3832 51.3158 33.5904 50.9221C33.6629 50.7874 33.694 50.5594 33.8183 50.4558C33.9634 50.3315 34.0566 50.4144 34.1084 50.5594C34.212 50.9013 34.3571 51.2329 34.5228 51.5437C34.6886 51.8649 34.8958 52.1653 35.1237 52.4554C35.2377 52.6005 35.362 52.7352 35.4864 52.8698C35.5278 52.9113 35.8386 53.2532 35.8697 53.2325C34.699 53.7816 33.839 54.8591 33.6007 56.0609ZM39.0504 42.2606C37.7346 41.0899 36.2738 39.8466 34.4711 39.7016C34.8337 38.7484 35.5796 37.9817 36.1598 37.1322C36.5017 36.6245 36.7918 36.0754 36.9058 35.4745C36.9472 35.2673 36.885 34.9565 37.0093 34.7803C37.1544 34.5628 37.3098 34.6353 37.4342 34.8114C37.7139 35.2155 38.0351 35.5988 38.3977 35.9511C38.7603 36.3033 39.1436 36.6349 39.5684 36.925C39.7756 37.07 39.9932 37.2047 40.2108 37.329C40.2729 37.3705 40.8324 37.702 40.8739 37.6709C39.5477 38.8209 38.8535 40.5822 39.0504 42.2606Z" fill="#9C8C80"/>
<path d="M127.125 27.5797C126.587 26.7819 125.789 26.036 125.053 25.3936C122.287 22.9589 118.702 21.4463 115.034 20.7107C110.434 19.7782 105.669 19.9647 100.986 20.348C100.322 20.3999 99.5869 20.4931 99.1518 20.98C99.1932 21.0318 99.2347 21.0733 99.2761 21.1251C100.675 22.7621 101.991 24.4715 103.213 26.2328C103.824 27.1135 104.415 28.0045 104.985 28.9162C105.202 29.2685 105.399 29.5897 105.472 29.9937C105.617 30.8329 105.969 31.6203 106.176 32.4492C106.86 35.1636 107.015 37.9817 106.964 40.7687C106.891 45.1616 106.176 49.7306 107.824 53.8333C108.777 56.1955 110.465 58.2573 111.315 60.6506C112.175 63.0439 111.916 66.1417 109.688 67.5196C108.725 68.1205 107.461 68.3588 106.808 69.2602C106.487 69.7057 106.363 70.2652 106.249 70.7935C105.803 72.9693 105.368 75.1139 104.539 77.186C104.353 77.6626 104.612 78.2117 104.643 78.6986C104.726 79.8176 104.456 80.9572 103.876 81.9311C103.617 82.3663 103.296 82.7807 102.923 83.133C102.229 83.7857 101.359 84.2726 100.644 84.9046C98.841 86.5001 98.0639 89.0799 98.727 91.3385C98.7477 91.4214 100.354 91.2971 100.519 91.2867C101.131 91.2453 101.732 91.1935 102.343 91.1106C103.555 90.9552 104.757 90.7169 105.928 90.4061C111.004 89.0799 115.666 86.3551 119.179 82.6253C123.074 78.4914 125.146 73.0729 127.032 67.903C127.27 67.2606 127.488 66.6182 127.716 65.9759C129.902 59.687 131.725 53.2013 131.995 46.5809C132.274 39.9813 130.907 33.1537 127.125 27.5797ZM114.444 43.2449C114.506 43.2345 114.579 43.2449 114.641 43.2656C114.838 43.2759 115.014 43.3277 115.18 43.4313C115.18 43.4313 115.18 43.4313 115.19 43.4417C115.19 43.4417 115.2 43.4417 115.2 43.4521C115.294 43.5246 115.459 43.6282 115.49 43.6593L115.708 43.9286C115.812 44.0841 115.863 44.2395 115.874 44.4156C115.884 44.4778 115.894 44.5296 115.894 44.5917V44.6021V44.6124C115.905 44.6746 115.905 44.5399 115.874 44.7989C115.843 44.9958 115.843 45.1201 115.698 45.317C115.604 45.4827 115.48 45.6071 115.325 45.7003C115.231 45.7832 115.128 45.8454 115.003 45.8764C114.827 45.9593 114.641 46.0008 114.444 45.9904C114.32 45.9697 114.185 45.9593 114.061 45.9386H114.05C113.812 45.8764 113.594 45.7521 113.418 45.5863C113.346 45.4931 113.273 45.3998 113.19 45.3066C113.087 45.1512 113.025 44.9854 113.025 44.7989C113.004 44.7264 113.004 44.6539 113.004 44.5814C113.004 44.5917 113.004 44.6021 113.004 44.6124V44.6021C113.004 44.5917 113.004 44.5814 113.004 44.571C113.004 44.4674 113.014 44.3742 113.045 44.2705C113.076 44.1462 113.128 44.0219 113.201 43.9079C113.273 43.8147 113.356 43.7214 113.429 43.6282C113.563 43.4935 113.719 43.4003 113.895 43.3381C114.05 43.2759 114.237 43.2449 114.444 43.2449ZM116.06 53.3153C117.397 53.3153 117.397 55.2838 116.06 55.2838C114.724 55.2838 114.724 53.3153 116.06 53.3153ZM112.486 24.0571C113.822 24.0571 113.822 26.0256 112.486 26.0256C111.149 26.0256 111.149 24.0571 112.486 24.0571ZM116.081 78.8748C114.931 77.8491 113.667 76.7716 112.102 76.6576C112.424 75.8288 113.066 75.1657 113.574 74.4301C113.874 73.995 114.123 73.508 114.216 72.99C114.247 72.8035 114.195 72.5445 114.309 72.3787C114.434 72.1922 114.568 72.2544 114.682 72.4098C114.931 72.762 115.211 73.0936 115.521 73.4044C115.832 73.7152 116.174 73.995 116.537 74.254C116.723 74.3783 116.91 74.5026 117.096 74.6062C117.148 74.6373 117.635 74.9378 117.666 74.9067C116.516 75.8806 115.915 77.4139 116.081 78.8748ZM115.418 33.8789C115.78 32.9258 116.526 32.1591 117.107 31.3199C117.448 30.8122 117.739 30.2631 117.853 29.6622C117.894 29.455 117.832 29.1442 117.956 28.968C118.101 28.7505 118.257 28.823 118.381 28.9991C118.661 29.4032 118.982 29.7865 119.344 30.1388C119.697 30.491 120.09 30.8226 120.515 31.1127C120.722 31.2577 120.94 31.3924 121.158 31.5167C121.22 31.5582 121.779 31.8897 121.821 31.8586C120.515 32.9983 119.821 34.7492 120.008 36.438C118.681 35.2569 117.221 34.024 115.418 33.8789ZM121.158 65.7272C119.821 65.7272 119.821 63.7587 121.158 63.7587C122.494 63.7484 122.494 65.7272 121.158 65.7272ZM124.266 54.0923C123.623 52.7248 122.888 51.2639 121.489 50.5801C122.121 49.9378 122.981 49.5544 123.748 49.0571C124.204 48.767 124.628 48.4044 124.929 47.9693C125.032 47.8139 125.095 47.5445 125.26 47.4409C125.447 47.3165 125.55 47.4202 125.592 47.5963C125.675 48.0107 125.799 48.4251 125.955 48.8188C126.12 49.2229 126.317 49.6062 126.545 49.9688C126.659 50.1553 126.783 50.3315 126.918 50.5076C126.959 50.5594 127.281 51.0049 127.332 50.9945C125.872 51.5022 124.701 52.6833 124.266 54.0923ZM129.228 41.7529C129.197 41.8565 129.135 41.9498 129.052 42.0223C128.969 42.1052 128.876 42.157 128.773 42.1984C128.669 42.2502 128.555 42.271 128.441 42.271C128.286 42.271 128.141 42.2295 128.006 42.157C127.944 42.1156 127.892 42.0741 127.83 42.0223C127.726 41.9187 127.643 41.7944 127.602 41.6597C127.591 41.5872 127.581 41.5146 127.571 41.4421C127.571 41.3282 127.591 41.2245 127.643 41.1209C127.674 41.0173 127.737 40.9241 127.819 40.8516C127.902 40.7687 127.996 40.7169 128.099 40.6754C128.203 40.6236 128.317 40.6029 128.431 40.6029C128.586 40.6029 128.731 40.6444 128.866 40.7169C128.928 40.7583 128.98 40.7998 129.042 40.8516C129.146 40.9552 129.228 41.0795 129.27 41.2142C129.28 41.2867 129.291 41.3592 129.301 41.4318C129.301 41.5457 129.28 41.6493 129.228 41.7529Z" fill="#9C8C80"/>
<path d="M111.605 61.552C110.921 60.6092 110.155 59.7286 109.492 58.7754C108.414 57.2317 107.533 55.5637 107.181 53.7298C107.005 52.8388 107.036 51.8857 107.109 50.9739C107.212 49.6478 107.544 48.3424 107.585 47.0162C107.616 45.8351 107.482 44.6229 107.233 43.4522C106.922 41.9603 106.425 40.5098 106 39.0489C105.917 38.7796 105.793 38.5102 105.731 38.2305C105.658 37.9196 105.586 37.5985 105.586 37.2773C105.565 36.3863 105.658 35.4746 105.544 34.5939C105.399 33.3299 105.192 32.0659 104.86 30.8434C104.622 29.9731 104.021 29.2064 103.741 28.3361C103.265 26.8649 102.322 25.7149 101.379 24.5131C100.208 23.0315 98.7787 21.9126 97.1003 21.0112C95.7016 20.2653 94.3962 19.3535 93.039 18.5247C90.3763 16.9188 87.4546 15.8517 84.3982 15.1886C82.3158 14.7327 80.1815 14.5048 78.0576 14.2769C76.7729 14.1422 75.4572 14.1215 74.1621 14.2044C72.9395 14.2872 71.7377 14.5359 70.5359 14.7638C69.0647 15.0436 67.5935 15.3026 66.1533 15.6859C64.4128 16.1418 62.9416 17.1364 61.4497 18.0585C59.4708 19.281 57.637 20.6797 56.1347 22.3996C54.7568 23.9744 53.4824 25.6424 52.2184 27.3001C51.2341 28.5848 50.281 29.9006 49.4211 31.2578C48.5094 32.7083 47.753 34.252 46.9138 35.7439C44.5309 39.9296 42.9665 44.4157 41.7129 48.9951C41.1327 51.1397 40.7597 53.3361 40.2935 55.5119C39.734 58.1123 39.1434 60.7128 38.6047 63.3133C38.2628 64.9607 37.952 66.6184 37.6412 68.2657C37.3822 69.6022 37.1127 70.9283 36.8952 72.2649C36.7398 73.1869 36.6465 74.109 36.5326 75.0311C36.4186 76.005 36.2943 76.9893 36.201 77.9735C36.1285 78.7506 36.0767 79.538 36.0146 80.3254C35.9109 81.6101 35.7866 82.8844 35.683 84.1691C35.6105 85.0187 35.569 85.8786 35.4965 86.7282C35.3929 87.9818 35.2272 89.2458 35.1754 90.4994C35.1028 92.1157 35.0821 93.7423 35.0717 95.3585C35.0613 96.2702 35.1546 97.182 35.1442 98.0937C35.1339 98.7879 35.0407 99.4716 34.9681 100.155C34.8852 101.036 34.7817 101.906 34.7299 102.787C34.6262 104.414 34.5537 106.04 34.4605 107.677C34.4501 107.781 34.4087 107.884 34.3879 107.988V115.354C34.419 115.541 34.4605 115.727 34.4708 115.914C34.5848 117.364 34.6987 118.815 34.8023 120.255C34.8645 121.053 34.906 121.85 34.9889 122.648C35.1132 123.891 35.2168 125.135 35.4136 126.357C35.7244 128.326 36.0767 130.294 36.46 132.252C36.6569 133.237 36.9573 134.211 37.2267 135.174C37.2682 135.329 37.3925 135.475 37.5168 135.702C37.5893 135.433 37.6412 135.257 37.693 135.06C37.7448 135.319 37.7965 135.557 37.8483 135.796C37.8898 135.806 37.9312 135.806 37.9726 135.816C38.0348 135.464 38.1488 134.449 38.1592 134.097C38.211 132.895 38.1902 132.356 38.2628 131.165C38.3249 130.066 38.47 128.978 38.5839 127.891C38.6668 127.093 38.7394 126.305 38.8533 125.518C39.0087 124.399 39.1538 123.27 39.3817 122.172C39.734 120.514 40.107 118.867 40.5525 117.23C41.0912 115.24 42.1065 113.438 43.1011 111.635C43.7228 110.495 44.2926 109.314 44.966 108.206C45.4012 107.491 45.9814 106.859 46.4994 106.196C46.5512 106.133 46.6134 106.071 46.6859 106.03C49.504 104.196 52.3116 102.373 55.1297 100.549C57.7924 98.8189 60.4965 97.1509 63.1073 95.3585C65.511 93.7215 67.8525 91.9913 69.8521 89.8985C70.8881 88.8106 71.8516 87.671 72.8255 86.5417C74.39 84.7079 75.8819 82.8223 77.7779 81.2578C78.5446 80.6258 79.2284 79.9006 79.9018 79.1857C80.5131 78.533 81.3523 78.2429 82.1086 77.8181C84.6159 76.4298 86.7605 74.6478 88.6875 72.586C90.5835 70.5554 92.3138 68.4004 93.6503 65.9967C94.9246 63.7174 96.0953 61.3759 97.2661 59.0448C98.012 57.5529 99.6283 54.0407 99.7423 53.7816C100.488 52.0825 101.255 50.3834 101.959 48.6739C102.136 48.2388 103.286 44.7265 103.472 44.4261C104.529 42.7269 105.057 40.862 105.492 38.8832C105.575 39.0179 105.658 39.1111 105.7 39.2147C106.591 41.9395 106.819 44.7369 106.715 47.5653C106.684 48.3734 106.528 49.1816 106.363 49.9793C106.124 51.0775 106.218 52.1861 106.352 53.274C106.622 55.5429 107.647 57.5425 108.953 59.4178C109.574 60.3088 110.3 61.1376 110.994 61.9872C111.491 62.5985 111.709 63.303 111.615 64.0593C111.553 64.5981 111.046 64.8985 110.621 65.1679C110.144 65.4683 109.626 65.6548 108.984 65.6134C108.342 65.5719 107.73 65.6963 107.129 65.8931C107.036 66.1211 106.912 66.3386 106.767 66.5355C106.787 66.5251 106.798 66.5147 106.818 66.5044C106.383 67.499 106.383 68.5143 106.477 69.5297C106.497 69.7369 106.611 69.9441 106.694 70.1617C104.663 71.0838 102.332 71.5396 100.716 73.1662C101.431 73.6117 102.042 74.0676 102.726 74.4095C103.379 74.7307 104.094 74.9379 104.788 75.1865C104.902 75.228 105.037 75.2487 105.182 75.2901C104.84 75.6424 104.508 75.9532 104.208 76.2951C103.565 77.0411 103.41 77.9424 103.296 78.8749C103.172 79.8695 103.006 80.8537 102.83 81.838C102.799 81.983 102.654 82.1488 102.509 82.2421C101.151 83.1123 99.6594 83.5993 98.0224 83.2988C96.4061 83.0087 94.7588 82.7497 93.2358 82.1799C91.6817 81.6101 90.0862 81.3925 88.4803 81.2785C86.6361 81.1542 85.1442 82.0038 83.8906 83.216C82.8131 84.252 82.0775 85.5263 81.3108 86.78C80.8239 87.5777 80.2644 88.3444 79.7464 89.1318C78.9486 90.3129 78.5549 91.5976 78.472 92.9963C78.4306 93.7008 78.3374 94.4053 78.2234 95.1099C78.0784 95.9801 78.1095 96.8401 78.3063 97.7C78.6171 99.109 78.845 100.549 79.2698 101.937C80.0365 104.445 81.1554 106.828 82.7302 108.983C83.3829 109.874 84.1289 110.713 84.7816 111.604C85.9731 113.23 87.0506 114.95 88.3249 116.515C90.7389 119.447 92.8214 122.586 94.9039 125.725C96.0332 127.424 97.2972 129.041 98.5094 130.688C98.6544 130.895 98.872 131.051 99.0896 131.216C99.0999 130.543 98.9238 129.921 98.6026 129.362C98.0535 128.409 97.4422 127.497 96.8724 126.564C96.7895 126.43 96.7895 126.233 96.7687 126.067C96.7273 125.756 96.7273 125.446 96.6755 125.135C96.5408 124.264 96.344 123.405 96.2715 122.534C96.1678 121.229 96.085 119.903 96.1057 118.597C96.1161 117.613 96.3026 116.639 96.4165 115.655C96.5408 114.588 96.6859 113.531 96.7687 112.464C96.9034 110.848 97.0381 109.242 97.1003 107.625C97.1728 105.926 97.1418 104.217 97.2143 102.518C97.2868 100.705 97.4215 98.8811 97.5458 97.068C97.6287 95.8869 97.7115 94.7162 97.8048 93.5351C97.9395 91.8981 98.126 90.2611 98.2089 88.6242C98.2814 87.1219 98.2192 85.6092 98.2192 84.1691C99.1621 83.9826 100.063 83.8479 100.944 83.6096C101.452 83.475 101.939 83.2263 102.405 82.9569C103.068 82.584 103.441 82.0038 103.659 81.2889C104 80.1803 104.166 79.0407 104.228 77.8906C104.28 76.9789 104.798 76.378 105.503 75.8392C105.845 75.5802 106.207 75.2901 106.404 74.9379C106.57 74.6478 106.57 74.223 106.508 73.8811C106.394 73.1662 105.959 72.6378 105.347 72.441C105.917 71.9437 106.528 71.4464 107.077 70.8869C107.43 70.5346 107.419 70.1099 107.129 69.654C106.715 68.9909 106.653 68.2553 106.943 67.5404C107.026 67.3229 107.305 67.1157 107.544 67.0328C108.259 66.7738 108.994 66.5976 109.719 66.3697C110.849 66.0174 111.605 65.2404 112.061 64.2562C112.434 63.3237 112.196 62.3809 111.605 61.552ZM64.4957 77.2483C64.4853 78.1289 63.8326 78.7506 62.9312 78.7402C62.1749 78.7298 61.6569 78.2429 61.6569 77.5384C61.6673 76.6266 62.3303 76.005 63.2938 76.0154C64.0605 76.0257 64.506 76.4712 64.4957 77.2483ZM55.0883 34.0966C55.596 33.62 56.1451 33.1849 56.6631 32.7187C57.3469 32.097 57.6992 31.3303 57.7717 30.4393C57.8235 29.8177 57.8442 29.1857 57.8856 28.5641C57.896 28.419 57.9063 28.2843 57.9271 28.1393L58.0203 28.1186C58.4451 28.8645 58.8802 29.6105 59.2843 30.3772C59.7298 31.206 60.2996 31.9105 61.1181 32.4389C61.4186 32.6358 61.6776 32.8948 61.9573 33.1331C62.2682 33.4025 62.2578 33.6822 62.0195 34.0034C61.6776 34.4489 61.315 34.8944 61.0146 35.371C60.4965 36.1791 60.1753 37.0597 60.0407 38.0025C60.0096 38.2408 59.8852 38.4791 59.8023 38.7174C59.7505 38.7278 59.6987 38.7485 59.6366 38.7589C59.4397 38.5413 59.2222 38.3444 59.0564 38.1165C58.7249 37.6296 58.4659 37.0804 58.1032 36.6246C57.378 35.7129 56.4455 35.0705 55.2334 34.8218C55.0883 34.7908 54.8396 34.6561 54.8396 34.5836C54.85 34.4178 54.9536 34.2209 55.0883 34.0966ZM59.2947 88.189C59.6158 88.1994 59.8438 88.3548 59.8438 88.6863C59.8542 88.9661 59.5537 89.194 59.2325 89.1836C58.9321 89.1733 58.6834 88.935 58.7145 88.6552C58.7456 88.3237 58.9735 88.1786 59.2947 88.189ZM57.6784 74.2644C57.1293 74.2748 56.746 73.9018 56.7356 73.3631C56.7253 72.8554 57.264 72.3581 57.8235 72.3581C58.3208 72.3581 58.7145 72.7311 58.7145 73.218C58.7248 73.7775 58.2483 74.2541 57.6784 74.2644ZM59.7609 43.9184C59.3361 43.9184 58.9528 43.5765 58.9424 43.1828C58.9424 42.7891 59.4915 42.2193 59.8852 42.2089C60.2996 42.1986 60.6208 42.5094 60.6208 42.9445C60.6312 43.4729 60.2375 43.9184 59.7609 43.9184ZM53.068 47.182C53.3166 46.7986 53.6482 46.4257 54.0212 46.1563C54.8397 45.5865 55.9275 46.1666 56.0622 47.2234C56.0829 47.3581 56.0622 47.4928 56.0622 47.6275C56.0622 48.5081 55.6271 49.0572 54.7361 49.223C54.1041 49.3473 53.5239 49.2023 53.1198 48.705C52.7261 48.2387 52.7572 47.6793 53.068 47.182ZM50.9752 53.4812C51.3792 53.4708 51.8765 53.9889 51.8765 54.424C51.8765 54.7763 51.6279 55.0145 51.2652 55.0145C50.8094 55.0042 50.3846 54.5483 50.395 54.0717C50.4054 53.7298 50.6436 53.4812 50.9752 53.4812ZM52.1459 61.1376C52.2185 61.2101 52.3013 61.2827 52.3635 61.3656C53.0162 62.2566 53.6689 63.1579 54.3112 64.0593C54.3838 64.1526 54.4148 64.3598 54.363 64.4323C53.7828 65.1886 53.1716 65.9138 52.5396 66.6909C52.0215 65.4787 50.9648 64.8881 49.5247 64.5877C50.8612 63.707 52.0838 62.8368 52.1459 61.1376ZM38.5528 68.1621C38.4389 69.0738 38.3249 69.9855 38.2317 70.9076C38.1281 71.8815 38.0452 72.8554 37.952 73.8293C37.8484 74.9068 37.7344 75.9947 37.6412 77.0721C37.5583 77.9839 37.4961 78.8852 37.4443 79.797C37.3718 81.0195 37.3614 82.2421 37.2578 83.4646C37.1127 85.1948 36.947 86.9147 36.7397 88.6345C36.6361 89.4841 36.4186 90.3233 36.2528 91.1625C36.2114 91.1625 36.17 91.1521 36.1389 91.1521C36.17 90.5719 36.201 89.9917 36.2425 89.4116C36.3564 87.6192 36.4704 85.8372 36.574 84.0448C36.6154 83.4439 36.6362 82.8533 36.6673 82.2524C36.6984 81.3303 36.7087 80.3979 36.7605 79.4758C36.8537 78.0668 36.9677 76.6577 37.092 75.2487C37.1956 74.1298 37.2992 73.0108 37.4546 71.9022C37.6204 70.6175 37.8276 69.3432 38.0452 68.0585C38.2628 66.7116 38.4803 65.3751 38.7497 64.0386C39.1227 62.2358 39.5371 60.4435 39.9308 58.6407C39.9412 58.5786 39.9412 58.506 39.9412 58.4439C39.9723 58.4439 40.0034 58.4542 40.0344 58.4542C39.9308 59.0241 39.8168 59.5835 39.7236 60.1534C39.5578 61.1791 39.3921 62.2048 39.2367 63.2201C39.102 64.1007 38.9777 64.9814 38.8533 65.862C38.7497 66.6391 38.6461 67.3954 38.5528 68.1621ZM40.1898 64.6499C39.8686 66.2557 39.5889 67.872 39.2159 69.4882C39.2574 68.8562 39.2884 68.2242 39.3402 67.5922C39.4024 66.8566 39.4853 66.1107 39.5786 65.3751C39.7029 64.3287 39.8168 63.2823 39.9826 62.2462C40.1691 61.0755 40.397 59.9151 40.5939 58.7443C40.8633 57.211 41.1119 55.688 41.3813 54.1546C41.6507 52.6731 41.889 51.1811 42.2101 49.6996C42.8007 46.9851 43.816 44.3846 44.7795 41.7738C45.8052 38.9557 47.3075 36.3552 48.6337 33.6718C48.6544 33.6304 48.6958 33.5993 48.8098 33.475C48.4265 34.3867 48.0224 35.1741 47.7427 36.0029C46.9657 38.3755 46.23 40.7584 45.5048 43.1414C44.8313 45.3482 44.1372 47.555 43.557 49.7825C42.8007 52.7041 42.1273 55.6569 41.4538 58.5993C41.0083 60.6092 40.5939 62.6295 40.1898 64.6499ZM44.075 98.6842C43.3601 98.6842 42.8525 98.218 42.8629 97.5757C42.8732 96.7883 43.443 96.3013 44.3237 96.322C45.0178 96.3324 45.4426 96.7572 45.4323 97.4099C45.4219 98.1662 44.8624 98.6946 44.075 98.6842ZM50.0013 88.9143C49.9391 89.1422 49.8458 89.3701 49.763 89.6084C49.2346 89.5152 49.0791 89.1733 48.9134 88.8624C48.4575 87.9714 47.9291 87.1219 47.0381 86.5728C46.4787 86.2205 45.8156 86.0133 45.2044 85.7336C45.0489 85.661 44.7692 85.5574 44.7795 85.4745C44.7899 85.2984 44.9039 85.0912 45.0385 84.9565C45.598 84.4281 46.2093 83.9515 46.7584 83.4232C47.4733 82.7394 47.6908 81.8587 47.753 80.9263C47.7841 80.2943 47.8255 79.6623 47.9499 78.9888C48.012 79.0925 48.0845 79.1961 48.1467 79.31C48.5611 80.056 48.9859 80.7916 49.4004 81.5375C49.7733 82.2006 50.2499 82.7601 50.9027 83.1952C51.2238 83.4128 51.5243 83.6718 51.8144 83.9308C52.2599 84.3245 52.2702 84.5317 51.8972 84.9772C51.2238 85.7957 50.6229 86.6557 50.3017 87.6606C50.1774 88.0647 50.1049 88.4998 50.0013 88.9143ZM72.1936 86.4899C71.344 87.3912 70.5048 88.2926 69.6345 89.1733C67.9043 90.9346 65.884 92.354 63.874 93.7941C60.6312 96.1355 57.1811 98.1869 53.7725 100.3C53.1508 100.684 52.5396 101.078 51.9283 101.471C51.9076 101.451 51.8765 101.419 51.8558 101.399C52.6121 100.808 53.3788 100.228 54.1351 99.627C57.0154 97.327 60.1235 95.3274 63.1488 93.2139C65.4074 91.6391 67.5313 89.8881 69.6967 88.2097C70.712 87.4223 71.6962 86.5935 72.753 85.8164C72.5665 86.0444 72.3904 86.2827 72.1936 86.4899ZM76.0684 24.7307C75.7369 25.1037 75.3743 25.4559 74.9909 25.7771C74.6905 26.0257 74.6594 26.2744 74.8044 26.6059C75.136 27.3726 75.4364 28.1497 75.7472 28.9267C75.799 29.051 75.8405 29.1857 75.8923 29.31C75.9752 29.569 75.9855 29.8488 75.6954 29.942C75.4986 30.0042 75.1671 29.9835 75.0013 29.8591C74.4107 29.4136 73.8616 28.906 73.3021 28.4294C73.0742 28.2429 72.8567 28.046 72.608 27.8388C72.0485 28.5744 71.4994 29.2893 70.971 30.0145C70.7845 30.2736 70.567 30.4393 70.2665 30.3461C69.935 30.2425 69.9868 29.942 70.0489 29.683C70.2458 28.9163 70.4219 28.1497 70.6291 27.383C70.8363 26.6474 70.8467 26.6474 70.1214 26.2951C69.8521 26.1604 69.593 26.0361 69.3237 25.8911C69.1993 25.8289 69.075 25.746 68.9714 25.6528C68.6399 25.3419 68.7124 25.0519 69.1579 24.9379C69.7381 24.7825 70.3183 24.6581 70.9089 24.5442C71.3026 24.4717 71.5305 24.2852 71.6444 23.9018C71.7998 23.3424 72.0071 22.7829 72.2039 22.2338C72.3075 21.954 72.4526 21.695 72.8255 21.7158C73.1778 21.7365 73.2918 21.9955 73.3643 22.2649C73.4783 22.6896 73.6026 23.1041 73.6855 23.5392C73.7373 23.7879 73.8409 23.8811 74.1102 23.8707C74.6386 23.8604 75.167 23.85 75.6954 23.8915C75.8819 23.9018 76.1824 24.0054 76.2238 24.1298C76.286 24.3059 76.2031 24.5856 76.0684 24.7307ZM98.4265 35.7128C98.5508 35.2155 99.3175 34.7804 99.9288 34.8529C100.385 34.9047 100.664 35.2673 100.654 35.8061C100.644 36.8525 99.9391 37.2877 98.9341 36.8629C98.4472 36.6453 98.2814 36.293 98.4265 35.7128ZM85.165 32.9362C85.7244 32.4078 86.3357 31.9313 86.8848 31.4029C87.5997 30.7191 87.8276 29.8384 87.8794 28.906C87.9105 28.274 87.952 27.642 88.0763 26.9686C88.1385 27.0722 88.211 27.1758 88.2731 27.2794C88.6876 28.0253 89.1123 28.7609 89.5267 29.5069C89.8997 30.17 90.3763 30.7191 91.0187 31.1646C91.3709 31.4029 91.6817 31.6826 91.9925 31.9623C92.3655 32.3042 92.3759 32.5322 92.0443 32.9155C91.3605 33.7443 90.7493 34.6043 90.4178 35.63C90.2831 36.0444 90.2209 36.4795 90.1069 36.894C90.0448 37.1219 89.9515 37.3498 89.879 37.5881C89.3506 37.4949 89.1952 37.1633 89.0294 36.8421C88.5736 35.9511 88.0452 35.1016 87.1542 34.5525C86.5947 34.2002 85.9316 33.993 85.3204 33.7133C85.1649 33.6407 84.8852 33.5371 84.8956 33.4543C84.9163 33.2678 85.0303 33.0605 85.165 32.9362ZM84.9681 43.0481C85.1235 43.2139 85.2064 43.276 85.2686 43.3589C85.9213 44.2499 86.574 45.1513 87.2163 46.0527C87.2889 46.1459 87.3303 46.3531 87.2785 46.4257C86.6983 47.182 86.087 47.9072 85.5276 48.6014C85.1442 48.1973 84.7816 47.6793 84.2843 47.327C83.7974 46.9748 83.1757 46.7986 82.5437 46.5189C83.787 45.7004 84.9992 44.8198 84.9681 43.0481ZM99.1828 53.5848C98.6958 54.5794 98.2503 55.6051 97.753 56.5997C96.3958 59.2831 95.1525 62.0183 93.6917 64.6499C91.4227 68.7216 88.4493 72.2752 84.6366 75.1451C83.9735 75.6528 83.2482 76.0775 82.5437 76.5438C82.5127 76.5127 82.4919 76.492 82.4712 76.4609C82.8131 76.0568 83.155 75.6631 83.4866 75.2591C87.0299 71.0216 90.5939 66.8048 93.4948 62.1322C94.3548 60.7439 95.1525 59.3038 95.826 57.8223C96.7584 55.7709 97.9602 53.8852 99.276 52.0411C99.8769 51.2122 100.416 50.3419 100.985 49.482C101.017 49.5027 101.048 49.5131 101.079 49.5338C100.436 50.8807 99.8355 52.2483 99.1828 53.5848ZM89.247 109.107C89.0709 109.283 88.7808 109.418 88.5218 109.438C88.2006 109.459 88.0348 109.2 87.9726 108.91C87.9416 108.755 87.8794 108.599 87.8587 108.434C87.7965 107.874 88.1281 107.47 88.6254 107.449C89.133 107.439 89.5268 107.853 89.5578 108.423C89.4646 108.651 89.4232 108.941 89.247 109.107ZM90.6871 94.167C90.3659 94.5297 90.0137 94.8819 89.6407 95.1824C89.2988 95.4621 89.2678 95.7315 89.4335 96.1148C89.7754 96.8919 90.0759 97.6896 90.3867 98.477C90.4281 98.5806 90.5006 98.6842 90.4903 98.7878C90.4592 98.9951 90.4385 99.2541 90.3038 99.3991C90.1069 99.6063 89.8272 99.5234 89.6096 99.3473C89.0502 98.8811 88.5011 98.4045 87.952 97.9279C87.7137 97.7311 87.4857 97.5239 87.2163 97.2959C86.6465 98.0522 86.0974 98.7671 85.569 99.4924C85.3825 99.741 85.1546 99.9068 84.8541 99.7928C84.5537 99.6789 84.5951 99.4095 84.6573 99.1505C84.8748 98.2905 85.0821 97.4306 85.3204 96.5811C85.4136 96.2392 85.3411 96.0423 85.0199 95.8869C84.6055 95.69 84.191 95.5139 83.8181 95.2653C83.6316 95.1409 83.5384 94.8923 83.3933 94.7058C83.5798 94.5815 83.7559 94.4157 83.9631 94.3535C84.5019 94.2085 85.0406 94.0945 85.5897 93.9909C85.9316 93.9288 86.1388 93.763 86.2321 93.4314C86.4082 92.8409 86.6154 92.2607 86.8226 91.6805C86.9159 91.4111 87.0609 91.1728 87.4132 91.1832C87.7655 91.1936 87.8898 91.4422 87.9623 91.722C88.0762 92.1571 88.2006 92.5922 88.2938 93.0274C88.3456 93.2553 88.4492 93.3382 88.6979 93.3382C89.2366 93.3278 89.7858 93.3175 90.3245 93.3589C90.511 93.3693 90.7804 93.4833 90.8322 93.6179C90.9047 93.763 90.8114 94.0324 90.6871 94.167ZM89.9619 87.8886C89.216 87.8989 88.5425 87.3084 88.5322 86.6453C88.5218 85.9097 89.3402 85.0601 90.0448 85.0498C90.7389 85.0498 91.3502 85.7025 91.3709 86.4588C91.3813 87.2151 90.7286 87.8782 89.9619 87.8886ZM92.6867 103.129C92.3448 103.139 92.0651 102.88 92.0651 102.549C92.0651 102.207 92.3241 101.948 92.6764 101.958C93.0183 101.958 93.2772 102.228 93.2772 102.559C93.2772 102.88 93.0182 103.119 92.6867 103.129ZM97.4629 89.6602C97.4215 90.344 97.3593 91.0174 97.3179 91.7012C97.1936 93.5454 97.1107 95.3896 96.9553 97.2338C96.831 98.7878 96.6134 100.332 96.4683 101.886C96.3751 102.942 96.344 103.999 96.2818 105.056C96.1782 106.693 96.0643 108.34 95.9607 109.977C95.9399 110.319 95.9606 110.651 95.8674 110.993C95.8674 110.443 95.8467 109.884 95.8674 109.335C95.9088 108.081 95.971 106.828 96.0228 105.574C96.1368 102.839 96.2715 100.114 96.3336 97.3788C96.3751 95.5139 96.7066 93.6905 96.9553 91.8566C97.09 90.8517 97.1314 89.826 97.235 88.821C97.3075 88.1372 97.4215 87.4534 97.5147 86.78C97.5458 86.78 97.5769 86.78 97.6079 86.78C97.5561 87.7331 97.5147 88.6967 97.4629 89.6602ZM105.565 73.6739C105.71 73.964 105.772 74.2955 105.855 74.6063C105.938 74.9275 105.762 75 105.472 74.9482C104.467 74.741 103.462 74.5131 102.674 73.8189C102.446 73.6221 102.177 73.477 101.897 73.2905C102.633 73.1455 103.337 73.0005 104.042 72.8658C104.56 72.7725 105.306 73.1559 105.565 73.6739Z" fill="#333A31"/>
<path d="M68.3394 51.1191C68.7642 51.2227 69.189 51.347 69.6138 51.4713C69.8935 51.5542 70.1111 51.5231 70.3079 51.3056C70.6084 50.9948 70.9296 50.7047 71.2508 50.4146C71.4166 50.2695 71.5927 50.1452 71.831 50.2902C72.0486 50.4249 72.0382 50.6321 71.9864 50.8394C71.9138 51.1502 71.8517 51.4713 71.7584 51.7718C71.7066 51.9479 71.7377 52.0412 71.9138 52.1344C72.2661 52.3106 72.608 52.4867 72.9395 52.6939C73.0535 52.7664 73.2089 52.9425 73.1985 53.0358C73.1778 53.1601 73.0224 53.3052 72.8981 53.357C72.5562 53.4917 72.1936 53.5849 71.831 53.6678C71.5512 53.7299 71.4476 53.875 71.4269 54.1444C71.3751 54.7556 71.3026 55.3669 71.2301 55.9782C71.2197 56.0818 71.2093 56.175 71.1886 56.2786C71.1575 56.4755 71.0539 56.662 70.8467 56.6205C70.6913 56.5895 70.4841 56.4651 70.4219 56.3304C70.194 55.8331 70.0075 55.3151 69.8107 54.8074C69.7278 54.6106 69.6553 54.4034 69.562 54.1858C68.9404 54.4759 68.3395 54.7453 67.7489 55.0354C67.5417 55.139 67.3345 55.1701 67.179 55.0043C67.0029 54.8178 67.1376 54.6417 67.2723 54.4966C67.666 54.0615 68.0494 53.6263 68.4534 53.2016C68.8471 52.7975 68.8471 52.8079 68.5052 52.3105C68.3809 52.1344 68.2462 51.9583 68.1323 51.7718C68.0701 51.6889 68.0183 51.5957 67.9872 51.5024C67.8629 51.202 68.0079 51.0362 68.3394 51.1191Z" fill="white"/>
</svg>
