<svg width="151" height="150" viewBox="0 0 151 150" fill="none" xmlns="http://www.w3.org/2000/svg">
<path d="M75.8501 150C117.271 150 150.85 116.421 150.85 75C150.85 33.5786 117.271 0 75.8501 0C34.4287 0 0.850098 33.5786 0.850098 75C0.850098 116.421 34.4287 150 75.8501 150Z" fill="#CDC6BC"/>
<path d="M21.2397 85.1844C21.9338 85.806 22.7523 86.3966 23.032 87.2876C23.3221 88.22 22.9284 89.2146 22.7523 90.1782C22.1203 93.5453 24.0784 96.8089 26.0677 99.5959C28.0362 102.352 30.1808 105.077 32.9678 106.993C35.7651 108.91 39.3292 109.956 42.6031 109.065C44.8203 108.465 46.996 106.403 46.4261 104.186C46.0221 102.6 44.4369 101.658 42.9968 100.891C40.8625 99.7513 38.7283 98.622 36.594 97.4823C35.4958 96.9022 34.3975 96.3116 33.4444 95.5138C31.8074 94.1359 30.6885 92.1156 30.4813 89.9813C30.3155 88.3547 30.6678 86.7281 30.6988 85.0911C30.761 82.3974 29.9529 79.7451 28.6267 77.4243C27.6321 75.6734 26.4614 74.14 24.4411 73.5806C22.9284 73.1661 21.2189 73.3216 19.8513 74.109C18.4941 74.886 17.6445 76.264 17.6963 77.8491C17.7792 80.2631 18.9189 82.7704 20.5455 84.5317C20.7838 84.7492 21.0014 84.9668 21.2397 85.1844Z" fill="#9C8C80"/>
<path d="M91.6912 80.978C92.0745 80.3461 92.6651 79.8177 93.3385 79.4861C94.6025 78.8645 96.084 78.8334 97.4827 78.9992C103.015 79.6519 107.802 83.0294 112.236 86.3863C113.293 87.184 114.526 88.0336 115.811 87.7435C117.447 87.3705 118.152 85.1844 117.448 83.6614C116.743 82.1384 115.096 81.2474 113.469 80.8434C111.832 80.4393 110.133 80.4082 108.496 80.0249C107.729 79.8488 106.88 79.4861 106.662 78.7298C106.486 78.1289 106.786 77.4865 107.139 76.9685C108.341 75.1969 110.527 73.8293 111.21 71.7468C111.853 69.7887 109.656 68.2864 108.745 66.8359C107.398 64.6705 109.346 62.5674 110.257 60.6714C111.718 57.6357 110.796 53.6469 108.164 51.5541C106.061 49.886 103.274 49.4716 100.746 48.5495C96.6435 47.0473 93.0277 44.3742 89.1839 42.3436C87.7541 41.5872 86.2622 41.5251 84.6771 41.5872C82.377 41.6701 80.0252 41.4733 77.9738 40.344C76.6684 39.6291 75.5598 38.5723 74.2026 37.9611C72.2859 37.1011 69.9651 37.1529 68.2763 35.8993C67.5822 35.3813 67.0434 34.6871 66.4425 34.0551C65.6448 33.2056 64.7123 32.4803 63.7073 31.9001C59.6667 29.5794 54.6936 29.7866 50.0521 30.2632C44.1155 30.8744 38.1064 31.838 32.7293 34.4074C29.0927 36.148 25.6945 38.7381 23.9228 42.3539C23.8192 42.5611 23.726 42.7787 23.757 43.0066C23.8503 43.7319 24.9278 43.6904 25.622 43.4521C30.5432 41.7841 36.3762 41.5147 40.5722 44.5814C41.4218 45.2031 42.1781 45.9387 43.1106 46.4256C44.4782 47.1301 46.0737 47.2027 47.607 47.3788C58.5892 48.6946 67.9966 56.7965 72.8868 66.7116C73.1043 67.1467 73.3115 67.5922 73.5188 68.0274C74.358 69.7887 75.1143 71.9437 76.5958 73.2491C77.0413 73.6428 77.404 74.1401 77.6837 74.6581C78.2743 75.7356 78.5436 76.9685 78.6472 78.1807C78.9063 81.206 78.2432 84.2313 78.2639 87.2669C78.2846 90.3025 79.1963 93.6179 81.7243 95.2963C82.9261 96.0941 84.3559 96.436 85.6717 97.0265C87.5366 97.8554 89.1425 99.1608 90.8934 100.207C92.7583 101.316 94.789 102.134 96.8196 102.932C98.1872 103.471 99.5652 104.02 101.026 104.206C103.16 104.476 105.44 103.885 107.035 102.435C108.631 100.984 109.439 98.6531 108.879 96.581C108.05 93.5039 104.787 91.867 101.917 90.4787C99.3787 89.2458 96.8818 87.9196 94.4471 86.4899C93.007 85.6403 91.4322 84.5421 91.2457 82.874C91.1628 82.1902 91.3389 81.5375 91.6912 80.978Z" fill="#9C8C80"/>
<path d="M103.813 44.2188C104.186 44.3845 104.559 44.5607 104.932 44.7264C108.589 46.3116 112.039 48.2905 115.375 50.4662C117.137 51.6162 119.002 52.6315 120.794 53.7505C125.021 56.4028 128.357 59.9461 131.123 64.0696C132.833 66.6286 134.428 69.2395 135.485 72.1508C135.951 73.4252 136.387 74.7202 136.822 75.9946C136.884 76.1603 136.905 76.3365 136.967 76.5644C136.843 76.5126 136.77 76.4815 136.697 76.4504C136.677 76.5437 136.677 76.6577 136.625 76.7302C136.552 76.8338 136.449 76.9581 136.335 76.9996C136.273 77.0203 136.128 76.8959 136.065 76.8131C133.869 73.1972 130.896 70.3066 127.466 67.8823C124.617 65.862 121.488 64.3908 118.276 63.0646C118.194 63.0335 118.111 63.0025 118.017 62.9714C117.997 62.961 117.976 62.9817 117.903 63.0025C118.535 63.4065 119.126 63.8106 119.748 64.1732C122.628 65.8205 124.949 68.1102 126.979 70.69C128.15 72.1819 129.176 73.7878 130.284 75.3315C130.668 75.8599 131.082 76.3676 131.465 76.8856C131.631 77.1135 131.787 77.3415 131.662 77.6626C131.548 77.932 131.32 78.0667 131.051 77.9216C130.833 77.8077 130.637 77.6523 130.45 77.4865C127.673 74.9482 124.71 72.6688 121.447 70.7936C119.996 69.9647 118.484 69.2291 117.002 68.4521C116.981 68.4832 116.961 68.5143 116.93 68.5453C117.116 68.7422 117.292 68.9494 117.489 69.1255C119.043 70.4931 120.597 71.8607 122.151 73.2283C123.001 73.9743 123.83 74.7617 124.721 75.4662C125.922 76.4194 127.249 77.1653 128.637 77.818C130.978 78.9059 132.937 80.5221 134.76 82.3352C136.376 83.9515 137.578 85.8371 138.511 87.9092C138.832 88.6344 139.174 89.339 139.484 90.0642C139.567 90.2507 139.567 90.4683 139.557 90.7169C139.205 90.3232 138.873 89.9192 138.511 89.5462C137.568 88.5723 136.656 87.5777 135.661 86.6659C134.563 85.661 133.424 84.6664 132.211 83.8064C129.196 81.6722 125.798 80.3978 122.224 79.5275C119.789 78.937 117.302 78.7505 114.826 78.5018C113.055 78.3257 111.293 78.0045 109.522 77.7455C109.418 77.7248 109.304 77.7144 109.19 77.7662C109.895 77.932 110.61 78.0667 111.304 78.2532C113.5 78.8541 115.759 79.2582 117.852 80.1699C119.634 80.9469 121.343 81.8483 123.104 82.6875C124.648 83.4231 126.016 84.4177 127.311 85.5263C128.326 86.3966 129.414 87.2047 130.326 88.1682C132.553 90.5097 134.356 93.1413 135.351 96.2598C135.651 97.2026 136.014 98.1247 136.242 99.0882C136.418 99.8031 136.418 100.549 136.501 101.285C136.656 102.559 136.811 103.833 136.956 105.108C136.988 105.398 136.988 105.698 136.967 105.988C136.956 106.102 136.863 106.216 136.801 106.33C136.697 106.247 136.552 106.185 136.501 106.082C136.086 105.336 135.682 104.6 135.299 103.844C133.683 100.663 131.465 97.9693 128.689 95.7211C126.813 94.1981 124.793 92.9444 122.493 92.1985C120.794 91.6494 119.043 91.2453 117.313 90.7791C117.189 90.748 117.054 90.7273 116.898 90.7584C117.334 91.0174 117.769 91.2867 118.214 91.525C119.965 92.4575 121.436 93.7318 122.804 95.1512C123.881 96.2702 124.886 97.4513 125.653 98.8085C126.886 100.995 127.767 103.305 128.316 105.76C128.585 106.942 128.875 108.123 129.093 109.314C129.248 110.153 129.31 111.013 129.393 111.873C129.487 112.785 129.569 113.707 129.652 114.619C129.704 115.209 129.766 115.8 129.797 116.401C129.859 117.592 129.922 118.784 129.932 119.975C129.932 120.483 129.777 120.99 129.735 121.498C129.652 122.379 129.694 123.27 129.404 124.119C129.341 124.285 129.238 124.43 129.103 124.679C128.689 123.777 128.316 122.98 127.964 122.172C127.052 120.068 125.86 118.152 124.223 116.546C122.503 114.867 120.525 113.562 118.339 112.547C116.298 111.593 114.163 110.941 112.029 110.257C109.211 109.345 106.31 108.744 103.419 108.133C102.083 107.853 100.715 107.677 99.358 107.491C97.0891 107.18 94.8098 106.921 92.5408 106.61C91.2872 106.444 90.0232 106.268 88.7903 106.019C86.9979 105.646 85.4335 104.724 83.8276 103.896C81.9316 102.911 80.3982 101.523 79.0617 99.886C78.0775 98.6842 77.0725 97.5031 76.109 96.2909C75.6324 95.69 75.2387 95.0373 74.8035 94.4053C74.3477 94.9751 73.9022 95.5449 73.4256 96.094C71.83 97.9175 69.8408 99.0468 67.4475 99.4716C66.5358 99.6373 65.6344 99.8653 64.7227 100.031C63.3551 100.28 61.9875 100.58 60.6096 100.704C59.2005 100.839 57.7708 100.818 56.3618 100.798C53.1085 100.746 50.1558 99.7824 47.576 97.7828C47.317 97.586 47.0373 97.4202 46.7679 97.2337C46.4985 97.0472 46.2291 96.8711 45.8976 96.7364C46.0634 96.985 46.2291 97.2337 46.3949 97.472C46.5503 97.6896 46.7057 97.9071 46.8611 98.1351C48.1251 100.083 49.3788 102.041 50.6531 103.978C51.1297 104.704 51.3265 105.512 51.4405 106.341C51.7306 108.454 50.7774 110.019 49.1715 111.272C47.576 112.526 45.7318 113.013 43.7219 113.054C41.9295 113.096 40.1786 112.899 38.4173 112.588C38.3137 112.567 38.2101 112.567 38.1168 112.567C36.3659 112.661 34.7393 112.174 33.1334 111.521C30.4397 110.423 28.0567 108.827 25.7671 107.055C23.6949 105.45 22.0994 103.46 20.8458 101.181C20.1309 99.8964 19.3539 98.6427 19.0534 97.1819C18.8773 96.3012 18.7426 95.3999 18.6804 94.4985C18.6183 93.6386 18.6079 92.7683 18.6804 91.9084C18.753 90.9552 18.9188 90.002 19.0845 89.0489C19.1156 88.852 19.0949 88.7484 18.9602 88.6137C17.8412 87.5259 16.743 86.4069 15.593 85.3398C13.7592 83.6199 12.6817 81.5064 12.2051 79.0717C12.0083 78.0771 12.0497 77.0721 12.174 76.0671C12.3812 74.3783 12.8785 72.7932 13.6038 71.2598C13.8006 70.835 14.0493 70.431 14.2876 70.0269C14.4119 69.8093 14.4637 69.6125 14.3808 69.3431C13.9664 67.9652 13.9042 66.5561 13.9767 65.116C14.0389 63.8002 14.7849 62.847 15.4583 61.8524C16.2147 60.7335 17.0746 59.6871 17.862 58.5889C18.6804 57.4492 19.7476 56.5686 20.7629 55.6257C20.8562 55.5325 20.9701 55.4496 21.1359 55.3046C20.5039 55.4911 19.4678 56.3406 17.3439 58.6614C16.2146 59.8943 15.2615 61.2826 14.2151 62.6191C14.1011 62.1529 13.9664 61.6452 13.8421 61.1376C13.5624 59.9875 13.4898 58.8064 13.6452 57.6564C13.7903 56.5064 14.1114 55.3667 14.4326 54.2478C15.0335 52.1342 15.8624 50.1036 17.0849 48.2801C18.0795 46.7986 19.1778 45.3895 20.276 43.9701C21.2499 42.7165 22.2756 41.5147 23.2805 40.2818C23.3531 40.1989 23.4152 40.1056 23.4567 40.002C24.0058 38.7381 24.8346 37.6502 25.6842 36.5831C27.8599 33.8686 30.709 32.1177 33.8276 30.6879C36.5731 29.4343 39.3187 28.2117 42.1989 27.3104C44.1778 26.6887 46.1773 26.1293 48.2184 25.7874C50.0522 25.4869 51.8964 25.3729 53.7509 25.4455C59.1902 25.663 64.4326 26.7923 69.4575 28.9163C72.0994 30.0352 74.7414 31.1541 77.4144 32.2005C78.2432 32.5217 79.155 32.6875 80.0563 32.8015C81.5172 32.9776 82.9884 33.0398 84.4492 33.1641C85.62 33.2677 86.7907 33.3713 87.9718 33.4956C89.0493 33.5992 90.1372 33.7132 91.2146 33.8479C91.8777 33.9308 92.5304 34.1069 93.1935 34.169C93.9706 34.2519 94.7579 34.2623 95.5453 34.2934C96.9129 34.3555 98.2909 34.3659 99.6585 34.4695C102.3 34.6767 104.828 35.3294 107.273 36.3448C110.402 37.6502 113.127 39.5669 115.666 41.7737C116.681 42.6543 117.748 43.4728 118.691 44.4156C119.561 45.3066 120.494 46.1044 121.499 46.8193C122.379 47.4409 122.98 48.3319 123.591 49.1918C124.389 50.3004 125.125 51.4608 125.902 52.5797C126.13 52.9009 126.389 53.191 126.648 53.4915C126.813 53.6883 126.938 53.9059 126.813 54.1649C126.751 54.2789 126.637 54.4136 126.523 54.4343C126.409 54.455 126.244 54.3928 126.15 54.2996C125.715 53.8437 125.332 53.3361 124.866 52.9216C123.55 51.7302 122.006 50.8495 120.462 49.9792C117.064 48.0522 113.407 46.7778 109.698 45.6175C107.823 45.0373 105.927 44.5918 103.989 44.2706C103.927 44.2602 103.854 44.2602 103.792 44.2499C103.823 44.1877 103.813 44.1981 103.813 44.2188ZM39.3394 90.8516C39.3497 90.8412 39.3601 90.8205 39.3808 90.8102C39.7642 91.0692 40.1475 91.3386 40.5412 91.5768C42.0228 92.4886 43.2246 93.7318 44.6233 94.7368C45.794 95.5864 46.9751 96.4152 48.1666 97.2337C49.3269 98.0315 50.4977 98.8396 51.8653 99.2229C53.3883 99.6477 54.932 100 56.5379 100.083C58.1127 100.166 59.6875 100.186 61.2416 99.9067C63.0547 99.5752 64.847 99.109 66.6601 98.7671C67.9345 98.5288 69.1156 98.0729 70.1931 97.4305C71.6228 96.581 72.7521 95.3584 73.7467 94.0116C74.8553 92.5197 75.477 90.8516 75.5391 89.0178C75.5909 87.6088 75.5081 86.179 75.3837 84.77C75.1869 82.4078 74.9279 80.0559 74.6585 77.6937C74.472 76.036 74.0265 74.4405 73.2598 72.9589C72.2755 71.0526 71.2395 69.1773 69.8408 67.53C69.0949 66.6494 68.38 65.7273 67.5512 64.9192C66.8674 64.2457 66.1732 63.6034 65.5826 62.847C64.6605 61.6763 63.697 60.5366 62.7646 59.3659C61.915 58.2988 61.0758 57.242 60.0605 56.3303C59.2005 55.5636 58.4235 54.7244 57.4289 54.1235C55.7816 53.1185 54.0306 52.3104 52.2383 51.5955C50.3527 50.8495 48.3945 50.5594 46.3845 50.518C45.048 50.4869 43.7322 50.663 42.4372 50.9324C40.5619 51.3158 38.7592 51.9167 37.1947 53.0356C36.0136 53.8852 34.874 54.8073 33.7654 55.7708C32.9469 56.4753 32.1699 57.2213 31.4757 58.0501C29.9009 59.9046 29.1239 62.1425 28.554 64.4736C28.3986 65.116 28.3468 65.6444 28.8752 66.2557C30.4293 68.048 31.1338 70.2238 31.2478 72.586C31.3307 74.3265 31.2374 76.0567 30.8334 77.7559C30.7816 77.9838 30.8437 78.077 30.9784 78.2117C31.2685 78.4915 31.6104 78.7505 31.8073 79.0924C32.46 80.232 33.1023 81.3821 33.6825 82.5632C34.1695 83.5474 34.387 84.6146 34.5114 85.7128C34.5735 86.2826 34.6564 86.8628 34.7289 87.4326C35.5578 87.4119 36.2208 87.702 36.7389 88.3236C36.8425 88.448 36.9461 88.5619 37.06 88.6759C37.7438 89.3597 37.7335 90.23 37.4123 91.007C37.2984 91.2867 37.0497 91.4007 36.8114 91.2246C36.4799 90.9863 36.2001 90.6858 35.9204 90.3854C35.8582 90.3129 35.879 90.1574 35.8583 90.0435C35.8893 90.0228 35.9204 90.002 35.9515 89.9813C36.1898 90.116 36.4177 90.2611 36.6664 90.3957C36.8839 90.5097 37.1326 90.5822 37.2673 90.2921C37.433 89.9192 37.4641 89.5358 37.2155 89.1732C36.7596 88.4998 35.5992 88.1164 34.6875 88.3858C34.8429 89.1628 34.988 89.9399 35.1745 90.7169C35.247 91.0277 35.3609 91.3696 35.5578 91.6183C35.8375 91.9705 36.1794 92.3124 36.5524 92.5611C37.4848 93.162 38.4691 93.7008 39.6606 93.4521C40.2407 93.3278 40.7795 93.1309 41.3286 92.8201C40.6759 92.1363 40.0128 91.494 39.3394 90.8516ZM91.4633 71.0837C91.4633 71.0733 91.4529 71.0526 91.4529 71.0422C91.0178 71.0112 90.5827 70.9801 90.1475 70.9386C87.6506 70.6693 85.9618 68.8562 85.4749 66.6908C85.133 65.1678 85.1434 63.6344 85.4542 62.1011C85.9411 59.7596 87.174 57.9258 89.1529 56.5893C89.2461 56.5271 89.3394 56.2888 89.3083 56.237C89.2254 56.123 89.0389 55.9987 88.9146 56.0194C88.3759 56.0816 87.8475 56.1541 87.3191 56.2785C84.8118 56.8483 82.8744 58.2573 81.4861 60.3916C80.8126 61.4276 80.4604 62.5984 80.2532 63.8313C80.0149 65.2403 79.8491 66.639 80.0356 68.0584C80.1703 69.0634 80.6365 69.944 81.1753 70.7729C82.346 72.6067 83.9104 73.9846 86.0447 74.5648C88.0029 75.0932 90.0025 75.3004 92.0124 74.7099C93.0174 74.4198 94.0223 74.109 94.7994 73.363C95.7111 72.4824 96.5089 71.5188 97.1823 70.4413C97.317 70.2238 97.462 69.9958 97.5449 69.7575C97.5864 69.6332 97.5553 69.4364 97.4724 69.3327C97.3999 69.2499 97.2134 69.2395 97.0787 69.2395C96.9751 69.2395 96.8715 69.3224 96.7783 69.3742C96.1877 69.7264 95.6075 70.0994 95.017 70.431C94.789 70.5657 94.53 70.6796 94.271 70.7211C93.3282 70.8661 92.3957 70.9593 91.4633 71.0837ZM124.296 108.174C124.317 108.164 124.348 108.154 124.368 108.143C124.337 108.019 124.317 107.884 124.265 107.77C123.83 106.755 123.467 105.698 122.918 104.755C121.685 102.6 120.349 100.497 119.064 98.3734C117.727 96.1769 115.997 94.3224 114.174 92.5404C112.858 91.2557 111.335 90.2196 109.833 89.1628C107.781 87.7227 105.668 86.3966 103.285 85.5677C102.041 85.1326 100.798 84.7078 99.5652 84.2519C98.8193 83.9722 98.0837 83.651 97.3377 83.3609C97.2238 83.3195 97.1098 83.2884 96.9958 83.247C97.0269 83.3506 97.0787 83.392 97.1409 83.4127C98.3841 83.9929 99.6067 84.6353 100.881 85.1326C103.886 86.3033 106.662 87.847 109.294 89.7327C112.019 91.6804 114.526 93.8458 116.577 96.4774C119.116 99.7306 121.644 103.005 123.488 106.734C123.736 107.232 124.026 107.698 124.296 108.174ZM14.8678 76.0049C14.8989 76.0049 14.9403 76.0049 14.9714 76.0153C15.0025 75.891 15.0335 75.777 15.0543 75.6527C15.0957 75.3626 15.1061 75.0725 15.1475 74.7824C15.4998 72.6274 16.1732 70.5657 17.1264 68.5971C18.1417 66.5043 19.4264 64.6291 21.3949 63.2925C23.1769 62.0804 24.7206 60.5884 26.1193 58.9722C27.3626 57.5217 28.4608 55.9469 29.6005 54.4136C30.6158 53.0563 31.6415 51.7198 32.978 50.663C34.6978 49.3058 36.656 48.4252 38.7281 47.7517C39.2461 47.586 39.7642 47.4202 40.2822 47.2544C40.22 47.2026 40.1682 47.2026 40.1164 47.2026C38.6763 47.3891 37.3191 47.8553 35.9929 48.4355C33.5582 49.5027 31.3721 50.9117 29.6833 53.0045C28.6887 54.2374 27.7045 55.4911 26.741 56.7447C25.0833 58.91 23.1873 60.8371 21.053 62.5362C19.9859 63.3858 19.0223 64.3286 18.3178 65.4993C17.8412 66.2867 17.4061 67.1052 17.002 67.9341C15.8209 70.3584 15.1682 72.9279 14.8574 75.6009C14.8367 75.7252 14.8574 75.8702 14.8678 76.0049ZM73.8193 41.9291C73.7986 42.2814 73.7779 42.6025 73.7675 42.9134C73.7364 43.8354 73.7157 44.799 73.1562 45.5656C72.7418 46.1355 72.1616 46.581 71.6436 47.0887C71.5607 47.1612 71.4364 47.2026 71.3742 47.2855C71.3017 47.3891 71.2395 47.5342 71.2602 47.6378C71.2809 47.7103 71.4364 47.7724 71.5503 47.8035C71.685 47.845 71.8404 47.8346 71.9751 47.8864C73.1251 48.3216 73.9643 49.1193 74.5238 50.2072C74.6481 50.4558 74.7725 50.7148 74.9279 50.9428C75.0004 51.0567 75.1662 51.1085 75.2801 51.1914C75.3526 51.0775 75.4563 50.9739 75.4873 50.8495C75.5495 50.6216 75.5495 50.3833 75.6013 50.1554C75.8396 49.0364 76.3783 48.0729 77.0932 47.2026C77.404 46.8193 77.404 46.6535 77.0518 46.3116C76.7928 46.063 76.5234 45.8247 76.2229 45.6175C75.6945 45.2548 75.3319 44.7679 75.0418 44.2188C74.6481 43.4625 74.2441 42.7269 73.8193 41.9291ZM86.2209 83.1744C86.2105 83.2055 86.1794 83.2677 86.1691 83.3298C86.1173 83.9515 86.0862 84.5835 86.024 85.2051C85.9722 85.7749 85.8893 86.3655 85.4956 86.811C85.0294 87.329 84.5114 87.7849 84.0037 88.2615C83.9208 88.334 83.7965 88.3754 83.7343 88.4583C83.6618 88.5516 83.5893 88.6862 83.6203 88.7795C83.6411 88.8624 83.7861 88.9245 83.9001 88.966C84.0244 89.0074 84.1695 88.9867 84.2938 89.0282C85.4542 89.4633 86.3141 90.2403 86.8839 91.3489C87.029 91.6286 87.1637 91.9084 87.3398 92.1777C87.3916 92.2606 87.547 92.3435 87.6299 92.3228C87.7128 92.3021 87.8267 92.157 87.8371 92.0534C87.9511 90.603 88.5831 89.3908 89.4844 88.2822C89.7331 87.9714 89.7434 87.8056 89.4533 87.5259C89.1736 87.2565 88.8732 86.9871 88.5624 86.7592C88.065 86.3966 87.7128 85.9303 87.4331 85.402C87.0394 84.6456 86.6249 83.91 86.2209 83.1744ZM50.3941 32.9051C50.3837 32.9258 50.3526 32.9776 50.3526 33.0397C50.3216 33.4956 50.3319 33.9618 50.2801 34.4177C50.1869 35.174 50.1765 35.9718 49.6378 36.5727C49.1819 37.0804 48.6535 37.5259 48.1562 37.9921C48.063 38.075 47.9386 38.1268 47.8558 38.2097C47.6796 38.3962 47.7625 38.593 48.0112 38.6655C48.4049 38.7795 48.8193 38.8624 49.1819 39.0489C49.99 39.4529 50.5288 40.1471 51.0054 40.893C51.2022 41.1935 51.3265 41.5354 51.513 41.8359C51.5648 41.9291 51.7306 42.0431 51.7927 42.0223C51.8964 41.9809 52.0103 41.8462 52.0207 41.7322C52.1761 40.3025 52.7563 39.0592 53.6887 37.9714C53.9374 37.6813 53.9374 37.4844 53.6369 37.2151C53.3468 36.9353 52.9946 36.7177 52.7149 36.4276C52.3522 36.0547 51.9689 35.6713 51.6995 35.2362C51.2229 34.4902 50.8189 33.6821 50.3941 32.9051ZM113.604 42.5922C113.624 42.5715 113.645 42.5507 113.676 42.5197C113.542 42.4057 113.417 42.271 113.272 42.1674C112.081 41.3178 110.931 40.4165 109.698 39.6291C108.579 38.9142 107.408 38.2822 106.134 37.8678C104.134 37.215 102.073 36.8835 99.99 36.6452C97.6693 36.3862 95.3381 36.5416 93.007 36.5727C91.5151 36.5934 90.0232 36.7177 88.5209 36.7903C87.7749 36.8214 87.0393 36.8317 86.2934 36.8421C84.8015 36.8732 83.2992 36.9042 81.8073 36.925C81.2271 36.9353 80.6469 36.925 80.0667 36.925C80.0667 36.9768 80.0667 37.0182 80.0667 37.07C80.9991 37.1322 81.9212 37.2358 82.8537 37.2461C84.1073 37.2669 85.3506 37.1736 86.6042 37.184C89.702 37.2047 92.7998 37.2565 95.8872 37.3083C97.949 37.3497 99.99 37.4533 102.041 37.7745C105.098 38.2615 107.937 39.2975 110.599 40.8309C111.594 41.4318 112.599 42.012 113.604 42.5922ZM57.3356 27.186C57.3253 27.2068 57.3253 27.2275 57.3149 27.2482C57.8122 27.3311 58.3096 27.3933 58.8069 27.4865C62.6921 28.2117 66.4633 29.341 69.9859 31.1541C72.7729 32.5942 75.6738 33.5889 78.8234 33.7443C81.1235 33.8582 83.4339 33.9515 85.7443 34.0447C85.7754 34.0447 85.8064 34.024 85.8997 33.9826C85.1641 33.9204 84.4906 33.8686 83.8172 33.8168C82.4185 33.7028 81.0199 33.651 79.6316 33.4749C77.9842 33.2677 76.3991 32.8015 74.8657 32.1591C72.0994 30.9987 69.3953 29.6933 66.5254 28.7816C64.9714 28.2843 63.4069 27.8491 61.7803 27.673C60.9722 27.5797 60.1641 27.4451 59.356 27.3518C58.6825 27.2793 58.0091 27.2378 57.3356 27.186ZM59.9776 26.6577C59.9776 26.6473 59.9776 26.6369 59.9776 26.6266C59.8533 26.5955 59.7186 26.5437 59.5942 26.5333C57.6672 26.3261 55.7505 26.0567 53.8234 25.9324C52.1139 25.8184 50.3837 25.8495 48.6846 26.1396C47.1098 26.3986 45.5454 26.7198 44.012 27.155C42.375 27.6212 40.7381 28.1392 39.184 28.823C37.2051 29.7037 35.3091 30.7811 33.3717 31.7654C30.8334 33.0501 28.5126 34.6249 26.5855 36.7385C26.5027 36.8213 26.4301 36.9146 26.3472 36.9975C26.6788 36.7695 26.9793 36.5105 27.2693 36.2412C29.6523 34.0033 32.4289 32.356 35.3506 30.9366C38.3344 29.4964 41.5047 28.5951 44.7061 27.8077C46.5192 27.3622 48.3531 27.041 50.1972 26.8649C51.8031 26.7095 53.4194 26.554 55.0253 26.4712C56.1131 26.4194 57.2113 26.4919 58.2992 26.5333C58.869 26.5437 59.4285 26.6162 59.9776 26.6577ZM125.27 112.495C125.311 112.484 125.363 112.464 125.404 112.453C125.363 112.163 125.353 111.863 125.27 111.583C124.814 109.956 124.099 108.444 123.208 107.014C121.809 104.755 120.11 102.735 118.473 100.653C117.323 99.1815 116.007 97.8761 114.433 96.8504C113.562 96.2805 112.713 95.7003 111.853 95.1201C111.635 94.9751 111.407 94.8301 111.19 94.685C111.169 94.7161 111.148 94.7368 111.128 94.7679C111.811 95.3584 112.474 95.9801 113.2 96.5292C114.795 97.731 116.298 99.0364 117.52 100.632C118.266 101.606 119.002 102.59 119.737 103.574C121.126 105.408 122.452 107.283 123.498 109.335C123.964 110.236 124.431 111.138 124.907 112.029C125.011 112.184 125.145 112.339 125.27 112.495ZM116.774 54.9938C116.805 54.9627 116.826 54.9419 116.857 54.9109C116.764 54.7658 116.671 54.6104 116.567 54.4757C115.624 53.2221 114.526 52.1239 113.21 51.2847C111.231 50.0207 109.221 48.7878 107.232 47.5445C106.6 47.1508 105.978 46.726 105.315 46.4049C103.223 45.3895 101.119 44.3845 98.9954 43.4314C97.8972 42.9444 96.7575 42.53 95.6075 42.1985C94.271 41.8151 92.8931 41.5458 91.5358 41.2349C91.4426 41.2142 91.339 41.2039 91.2354 41.1831C91.7741 41.4318 92.3232 41.6286 92.8827 41.7841C94.0431 42.1052 95.2345 42.3332 96.3638 42.7372C98.9851 43.6593 101.399 45.0373 103.823 46.3531C105.771 47.4098 107.595 48.6842 109.501 49.8031C111.677 51.0775 113.759 52.4554 115.645 54.1338C115.997 54.455 116.401 54.714 116.774 54.9938ZM19.5818 90.3647C19.5404 90.3647 19.5093 90.3543 19.4679 90.3543C19.4368 90.5408 19.3953 90.7273 19.3953 90.9138C19.3642 92.0845 19.271 93.2553 19.3332 94.426C19.385 95.4828 19.5404 96.5395 19.7683 97.5756C20.0687 98.9743 20.8147 100.186 21.54 101.399C22.3585 102.756 23.1458 104.165 24.3995 105.18C25.5288 106.092 26.7306 106.921 27.9117 107.781C28.2847 108.05 28.6784 108.288 29.0617 108.547C28.4297 107.957 27.777 107.418 27.1243 106.879C26.0364 105.978 25.0833 104.963 24.3891 103.709C23.726 102.507 23.0112 101.336 22.2756 100.186C21.6643 99.2436 21.0945 98.2905 20.6386 97.2544C20.0273 95.8765 19.6233 94.4467 19.5818 92.9341C19.5611 92.0741 19.5818 91.2246 19.5818 90.3647ZM117.199 91.5354C118.204 92.5404 119.167 93.4417 120.069 94.3949C120.908 95.2963 121.675 96.2805 122.483 97.213C124.286 99.2954 125.819 101.554 126.855 104.113C127.383 105.408 127.777 106.755 128.233 108.081C128.202 108.05 128.212 107.988 128.202 107.936C127.963 106.765 127.715 105.584 127.466 104.414C127.021 102.227 126.099 100.218 124.814 98.4252C123.395 96.4463 121.685 94.7057 119.716 93.2449C118.929 92.6543 118.1 92.1363 117.199 91.5354ZM15.4273 59.5628C15.4583 59.5835 15.479 59.5938 15.5101 59.6146C15.5826 59.5213 15.6552 59.4281 15.7277 59.3348C16.5876 58.2055 17.3439 56.983 18.3178 55.9676C22.2341 51.8545 26.8446 48.8396 32.3253 47.213C32.8848 47.0472 33.4339 46.8193 33.983 46.6121C33.9001 46.5292 33.8379 46.5085 33.7758 46.5188C32.8433 46.695 31.8902 46.7778 30.9992 47.0576C27.9324 48.0107 25.1661 49.5441 22.5864 51.4712C19.903 53.4811 17.6548 55.8744 15.8727 58.7028C15.6966 58.9722 15.5723 59.2727 15.4273 59.5628ZM13.9664 71.4359C13.9457 71.4256 13.9353 71.4256 13.9146 71.4152C13.7281 71.8814 13.5105 72.3477 13.3448 72.8242C12.6506 74.8031 12.1844 76.8027 12.5574 78.9163C12.7853 80.2113 13.2101 81.4442 14.0182 82.5114C14.8988 83.6717 15.9971 84.6249 17.0746 85.5988C17.3543 85.8475 17.634 86.1065 17.9034 86.3551C17.9138 86.2515 17.8827 86.1894 17.8412 86.1376C17.1885 85.3812 16.5358 84.6249 15.8624 83.879C14.9299 82.8533 14.1736 81.7136 13.9042 80.3356C13.7074 79.3203 13.5623 78.2946 13.4276 77.2689C13.2515 75.9221 13.4173 74.5855 13.6142 73.2594C13.7074 72.6378 13.8524 72.0368 13.9664 71.4359ZM18.5458 53.5018C18.5768 53.5329 18.5976 53.5536 18.6287 53.5847C18.753 53.4707 18.8773 53.3671 18.9913 53.2532C20.1724 51.9685 21.4985 50.8703 22.949 49.8964C25.2283 48.3734 27.5284 46.9125 30.077 45.8765C31.2892 45.3895 32.5014 44.9233 33.7136 44.4363C33.8379 44.3845 33.9415 44.312 34.0555 44.2395C34.0348 44.1877 34.0244 44.1463 34.0037 44.0945C33.2681 44.2395 32.5014 44.2913 31.8073 44.5503C30.4604 45.0476 29.1239 45.5967 27.8392 46.2391C25.363 47.472 23.0215 48.9328 21.0116 50.8495C20.1413 51.6784 19.3642 52.6108 18.5458 53.5018ZM104.559 57.0037C104.673 58.4956 103.689 59.3348 102.487 60.1119C103.658 60.3502 104.549 60.8578 104.973 61.9871C105.243 61.5623 105.46 61.179 105.719 60.8267C105.989 60.4641 106.3 60.1429 106.538 59.8528C105.896 58.9411 105.222 57.9672 104.559 57.0037ZM23.1769 76.8649C22.7729 76.3779 22.3584 75.9428 22.0165 75.4558C21.6746 74.9689 21.4156 74.4405 21.1152 73.9225C21.1877 75.4766 20.1827 76.3054 19.0949 77.0099C19.5714 77.2275 20.0998 77.3725 20.5143 77.6833C20.9287 77.9942 21.2188 78.4604 21.571 78.8541C21.9337 78.077 22.462 77.414 23.1769 76.8649ZM38.5209 38.1371C38.1168 37.6502 37.7128 37.215 37.3709 36.7281C37.029 36.2412 36.77 35.7024 36.4695 35.174C36.5524 36.7281 35.5578 37.5673 34.356 38.3444C35.5267 38.5723 36.397 39.111 36.8632 40.2507C37.2776 39.3493 37.806 38.6862 38.5209 38.1371ZM89.816 44.4467C89.9507 45.9075 88.956 46.7468 87.7749 47.5342C88.9457 47.7828 89.816 48.2905 90.2615 49.4612C90.6552 48.5391 91.2354 47.8864 91.8674 47.3787C91.1732 46.3841 90.4894 45.4102 89.816 44.4467ZM32.833 103.118C33.8897 103.336 34.7911 103.844 35.1848 104.88C35.7339 104.175 36.2726 103.502 36.77 102.87C36.1276 101.937 35.4542 100.963 34.8118 100.021C34.8222 100.632 34.7186 101.295 34.2627 101.792C33.8276 102.269 33.3199 102.673 32.833 103.118ZM127.466 108.299C127.466 108.185 127.477 108.143 127.466 108.102C126.7 104.901 125.373 101.958 123.301 99.3887C121.934 97.6792 120.494 96.0215 119.074 94.3535C118.815 94.0427 118.494 93.7836 118.204 93.4935C122.162 97.8657 125.177 102.818 127.466 108.299ZM121.851 82.9569C121.83 82.9776 121.82 83.0087 121.799 83.0294C127.342 85.7853 131.269 90.1574 134.263 95.4828C134.283 95.4413 134.294 95.4206 134.294 95.3999C134.283 95.3377 134.263 95.2756 134.232 95.2134C133.496 93.1413 132.263 91.3489 130.947 89.6187C129.901 88.2511 128.544 87.2047 127.176 86.1686C125.985 85.2673 124.814 84.3452 123.446 83.7028C122.918 83.4542 122.39 83.2055 121.851 82.9569ZM28.2225 67.53C28.2225 68.2138 28.1086 68.9287 28.2432 69.5918C28.4608 70.6796 28.8338 71.726 29.1653 72.7932C29.3414 73.3526 29.5487 73.9121 29.7352 74.4612C29.9009 71.954 29.3207 69.3949 28.2225 67.53ZM30.6365 75.1347C30.9266 71.8918 30.305 68.9494 28.2847 66.3593C28.2743 66.5043 28.2743 66.6494 28.3365 66.7737C28.6369 67.416 28.9581 68.0584 29.2586 68.7008C29.9009 70.0787 30.2532 71.5292 30.4086 73.0211C30.4811 73.7153 30.5536 74.4094 30.6365 75.1347ZM107.792 69.6954C107.325 69.6954 106.994 70.0683 107.004 70.5553C107.014 71.3116 107.263 71.6535 107.781 71.6639C108.258 71.6742 108.589 71.2494 108.6 70.6278C108.6 70.0787 108.268 69.6954 107.792 69.6954ZM44.012 45.1201C44.53 45.1201 44.8615 44.6539 44.7683 44.0427C44.7476 43.908 44.7269 43.7733 44.7372 43.649C44.7683 43.3485 44.644 43.1827 44.3435 43.1516C43.7012 43.0791 43.0899 43.8044 43.2246 44.4778C43.2971 44.8715 43.6079 45.1201 44.012 45.1201ZM98.5396 97.9071C98.5292 98.4044 98.7882 98.7567 99.1923 98.7774C99.586 98.7981 99.8968 98.4666 99.9071 98.0418C99.9175 97.5963 99.5445 97.2233 99.099 97.213C98.7675 97.2026 98.5499 97.4616 98.5396 97.9071ZM42.634 36.811C42.634 36.8628 42.634 36.9768 42.6548 37.0907C42.7273 37.443 43.0174 37.6813 43.3489 37.6709C43.6701 37.6606 43.9602 37.3705 44.0016 37.0078C44.0534 36.5727 43.9706 36.4484 43.525 36.324C43.4836 36.3137 43.4422 36.293 43.4007 36.2722C42.8931 35.9821 42.6237 36.1583 42.634 36.811ZM72.6796 55.7604C72.6796 55.3564 72.4621 55.0766 72.1409 55.0663C71.7161 55.0663 71.3431 55.4393 71.3431 55.864C71.3431 56.2992 71.6229 56.5893 72.0166 56.5893C72.4103 56.5789 72.6796 56.2474 72.6796 55.7604ZM27.145 82.5217C27.5595 82.5114 27.8599 82.2213 27.8599 81.8276C27.8495 81.3924 27.5491 81.1541 27.0207 81.1749C26.6788 81.1852 26.4301 81.4649 26.4301 81.8276C26.4301 82.2213 26.741 82.5217 27.145 82.5217ZM32.6672 81.1645C33.1645 82.9465 33.6618 84.7285 34.1487 86.5002C34.1073 84.6042 33.724 82.7911 32.6672 81.1645ZM24.3995 92.7579C24.3995 93.1309 24.6585 93.3796 25.0108 93.3692C25.3941 93.3589 25.7878 92.9548 25.7774 92.5715C25.7671 92.271 25.5288 92.0638 25.2076 92.0741C24.6481 92.0949 24.3891 92.3124 24.3995 92.7579ZM63.1065 47.4824C62.8371 47.4927 62.6403 47.731 62.6506 48.0418C62.6713 48.4044 62.9614 48.6945 63.293 48.6842C63.5934 48.6738 63.811 48.4355 63.8006 48.1351C63.8006 47.8346 63.4277 47.4824 63.1065 47.4824ZM104.176 94.2499C104.176 93.908 103.865 93.6075 103.502 93.5868C103.233 93.5764 103.026 93.7733 103.015 94.0323C103.005 94.3845 103.336 94.7472 103.678 94.7575C103.948 94.7783 104.176 94.5503 104.176 94.2499ZM27.4248 40.634C27.1243 40.6444 26.886 40.9448 26.8964 41.3075C26.9067 41.6597 27.1347 41.8877 27.4662 41.8773C27.7667 41.8669 27.9842 41.6597 27.9739 41.3696C27.9635 40.9552 27.7148 40.6237 27.4248 40.634ZM114.018 84.024C114.008 84.3555 114.215 84.5938 114.505 84.5938C114.775 84.5938 114.971 84.3866 114.982 84.0965C114.992 83.7546 114.806 83.5163 114.516 83.506C114.236 83.4853 114.029 83.7028 114.018 84.024ZM67.3646 39.598C67.116 39.598 66.9088 39.8052 66.9088 40.0435C66.9088 40.3336 67.1575 40.5822 67.4475 40.5719C67.7169 40.5719 67.8723 40.3957 67.8723 40.116C67.862 39.8363 67.634 39.598 67.3646 39.598ZM43.121 103.719C43.1313 103.471 42.9138 103.264 42.6444 103.253C42.3647 103.243 42.1575 103.44 42.1575 103.699C42.1575 103.937 42.3543 104.134 42.6133 104.144C42.8723 104.165 43.1106 103.958 43.121 103.719Z" fill="#333A31"/>
<path d="M47.2239 73.9849C47.3068 74.907 47.0685 75.7151 46.7059 76.4818C46.0013 77.9944 45.0585 79.3205 43.4734 80.0354C43.2869 80.1183 43.3076 80.2323 43.3283 80.3877C43.3594 80.6571 43.3698 80.9264 43.3594 81.1958C43.3594 81.2683 43.2144 81.3927 43.1315 81.3927C43.059 81.3927 42.945 81.2787 42.9139 81.1854C42.831 80.9471 42.7792 80.7089 42.6756 80.4602C42.5927 81.0818 42.7274 81.7449 42.1887 82.2629C42.0436 81.7346 42.0851 81.2062 42.1369 80.5535C42.0229 80.6881 41.9193 80.7503 41.8882 80.8332C41.6603 81.4963 41.4427 82.1697 41.2252 82.8431C41.1941 82.8328 41.1526 82.8224 41.1215 82.8121C41.2459 82.1179 41.3598 81.4341 41.4945 80.6985C40.904 81.5688 40.3445 82.4183 39.7332 83.3094C39.6089 82.8742 39.6089 82.8742 40.044 82.0247C40.2409 81.6413 40.4481 81.2683 40.6657 80.8435C40.1269 80.8539 39.6193 80.8228 39.2048 80.4809C39.9094 80.2841 40.6139 80.0872 41.3184 79.88C43.059 79.3724 44.4369 78.3674 45.3901 76.8133C45.991 75.9016 46.6023 74.9691 47.2239 73.9849Z" fill="#333A31"/>
<path d="M35.1018 77.8493C35.1432 77.4038 35.1018 76.9272 35.2365 76.5024C35.5577 75.4249 36.0861 74.4303 36.7284 73.5082C37.4744 72.4514 38.5622 71.8816 39.7226 71.4154C41.1731 70.8352 42.6236 70.2654 44.074 69.6955C44.2087 69.6437 44.3538 69.5919 44.4988 69.5919C44.7164 69.5816 44.9754 69.5297 45.0583 69.8302C45.1412 70.1307 45.0065 70.3793 44.7578 70.514C44.447 70.6901 44.1051 70.8145 43.7736 70.9491C42.2713 71.5811 40.769 72.2235 39.2564 72.8348C37.6505 73.4875 36.6973 74.7411 36.0032 76.2537C35.7545 76.8029 35.4955 77.352 35.2468 77.9011C35.195 77.87 35.1536 77.8596 35.1018 77.8493Z" fill="#333A31"/>
<path d="M55.2636 68.3067C55.7505 68.0788 56.2375 67.8612 56.7244 67.6333C57.7191 67.167 58.6515 66.6076 59.4078 65.7994C59.9258 65.2503 60.4232 64.6805 60.848 64.0589C61.0759 63.7273 61.1588 63.2818 61.2934 62.8778C61.3867 62.5877 61.511 62.5048 61.6561 62.6291C62.0705 62.2147 62.4953 61.7899 62.9097 61.3755C62.9408 61.4066 62.9822 61.4376 63.0133 61.4687C62.7439 61.8106 62.5056 62.194 62.1948 62.4944C61.6975 62.971 61.4799 63.5512 61.3971 64.1936C61.8944 63.9242 62.402 63.6548 62.9097 63.3854C62.9304 63.4165 62.9408 63.4372 62.9615 63.4683C62.4849 64.1107 61.4488 64.0381 61.0862 64.9499C61.4281 64.8463 61.6975 64.7427 61.9772 64.6909C62.2466 64.6391 62.5367 64.6494 62.8268 64.6805C62.2777 65.5922 61.2313 65.499 60.4646 65.9548C60.993 66.017 61.511 65.7166 62.029 66.0481C61.7493 66.4314 61.366 66.5661 60.9308 66.6076C60.8272 66.6179 60.734 66.649 60.6304 66.6386C59.9673 66.5972 59.5114 67.0013 59.0452 67.3742C58.2371 68.0166 57.2839 68.3378 56.2789 68.4828C55.9578 68.5243 55.6262 68.4414 55.2947 68.4207C55.2532 68.3792 55.2636 68.3481 55.2636 68.3067Z" fill="#333A31"/>
<path d="M59.615 57.615C59.3767 57.6979 59.1591 57.8222 58.9105 57.874C57.7604 58.0708 56.7451 58.5889 55.8437 59.3037C55.5951 59.5006 55.4293 59.801 55.2635 60.0808C54.4865 61.4173 53.7198 62.7538 52.9428 64.0903C52.8495 64.2561 52.7045 64.4219 52.5387 64.5151C52.29 64.6498 52.1761 64.5462 52.1761 64.2561C52.1657 63.707 52.404 63.2304 52.6527 62.7745C53.3572 61.5209 54.0824 60.2776 54.7973 59.024C55.1496 58.4024 55.7298 58.0605 56.3721 57.8325C57.2838 57.5114 58.2267 57.3663 59.1902 57.356C59.3249 57.356 59.4699 57.4078 59.6046 57.4388C59.615 57.501 59.615 57.5528 59.615 57.615Z" fill="#333A31"/>
</svg>
