<svg width="45" height="45" viewBox="0 0 45 45" fill="none" xmlns="http://www.w3.org/2000/svg">
<path d="M22.5 0C10.0739 0 0 10.0739 0 22.5C0 34.9261 10.0739 45 22.5 45C34.9261 45 45 34.9261 45 22.5C45 10.0739 34.9261 0 22.5 0ZM22.3773 7.79318C23.8807 7.79318 24.8318 8.70341 24.8318 10.7182C24.8318 12.8557 24.4739 16.333 23.6864 23.4511L23.1341 29.5364H21.6307L21.0784 23.4511C20.2909 16.292 19.933 12.8557 19.933 10.7182C19.933 8.69318 20.8739 7.79318 22.3773 7.79318ZM22.3773 38.5977C20.792 38.5977 19.6875 37.4114 19.6875 35.9489C19.6875 34.5273 20.792 33.3409 22.3773 33.3409C23.9216 33.3409 25.067 34.5273 25.067 35.9489C25.067 37.4114 23.9216 38.5977 22.3773 38.5977Z" fill="#FFE49D"/>
</svg>
