<svg width="150" height="150" viewBox="0 0 150 150" fill="none" xmlns="http://www.w3.org/2000/svg">
<path d="M75 150C116.421 150 150 116.421 150 75C150 33.5786 116.421 0 75 0C33.5786 0 0 33.5786 0 75C0 116.421 33.5786 150 75 150Z" fill="#CDC6BC"/>
<path d="M45.8351 58.444C45.6486 58.5062 45.4621 58.558 45.2756 58.6098C45.3067 57.4287 45.3482 56.2476 45.4207 55.0769C45.545 52.8597 45.7419 50.6322 45.9905 48.4254C46.1148 47.3168 46.2599 46.2186 46.4257 45.1204C46.8608 42.1365 47.1302 39.132 47.6793 36.1585C48.2491 33.1022 49.0054 30.0665 50.1036 27.1448C50.632 25.7358 51.2537 24.3475 51.9789 23.0317C52.7145 21.6952 53.5537 20.1618 54.6519 19.0843C55.4911 18.2658 56.5686 17.5199 57.5218 16.8257C59.6146 15.282 61.894 13.9766 64.2769 12.9302C68.5661 11.0549 73.2388 10.0085 77.9217 9.95669C86.2827 9.85308 94.6436 12.868 101.026 18.2762C102.922 19.8925 104.662 21.7159 105.968 23.8398C107.77 26.7822 108.682 30.1805 109.397 33.5684C109.77 35.2675 110.081 36.977 110.361 38.6968C110.713 40.8 111.003 42.9239 111.241 45.0479C111.48 47.1718 111.676 49.306 111.821 51.4403C111.966 53.5746 112.08 55.7192 112.143 57.8639C112.215 60.0085 112.236 62.1531 112.236 64.2978C112.225 69.8717 112.143 75.5389 111.676 81.1336C111.614 81.8589 111.397 82.5427 111.428 83.2783C110.63 81.3512 110.557 78.7093 110.35 76.6268C110.133 74.4718 110.298 72.2443 110.05 70.0997C109.832 68.2451 109.273 66.3388 108.807 64.5257C107.781 60.5369 106.486 56.5688 104.279 53.0876C99.223 45.0893 89.8364 40.6135 80.4601 39.3806C77.8078 39.0284 75.0933 38.9144 72.4721 39.4117C67.2918 40.396 62.8264 43.701 59.1484 47.4722C55.0871 51.6268 51.3469 56.7138 45.8351 58.444Z" fill="#9C8C80"/>
<path d="M79.8693 28.8653C79.7554 28.9896 79.6414 29.1139 79.5171 29.2382C78.8436 29.8806 78.0459 30.3779 77.217 30.8027C78.3463 30.8234 79.3824 31.4036 80.118 32.2428C80.4392 32.6054 80.6982 33.0095 80.9261 33.4343C81.0401 33.6518 81.1437 33.8694 81.2369 34.087C81.268 34.1699 81.2887 34.2424 81.3198 34.3253C81.3509 34.4185 81.4234 34.5014 81.4649 34.5947C81.5063 34.6879 81.5477 34.7811 81.5788 34.8847C81.5685 34.864 81.5996 34.8122 81.6099 34.7915C81.6203 34.7501 81.641 34.719 81.6514 34.6775C81.6824 34.605 81.7135 34.5429 81.7446 34.4703C81.8068 34.346 81.8897 34.232 81.9311 34.1077C81.9622 34.0145 81.9725 33.9212 82.014 33.8383C82.0761 33.7036 82.1487 33.569 82.2316 33.4446C82.3248 33.2996 82.4284 33.1545 82.5113 32.9888C82.6356 32.7505 82.7807 32.5225 82.9257 32.2946C83.2365 31.8491 83.5991 31.445 84.0032 31.0928C84.2104 30.9167 84.4176 30.7509 84.6456 30.5955C84.7077 30.554 85.2983 30.1603 85.3294 30.1914C84.8528 29.6423 84.169 29.3833 83.6199 28.9378C83.0811 28.513 82.6667 27.9639 82.3352 27.363C82.1797 27.0833 82.0347 26.7932 81.9 26.4927C81.8068 26.2959 81.3716 25.6431 81.4234 25.4463C81.123 26.7206 80.7189 27.8914 79.8693 28.8653Z" fill="#F6F2DB"/>
<path d="M82.9982 16.961C82.9257 17.0439 82.8428 17.1268 82.76 17.2097C82.3144 17.6345 81.7861 17.9556 81.2473 18.2457C81.9933 18.2665 82.6771 18.6394 83.164 19.1989C83.651 19.7584 83.9514 20.4525 84.1794 21.1674C84.169 21.1467 84.169 21.126 84.169 21.1052C84.1172 20.7737 84.3451 20.4007 84.4902 20.121C84.5731 19.9656 84.6767 19.8413 84.7492 19.6962C84.8321 19.5408 84.9253 19.3854 85.0289 19.2403C85.2361 18.9502 85.4744 18.6809 85.7438 18.4426C85.8785 18.3286 86.0235 18.2146 86.1686 18.1214C86.21 18.0903 86.6037 17.8313 86.6244 17.852C86.3136 17.4894 85.8578 17.3133 85.4951 17.0232C85.1429 16.7435 84.8631 16.3808 84.6456 15.9871C84.542 15.8006 84.4487 15.6038 84.3555 15.4173C84.2933 15.293 84.0136 14.8578 84.0447 14.7231C83.8271 15.5416 83.5577 16.3187 82.9982 16.961Z" fill="#F6F2DB"/>
<path d="M100.404 37.1432C100.331 37.226 100.248 37.3089 100.165 37.3918C99.72 37.8166 99.1916 38.1378 98.6528 38.4279C99.3988 38.4486 100.083 38.8216 100.57 39.381C101.056 39.9405 101.357 40.6347 101.585 41.3495C101.575 41.3288 101.575 41.3081 101.575 41.2874C101.523 40.9558 101.751 40.5829 101.896 40.3031C101.979 40.1477 102.082 40.0337 102.155 39.8783C102.238 39.7229 102.331 39.5675 102.434 39.4225C102.642 39.1324 102.88 38.863 103.149 38.6247C103.284 38.5107 103.429 38.3968 103.574 38.3035C103.616 38.2725 104.009 38.0134 104.03 38.0342C103.719 37.6715 103.263 37.4954 102.901 37.2053C102.548 36.9256 102.269 36.563 102.051 36.1693C101.947 35.9828 101.854 35.7859 101.761 35.5994C101.699 35.4751 101.419 35.04 101.45 34.9053C101.233 35.7238 100.963 36.5008 100.404 37.1432Z" fill="#F6F2DB"/>
<path d="M93.2758 25.8604C93.2033 25.9433 93.1204 26.0262 93.0375 26.1091C92.592 26.5339 92.0637 26.8551 91.5249 27.1451C92.2709 27.1659 92.9547 27.5388 93.4416 28.0983C93.9286 28.6578 94.229 29.3519 94.4569 30.0668C94.4466 30.0461 94.4466 30.0254 94.4466 30.0047C94.3948 29.6731 94.6227 29.3001 94.7678 29.0204C94.8506 28.865 94.9542 28.751 95.0268 28.5956C95.1097 28.4402 95.2029 28.2848 95.3065 28.1398C95.5137 27.8497 95.752 27.5803 96.0214 27.342C96.1561 27.228 96.3011 27.1141 96.4462 27.0208C96.4876 26.9897 96.8813 26.7307 96.902 26.7514C96.5912 26.3888 96.1354 26.2127 95.7727 25.9226C95.4205 25.6429 95.1407 25.2802 94.9232 24.8865C94.8196 24.7001 94.7263 24.5032 94.6331 24.3167C94.5709 24.1924 94.2912 23.7572 94.3223 23.6226C94.0943 24.441 93.8249 25.2181 93.2758 25.8604Z" fill="#F6F2DB"/>
<path d="M63.7482 25.1871C63.6757 25.27 63.5928 25.3529 63.51 25.4357C63.0644 25.8605 62.5361 26.1817 61.9973 26.4718C62.7433 26.4925 63.4271 26.8655 63.914 27.425C64.401 27.9844 64.7014 28.6786 64.9293 29.3935C64.919 29.3728 64.919 29.352 64.919 29.3313C64.8672 28.9998 65.0951 28.6268 65.2402 28.3471C65.3231 28.1917 65.4267 28.0777 65.4992 27.9223C65.5821 27.7669 65.6753 27.6115 65.7789 27.4664C65.9861 27.1763 66.2244 26.9069 66.4938 26.6687C66.6285 26.5547 66.7735 26.4407 66.9186 26.3475C66.96 26.3164 67.3537 26.0574 67.3744 26.0781C67.0636 25.7155 66.6078 25.5394 66.2451 25.2493C65.8929 24.9695 65.6131 24.6069 65.3956 24.2132C65.292 24.0267 65.1987 23.8299 65.1055 23.6434C65.0433 23.519 64.7636 23.0839 64.7947 22.9492C64.5771 23.7677 64.3077 24.5447 63.7482 25.1871Z" fill="#F6F2DB"/>
<path d="M51.2949 44.3851C51.2431 44.4473 51.1913 44.4991 51.1292 44.5509C50.8184 44.841 50.4557 45.0689 50.0828 45.2658C50.6008 45.2761 51.067 45.5352 51.3986 45.9185C51.7405 46.3018 51.9477 46.7888 52.1031 47.2757C52.1031 47.2654 52.0927 47.2446 52.0927 47.2343C52.0616 47.0064 52.2067 46.7473 52.3103 46.5505C52.3621 46.4469 52.4346 46.364 52.4864 46.2604C52.5382 46.1464 52.6107 46.0428 52.6729 45.9496C52.8076 45.7527 52.9734 45.5662 53.1598 45.4005C53.2531 45.3176 53.3463 45.2451 53.4499 45.1725C53.481 45.1518 53.7504 44.9757 53.7608 44.986C53.5432 44.7374 53.2324 44.6131 52.9837 44.4162C52.7351 44.2194 52.5486 43.9707 52.3932 43.7013C52.3206 43.577 52.2585 43.4423 52.1963 43.3076C52.1549 43.2248 51.958 42.9243 51.9787 42.8311C51.8648 43.4112 51.6783 43.9396 51.2949 44.3851Z" fill="#F6F2DB"/>
<path d="M39.3389 72.0062C39.2664 71.3742 39.1524 70.7629 39.1213 70.162C39.0902 69.5818 39.3182 69.1052 39.7948 68.7322C40.5614 68.152 41.3178 67.5408 42.0326 66.9813C41.6597 66.3079 41.2763 65.7173 40.9862 65.0853C40.5096 64.0389 40.406 62.92 40.6029 61.801C40.8412 60.4231 41.5768 59.874 43.0998 59.8222C44.5813 59.7807 46.0422 59.6667 47.4408 59.1902C48.1972 58.9311 48.912 58.5271 49.6062 58.1127C50.4868 57.5843 51.4089 57.0662 52.1756 56.4032C53.2428 55.4811 54.2166 54.4347 55.2009 53.4193C55.8536 52.7563 56.4649 52.0517 57.0969 51.3576C57.2005 51.2436 57.2626 51.0986 57.3248 50.9639C57.387 50.8396 57.4077 50.7049 57.4699 50.5909C58.2055 49.244 59.0861 48.0319 60.2361 46.9958C62.5362 44.9133 65.1263 43.3178 68.0169 42.2196C69.6642 41.598 71.3633 41.1628 73.1039 40.9038C75.2589 40.5826 77.4243 40.4894 79.5896 40.6448C82.9257 40.8831 86.21 41.4011 89.3596 42.5926C90.2299 42.9241 91.038 43.3282 91.7218 43.9809C91.929 44.1777 92.2606 44.2503 92.5299 44.3746C95.0994 45.5557 97.4305 47.0787 99.4922 49.0265C101.254 50.6945 102.911 52.4454 104.31 54.4347C106.268 57.2113 107.573 60.2884 108.506 63.5312C109.045 65.4168 109.397 67.3335 109.718 69.2502C109.894 70.2759 110.164 71.2913 110.34 72.3273C110.557 73.5292 110.744 74.7413 110.92 75.9535C111.065 76.9689 111.189 77.9946 111.314 79.0099C111.397 79.7662 111.459 80.5225 111.531 81.2788C111.614 82.2009 111.707 83.123 111.79 84.0555C111.821 84.4388 111.852 84.8118 111.863 85.1951C111.894 85.8789 111.915 86.5627 111.935 87.2465C111.997 89.7434 112.091 92.2403 112.122 94.7372C112.142 97.6485 112.111 100.57 112.101 103.481C112.101 104.113 112.08 104.745 112.08 105.377C112.08 107.45 112.101 109.522 112.07 111.583C112.028 113.852 111.935 116.121 111.873 118.401C111.821 120.214 111.79 122.027 111.738 123.83C111.676 125.922 111.604 128.015 111.531 130.098C111.531 130.243 111.49 130.388 111.469 130.523C109.977 130.782 108.496 130.947 106.983 130.771C105.035 130.554 103.077 130.616 101.129 130.616C98.653 130.616 96.1769 130.605 93.7007 130.605C90.7687 130.605 87.8263 130.616 84.8942 130.616C80.4703 130.616 76.0463 130.595 71.6327 130.595C65.5304 130.595 59.4384 130.605 53.336 130.605C51.8648 130.605 50.3832 130.605 48.912 130.554C47.9692 130.512 47.0264 130.429 46.1043 130.264C45.0165 130.067 44.1566 129.404 43.4728 128.544C42.5092 127.321 41.5146 126.088 40.9033 124.648C40.3232 123.26 39.8258 121.83 39.4321 120.38C39.1006 119.178 38.9452 117.914 38.7173 116.681C38.5204 115.666 38.2718 114.661 38.1578 113.635C38.0646 112.796 38.0646 111.936 38.1267 111.086C38.365 108.102 39.6808 105.46 40.7894 102.756C41.8254 100.249 42.8822 97.7521 43.68 95.1516C43.939 94.3021 44.0529 93.4525 43.7836 92.5822C43.7421 92.4372 43.6178 92.2817 43.4935 92.1989C41.6907 91.0074 39.8776 89.8263 38.0646 88.6245C37.7952 88.4483 37.5569 88.2101 37.2979 88.0236C36.8524 87.692 36.3965 87.3501 35.9303 87.0497C34.7388 86.2726 33.8478 85.2055 33.0915 84.0244C32.9257 83.7654 32.7496 83.5271 32.6045 83.2577C32.0347 82.1699 32.1694 80.4707 33.2158 79.6108C34.1172 78.8648 35.0496 78.1603 35.951 77.4247C36.21 77.2175 36.4587 76.9792 36.6866 76.7306C37.2046 76.1711 37.2357 75.5287 36.9042 74.876C36.6555 74.3891 36.7798 73.9229 37.0389 73.5084C37.5465 72.6278 38.3236 72.0994 39.3389 72.0062ZM62.101 57.4599C62.5051 55.8437 62.9713 54.3 63.6655 52.8391C64.4425 51.1815 65.2713 49.5445 66.0898 47.9075C66.3074 47.4724 66.5353 47.0476 66.8047 46.5089C66.4007 46.6021 66.1002 46.6643 65.8101 46.7368C65.4268 46.83 65.0434 46.944 64.6601 47.0372C64.5565 47.058 64.4425 47.0269 64.3493 47.058C62.733 47.7003 61.2722 48.6017 59.946 49.731C58.2469 51.1815 56.7757 52.8495 55.3356 54.5486C53.7193 56.455 51.927 58.123 49.6684 59.2523C48.5701 59.8014 47.4616 60.2987 46.2287 60.4023C45.0372 60.5059 43.8354 60.537 42.6336 60.6199C42.3849 60.6406 42.1155 60.6717 41.8876 60.765C41.5664 60.8997 41.2452 61.0551 41.1727 61.4902C41.0069 62.4848 41.2142 63.4276 41.6389 64.2875C42.0223 65.0646 42.5507 65.7795 43.0065 66.5151C43.2241 66.8673 43.1516 67.1367 42.82 67.3646C42.7372 67.4164 42.6854 67.5097 42.6128 67.5822C42.1881 68.0174 41.784 68.4732 41.3281 68.8669C40.9241 69.2088 40.4578 69.4885 40.0227 69.789C40.1159 69.9133 40.1885 70.0066 40.261 70.0895C41.0795 71.0944 41.8151 72.1408 42.3331 73.3427C42.6543 74.099 43.048 74.8346 43.4106 75.5702C43.5349 75.8292 43.6592 76.0882 43.7939 76.3887C41.5975 76.8135 39.5668 76.5959 37.6294 75.5598C37.5776 76.9274 36.9042 77.891 35.8163 78.6473C34.9149 79.2793 34.0757 79.9838 33.2055 80.6676C32.8221 80.968 32.6874 81.3617 32.6667 81.8383C32.6356 82.5221 32.9982 83.0298 33.3401 83.5582C34.4591 85.2159 36.1168 86.2934 37.7123 87.4123C38.3236 87.8474 38.9866 88.2204 39.6083 88.6348C42.3124 90.3961 45.1201 91.9709 48.0003 93.4111C50.3004 94.5507 52.6522 95.5868 55.0766 96.4363C55.7293 96.6643 56.4027 96.8404 57.0762 96.9544C57.6045 97.0476 58.1537 97.0062 58.6924 97.0165C59.9668 97.0476 61.2307 97.058 62.5051 97.089C63.1164 97.1098 63.738 97.1616 64.3493 97.2134C64.4943 97.2237 64.629 97.2963 64.8673 97.3791C64.6497 97.5035 64.5254 97.6174 64.3803 97.6485C63.9452 97.7625 63.5101 97.9075 63.0646 97.9282C61.5934 98.0215 60.1222 98.0733 58.651 98.1458C57.2626 98.2183 55.9158 98.0733 54.6414 97.4724C54.4446 97.3791 54.227 97.3273 54.0198 97.2548C54.0612 97.3895 54.1338 97.462 54.2063 97.5449C54.5171 97.9075 54.8486 98.2391 55.118 98.6224C55.8433 99.617 56.2266 100.788 56.7032 101.907C57.3973 103.544 57.7703 105.253 57.9568 107.014C58.0397 107.864 58.0604 108.714 58.1019 109.574C58.1744 111.086 58.278 112.599 58.2883 114.111C58.2987 115.199 58.1951 116.287 58.0915 117.365C57.9982 118.38 57.8532 119.385 57.6978 120.39C57.5424 121.426 57.3973 122.472 57.159 123.488C56.8379 124.876 56.4131 126.244 56.0505 127.622C55.8536 128.368 56.4856 129.238 57.3766 129.217C59.9875 129.165 62.5983 129.155 65.2092 129.155C67.3953 129.165 69.571 129.217 71.7571 129.269C72.0471 129.279 72.1404 129.176 72.1508 128.917C72.1715 128.606 72.2129 128.295 72.2336 127.974C72.3476 126.119 72.5341 124.265 72.5341 122.421C72.5341 120.421 72.3476 118.421 72.2233 116.432C72.1508 115.199 72.0575 113.966 71.9539 112.744C71.8607 111.583 71.7363 110.423 71.6224 109.263C71.4877 107.937 71.2183 106.631 70.8039 105.367C70.6277 104.818 70.4931 104.227 70.1615 103.772C68.3277 101.202 66.525 98.6224 65.0227 95.8458C64.142 94.2192 63.3443 92.5408 62.588 90.8624C61.6659 88.8213 61.065 86.6767 60.5366 84.5113C60.2465 83.3302 59.946 82.1388 59.7595 80.937C59.6145 79.9941 59.5834 79.0099 59.6041 78.0567C59.6248 76.7306 59.7181 75.3941 59.8217 74.0679C59.8839 73.2701 60.0186 72.4827 60.1532 71.685C60.3086 70.7215 60.4951 69.7579 60.692 68.8048C60.7542 68.5043 60.9821 68.2246 61.0028 67.9345C61.0857 66.9399 61.1064 65.9349 61.1479 64.9403C61.1893 64.07 61.2307 63.1893 61.2929 62.319C61.324 61.8735 61.3861 61.428 61.4587 60.9929C61.583 60.1848 61.7177 59.3767 61.8524 58.5582L62.101 57.4599ZM78.8851 43.2142C78.8747 43.2453 78.8747 43.266 78.8644 43.2971C79.5689 43.525 80.2527 43.8047 80.9676 43.9602C82.2108 44.2295 83.4852 44.3746 84.7388 44.6543C86.3033 44.9962 87.847 45.4106 89.3907 45.8251C90.9137 46.2291 92.3538 46.8611 93.7007 47.6692C95.0579 48.4877 96.4048 49.3166 97.7309 50.1765C99.1296 51.0882 100.435 52.145 101.45 53.4711C103.315 55.9162 104.849 58.5789 105.843 61.5006C106.62 63.7902 107.252 66.1317 107.884 68.4732C108.237 69.789 108.464 71.1359 108.744 72.462C109.107 74.1404 109.387 75.8396 109.438 77.5594C109.48 79.0202 109.532 80.4811 109.583 81.9419C109.635 83.4338 109.687 84.9361 109.728 86.428C109.749 87.0082 109.728 87.5884 109.728 88.1686C109.77 88.1686 109.801 88.1686 109.842 88.1686C109.884 86.8943 109.967 85.6096 109.967 84.3352C109.977 82.6672 109.956 81.0095 109.905 79.3414C109.853 77.9117 109.739 76.4819 109.646 75.0418C109.583 74.0886 109.552 73.1355 109.428 72.1926C109.221 70.6696 108.962 69.1466 108.692 67.6236C108.288 65.3236 107.656 63.0754 106.745 60.9204C105.398 57.7397 103.554 54.8698 101.119 52.404C99.2643 50.5184 97.3994 48.6535 95.1304 47.2444C93.0273 45.939 90.8101 44.8926 88.3857 44.3539C86.3447 43.9084 84.2933 43.525 82.1901 43.4525C81.0815 43.4214 79.9833 43.2971 78.8851 43.2142ZM110.381 130.015C110.474 128.595 110.578 127.238 110.651 125.871C110.713 124.7 110.733 123.529 110.785 122.369C110.899 119.83 111.013 117.302 111.127 114.764C111.2 113.106 111.272 111.438 111.324 109.781C111.365 108.475 111.376 107.17 111.397 105.864C111.417 104.113 111.438 102.352 111.469 100.601C111.49 99.2337 111.531 97.8557 111.531 96.4881C111.521 93.9498 111.49 91.4011 111.469 88.8628C111.459 88.1064 111.438 87.3605 111.397 86.6042C111.324 85.3091 111.231 84.014 111.137 82.719C111.096 82.0766 111.034 81.4343 110.972 80.7815C110.941 80.8437 110.93 80.9162 110.93 80.9784C110.93 82.1181 110.972 83.2473 110.93 84.387C110.858 86.6352 110.754 88.8731 110.661 91.1214C110.609 92.3025 110.568 93.4732 110.526 94.6543C110.506 95.048 110.485 95.4417 110.454 95.8354C110.371 96.8922 110.226 97.9593 110.215 99.0161C110.195 100.208 110.319 101.399 110.319 102.59C110.329 104.217 110.278 105.854 110.267 107.481C110.236 110.185 110.236 112.879 110.195 115.583C110.174 117.22 110.112 118.867 110.05 120.504C109.977 122.141 109.874 123.778 109.801 125.415C109.749 126.554 109.708 127.704 109.666 128.854C109.656 129.196 109.666 129.549 109.666 129.901C109.884 129.942 110.101 129.973 110.381 130.015ZM67.2709 55.823C67.2606 55.823 67.2399 55.8126 67.2295 55.8126C67.2088 55.8851 67.1777 55.9473 67.157 56.0198C66.9498 56.8487 66.7115 57.6672 66.5457 58.5064C66.2349 60.0812 65.9241 61.656 65.6961 63.2515C65.4578 64.8885 65.3232 66.5358 65.1367 68.1728C64.9502 69.789 64.9398 71.4052 65.1159 73.0215C65.2921 74.6067 65.4889 76.1918 65.779 77.7563C66.1002 79.5176 66.4317 81.2996 66.9498 83.0194C68.0169 86.5109 69.4466 89.8677 71.2183 93.0588C72.4823 95.3277 73.8292 97.5449 74.8341 99.9486C75.7044 102.041 76.4607 104.165 76.9684 106.372C77.0409 106.693 77.1135 107.004 77.1963 107.325C77.2689 107.626 77.3517 107.926 77.4243 108.227C77.4139 106.548 77.0927 104.932 76.6369 103.336C75.8805 100.684 74.7927 98.1458 73.5805 95.6696C72.2026 92.8619 70.5967 90.1682 69.4674 87.2465C68.8768 85.7132 68.193 84.2109 67.7682 82.6257C67.157 80.3671 66.6804 78.0567 66.2763 75.7463C65.9862 74.0886 65.8308 72.4102 65.7272 70.7318C65.6547 69.5611 65.7583 68.3696 65.7687 67.1885C65.779 64.1943 66.1209 61.2416 66.7218 58.3199C66.898 57.4807 67.0948 56.6518 67.2709 55.823ZM77.559 52.5698C77.445 52.0932 77.3517 51.6373 77.2378 51.1815C77.1653 50.9017 77.0824 50.5702 76.7094 50.5702C76.3571 50.5598 76.2639 50.8914 76.1706 51.14C75.9634 51.7098 75.808 52.3004 75.6112 52.8702C75.5801 52.9738 75.4454 53.0878 75.3314 53.1189C74.7512 53.2639 74.1711 53.3883 73.5909 53.5229C73.3837 53.5747 73.1246 53.6473 73.1557 53.9063C73.1764 54.0617 73.3422 54.2482 73.4976 54.3311C73.8913 54.5694 74.3161 54.7455 74.7098 54.9734C74.8134 55.0356 74.9585 55.191 74.9377 55.2739C74.8341 55.7401 74.6684 56.196 74.544 56.6622C74.4197 57.1699 74.3057 57.6879 74.2332 58.1955C74.2125 58.3095 74.3472 58.5167 74.4508 58.5478C74.5751 58.5892 74.772 58.5271 74.8963 58.4442C75.0103 58.3717 75.0517 58.2059 75.1346 58.0816C75.6008 57.4392 76.067 56.8072 76.5229 56.1856C77.1963 56.7865 77.818 57.346 78.4292 57.9055C78.6675 58.1127 78.8955 58.3924 79.2477 58.1748C79.5793 57.9573 79.4342 57.6257 79.3306 57.346C79.0302 56.5275 78.709 55.709 78.3878 54.8905C78.3049 54.6937 78.3256 54.559 78.481 54.414C78.8747 54.041 79.2581 53.668 79.6207 53.2639C79.7243 53.15 79.7865 52.922 79.745 52.7873C79.714 52.6734 79.4964 52.5491 79.3617 52.5491C78.7608 52.5594 78.1391 52.5698 77.559 52.5698ZM98.7566 117.53C99.4715 118.173 100.124 118.774 100.777 119.364C100.974 119.551 101.202 119.696 101.471 119.53C101.74 119.364 101.689 119.116 101.595 118.867C101.274 117.997 100.953 117.126 100.611 116.266C100.528 116.059 100.549 115.925 100.715 115.769C101.098 115.406 101.471 115.034 101.844 114.65C102.103 114.391 102.062 114.018 101.761 113.946C101.513 113.883 101.254 113.873 100.995 113.873C100.57 113.883 100.135 113.925 99.8031 113.946C99.6373 113.345 99.5233 112.775 99.3265 112.236C99.1711 111.811 98.7877 111.801 98.5494 112.184C98.4665 112.319 98.394 112.464 98.3422 112.609C98.1764 113.127 98.021 113.656 97.8656 114.184C97.8138 114.36 97.7517 114.453 97.5445 114.495C96.9539 114.598 96.3633 114.733 95.7832 114.899C95.6277 114.94 95.4309 115.116 95.4102 115.251C95.3895 115.375 95.5656 115.583 95.7003 115.666C96.094 115.904 96.5084 116.09 96.9125 116.297C97.1404 116.411 97.244 116.546 97.1404 116.826C96.9643 117.282 96.8089 117.758 96.6949 118.225C96.5809 118.67 96.5188 119.126 96.467 119.571C96.4566 119.685 96.5706 119.872 96.6742 119.903C96.7985 119.944 96.985 119.903 97.099 119.82C97.2129 119.748 97.2647 119.582 97.3476 119.468C97.8242 118.815 98.2904 118.173 98.7566 117.53ZM38.9763 114.868C38.997 114.868 39.0074 114.868 39.0281 114.857C39.1006 114.381 39.1524 113.904 39.256 113.438C39.774 111.024 40.5614 108.703 41.6286 106.476C42.675 104.3 43.68 102.114 44.4777 99.8346C44.9958 98.353 45.3273 96.8404 44.9854 95.2656C44.9025 94.8926 44.7885 94.5196 44.6642 94.0741C44.5399 94.7683 44.4984 95.3796 44.3016 95.939C43.6385 97.8764 42.9651 99.8139 42.2088 101.731C41.3799 103.854 40.4371 105.937 39.5979 108.051C39.0177 109.511 38.6758 111.045 38.7587 112.63C38.7898 113.386 38.9038 114.132 38.9763 114.868ZM45.6381 94.6854C45.8971 95.794 45.8764 96.9026 45.6485 98.0111C45.2859 99.7931 44.6021 101.461 43.825 103.098C42.6543 105.595 41.4317 108.071 40.2921 110.578C39.8155 111.625 39.515 112.754 39.4114 113.915C39.3493 114.619 39.2871 115.334 39.37 116.028C39.4736 116.919 39.7119 117.8 39.888 118.691C40.002 117.748 40.002 116.826 40.1367 115.925C40.4164 114.122 40.8826 112.36 41.5871 110.672C42.5092 108.475 43.4624 106.3 44.4777 104.145C45.6485 101.658 46.2494 99.0679 46.1147 96.3224C46.094 95.7422 46.0111 95.1723 45.6381 94.6854ZM47.8449 127.974C47.8864 127.953 47.9278 127.922 47.9692 127.901C47.9382 127.777 47.9071 127.642 47.8656 127.518C47.5237 126.503 47.1611 125.498 46.8503 124.482C46.2908 122.69 45.835 120.866 45.6381 118.991C45.4827 117.551 45.5345 116.121 45.6485 114.681C45.8039 112.816 46.1354 110.983 46.6431 109.19C47.0989 107.543 47.6377 105.927 48.0521 104.269C48.5805 102.186 49.0571 100.083 48.7566 97.9075C48.7048 97.5345 48.6323 97.1719 48.5598 96.8093C48.5287 96.8197 48.4976 96.8197 48.4562 96.83C48.4665 96.8818 48.4769 96.9336 48.4769 96.9958C48.6841 98.1665 48.7463 99.3373 48.5598 100.518C48.1557 103.16 47.1715 105.626 46.239 108.113C45.3169 110.568 44.7575 113.106 44.5917 115.728C44.4881 117.489 44.571 119.24 44.9232 120.97C45.3273 122.908 45.8868 124.793 46.8296 126.534C47.1404 127.021 47.5134 127.487 47.8449 127.974ZM103.782 84.4803C103.854 84.3663 103.885 84.3352 103.895 84.3041C104.6 82.9469 105.501 81.7451 106.6 80.6883C106.714 80.5743 106.714 80.305 106.693 80.1185C106.682 80.0356 106.486 79.9734 106.372 79.9216C105.325 79.4658 104.289 78.9788 103.657 77.9635C103.357 77.4765 103.139 76.9378 102.849 76.3369C102.683 78.3365 101.367 79.673 100.269 81.1338C101.792 81.8487 103.15 82.7397 103.782 84.4803ZM83.8271 112.34C84.5834 110.889 85.4951 109.625 86.6555 108.558C86.8731 108.361 86.7798 107.999 86.5105 107.864C86.1064 107.678 85.692 107.491 85.2879 107.294C84.3244 106.807 83.6406 106.061 83.2262 105.077C83.1226 104.818 83.019 104.559 82.9154 104.29C82.8843 104.279 82.8636 104.279 82.8325 104.269C82.6771 106.237 81.3509 107.564 80.3149 108.962C81.009 109.428 81.6825 109.884 82.3663 110.34C83.0915 110.806 83.3712 111.604 83.8271 112.34ZM82.8428 71.6435C82.6874 73.6742 81.3613 74.99 80.2734 76.4612C81.8171 77.1864 83.164 78.0878 83.7856 79.7869C83.8582 79.704 83.8893 79.6833 83.8996 79.6522C84.6041 78.2846 85.5159 77.0725 86.6141 76.0053C86.728 75.8914 86.728 75.622 86.697 75.4355C86.6762 75.3423 86.469 75.2801 86.3343 75.2283C85.2983 74.7828 84.2726 74.2958 83.651 73.2805C83.3609 72.7936 83.1433 72.2548 82.8428 71.6435ZM88.479 58.2888C90.3024 59.014 91.3903 60.3713 92.1881 62.0186C92.9029 60.4956 94.0322 59.3352 95.4413 58.3199C93.6592 57.6879 92.6439 56.3617 91.8462 54.8077C91.7115 55.1288 91.5975 55.45 91.4421 55.7401C91.0069 56.5482 90.3542 57.1284 89.5668 57.5946C89.2042 57.8018 88.8623 58.0401 88.479 58.2888ZM61.065 70.1723C61.0339 70.162 60.9924 70.162 60.9614 70.1516C60.8681 70.8251 60.7542 71.4881 60.6816 72.1616C60.578 73.1251 60.4537 74.099 60.4226 75.0625C60.3604 76.9067 60.5055 78.7302 60.8163 80.5432C61.0028 81.6311 61.1582 82.719 61.3861 83.7965C61.7798 85.6199 62.4118 87.3709 63.1474 89.0803C64.4425 92.0953 65.7997 95.0895 67.5092 97.9075C67.7475 98.3012 67.9962 98.7053 68.2863 99.1715C68.2863 99.0575 68.2966 99.0265 68.2863 99.0057C68.0894 98.6328 67.9133 98.2391 67.6957 97.8764C66.4628 95.7733 65.3232 93.6183 64.4321 91.3389C63.5411 89.0389 62.7952 86.6871 62.3393 84.2627C62.0181 82.5532 61.7798 80.8333 61.5312 79.1135C61.4276 78.3986 61.3861 77.6734 61.324 76.9481C61.2307 75.8292 61.1064 74.7206 61.065 73.6017C61.0235 72.462 61.065 71.3224 61.065 70.1723ZM42.2709 75.0729C42.2813 75.0522 42.2813 75.0314 42.2917 75.0004C42.1155 74.7931 41.9498 74.5859 41.7736 74.3787C41.297 73.8193 40.8101 73.2598 40.3231 72.7107C40.2713 72.6485 40.1574 72.5864 40.0952 72.6071C39.5357 72.7314 39.0074 72.9075 38.6033 73.3634C38.3339 73.6638 38.3028 73.9436 38.6137 74.1922C38.883 74.4098 39.2042 74.6274 39.5357 74.731C40.002 74.876 40.5096 74.9382 40.9966 75.0004C41.4214 75.0522 41.8462 75.0522 42.2709 75.0729ZM85.2361 42.4268C80.004 41.4011 74.772 41.0281 69.571 42.6858C69.6331 42.7065 69.7057 42.7169 69.7678 42.6962C71.0422 42.3854 72.3269 42.261 73.6427 42.3025C74.4301 42.3232 75.2278 42.3854 75.9945 42.2818C77.704 42.0642 79.4031 42.1678 81.1126 42.2092C82.4802 42.2507 83.8582 42.3543 85.2361 42.4268ZM52.7144 106.745C52.704 106.621 52.7247 106.424 52.6418 106.3C52.59 106.217 52.3517 106.155 52.2585 106.196C52.072 106.289 51.9166 106.455 51.7716 106.621C51.6887 106.714 51.6783 106.859 51.6369 106.983C51.3986 106.932 51.181 106.838 50.9634 106.838C50.8391 106.838 50.6526 106.921 50.5905 107.025C50.549 107.097 50.6319 107.284 50.7148 107.387C50.808 107.522 50.9531 107.615 51.0878 107.729C50.9842 107.854 50.9013 107.947 50.8184 108.061C50.6733 108.247 50.4972 108.444 50.6733 108.693C50.8391 108.942 51.067 108.817 51.2846 108.745C51.295 108.745 51.3157 108.755 51.3157 108.755C51.3157 109.024 51.2639 109.294 51.3364 109.522C51.3779 109.677 51.5747 109.884 51.7198 109.905C51.8544 109.915 52.0409 109.729 52.1653 109.594C52.2274 109.522 52.2274 109.387 52.2481 109.273C52.2999 109.045 52.3414 108.817 52.3828 108.589C52.7869 108.724 53.2117 109.118 53.5328 108.62C53.8333 108.144 53.2842 107.978 53.1081 107.812C53.1909 107.491 53.336 107.222 53.2946 106.983C53.2738 106.89 52.9112 106.828 52.7144 106.745ZM50.7562 122.182C50.7873 122.172 50.8184 122.162 50.8598 122.151C50.8287 121.809 50.8184 121.457 50.7562 121.126C50.5283 119.841 50.2278 118.577 50.0724 117.282C49.8652 115.552 49.772 113.821 49.6269 112.081C49.5958 111.718 49.6062 111.356 49.544 111.003C49.5233 110.889 49.3575 110.796 49.2539 110.692C49.2125 110.806 49.1296 110.92 49.1296 111.034C49.1711 112.474 49.2021 113.915 49.2747 115.344C49.3576 117.054 49.6269 118.732 50.0103 120.4C50.1657 121.043 50.3729 121.654 50.7562 122.182ZM88.8001 122.068C88.7898 122.286 88.7691 122.452 88.7691 122.617C88.7691 122.908 88.8312 123.177 89.1628 123.239C89.5047 123.301 89.6394 123.053 89.7326 122.783C89.8155 122.535 89.8776 122.276 89.9191 122.12C90.2403 122.099 90.5511 122.162 90.7168 122.027C90.8619 121.913 90.8308 121.581 90.8723 121.353C90.8412 121.343 90.7997 121.333 90.7687 121.333C90.9862 121.146 91.266 120.929 91.1002 120.639C90.9966 120.462 90.6858 120.4 90.4268 120.276C90.4889 120.089 90.5096 119.81 90.1677 119.706C89.6497 119.561 89.5047 119.996 89.3285 120.328C88.4997 120.152 88.365 120.276 88.5411 120.97C88.3236 121.26 88.106 121.488 87.9713 121.758C87.9195 121.861 87.992 122.11 88.0956 122.193C88.1889 122.265 88.3961 122.224 88.5515 122.213C88.6344 122.224 88.6965 122.151 88.8001 122.068ZM87.0389 50.3423C87.3704 50.4148 87.7123 50.622 87.8988 50.5184C88.3546 50.2697 87.9506 49.8864 87.8988 49.5652C88.1682 49.3684 88.5101 49.244 88.4168 48.8607C88.3236 48.467 87.9402 48.6224 87.6501 48.5602C87.6812 48.3737 87.7227 48.1976 87.7227 48.0215C87.7227 47.9075 87.7019 47.7418 87.6294 47.69C87.5362 47.6278 87.3497 47.6174 87.2564 47.6796C87.1217 47.7625 87.0181 47.9075 86.9249 48.0526C86.8316 48.2183 86.7695 48.3945 86.7073 48.5395C86.4069 48.4256 86.1271 48.3012 85.837 48.2391C85.7334 48.2183 85.5469 48.3219 85.4848 48.4256C85.433 48.5084 85.4641 48.6846 85.5159 48.7985C85.5677 48.9125 85.6816 49.0057 85.7749 49.1094C85.4019 49.6481 85.4537 49.8139 86.0857 50.0418C85.9303 50.7256 85.9614 51.0157 86.2722 51.0779C86.956 51.2125 86.8731 50.5805 87.0389 50.3423ZM103.916 96.1255C103.782 96.4052 103.626 96.7057 103.937 96.9751C104.217 97.2134 104.455 97.058 104.579 96.944C104.9 97.0165 105.191 97.1823 105.377 97.0994C105.76 96.9544 105.553 96.5607 105.564 96.2706C106.237 95.9908 106.144 95.6593 105.823 95.2967C105.957 95.048 106.123 94.7683 105.833 94.5403C105.491 94.271 105.253 94.5611 105.014 94.7579C104.869 94.4885 104.786 94.1052 104.382 94.2399C103.937 94.3953 104.144 94.7994 104.134 95.1102C103.471 95.3588 103.409 95.6282 103.916 96.1255ZM47.0782 112.941C47.0264 113.106 46.9332 113.272 46.9125 113.448C46.8503 114.132 46.7674 114.816 46.7881 115.5C46.8296 117.302 47.0782 119.084 47.4201 120.846C47.6895 122.213 47.9589 123.581 48.5183 124.866C48.6012 125.052 48.7152 125.228 48.8188 125.404C48.8499 125.394 48.881 125.384 48.912 125.363C47.6895 121.333 46.8089 117.24 47.0782 112.941ZM83.8167 122.835C83.7546 122.617 83.7235 122.4 83.6302 122.203C83.423 121.768 82.9257 121.644 82.5217 121.903C81.9829 122.244 81.7964 123.332 82.1798 123.84C82.4491 124.182 82.8739 124.254 83.2158 123.985C83.5784 123.695 83.7649 123.312 83.8167 122.835ZM73.0936 129.321C73.3629 129.435 73.4665 129.321 73.4873 129.124C73.4976 129.01 73.508 128.896 73.508 128.792C73.4976 126.057 73.4976 123.322 73.4873 120.587C73.4873 120.141 73.4562 119.696 73.4147 119.24C73.3319 118.256 73.249 117.282 73.1557 116.297C73.0832 115.583 72.99 114.857 72.9071 114.143C72.8967 114.888 72.9382 115.624 73.0107 116.36C73.135 117.758 73.3318 119.147 73.394 120.535C73.4562 122.255 73.4147 123.975 73.394 125.695C73.394 126.119 73.3215 126.544 73.2801 126.969C73.2075 127.756 73.1454 128.533 73.0936 129.321ZM72.1611 70.5246C72.1508 70.0066 71.8814 69.644 71.4877 69.644C71.1043 69.644 70.8246 70.0169 70.8246 70.5039C70.8246 70.9701 71.1147 71.2913 71.5188 71.2913C71.9228 71.2913 72.1715 71.0012 72.1611 70.5246ZM104.849 105.875C104.921 106.206 105.056 106.424 105.325 106.538C105.595 106.652 105.895 106.631 106.05 106.382C106.164 106.206 106.227 105.937 106.175 105.74C106.123 105.523 105.947 105.315 105.791 105.129C105.605 104.911 105.367 104.942 105.211 105.15C105.066 105.367 104.973 105.626 104.849 105.875ZM76.6679 63.1582C76.7198 63.3033 76.7508 63.4587 76.8337 63.5934C76.9995 63.8628 77.3621 63.956 77.6315 63.811C77.9112 63.6659 77.9734 63.4587 77.8491 63.0961C77.818 62.9925 77.7972 62.8785 77.7765 62.7646C77.7351 62.5159 77.6004 62.3501 77.3517 62.3087C77.0824 62.2672 76.8959 62.4123 76.8026 62.6506C76.7405 62.806 76.7094 62.9718 76.6679 63.1582ZM97.8864 74.1715C97.876 74.5134 98.1039 74.7621 98.4251 74.7621C98.7359 74.7621 98.9949 74.5134 99.0053 74.1922C99.0157 73.8711 98.7359 73.5499 98.4562 73.5395C98.1557 73.5395 97.8967 73.8296 97.8864 74.1715ZM96.6845 105.999C96.6845 105.595 96.4877 105.346 96.1769 105.346C95.8764 105.346 95.6588 105.616 95.6692 105.978C95.6692 106.341 95.8868 106.61 96.1769 106.621C96.467 106.621 96.6845 106.362 96.6845 105.999ZM104.196 72.2963C103.947 72.2963 103.761 72.4827 103.75 72.7418C103.74 73.0629 103.978 73.3323 104.258 73.3427C104.527 73.353 104.724 73.1562 104.724 72.8764C104.724 72.576 104.476 72.3066 104.196 72.2963ZM75.1139 86.542C75.1139 86.8217 75.29 87.0186 75.5283 87.0082C75.7873 86.9979 76.0152 86.7389 76.0049 86.4488C75.9945 86.1897 75.808 85.9929 75.5594 86.0033C75.3004 86.024 75.1139 86.2415 75.1139 86.542ZM93.6178 69.5404C93.3692 69.5404 93.1516 69.7683 93.1619 70.0273C93.1723 70.2759 93.3692 70.4728 93.6074 70.4832C93.8561 70.4832 94.084 70.2759 94.084 70.0169C94.0944 69.7579 93.8665 69.5404 93.6178 69.5404Z" fill="#333A31"/>
</svg>
