<svg width="151" height="150" viewBox="0 0 151 150" fill="none" xmlns="http://www.w3.org/2000/svg">
<path d="M75.6201 150C117.041 150 150.62 116.421 150.62 75C150.62 33.5786 117.041 0 75.6201 0C34.1988 0 0.620117 33.5786 0.620117 75C0.620117 116.421 34.1988 150 75.6201 150Z" fill="#CDC6BC"/>
<path d="M71.6521 37.1628C67.3836 38.375 63.5709 41.1309 61.0947 44.8089C59.9758 46.4666 59.1055 48.4662 59.5199 50.414C59.7582 51.5122 60.3695 52.4757 61.0533 53.3667C64.607 57.9772 69.9737 60.7435 74.5324 64.3696C83.1627 71.2283 88.7988 81.0398 95.4606 89.8255C95.8543 90.3435 96.4553 90.9237 97.0562 90.6751C97.3774 90.5404 97.5639 90.2089 97.8332 89.9809C98.7139 89.2453 100.019 89.9084 100.952 90.5715C103.014 92.0323 105.065 93.4828 107.127 94.9436C107.437 95.1612 107.81 95.3891 108.163 95.2441C108.494 95.1094 108.619 94.7157 108.784 94.3945C109.675 92.5607 112.214 92.54 114.244 92.4156C121.683 91.9494 127.827 86.6655 133.287 81.5785C134.074 80.8429 134.924 79.724 134.365 78.8122C134.116 78.4185 133.67 78.201 133.308 77.9109C131.961 76.8127 132.013 74.6887 132.738 73.1036C133.463 71.5288 134.706 70.2337 135.504 68.69C135.711 68.2963 135.887 67.8715 135.877 67.4364C135.867 66.9183 135.597 66.4314 135.297 66.017C132.272 61.9038 125.817 62.5358 121.662 59.5727C120.471 58.7231 119.518 57.6146 118.471 56.5889C116.938 55.0969 115.229 53.8019 113.664 52.341C111.747 50.5487 110.079 48.5284 108.225 46.6635C103.159 41.5661 96.7765 37.7845 89.866 35.7953C85.2763 34.4691 80.1685 33.9718 75.8274 35.9817" fill="#9C8C80"/>
<path d="M18.4401 86.9869C18.2536 87.2252 18.0774 87.4842 18.0464 87.7743C17.9946 88.2509 18.3261 88.6964 18.7301 88.9762C19.7869 89.7014 21.196 89.5564 22.4392 89.2455C23.6825 88.9347 24.9465 88.4996 26.2105 88.7172C27.2569 88.9036 28.1686 89.5253 29.0493 90.1469C30.7484 91.3384 32.4993 92.6024 33.5043 94.4155C33.9498 95.2029 34.2502 96.1042 34.9133 96.7259C35.2552 97.047 35.7629 97.2853 36.1877 97.0781C36.3742 96.9849 36.5089 96.8191 36.6228 96.6533C37.4724 95.4101 37.3895 93.7317 36.944 92.2915C36.4985 90.8514 35.7422 89.5149 35.2967 88.0748C34.6751 86.0441 34.7165 83.8891 34.3539 81.817C34.1052 80.408 33.6908 78.4084 32.0227 78.0872C30.6137 77.8179 29.1425 78.7296 28.0754 79.5481C26.4695 80.781 24.8532 81.9621 23.1541 83.0707C21.6104 84.0756 20.0563 85.1117 18.8338 86.5104C18.7095 86.6554 18.5748 86.8212 18.4401 86.9869Z" fill="#9C8C80"/>
<path d="M148.393 67.0845C148.134 66.6597 147.771 66.2971 147.429 65.9344C146.559 65.0227 145.73 64.0488 144.766 63.2303C143.046 61.7799 140.923 61.1168 138.809 60.4744C137.089 59.946 135.369 59.4902 133.774 58.5577C127.972 55.1491 122.574 51.2017 117.57 46.7156C115.767 45.0994 113.933 43.5246 111.996 42.0845C109.085 39.9191 105.894 38.1992 102.796 36.324C98.693 33.8478 94.2379 32.646 89.5135 32.2212C87.918 32.0762 86.3432 31.7757 84.7477 31.6514C83.5769 31.5685 82.3958 31.6203 81.2251 31.6825C80.4377 31.7239 79.6503 31.8482 78.8733 31.9829C77.7129 32.1798 76.5421 32.3455 75.4128 32.646C73.3822 33.1951 71.5587 34.2208 69.7145 35.205C68.1086 36.065 66.4199 36.469 64.6172 36.3033C63.0942 36.1686 61.6851 36.4587 60.3797 37.2461C58.7945 38.1992 57.1886 39.1421 55.6345 40.1367C54.1737 41.0691 52.7336 42.0327 51.0138 42.3538C49.6254 42.6025 48.2164 42.7475 46.8074 42.8408C45.3362 42.9444 43.9582 43.2656 42.7253 44.1151C41.7411 44.7989 40.9018 45.6796 40.3009 46.6845C39.5032 48.0314 38.809 49.4508 38.2495 50.9116C36.7473 54.859 35.3796 58.8582 33.8774 62.8159C32.9242 65.3232 31.7639 67.7475 30.4273 70.089C28.7904 72.9589 26.8218 75.5905 24.6876 78.1184C22.9366 80.1802 20.9163 81.9104 18.4091 82.9672C16.3266 83.8478 14.2131 84.6974 12.0477 85.3501C8.1729 86.5208 4.99217 88.6655 2.42276 91.7529C2.30879 91.8876 2.23631 92.0637 2.14307 92.2191C2.18451 92.2606 2.21558 92.302 2.25702 92.3331C2.54711 92.2399 2.84758 92.1777 3.10659 92.043C4.98185 91.0588 6.89854 91.2038 8.85668 91.7736C9.78913 92.043 10.7319 92.3538 11.6851 92.416C14.2234 92.6025 16.7307 92.302 19.1758 91.5561C20.0357 91.297 20.8646 90.9344 21.7556 90.6133C21.6416 90.7169 21.5691 90.7997 21.4758 90.8619C19.4866 92.2606 17.5077 93.6593 15.5081 95.0476C15.0419 95.3687 14.9487 95.5449 15.1144 96.1147C17.3937 95.9904 19.4762 95.1305 21.5172 94.198C23.5479 93.2656 25.5061 92.1881 27.5057 91.1727C27.4228 91.2867 27.3295 91.411 27.2259 91.525C25.8687 92.9444 24.5218 94.3638 23.1542 95.7728C22.7812 96.1561 22.6466 96.5706 22.7813 97.1508C25.6511 96.871 27.9512 95.4205 30.1476 93.7111C30.1372 93.8043 30.1061 93.8665 30.0647 93.9183C28.9561 95.2341 27.8476 96.5602 26.7286 97.876C26.4593 98.1972 26.2728 98.5183 26.4178 98.9535C26.4903 98.9639 26.5525 98.9846 26.6043 98.9742C29.1323 98.5184 31.3908 99.1711 33.5562 100.487C35.4004 101.616 37.3482 102.569 39.2752 103.564C40.8915 104.403 42.4559 104.341 43.8339 103.046C44.7042 102.227 45.533 101.367 46.3929 100.539C46.4862 100.445 46.6105 100.342 46.7348 100.311C48.7241 99.7823 50.734 99.3161 52.7025 98.7048C53.5728 98.4355 54.3084 98.4147 55.1269 98.8188C56.3494 99.4301 57.1679 100.736 56.826 102.062C56.2562 104.3 55.2823 106.237 52.889 107.149C51.366 107.729 49.8016 108.102 48.2475 108.527C45.4916 109.283 42.7046 109.874 39.8658 110.278C37.4103 110.63 34.986 111.231 32.5616 111.749C32.0332 111.863 31.5359 112.111 31.0282 112.298C31.0386 112.35 31.0593 112.401 31.0697 112.443C31.3494 112.391 31.6292 112.35 31.9193 112.298C33.6391 111.987 35.3486 111.645 37.0788 111.365C38.6847 111.117 40.3216 110.972 41.9275 110.723C43.6888 110.443 45.4605 110.143 47.2011 109.76C49.0245 109.355 50.8376 108.889 52.63 108.34C54.0701 107.895 55.4688 107.263 56.1733 105.791C56.6809 104.724 57.1368 103.636 57.5616 102.538C57.8103 101.917 57.8206 101.254 57.6548 100.59C57.3855 99.4715 56.8986 98.5183 55.6967 98.135C55.5206 98.0832 55.3548 97.99 55.1269 97.8864C55.4584 97.762 55.7278 97.6584 55.9972 97.5548C58.722 96.5913 61.395 95.5242 63.8815 94.0115C65.7153 92.8926 67.3005 91.5353 68.4816 89.7222C69.8181 87.6812 70.4708 85.4123 70.9267 83.0604C71.0096 82.6564 70.9993 82.2316 71.0407 81.8171C70.9889 81.8068 70.9267 81.7964 70.8749 81.7964C70.7091 82.2937 70.533 82.7807 70.3983 83.2883C70.1186 84.3348 69.901 85.4019 69.5902 86.438C69.1136 88.0542 68.3573 89.5358 67.1658 90.7583C66.1816 91.7633 65.0315 92.5196 63.7986 93.1516C61.0531 94.571 58.1832 95.7003 55.2719 96.7467C52.1223 97.876 48.9623 98.9328 45.6677 99.5337C44.8388 99.6891 43.9479 99.8238 43.119 99.6995C41.0676 99.3886 39.5446 98.2283 38.55 96.4152C38.1563 95.7003 38.0009 94.8922 38.1563 94.0737C38.2702 93.452 38.5293 92.8511 38.7054 92.2399C38.9437 91.4214 39.182 90.5925 38.9333 89.7326C38.8194 89.3493 38.6018 89.0074 38.436 88.6447C39.7311 88.5929 42.2798 87.3082 43.5541 86.0132C43.5852 85.9096 43.6267 85.806 43.6681 85.7127C43.6577 85.6609 43.6474 85.6195 43.637 85.5677C43.5852 85.5262 43.5334 85.4848 43.4816 85.4433C43.3366 85.3915 43.1812 85.3501 43.0569 85.2776C42.8496 85.2154 42.6528 85.1429 42.4767 85.0496C42.3834 85.0186 42.2902 84.9978 42.1969 84.9564C40.6221 84.3762 39.0577 83.7857 37.4932 83.2055C38.2599 81.6825 38.2806 80.8951 37.5761 79.6C37.5968 79.6 37.6175 79.5896 37.6382 79.5896C37.5243 79.3721 37.4311 79.1441 37.3586 78.9058C37.3586 78.8955 37.3482 78.8851 37.3482 78.8851C37.3378 78.8748 37.3274 78.854 37.3171 78.8437C37.2031 78.7504 37.0891 78.6779 36.9959 78.5743C36.3846 78.5639 35.8666 78.4292 35.4211 78.2013C34.4887 77.8905 33.6702 77.3621 33.0175 76.6162C32.8828 76.4607 32.8103 76.2328 32.7481 76.0256C32.5202 75.2589 32.7377 74.5544 33.204 73.9639C33.8049 73.2075 34.4472 72.4719 35.1206 71.7674C36.2707 70.5656 37.4414 69.3845 38.3739 67.9962C38.9644 67.1259 39.2545 66.2349 39.0473 65.1781C38.9334 64.5876 38.8297 63.9659 38.9023 63.3857C39.037 62.329 39.2441 61.2825 39.5239 60.2568C40.0212 58.4541 40.9744 56.8482 41.855 55.2216C43.1293 52.8594 44.7663 50.777 46.9939 49.2229C47.3047 49.3886 47.688 49.4819 47.8952 49.7305C48.4858 50.4143 49.0349 51.1499 49.5632 51.8959C49.8844 52.3414 50.1227 52.8283 50.4232 53.2842C50.848 53.9369 51.3453 54.5482 51.7286 55.2216C52.7647 57.0451 53.7282 58.9203 54.785 60.7231C56.3909 63.4686 58.1314 66.1313 60.1414 68.5867C62.2031 71.1147 64.5135 73.4147 66.8757 75.6733C68.2433 76.9788 69.6731 78.2013 71.0821 79.4653C72.3772 80.636 73.693 81.7964 74.9673 82.9982C75.4854 83.4852 75.993 84.0239 76.3867 84.6249C77.0084 85.5677 77.516 86.5726 78.0755 87.5465C79.5674 90.1781 80.9868 92.8615 82.5823 95.4309C84.7166 98.8602 87.0167 102.196 89.7519 105.201C90.56 106.092 91.2748 107.087 92.1348 107.926C95.3673 111.044 98.8691 113.842 102.589 116.37C103.293 116.846 103.998 117.271 104.816 117.499C105.769 117.758 106.712 118.069 107.655 118.348C107.727 118.369 107.8 118.359 107.976 118.369C107.323 118.038 106.722 117.799 106.215 117.447C103.853 115.841 101.48 114.256 99.1696 112.578C97.0353 111.034 95.0979 109.262 93.3987 107.252C93.3055 107.138 93.2641 106.9 93.3159 106.765C94.5384 103.74 95.0772 100.58 95.1704 97.3372C95.1704 97.1818 95.1911 97.0161 95.2118 96.8607C95.3154 96.9021 95.3362 96.9435 95.3569 96.9746C96.051 98.4562 96.7556 99.9377 97.9678 101.088C99.9984 103.015 102.288 104.59 104.723 105.957C104.961 106.092 105.231 106.196 105.355 105.905C105.438 105.719 105.407 105.356 105.282 105.232C104.567 104.517 104.101 103.647 103.707 102.756C102.64 100.373 101.615 97.9589 100.568 95.5552C100.33 94.9958 100.081 94.4363 99.843 93.8768C99.9777 93.8768 100.05 93.9183 100.112 93.9701C100.775 94.4777 101.439 94.9958 102.112 95.4931C103.272 96.3634 104.485 97.1508 105.572 98.0936C107.437 99.6995 108.774 101.73 109.955 103.875C110.359 104.61 110.722 105.367 111.146 106.082C111.25 106.258 111.509 106.351 111.695 106.475C111.768 106.268 111.913 106.061 111.903 105.854C111.851 103.968 111.385 102.155 110.981 100.331C110.753 99.3161 110.463 98.3215 110.193 97.2647C110.97 97.8553 111.695 98.4044 112.421 98.9639C113.446 99.7409 114.472 100.528 115.788 100.746C116.016 100.787 116.399 100.756 116.482 100.622C116.596 100.435 116.544 100.104 116.472 99.8549C116.223 98.9742 115.902 98.1039 115.664 97.2233C115.591 96.9539 115.674 96.6431 115.684 96.2597C115.974 96.4255 116.13 96.5188 116.296 96.612C117.632 97.3269 119.051 97.4201 120.502 97.1611C121.03 97.0679 121.383 96.6742 121.31 96.1251C121.269 95.8557 121.269 95.576 121.248 95.2962C121.776 95.2341 122.325 95.203 122.854 95.0994C124.677 94.7367 126.055 93.6385 127.35 92.3849C128.241 91.5146 129.153 90.6547 130.117 89.8466C131.401 88.7691 132.779 87.8055 134.053 86.7177C135.286 85.6609 136.499 84.6041 137.908 83.7857C138.322 83.5474 138.674 83.1847 138.996 82.8221C139.586 82.159 139.773 81.382 139.389 80.5428C138.384 78.336 137.773 75.9324 136.167 73.9846C136.654 74.1503 137.141 74.2954 137.618 74.4819C139.286 75.1346 140.871 75.9013 141.814 77.5486C141.886 77.6729 142.197 77.818 142.269 77.7662C142.446 77.6522 142.632 77.4243 142.642 77.2378C142.705 75.6733 142.642 74.1193 141.928 72.6688C141.648 72.099 141.327 71.5602 140.985 70.9386C142.249 71.6845 143.451 72.389 144.29 73.5702C144.652 74.0985 144.901 74.0467 145.191 73.4665C145.419 73.0314 145.657 72.5755 145.989 72.2233C146.89 71.2287 147.854 70.2962 148.776 69.3223C148.942 69.1462 149.149 68.8561 149.097 68.6903C148.931 68.1516 148.693 67.5921 148.393 67.0845ZM37.918 87.3082C38.3842 86.9663 38.8505 86.6141 39.3581 86.3343C39.5446 86.2307 39.8347 86.3343 40.073 86.3447C40.5807 86.3758 41.0884 86.4172 41.71 86.4587C40.5911 87.0285 39.5964 87.5983 38.4568 87.8366C38.3428 87.8573 38.2185 87.8677 38.1045 87.8366C37.9905 87.8055 37.8351 87.733 37.7937 87.6398C37.7626 87.5465 37.8351 87.36 37.918 87.3082ZM33.6391 91.8462C33.9914 91.8669 34.2918 92.3227 34.2814 92.82C34.2711 93.307 33.8981 93.6903 33.4526 93.6696C33.0278 93.6489 32.7066 93.2966 32.717 92.8408C32.7273 92.302 33.1729 91.8151 33.6391 91.8462ZM20.5952 88.3547C20.2533 88.3443 19.9942 88.0542 20.0253 87.7123C20.046 87.3911 20.3154 87.1425 20.6366 87.1528C20.9682 87.1632 21.2375 87.4636 21.2168 87.7952C21.1961 88.106 20.9164 88.365 20.5952 88.3547ZM27.0602 78.0356C24.2732 82.1072 20.6263 85.0496 15.8086 86.4172C14.0266 86.9249 12.2653 87.4636 10.4626 87.9402C11.136 87.6501 11.7887 87.329 12.4725 87.0699C13.7779 86.5623 15.1144 86.1375 16.4095 85.5987C19.8596 84.1483 22.7398 81.9208 25.1434 79.0612C26.0862 77.9423 27.0498 76.8544 28.0133 75.7459C28.148 75.5905 28.2931 75.4558 28.4278 75.3004C28.4796 75.3315 28.5313 75.3729 28.5831 75.404C28.0755 76.2846 27.63 77.1963 27.0602 78.0356ZM30.1787 88.5101C29.3913 87.2875 29.3913 87.2875 27.5471 86.5208C28.6349 85.7024 29.7643 84.9253 29.7228 83.3505C29.7643 83.3401 29.8057 83.3194 29.8472 83.3091C30.562 84.3244 31.2769 85.3397 31.9296 86.2722C31.3287 87.0492 30.7589 87.7745 30.1787 88.5101ZM31.3495 80.3978C30.9765 80.4081 30.6553 80.1077 30.6346 79.7036C30.6139 79.3203 30.8521 79.0198 31.2044 78.9991C31.5981 78.9784 31.9814 79.341 31.9814 79.7347C31.9918 80.0869 31.7017 80.3874 31.3495 80.3978ZM32.3233 69.4985C32.2508 69.457 32.1783 69.4156 32.1161 69.3845C32.6549 68.3899 33.1936 67.3953 33.7324 66.4007C33.7842 66.4317 33.8359 66.4525 33.8877 66.4835C33.3593 67.4782 32.8413 68.4831 32.3233 69.4985ZM48.5272 46.7053C48.1646 46.5291 47.7916 46.3841 47.4497 46.1872C46.6727 45.7314 45.8438 45.4931 44.9321 45.4827C43.5542 45.462 42.5077 46.0733 41.7203 47.13C40.85 48.3008 40.5185 49.7098 40.0834 51.067C39.037 54.2995 38.2495 57.6253 36.8819 60.7542C36.5297 61.5519 36.0842 62.3186 35.6802 63.0956C35.618 63.0749 35.5661 63.0542 35.504 63.0231C35.6697 62.36 35.763 61.6555 36.022 61.0235C36.8612 59.0136 37.2238 56.869 37.8455 54.7968C38.5085 52.6004 39.2131 50.404 40.1144 48.2904C41.4613 45.1305 45.3672 43.825 48.1956 46.1354C48.3511 46.2598 48.5479 46.353 48.724 46.4566C48.6515 46.5498 48.5894 46.6224 48.5272 46.7053ZM94.3208 33.5784C95.2118 33.8582 96.1028 34.1172 96.9835 34.4073C99.0556 35.1014 100.931 36.1893 102.816 37.2668C105.769 38.9556 108.67 40.7065 111.374 42.7786C112.991 44.0115 114.534 45.3377 116.047 46.6845C120.782 50.9013 125.734 54.8383 131.256 57.9879C131.381 58.0604 131.494 58.1329 131.577 58.2883C131.132 58.1226 130.676 57.9568 130.23 57.791C127.816 56.9311 125.827 55.3874 123.879 53.7919C120.336 50.9116 116.803 48.0003 113.27 45.1097C111.488 43.6489 109.748 42.1466 107.924 40.7479C104.971 38.4893 101.729 36.7281 98.3304 35.2361C97.0042 34.6456 95.6263 34.169 94.2794 33.6406C94.3001 33.6302 94.3105 33.6095 94.3208 33.5784ZM81.567 37.992C82.2404 38.0128 82.7067 38.5929 82.686 39.37C82.6652 40.1678 82.1058 40.779 81.3909 40.7687C80.6656 40.7583 80.0855 40.1574 80.1062 39.4322C80.1165 38.6344 80.8003 37.961 81.567 37.992ZM68.2951 45.4102C68.6578 45.0476 69.0514 44.7057 69.4348 44.3741C70.2947 43.6282 70.6573 42.6646 70.6988 41.5561C70.7195 40.9966 70.7506 40.4475 70.7817 39.7533C70.9267 39.9709 70.9992 40.0641 71.0614 40.1781C71.3618 40.7376 71.6726 41.2867 71.9524 41.8565C72.3564 42.675 72.9056 43.3588 73.6515 43.9079C74.8223 44.7678 74.8015 44.7886 73.9623 45.9697C73.2785 46.9332 72.7916 47.9796 72.6569 49.1711C72.6362 49.3783 72.5119 49.5648 72.429 49.7616C72.3565 49.7823 72.2943 49.7927 72.2218 49.8134C72.0145 49.4922 71.7659 49.1918 71.6002 48.8499C71.0821 47.8242 70.3672 46.985 69.3208 46.4566C69.0514 46.3219 68.7407 46.2598 68.4506 46.1458C68.2952 46.0836 68.0465 45.9904 68.0361 45.8868C68.0568 45.7314 68.1708 45.5242 68.2951 45.4102ZM73.3615 58.8375C73.3718 59.5005 72.8642 60.1014 72.2736 60.1222C71.7245 60.1429 71.3204 59.7492 71.31 59.2001C71.2997 58.4852 71.7866 57.8428 72.3565 57.8221C72.9056 57.8118 73.3511 58.2573 73.3615 58.8375ZM63.4775 51.3468C63.5603 51.2225 63.7572 51.1085 63.9023 51.0981C64.2856 51.0567 64.9486 51.6887 64.959 52.072C64.9694 52.5279 64.555 52.8698 64.0888 52.7765C63.5707 52.6626 63.177 51.7923 63.4775 51.3468ZM54.7746 49.4197C54.9715 49.7823 55.189 50.1242 55.3755 50.4972C57.4372 54.5896 60.1103 58.2158 63.3635 61.4587C65.0108 63.0956 66.8965 64.3907 68.6785 65.8412C73.952 70.1408 78.8215 74.8238 82.2819 80.7811C82.9968 82.0036 83.7013 83.2262 84.0432 84.7492C83.2351 83.6199 82.4062 82.6045 81.7535 81.496C79.298 77.3414 76.0138 73.9121 72.4601 70.7106C70.2533 68.7214 68.0983 66.7011 65.6636 64.9709C64.1509 63.9038 63.0631 62.4015 61.8923 61.0028C59.3747 57.9775 57.313 54.6414 55.4066 51.2017C55.1062 50.6526 54.9093 50.0517 54.6607 49.4819C54.7125 49.4508 54.7436 49.4404 54.7746 49.4197ZM53.4692 57.8221C53.4278 57.7496 53.407 57.6771 53.4174 57.5735C54.6296 58.8685 55.8417 60.174 57.0643 61.469C58.7945 63.3028 60.4833 65.1885 62.2964 66.929C64.7311 69.2705 67.3109 71.467 69.7663 73.8084C71.7659 75.7251 73.7759 77.6419 75.475 79.8486C75.7133 80.1595 75.9412 80.4599 76.1691 80.7707C76.1484 80.7915 76.1277 80.8018 76.107 80.8225C76.0241 80.75 75.9412 80.6775 75.8687 80.5946C73.6412 78.077 71.02 75.9842 68.5645 73.7048C66.71 71.985 64.8244 70.2755 62.9491 68.566C61.4676 67.2191 59.9341 65.9137 58.4837 64.5358C56.4116 62.6087 54.8886 60.2569 53.4692 57.8221ZM77.1638 83.4541C70.6884 78.1702 64.2545 72.8242 59.0742 66.1624C60.017 67.0119 60.9703 67.8615 61.9131 68.7214C64.2131 70.8142 66.5131 72.9071 68.7924 75.0206C70.9785 77.0409 73.1439 79.082 75.2885 81.1437C75.993 81.8275 76.6146 82.6045 77.2673 83.3401L77.1638 83.4541ZM83.7013 95.9282C82.2819 93.5246 80.8521 91.1313 79.4327 88.7276C79.4742 88.7069 79.5052 88.6862 79.5467 88.6551C81.2251 90.9034 82.4684 93.4106 83.836 95.8453C83.7945 95.8764 83.7531 95.8971 83.7013 95.9282ZM87.3792 99.8963C86.7887 98.9846 86.1567 98.0832 85.6076 97.1508C84.4369 95.1719 83.3697 93.1205 82.1368 91.1934C80.7899 89.0799 79.2877 87.0596 77.7957 85.0186C78.0962 85.2569 78.4174 85.4641 78.6971 85.7231C79.5363 86.4794 80.4791 87.1632 81.1629 88.0335C81.9089 88.9866 82.458 90.0952 83.0278 91.1727C84.499 93.9597 85.9288 96.7778 87.3792 99.5751C87.4207 99.658 87.4414 99.7513 87.4725 99.8445C87.4414 99.8652 87.4103 99.8756 87.3792 99.8963ZM91.3474 92.8822C91.2127 92.6957 91.0573 92.5299 90.964 92.3227C90.4356 91.2349 89.928 90.1367 89.4099 89.0488C88.0734 86.2411 86.7576 83.4127 84.9134 80.8847C83.9706 79.5896 82.9139 78.3671 81.9089 77.1135C81.7121 76.8648 81.5256 76.6162 81.3391 76.3675C81.3805 76.3261 81.422 76.2846 81.453 76.2432C81.6706 76.4089 81.8986 76.5747 82.1058 76.7612C84.4058 78.8126 86.2292 81.2162 87.6279 83.9514C88.7054 86.0339 89.7311 88.1371 90.7568 90.2506C91.1505 91.0588 91.4406 91.9083 91.4613 92.82C91.4302 92.8304 91.3888 92.8511 91.3474 92.8822ZM87.2031 75.9013C87.2342 75.8184 87.2757 75.7355 87.286 75.6526C87.3275 75.2278 87.545 74.9688 87.9698 74.9067C88.4049 74.8445 88.7158 75.0621 88.9023 75.4351C88.9955 75.6319 89.0369 75.8495 89.0784 76.0152C89.0473 76.2017 89.0369 76.3364 89.0059 76.4607C88.8608 77.0927 88.3739 77.4243 87.8455 77.2481C87.286 77.0824 86.9959 76.4711 87.2031 75.9013ZM93.2226 61.8109C91.9483 64.0384 90.2077 65.6236 87.4621 65.7065C86.9752 65.7169 86.4883 65.7687 86.0013 65.7687C83.722 65.7687 81.971 64.6497 80.6345 62.9506C79.5985 61.6244 79.3602 59.9771 79.5985 58.3194C79.8782 56.3302 80.5517 54.486 81.8882 52.9423C83.1729 51.4607 84.7787 50.5905 86.7265 50.3625C87.1202 50.3211 87.5243 50.4454 88.0423 50.5076C87.2135 51.2017 86.4468 51.7405 85.7941 52.3932C84.7166 53.4707 84.2711 54.8383 84.1364 56.3406C83.9603 58.423 85.0274 59.8217 86.6437 60.8888C87.0477 61.1582 87.5968 61.3136 88.0941 61.3447C89.7829 61.438 91.3785 61.1064 92.7979 60.1118C93.0672 59.9253 93.3158 59.687 93.5956 59.4487C93.7924 60.2983 93.6267 61.0961 93.2226 61.8109ZM85.991 45.7417C87.0685 44.9647 88.1667 44.1566 88.1356 42.5921C88.1771 42.5921 88.2185 42.6025 88.2599 42.6025C88.9541 43.5971 89.6586 44.5917 90.3113 45.5449C89.7104 46.3012 89.1509 47.0264 88.6122 47.6999C88.291 47.3372 87.9802 46.8503 87.5347 46.5188C87.0995 46.1769 86.5401 46.0007 85.991 45.7417ZM92.4456 34.3348C90.6532 33.8582 88.8401 33.4748 87.027 33.0811C86.4676 32.9568 85.877 32.9568 85.3071 32.8428C86.5815 32.7082 87.8248 32.8014 89.0784 33.1019C91.6064 33.7131 94.1344 34.3555 96.5484 35.3397C100.931 37.1321 105.034 39.4114 108.712 42.4264C112.058 45.1719 115.415 47.9071 118.761 50.6526C119.507 51.2639 120.233 51.9062 120.958 52.5382C120.937 52.559 120.906 52.5797 120.885 52.6108C119.362 51.4711 117.829 50.3522 116.327 49.1814C113.581 47.0264 110.898 44.7782 108.1 42.6854C106.277 41.3178 104.288 40.1781 102.392 38.9141C99.3249 36.842 96.02 35.2879 92.4456 34.3348ZM99.1178 85.7749C98.7137 85.7542 98.4029 85.4226 98.4029 85.0186C98.4029 84.6249 98.724 84.2933 99.0867 84.3037C99.4596 84.314 99.8741 84.7492 99.8637 85.1222C99.8637 85.4951 99.5115 85.7956 99.1178 85.7749ZM105.78 75.2382C105.054 76.2328 104.536 77.3 104.391 78.5432C104.371 78.7504 104.246 78.9473 104.174 79.1441C104.101 79.1649 104.039 79.1856 103.966 79.2063C103.759 78.8851 103.511 78.5847 103.345 78.2428C102.806 77.186 102.071 76.3261 100.993 75.8184C100.744 75.7044 100.465 75.6526 100.206 75.549C100.05 75.4869 99.8016 75.3936 99.7912 75.3004C99.7705 75.145 99.8948 74.9481 100.019 74.8238C100.382 74.4612 100.775 74.1193 101.169 73.7877C102.029 73.0418 102.402 72.0886 102.433 70.9697C102.454 70.4102 102.485 69.8507 102.516 69.1566C102.661 69.3741 102.734 69.4674 102.796 69.571C103.055 70.0476 103.324 70.5241 103.562 71.0111C104.029 71.9746 104.65 72.7724 105.521 73.4044C106.557 74.1607 106.526 74.2229 105.78 75.2382ZM100.226 62.3082C100.268 61.5519 101.045 60.806 101.739 60.8474C102.361 60.8888 102.879 61.5312 102.848 62.2254C102.806 63.0231 102.236 63.5826 101.49 63.5515C100.703 63.4997 100.195 63.0128 100.226 62.3082ZM106.039 50.5697C105.189 51.6472 104.557 52.8283 104.402 54.227C104.381 54.4239 104.246 54.6207 104.163 54.8072C104.112 54.8176 104.049 54.8383 103.998 54.8486C103.79 54.5689 103.552 54.2995 103.397 53.9887C102.962 53.1392 102.433 52.3518 101.615 51.8337C101.159 51.554 100.63 51.3986 100.143 51.1706C99.9984 51.0981 99.7808 51.0049 99.7601 50.8806C99.7394 50.7459 99.8637 50.5594 99.9777 50.4454C100.351 50.0828 100.734 49.7513 101.128 49.4094C101.998 48.653 102.381 47.6895 102.412 46.5602C102.433 46.0111 102.464 45.4516 102.495 44.9025C102.537 44.8922 102.578 44.8818 102.62 44.8714C102.993 45.5656 103.366 46.2494 103.728 46.9539C104.112 47.6999 104.578 48.3629 105.293 48.8395C105.531 49.0053 105.759 49.2021 105.966 49.4094C106.443 49.8652 106.453 50.0414 106.039 50.5697ZM114.068 87.474C113.281 88.5101 112.711 89.6394 112.555 90.9551C112.535 91.152 112.369 91.3385 112.276 91.525C112.1 91.3903 111.872 91.297 111.747 91.1209C111.447 90.6754 111.229 90.1574 110.918 89.7222C110.255 88.8209 109.416 88.1578 108.287 87.9195C108.152 87.8884 107.935 87.7641 107.924 87.6709C107.914 87.5258 108.007 87.329 108.121 87.2254C108.504 86.8524 108.898 86.5105 109.302 86.1582C110.162 85.4123 110.535 84.4591 110.566 83.3505C110.587 82.791 110.618 82.2419 110.639 81.6825C110.68 81.6721 110.722 81.6617 110.773 81.6514C111.053 82.1798 111.364 82.6874 111.623 83.2262C112.131 84.283 112.763 85.2258 113.778 85.8474C113.83 85.8785 113.871 85.9199 113.913 85.9614C114.638 86.6141 114.648 86.7073 114.068 87.474ZM114.058 62.6501C115.208 61.7902 116.337 61.0132 116.296 59.4384C116.337 59.428 116.378 59.4073 116.42 59.3969C117.135 60.4123 117.85 61.4276 118.502 62.36C117.891 63.1371 117.321 63.8623 116.731 64.6186C116.264 63.4997 115.332 62.9195 114.058 62.6501ZM120.264 77.1756C119.818 76.067 118.886 75.4972 117.694 75.2382C118.233 74.7409 118.751 74.3161 119.217 73.8292C119.683 73.3319 119.839 72.6895 119.953 71.985C120.657 72.99 121.362 73.9949 122.025 74.9377C121.424 75.7044 120.854 76.4297 120.264 77.1756ZM125.102 84.7699C124.708 84.7803 124.346 84.3969 124.346 83.9411C124.346 83.5992 124.522 83.3712 124.874 83.3505C125.247 83.3194 125.651 83.7546 125.661 84.1586C125.661 84.5109 125.444 84.7595 125.102 84.7699ZM128.666 66.6286C128.676 65.9448 129.049 65.4268 129.526 65.4268C130.054 65.4268 130.603 65.9655 130.603 66.4628C130.603 67.0119 130.065 67.5092 129.495 67.4989C128.977 67.4989 128.656 67.157 128.666 66.6286ZM130.075 80.8329C129.443 80.8225 128.925 80.3149 128.925 79.6829C128.925 78.9369 129.536 78.2013 130.158 78.2013C130.759 78.2013 131.298 78.7919 131.287 79.4342C131.277 80.1595 130.686 80.8433 130.075 80.8329ZM142.953 67.0637C142.808 66.9808 142.642 66.9187 142.508 66.8151C142.187 66.5561 141.855 66.2971 141.575 66.007C139.99 64.3493 138.042 63.3132 135.908 62.5051C132.075 61.0442 128.117 59.9564 124.19 58.796C122.833 58.4023 121.538 57.8014 120.222 57.2937C120.046 57.2316 119.891 57.1176 119.683 57.014C119.766 56.9933 119.797 56.9829 119.818 56.9933C122.947 58.2883 126.273 58.8685 129.536 59.6767C132.458 60.4123 135.349 61.2307 138.146 62.3497C140.021 63.106 141.586 64.2871 142.684 66.0173C142.86 66.3074 142.964 66.6389 143.109 66.9498C143.057 66.9912 143.005 67.0223 142.953 67.0637Z" fill="#333A31"/>
</svg>
