<svg width="45" height="45" viewBox="0 0 45 45" fill="none" xmlns="http://www.w3.org/2000/svg">
<g clip-path="url(#clip0)">
<path d="M8.84999 25.2999C4.42999 16.8299 7.62999 7.39992 14.41 2.87992C21.2 -1.64008 30.22 -0.770077 36.03 4.96992C41.8 10.6699 43.16 20.5299 37.28 27.9399C37.39 28.0699 37.5 28.2199 37.61 28.3599C39.79 30.9999 41.97 33.6499 44.16 36.2899C44.42 36.5999 44.63 36.9199 44.4 37.3399C44.17 37.7599 43.8 37.7499 43.39 37.7099C41.45 37.5199 39.5 37.3399 37.55 37.1499C37.38 37.1299 37.22 37.1199 37 37.0999C36.98 37.3099 36.96 37.4799 36.95 37.6399C36.76 39.5899 36.58 41.5299 36.4 43.4799C36.36 43.8899 36.3 44.2599 35.85 44.3999C35.4 44.5499 35.13 44.2799 34.87 43.9699C32.25 40.7999 29.63 37.6399 27.02 34.4599C26.79 34.1799 26.58 34.0699 26.21 34.1199C23.55 34.4899 20.95 34.2299 18.42 33.3599C18.12 33.2599 17.94 33.3299 17.72 33.5099C14.58 36.1099 11.43 38.7099 8.28999 41.3099C8.18999 41.3899 8.09999 41.4699 7.99999 41.5499C7.71999 41.7799 7.41999 41.8499 7.09999 41.6699C6.77999 41.4899 6.67999 41.1999 6.71999 40.8399C6.90999 38.9099 7.08999 36.9799 7.26999 35.0499C7.28999 34.8199 7.30999 34.5899 7.33999 34.2799C7.15999 34.2599 6.99999 34.2499 6.83999 34.2299C4.85999 34.0399 2.88999 33.8499 0.909989 33.6699C0.509989 33.6299 0.169989 33.5399 0.039989 33.1099C-0.090011 32.6799 0.139989 32.4099 0.449989 32.1599C3.10999 29.9699 5.75999 27.7799 8.41999 25.5899C8.53999 25.4699 8.69999 25.3999 8.84999 25.2999ZM25.43 1.58992C16.89 0.759923 9.21999 7.07992 8.38999 15.6199C7.55999 24.2199 13.86 31.8599 22.48 32.6999C30.98 33.5299 38.66 27.1999 39.49 18.6899C40.33 10.0699 34.04 2.41992 25.43 1.58992ZM35.06 41.6799C35.08 41.5099 35.09 41.3599 35.11 41.2099C35.26 39.5999 35.41 37.9999 35.57 36.3899C35.64 35.6999 35.91 35.4699 36.61 35.5399C38.25 35.6899 39.88 35.8499 41.52 35.9999C41.64 36.0099 41.77 36.0099 41.87 36.0099C39.97 33.7099 38.09 31.4299 36.19 29.1299C34.02 31.2999 31.43 32.8399 28.46 33.6799C30.67 36.3599 32.84 38.9999 35.06 41.6799ZM9.71999 26.6899C7.40999 28.5999 5.12999 30.4799 2.88999 32.3299C4.53999 32.4899 6.29999 32.6499 8.05999 32.8199C8.72999 32.8799 8.95999 33.1699 8.89999 33.8299C8.74999 35.3999 8.59999 36.9799 8.44999 38.5499C8.42999 38.7399 8.40999 38.9399 8.39999 39.0699C11.05 36.8799 13.71 34.6899 16.36 32.5099C13.64 31.1499 11.39 29.1599 9.71999 26.6899Z" fill="#466142"/>
<path d="M9.85004 15.7999C10.6 7.97988 17.51 2.29988 25.36 3.05988C33.08 3.79988 38.79 10.7499 38.04 18.4899C37.28 26.3099 30.37 31.9799 22.53 31.2299C14.81 30.4899 9.11004 23.5499 9.85004 15.7999ZM36.53 18.2999C37.18 11.3699 32.06 5.20988 25.11 4.54988C18.2 3.89988 12.01 9.00988 11.36 15.9099C10.7 22.8999 15.81 29.0799 22.8 29.7299C29.72 30.3899 35.88 25.2599 36.53 18.2999Z" fill="#466142"/>
<path d="M19.2199 14.4399C19.9599 14.5099 20.6999 14.5599 21.4399 14.6599C21.7699 14.6999 21.9299 14.6199 22.0699 14.2999C22.6299 12.9899 23.2199 11.6899 23.7899 10.3899C23.9599 9.98992 24.1799 9.66992 24.6799 9.72992C25.1499 9.77992 25.2899 10.1299 25.3899 10.5399C25.7099 11.9399 26.0399 13.3399 26.3499 14.7499C26.4099 15.0399 26.5299 15.1499 26.8299 15.1799C28.3399 15.3099 29.8599 15.4599 31.3699 15.5999C31.7899 15.6399 32.1399 15.7599 32.2399 16.2099C32.3399 16.6599 32.0799 16.9299 31.7099 17.1299C30.4099 17.8499 29.1099 18.5799 27.7999 19.2899C27.5099 19.4499 27.4599 19.5999 27.5299 19.9099C27.8499 21.2199 28.1399 22.5299 28.4499 23.8399C28.5499 24.2399 28.5599 24.6199 28.1699 24.8699C27.7499 25.1399 27.4099 24.9399 27.0799 24.6599C26.0199 23.7599 24.9299 22.8799 23.8799 21.9699C23.5799 21.7099 23.3899 21.7399 23.0799 21.9199C21.8699 22.6099 20.6399 23.2699 19.4299 23.9599C19.0599 24.1699 18.7099 24.2699 18.3599 23.9499C18.0199 23.6299 18.0899 23.2699 18.2599 22.8899C18.8199 21.6499 19.3599 20.3999 19.9299 19.1599C20.0599 18.8799 20.0099 18.7299 19.7799 18.5399C18.6399 17.6099 17.5199 16.6499 16.3899 15.7099C16.0499 15.4299 15.7999 15.1299 15.9899 14.6799C16.1799 14.2299 16.5699 14.1799 16.9999 14.2299C17.7299 14.3099 18.4799 14.3699 19.2199 14.4399Z" fill="#466142"/>
</g>
<defs>
<clipPath id="clip0">
<rect width="44.5" height="44.44" fill="white"/>
</clipPath>
</defs>
</svg>
