<svg width="151" height="150" viewBox="0 0 151 150" fill="none" xmlns="http://www.w3.org/2000/svg">
<path d="M75.5601 0C116.92 0 150.32 33.41 150.36 74.83C150.4 116.31 116.83 149.86 75.3701 149.77C33.8101 149.68 0.540114 116.27 0.580114 74.65C0.630114 33.31 34.0901 0 75.5601 0ZM107.72 120.89C81.7901 94.59 55.9301 68.36 30.0401 42.1C16.2901 59.26 13.4801 90.54 33.8801 112.85C54.5401 135.44 87.4301 136.22 107.72 120.89ZM43.9401 28.36C69.9201 54.36 95.9701 80.42 121.97 106.44C136.56 86.3 135.69 54.9 114.72 34.51C93.8101 14.17 62.9201 14.38 43.9401 28.36Z" fill="#DEDEDE"/>
<path d="M109.28 115.94C108.64 111.89 107.98 107.71 107.18 103.63C106.36 99.4498 103.84 96.6898 99.6901 95.4098C99.0101 95.1998 98.3301 94.9898 97.6501 94.7798C94.4701 93.7898 91.1801 92.7698 87.9001 92.0098C85.5901 91.4798 83.1701 90.4698 82.7701 87.0398L82.7501 86.9898C82.0501 84.9798 82.1901 84.6598 84.2801 83.5898L84.6501 83.3998L84.8701 83.7498C86.7401 86.7498 89.2701 88.6798 92.3801 89.4598C95.7401 90.3098 98.9301 89.8398 101.83 88.0698C104.25 86.5898 105.96 84.4998 106.91 81.8398C108.24 78.1398 107.84 74.5598 105.69 70.8998L105.46 70.5098L106.28 70.0298C106.56 69.8598 106.82 69.7098 107.08 69.5598C111.36 67.1098 113.78 62.2498 113.1 57.4598C112.51 53.2998 110.34 50.1598 106.67 48.1498C106.11 47.8398 105.6 47.4198 105.71 46.3898C106.23 41.4398 104.46 37.5498 100.46 34.8398C96.4701 32.1298 92.1701 31.9398 87.6701 34.2698C87.4701 34.3698 87.2701 34.4698 87.0501 34.5898L86.3501 34.9398L86.1301 34.5798C83.5101 30.2198 79.9801 28.0798 75.3501 28.0298C75.3001 28.0298 75.2501 28.0298 75.2001 28.0298C70.6501 28.0298 67.0401 30.1398 64.4701 34.3198L64.2701 34.6498L63.9201 34.5098C63.5501 34.3598 63.2001 34.2098 62.8601 34.0598C62.1301 33.7398 61.4401 33.4498 60.7301 33.2498C59.7001 32.9698 58.6201 32.8098 57.5301 32.7598C54.1501 32.6298 50.8801 33.9598 48.5201 36.4098C46.0901 38.9298 44.8901 42.2998 45.1501 45.8998C45.2401 47.1698 44.9201 47.7998 43.8701 48.4098C39.7501 50.8198 37.6801 54.4198 37.7201 59.0998C37.7601 63.7198 39.8901 67.2798 44.0601 69.6998L45.3201 70.4398L45.1801 70.7998C43.1201 76.1998 42.9201 77.3298 43.5101 80.1098C44.2101 83.3698 45.9401 85.9598 48.6601 87.8198C51.0701 89.4598 53.7901 90.1298 56.7701 89.8098C60.3901 89.4298 63.3801 87.5998 65.6801 84.3898L65.8701 84.1298L66.1801 84.2198C66.5401 84.3298 67.0301 84.5198 67.2601 84.9798C67.4201 85.3098 67.4101 85.6998 67.2301 86.1798C66.8901 87.0598 66.5101 88.1198 66.2301 89.2098C65.9501 90.3098 65.3101 90.9498 64.1501 91.2798C60.7501 92.2298 57.3101 93.2798 53.9901 94.2998L53.7601 94.3698C53.1801 94.5498 52.7701 94.8898 52.6201 95.3098C52.5001 95.6398 52.5501 95.9998 52.7801 96.3498C53.1601 96.9198 53.6701 97.0498 54.5501 96.7798C55.5401 96.4798 56.5401 96.1898 57.5301 95.8898C59.7201 95.2398 61.9801 94.5698 64.1801 93.8798C64.6201 93.7398 65.1301 93.6298 65.5701 93.8598C66.0101 94.0998 66.2101 94.5898 66.3401 94.9998C67.9401 100.34 69.6101 105.77 71.2101 111.01L73.1501 117.36C73.2201 117.6 73.2701 117.85 73.3301 118.14C73.3601 118.28 73.3901 118.43 73.4201 118.59L73.5301 119.1L73.0101 119.14C72.8301 119.15 72.6501 119.17 72.4901 119.19C72.1401 119.22 71.8101 119.26 71.4801 119.26C67.2601 119.27 63.0401 119.27 58.8201 119.26C56.8201 119.26 56.6101 119.05 56.6001 117L56.5901 114.67C56.5801 112.57 56.5801 110.48 56.5601 108.38C56.5501 107.56 56.1201 107.05 55.4201 107.01C54.7301 106.98 54.2101 107.52 54.1401 108.37C54.1101 108.71 54.1101 109.06 54.1201 109.43V109.68V111.71C54.1101 113.68 54.1101 115.66 54.1301 117.63C54.1301 118.02 54.0901 118.57 53.7101 118.93C53.4301 119.2 53.0301 119.31 52.4901 119.27C52.0001 119.24 51.5101 119.25 50.9901 119.27C50.7201 119.28 50.4401 119.28 50.1701 119.28C48.5301 119.28 46.9001 119.28 45.2001 119.28H42.6101L42.6401 118.8C42.6501 118.59 42.6601 118.4 42.6601 118.24C42.6701 117.92 42.6801 117.67 42.7201 117.4C43.0601 115.32 43.4101 113.24 43.7601 111.16C44.0901 109.16 44.4301 107.16 44.7601 105.15C45.1601 102.74 46.1001 100.9 47.6501 99.5198C48.3801 98.8698 48.5301 98.0898 48.0201 97.4998C47.8101 97.2498 47.5501 97.1198 47.2501 97.0998C47.2201 97.0998 47.2001 97.0998 47.1701 97.0998C46.7701 97.0998 46.3201 97.2998 45.9001 97.6798C44.1501 99.2398 43.0301 101.14 42.5801 103.31C42.0901 105.67 41.6901 108.03 41.3301 110.22C40.7401 113.84 40.2401 117.09 39.8101 120.16C39.7401 120.66 39.8001 121.03 40.0001 121.28C40.2001 121.54 40.5801 121.69 41.1201 121.74C41.4001 121.77 41.6901 121.76 42.0001 121.76H42.2001L55.7801 121.75C64.3901 121.74 73.0101 121.74 81.6201 121.74C85.7601 121.74 89.9101 121.74 94.0501 121.75C98.6801 121.76 103.3 121.76 107.94 121.76C108.85 121.76 109.42 121.61 109.68 121.3C109.93 121 109.99 120.45 109.85 119.62C109.67 118.38 109.47 117.16 109.28 115.94ZM63.4701 82.9498C61.8401 85.6798 58.6901 87.3198 55.4301 87.3198C54.6201 87.3198 53.8101 87.2198 53.0201 87.0098C49.0701 85.9798 46.0501 82.3398 45.8401 78.3698C45.6901 75.5198 46.5901 73.0398 48.5001 70.9798C49.0701 70.3698 49.3201 69.7898 49.1901 69.3698C49.0601 68.9298 48.5201 68.5798 47.6701 68.3598C43.5201 67.3198 40.4701 63.6898 40.2401 59.5398C40.0101 55.1998 42.6201 51.2898 46.7301 49.7898C48.1701 49.2698 48.3401 48.9598 47.9601 47.4498C47.2401 44.4998 47.7401 41.5898 49.3801 39.2698C51.0001 36.9798 53.5201 35.5498 56.4801 35.2398C58.9801 34.9898 61.3201 35.7498 63.4501 37.5098C64.1601 38.0998 64.7301 38.3498 65.1101 38.2398C65.5001 38.1398 65.8601 37.6598 66.1801 36.8198C67.6901 32.9498 71.2001 30.4698 75.1601 30.4698C75.2101 30.4698 75.2701 30.4698 75.3201 30.4698C79.4201 30.5398 82.9701 33.1598 84.3601 37.1498C84.5601 37.7198 84.9001 38.4198 85.4201 38.5598C85.9401 38.6898 86.5901 38.2398 87.0401 37.8298C90.3101 34.8798 94.7901 34.3698 98.4501 36.5298C102.23 38.7598 104 42.9998 102.94 47.3198C102.53 49.0098 102.64 49.2198 104.24 49.8198C108.3 51.3398 110.87 55.2298 110.64 59.4998C110.41 63.6698 107.48 67.1998 103.34 68.2998C102.4 68.5498 101.83 68.8998 101.7 69.3098C101.57 69.7298 101.86 70.3598 102.53 71.1198C105.19 74.1498 105.81 77.6698 104.32 81.2798C102.83 84.8998 100 86.9598 96.1401 87.2298C92.2101 87.5098 89.1301 85.8398 86.9801 82.2698C86.4601 81.3998 86.4901 80.6698 87.0901 79.8498C89.2001 76.9598 90.6101 73.4998 91.2601 69.5698C91.4601 68.3498 91.8801 67.3698 93.2501 66.5598C94.1501 66.0198 94.9301 65.1498 95.6701 64.3098C95.9001 64.0598 96.1201 63.7998 96.3501 63.5598C96.9801 62.8898 97.5701 62.5898 98.5801 63.1698C100.78 64.4398 103.47 63.8798 104.97 61.8198C106.36 59.9098 106.14 57.0998 104.45 55.4298C102.69 53.6798 99.9301 53.5498 97.9001 55.1298L96.7901 55.9898L96.5101 55.7298C95.9801 55.2398 95.4501 54.7598 94.9301 54.2898C93.7401 53.2098 92.6101 52.1798 91.4901 51.1098C90.0401 49.7298 88.5201 49.2898 86.6801 49.7298C86.1701 49.8498 85.4301 49.4498 85.1801 49.0298C84.0201 47.1498 82.4001 46.2298 80.2401 46.2298C80.2201 46.2298 80.2101 46.2298 80.1901 46.2298C78.3301 46.2398 76.4801 46.2398 74.6201 46.2298C73.2301 46.2298 71.8401 46.2198 70.4501 46.2298C68.5501 46.2398 67.0601 47.0398 66.0101 48.6098C65.5601 49.2798 65.0601 49.6698 64.0701 49.3598C62.3501 48.8398 60.7601 49.2298 59.3401 50.5298L58.5501 51.2498C57.3401 52.3498 56.0901 53.4798 54.9101 54.6298C54.2501 55.2698 53.6001 55.5498 52.5601 54.8598C50.8101 53.6998 48.9501 53.6898 47.1701 54.8498C45.4401 55.9798 44.7101 57.6998 45.0801 59.8298C45.4301 61.8498 46.6601 63.1498 48.7301 63.6898C50.2501 64.0898 51.7301 63.7298 53.2501 62.5898L53.5601 62.3598L54.8301 63.5498C55.8001 64.4498 56.7101 65.3098 57.6201 66.2098C57.9401 66.5198 58.0001 67.0298 58.0401 67.3998C58.7201 72.8898 60.4601 77.3598 63.3901 81.0698C63.7301 81.5298 63.7701 82.4498 63.4701 82.9498ZM89.5901 64.1998C88.2901 63.0398 87.0201 61.8598 85.6701 60.6198L83.6601 58.7698L83.9901 58.4398C85.1501 57.2798 85.7201 55.9498 85.8501 54.1298C85.9101 53.3198 86.4001 52.6198 87.1401 52.3198C87.8901 52.0098 88.7401 52.1498 89.3701 52.6998C91.4601 54.5198 93.4901 56.4298 95.2201 58.0798C96.1101 58.9298 96.1401 60.0498 95.2901 60.9998C94.2201 62.1998 93.3301 63.1698 92.4901 64.0598C92.0201 64.5598 91.4901 64.8098 90.9601 64.8098C90.5101 64.7898 90.0301 64.5898 89.5901 64.1998ZM98.7001 58.8698C98.7201 58.2298 98.9901 57.6498 99.4501 57.2298C99.9201 56.7998 100.53 56.5898 101.18 56.6198C102.45 56.6898 103.41 57.7498 103.36 59.0298C103.34 59.6698 103.07 60.2598 102.6 60.6798C102.17 61.0698 101.61 61.2898 101.02 61.2898C100.97 61.2898 100.92 61.2898 100.87 61.2898C99.6201 61.2098 98.6601 60.1498 98.7001 58.8698ZM83.3001 54.3198C83.1701 56.0598 82.0301 57.1598 80.3101 57.1798C78.3201 57.2098 76.4401 57.2198 74.6201 57.2198C73.2801 57.2198 71.9701 57.2098 70.6801 57.1998C68.8601 57.1798 67.7201 56.0398 67.6201 54.1498C67.5801 53.3298 67.5801 52.5298 67.6201 51.7498C67.7201 49.8898 68.8601 48.8198 70.7301 48.7998C71.8201 48.7898 72.9101 48.7898 74.0001 48.7898H75.0101L75.4301 48.7798H76.8601C77.9501 48.7798 79.0401 48.7798 80.1301 48.7798C82.0701 48.7898 83.2001 49.8598 83.3001 51.7898C83.3601 52.7398 83.3501 53.5598 83.3001 54.3198ZM66.3701 58.9398L66.1701 59.1198C65.7701 59.4898 65.3501 59.8698 64.9201 60.2798C63.8201 61.2998 62.5801 62.4498 61.3201 63.5398C60.8601 63.9398 60.3601 64.1398 59.8501 64.1398C59.2801 64.1398 58.7101 63.8798 58.1901 63.3698C57.3001 62.4798 56.4301 61.5298 55.6001 60.5398C54.7201 59.4798 54.7901 58.2798 55.7901 57.3198C57.5001 55.6798 59.2801 53.9798 61.1701 52.3998C61.7601 51.9098 62.8301 51.8098 63.5801 51.9598C64.8201 52.2098 65.0601 53.5698 65.1401 54.0198C65.3101 55.0098 65.5701 55.9798 65.8801 57.0898C66.0201 57.5898 66.1601 58.1098 66.3001 58.6698L66.3701 58.9398ZM52.2201 58.9198C52.2301 59.5598 51.9901 60.1598 51.5401 60.6098C51.1001 61.0498 50.5101 61.2898 49.8801 61.2898C49.8701 61.2898 49.8601 61.2898 49.8501 61.2898C48.5801 61.2798 47.5701 60.2598 47.5501 58.9898C47.5301 57.7098 48.5101 56.6798 49.7801 56.6298C50.4401 56.5998 51.0401 56.8298 51.5001 57.2598C51.9601 57.6898 52.2201 58.2798 52.2201 58.9198ZM67.1301 81.3998C63.8901 78.2798 61.8301 74.2198 60.8201 68.9898C60.5501 67.5598 60.7001 66.5998 62.2901 65.9098C62.9801 65.6098 63.6101 65.0298 64.2701 64.4298C64.6001 64.1298 64.9401 63.8198 65.3101 63.5198L65.7801 63.1398L65.6601 63.1098L67.0101 61.8298C67.7001 61.1698 68.3501 60.5598 69.0301 59.9498C69.3001 59.7098 69.7101 59.6798 70.0701 59.6798L71.7101 59.6898C74.4001 59.6998 77.1901 59.7098 79.9301 59.7798C80.5601 59.7998 81.3101 60.1098 81.8401 60.5798C83.8101 62.3098 85.9201 64.2498 88.2901 66.4898C88.6601 66.8398 89.0201 67.5098 88.9501 68.0698C88.2201 73.7198 86.0801 78.1298 82.4101 81.5598C80.2101 83.6098 77.5401 84.6298 74.8601 84.6298C72.1101 84.6298 69.3601 83.5498 67.1301 81.3998ZM69.5601 87.3298C69.6901 87.0498 69.9301 86.8498 70.1001 86.6998C70.1501 86.6598 70.2001 86.6198 70.2401 86.5798L70.4301 86.3798L70.6901 86.4598C73.3701 87.2798 76.0301 87.3098 78.8101 86.5498C79.1701 86.4498 79.4901 86.6698 79.7501 86.8498C79.8201 86.8998 79.8801 86.9398 79.9401 86.9698C80.1501 87.0898 80.1901 87.2998 80.2101 87.3898C81.5701 90.6198 81.4901 90.8998 78.7001 92.4298L78.2501 92.6798C77.0701 93.3298 75.9801 93.6598 74.8801 93.6598C73.7601 93.6598 72.6401 93.3198 71.4201 92.6498L71.0001 92.4198C68.1601 90.8598 68.0801 90.5798 69.5601 87.3298ZM76.3401 119L69.0901 95.2698L69.7701 94.6598L70.0401 94.7898C70.3701 94.9398 70.7101 95.0898 71.0501 95.2398C71.8101 95.5798 72.6001 95.9298 73.3401 96.3398C74.3801 96.9098 75.3201 96.9098 76.4001 96.3298C77.2501 95.8698 78.1201 95.4798 79.1301 95.0398C79.5901 94.8298 80.0801 94.6198 80.6001 94.3798L81.3701 94.0298L77.4501 118.97L76.3401 119ZM106.83 118.86C106.53 119.21 106.07 119.25 105.74 119.25H104.13C101.39 119.24 98.5601 119.24 95.7801 119.26C95.3001 119.26 94.9301 119.14 94.6801 118.89C94.3401 118.55 94.2901 118.07 94.2901 117.6C94.3001 115.22 94.2901 112.85 94.2901 110.47V109.14C94.2901 108.79 94.2901 108.46 94.2601 108.13C94.1901 107.42 93.8001 107.06 93.0501 107C92.7601 106.98 92.4801 107.08 92.2601 107.27C92.0101 107.49 91.8701 107.8 91.8601 108.15C91.8201 109.22 91.8201 110.32 91.8301 111.38C91.8301 111.79 91.8301 112.2 91.8301 112.61V113.86C91.8201 115.12 91.8201 116.38 91.8401 117.64C91.8501 118 91.8101 118.51 91.4601 118.87C91.2001 119.13 90.8301 119.25 90.3301 119.25C90.3201 119.25 90.3101 119.25 90.3001 119.25C87.7801 119.22 85.0901 119.22 81.5801 119.24C81.2501 119.24 80.7401 119.2 80.4401 118.85C80.1401 118.5 80.1701 118.01 80.2301 117.63C81.0301 112.65 81.8101 107.67 82.5901 102.69C82.9801 100.2 83.3701 97.7098 83.7601 95.2198C83.8001 94.9598 83.8701 94.7098 83.9601 94.4198C84.0001 94.2798 84.0501 94.1198 84.0901 93.9498L84.2101 93.4998L87.6301 94.5198C90.0701 95.2498 92.4601 95.9598 94.8601 96.6598C95.5001 96.8498 96.1401 97.0298 96.7801 97.2098C97.4301 97.3898 98.0801 97.5698 98.7201 97.7598C102 98.7298 104.05 100.85 104.64 103.9C105.23 106.96 105.75 110.09 106.26 113.11C106.52 114.67 106.78 116.23 107.05 117.78C107.12 118.25 107.05 118.6 106.83 118.86Z" fill="#466142"/>
<path d="M75.2401 43.2596C78.0201 43.2596 80.1101 41.1796 80.1301 38.4196C80.1401 35.6696 78.0301 33.4996 75.3101 33.4796C73.9501 33.4696 72.7101 33.9696 71.7901 34.8896C70.8701 35.8096 70.3601 37.0496 70.3601 38.3996C70.3601 41.1196 72.5101 43.2596 75.2401 43.2596ZM75.2401 36.0396C75.8901 36.0196 76.4701 36.2796 76.9101 36.7196C77.3501 37.1696 77.5901 37.7796 77.5701 38.4296C77.5501 39.6996 76.5301 40.7096 75.2501 40.7096H75.2401C74.6001 40.7096 74.0101 40.4696 73.5701 40.0196C73.1301 39.5696 72.8901 38.9596 72.9101 38.3096C72.9501 37.0296 73.9401 36.0496 75.2401 36.0396Z" fill="#466142"/>
<path d="M56.37 48.8798C56.38 48.8798 56.38 48.8798 56.39 48.8798C59.13 48.8698 61.28 46.7298 61.29 44.0098C61.3 41.3098 59.11 39.0998 56.41 39.0898C56.4 39.0898 56.39 39.0898 56.38 39.0898C55.06 39.0898 53.84 39.5898 52.93 40.4998C52 41.4298 51.5 42.6898 51.5 44.0498C51.51 46.7998 53.61 48.8798 56.37 48.8798ZM56.28 41.6598C56.9 41.6298 57.51 41.8698 57.97 42.2998C58.43 42.7298 58.69 43.3198 58.71 43.9498C58.72 44.5598 58.48 45.1798 58.03 45.6398C57.59 46.0998 56.99 46.3598 56.38 46.3698C56.37 46.3698 56.37 46.3698 56.36 46.3698C55.75 46.3698 55.15 46.1198 54.71 45.6698C54.26 45.2198 54 44.6098 54.01 43.9898C54.02 42.7498 55.04 41.6998 56.28 41.6598Z" fill="#466142"/>
<path d="M56.3901 49.3299C59.3701 49.3199 61.7301 46.9699 61.7401 44.0099C61.7501 41.0799 59.3301 38.6499 56.4101 38.6299C53.3901 38.6199 51.0401 40.9899 51.0501 44.0399C51.0601 47.0699 53.3601 49.3399 56.3901 49.3299ZM52.9301 40.4899C53.8401 39.5799 55.0601 39.0799 56.3801 39.0799C56.3901 39.0799 56.4001 39.0799 56.4101 39.0799C59.1101 39.0899 61.3001 41.2999 61.2901 43.9999C61.2801 46.7199 59.1301 48.8599 56.3901 48.8699C56.3801 48.8699 56.3801 48.8699 56.3701 48.8699C53.6101 48.8699 51.5101 46.7899 51.5001 44.0399C51.4901 42.6799 52.0001 41.4199 52.9301 40.4899Z" fill="white"/>
<path d="M94.55 48.8798C94.56 48.8798 94.56 48.8798 94.57 48.8798C97.33 48.8798 99.42 46.7998 99.43 44.0398C99.44 41.2898 97.33 39.1098 94.63 39.0898C94.61 39.0898 94.6 39.0898 94.58 39.0898C93.27 39.0898 92.04 39.5998 91.1 40.5298C90.16 41.4598 89.64 42.6998 89.65 44.0098C89.65 46.7298 91.81 48.8698 94.55 48.8798ZM92.98 42.2898C93.45 41.8598 94.05 41.6398 94.68 41.6598C95.92 41.7198 96.93 42.7698 96.92 44.0098C96.92 44.6298 96.66 45.2398 96.2 45.6798C95.76 46.1098 95.17 46.3598 94.57 46.3598C94.56 46.3598 94.54 46.3598 94.53 46.3598C93.92 46.3498 93.31 46.0798 92.88 45.6198C92.44 45.1598 92.2 44.5398 92.23 43.9298C92.24 43.2998 92.51 42.7198 92.98 42.2898Z" fill="#466142"/>
<path d="M54.0702 74.5698C52.8902 74.5698 51.7902 75.0198 50.9602 75.8498C50.1202 76.6898 49.6602 77.8298 49.6602 79.0398C49.6602 80.2498 50.1402 81.3898 51.0002 82.2398C51.8402 83.0698 52.9102 83.5298 54.1002 83.4998C56.5202 83.4798 58.5602 81.4198 58.5502 79.0098C58.5602 76.5698 56.5502 74.5798 54.0702 74.5698ZM54.0902 80.9198H54.0802C53.0602 80.9098 52.3502 80.2398 52.1902 79.1098L52.1802 79.0498L52.1902 78.9898C52.3202 77.8898 52.9602 77.2198 54.0002 77.1198C54.5002 77.0698 55.0202 77.2698 55.4202 77.6698C55.8202 78.0698 56.0302 78.5898 55.9802 79.0898C55.8702 80.2298 55.1502 80.9198 54.0902 80.9198Z" fill="#466142"/>
<path d="M95.98 73.6299C95.95 73.6299 95.92 73.6299 95.89 73.6299C93.46 73.6799 91.43 75.7599 91.46 78.1599C91.47 79.3199 91.98 80.4699 92.84 81.3099C93.6901 82.1399 94.77 82.5899 95.9 82.5899C95.92 82.5899 95.94 82.5899 95.97 82.5899C98.44 82.5499 100.36 80.5599 100.34 78.0699C100.33 76.8499 99.84 75.7099 98.97 74.8599C98.16 74.0699 97.1 73.6299 95.98 73.6299ZM97.83 78.1699C97.7 79.2699 97.05 79.9299 96 80.0199C95.96 80.0199 95.91 80.0299 95.87 80.0299C95.42 80.0299 94.96 79.8299 94.6 79.4599C94.2 79.0599 94 78.5199 94.05 78.0199C94.16 76.8999 94.91 76.2099 95.97 76.2199C97 76.2299 97.7001 76.9199 97.8401 78.0499L97.85 78.0999L97.83 78.1699Z" fill="#466142"/>
</svg>
