<svg width="151" height="150" viewBox="0 0 151 150" fill="none" xmlns="http://www.w3.org/2000/svg">
<path d="M75.44 0C116.8 0 150.2 33.41 150.24 74.83C150.28 116.31 116.71 149.86 75.25 149.77C33.69 149.68 0.419997 116.27 0.459997 74.65C0.509997 33.31 33.97 0 75.44 0ZM107.6 120.89C81.67 94.59 55.81 68.36 29.92 42.1C16.17 59.26 13.36 90.54 33.76 112.85C54.42 135.44 87.31 136.22 107.6 120.89ZM43.82 28.36C69.8 54.36 95.85 80.42 121.85 106.44C136.44 86.3 135.57 54.9 114.6 34.51C93.7 14.17 62.8 14.38 43.82 28.36Z" fill="#DEDEDE"/>
<path d="M31.4001 98.52C31.7301 97.8 32.2701 97.43 33.0701 97.24C35.8801 96.54 37.0201 94.42 37.4501 91.8C37.9601 88.73 37.6801 85.66 37.3601 82.59C36.7001 76.21 35.6201 69.86 35.7101 63.41C35.7601 59.84 36.1601 56.32 37.5401 52.98C40.2701 46.39 45.3601 42.78 52.2601 41.5C53.1601 41.33 54.0901 41.16 54.9901 41.19C56.6101 41.25 58.0301 40.76 59.5001 40.15C65.7201 37.56 72.2001 36.62 78.9101 37.25C79.7001 37.32 80.3702 37.61 80.5302 38.49C80.6702 39.21 80.4301 39.82 79.7501 40.11C79.3601 40.27 78.8801 40.28 78.4501 40.24C73.8201 39.81 69.2601 40.2 64.8101 41.51C62.8901 42.08 61.0501 42.93 59.1501 43.58C58.3601 43.85 57.5201 44.1 56.6901 44.13C53.6301 44.21 50.6701 44.68 47.8901 46.01C42.8201 48.45 40.2001 52.68 39.2301 58.06C38.4301 62.48 38.7101 66.91 39.1401 71.34C39.6601 76.7 40.2501 82.05 40.6701 87.42C40.8001 89.11 40.6501 90.86 40.3901 92.55C39.9301 95.53 38.6601 98.07 35.7301 99.53C37.1001 101.2 38.7801 102.27 40.6401 103.09C44.0301 104.6 47.6302 105.3 51.2802 105.8C53.2102 106.06 55.1601 106.24 57.1901 106.46C57.2201 106.1 57.2601 105.85 57.2601 105.59C57.2601 102.63 57.2801 99.67 57.2401 96.71C57.2301 96.29 57.0301 95.79 56.7501 95.47C53.9501 92.29 51.9201 88.68 50.6701 84.63C50.5701 84.3 50.2501 83.9 49.9401 83.78C46.0701 82.38 44.1601 79.48 43.7101 75.57C43.5201 73.94 43.5501 72.24 43.8101 70.63C44.3101 67.47 45.4701 66.59 48.7001 66.52C48.8001 65.15 48.8601 63.77 49.0101 62.4C49.3901 58.92 50.2301 55.57 52.3101 52.68C53.1201 51.57 54.1301 50.58 55.1501 49.65C56.0501 48.83 57.1301 49.1 57.6201 50.21C59.6101 54.75 63.3001 56.57 68.0201 56.76C71.1001 56.88 74.1901 56.92 77.2601 57.1C80.6901 57.3 83.5701 58.8 86.0501 61.12C86.1401 61.2 86.2201 61.29 86.3101 61.36C87.9101 62.46 88.6601 63.95 88.4401 65.9C88.4201 66.1 88.4701 66.3 88.4901 66.48C88.5901 66.52 88.6401 66.57 88.6901 66.56C91.3801 66.43 92.7701 67.5 93.3101 70.15C93.8401 72.75 93.7801 75.33 92.9801 77.87C92.0701 80.74 90.2001 82.71 87.3501 83.71C86.8401 83.89 86.5901 84.14 86.4401 84.65C85.2501 88.72 83.1701 92.3 80.3801 95.49C80.1701 95.73 79.9701 96.1 79.9701 96.41C79.9401 99.58 79.9501 102.75 79.9601 105.91C79.9601 106.05 80.0002 106.19 80.0302 106.45C81.9702 106.25 83.8701 106.05 85.8101 105.85C85.6801 105.14 85.5801 104.56 85.4601 103.99C85.2601 102.99 85.0501 102.12 84.1101 101.38C82.5301 100.14 82.5901 98.11 84.2601 97C85.6601 96.07 87.2701 95.31 88.8901 94.87C91.1901 94.25 93.6001 93.98 95.9601 93.57C96.2401 93.52 96.5301 93.51 96.7201 93.49C96.5801 91.64 96.2501 89.87 96.3701 88.12C96.6201 84.26 97.1001 80.41 97.4701 76.55C97.7001 74.19 97.9001 71.84 98.1201 69.48C98.1401 69.24 98.1301 69 98.1701 68.77C98.3201 67.86 98.9801 67.33 99.8401 67.41C100.66 67.48 101.23 68.08 101.17 68.99C101.05 71.06 100.88 73.12 100.69 75.18C100.26 79.63 99.7501 84.06 99.4001 88.51C99.3001 89.75 99.6201 91.03 99.7601 92.29C99.8401 92.98 100.16 93.24 100.93 93.22C105.69 93.12 110.42 93.43 115.08 94.43C116.38 94.71 117.66 95.11 118.91 95.56C120.44 96.11 121.76 96.98 122.51 98.51C122.51 98.92 122.51 99.34 122.51 99.75C122.17 100.29 121.95 101.03 121.46 101.33C120.37 102 120.24 103.03 120.03 104.09C119.88 104.87 119.7 105.65 119.56 106.44C118.89 110.21 117.74 113.91 117.89 117.82C117.94 118.99 117.35 120.02 116.44 120.75C115.81 121.25 115.03 121.56 114.31 121.96C106.6 121.96 98.8801 121.96 91.1701 121.96C88.3701 120.99 87.5201 118.97 87.5201 116.11C87.5201 113.69 86.9101 111.27 86.5701 108.82C84.2801 109.04 82.1901 109.23 80.1101 109.47C79.9101 109.49 79.7001 109.84 79.5901 110.07C78.7601 111.85 77.3601 112.84 75.4101 112.86C70.8701 112.9 66.3401 112.9 61.8001 112.86C60.0401 112.84 58.5901 112.05 57.8501 110.44C57.4301 109.53 56.8601 109.39 56.0201 109.33C51.8801 109.03 47.7901 108.4 43.7501 107.4C38.6301 106.13 34.5201 103.41 31.3701 99.21C31.4001 99 31.4001 98.76 31.4001 98.52ZM55.7501 53.21C53.6601 55.57 52.6401 58.31 52.2401 61.25C51.3701 67.72 51.6201 74.2 52.8301 80.6C53.7301 85.38 55.6101 89.78 58.9601 93.4C63.9301 98.76 71.9501 99.12 77.3301 94.27C79.7301 92.1 81.3501 89.38 82.5801 86.44C85.4701 79.54 85.5201 72.26 85.3701 64.96C85.3701 64.77 85.2701 64.54 85.1401 64.41C83.0101 62.22 80.6501 60.38 77.4701 60.17C74.2501 59.96 71.0101 60.02 67.7901 59.76C65.8901 59.6 63.9701 59.23 62.1701 58.62C59.4201 57.68 57.3601 55.76 55.7501 53.21ZM90.6601 115.92C90.6601 116.3 90.6601 116.58 90.6601 116.87C90.6601 118.47 91.1301 118.94 92.7101 118.95C94.1901 118.95 95.6701 118.95 97.1601 118.95C102.47 118.95 107.77 118.95 113.08 118.95C114.29 118.95 114.98 118.44 114.92 117.4C114.72 114.09 115.65 110.96 116.25 107.77C116.51 106.39 116.79 105.02 117.09 103.54C107.5 105.85 98.0601 105.84 88.5101 103.54C89.1601 106.75 89.7701 109.8 90.3901 112.89C90.8101 112.89 91.1301 112.89 91.4501 112.89C96.0201 112.89 100.58 112.89 105.15 112.89C105.45 112.89 105.75 112.87 106.04 112.91C106.82 113.02 107.27 113.51 107.34 114.26C107.41 114.98 107.07 115.54 106.37 115.77C106.02 115.89 105.62 115.9 105.24 115.9C100.73 115.91 96.2301 115.91 91.7201 115.91C91.3901 115.92 91.0701 115.92 90.6601 115.92ZM60.3701 98.45C60.3401 98.8 60.3101 99.02 60.3101 99.25C60.3101 102.12 60.3101 104.99 60.3301 107.86C60.3401 109.39 60.8301 109.87 62.3701 109.87C66.5501 109.87 70.7301 109.87 74.9101 109.87C76.4401 109.87 76.9401 109.36 76.9401 107.85C76.9401 104.98 76.9401 102.11 76.9401 99.24C76.9401 99 76.9001 98.75 76.8701 98.41C74.2501 99.89 71.5601 100.67 68.6501 100.69C65.7301 100.7 63.0101 99.91 60.3701 98.45ZM86.2301 98.95C86.2501 99.07 86.2701 99.18 86.2901 99.3C86.4801 99.43 86.6601 99.6 86.8701 99.69C87.5201 99.97 88.1701 100.27 88.8501 100.47C94.5801 102.17 100.46 102.45 106.38 102.15C110.09 101.96 113.76 101.5 117.3 100.29C118.01 100.05 118.68 99.69 119.36 99.38C119.36 99.27 119.36 99.16 119.37 99.05C118.49 98.69 117.63 98.23 116.71 97.98C107.95 95.61 99.1301 95.63 90.3001 97.59C88.9101 97.9 87.5801 98.49 86.2301 98.95ZM87.6201 80.37C88.1701 79.87 88.6001 79.59 88.8901 79.2C90.9701 76.43 91.0001 73.34 90.1701 70.16C90.1101 69.91 89.6301 69.61 89.3501 69.61C88.9001 69.62 88.4601 69.82 88.4501 70.47C88.4201 71.86 88.3601 73.25 88.2401 74.64C88.0701 76.47 87.8401 78.29 87.6201 80.37ZM49.6201 80.27C49.5801 79.82 49.5602 79.53 49.5302 79.23C49.2902 76.41 49.0001 73.6 48.8301 70.77C48.7801 70.04 48.5301 69.67 47.8601 69.57C47.1401 69.46 47.0401 70.06 46.9201 70.51C46.4501 72.4 46.4701 74.31 46.9001 76.21C47.2701 77.84 48.0101 79.25 49.6201 80.27Z" fill="#466142"/>
<path d="M122.54 69.5599C122.28 70.2999 122.1 71.0999 121.73 71.7799C119.83 75.3099 115.08 76.0199 112.17 73.1899C109.85 70.9399 107.58 68.6399 105.31 66.3499C102.67 63.6799 99.51 62.1199 95.76 61.7199C93.37 61.4599 91.23 60.5799 89.42 58.9699C88.4 58.0599 87.44 57.0999 86.47 56.1399C85.8 55.4799 85.5401 54.6699 85.5301 53.7299C85.5301 53.3699 85.37 52.9299 85.13 52.6799C83.16 50.6699 81.14 48.7099 79.19 46.6899C78.82 46.3099 78.5 45.6499 78.54 45.1599C78.58 44.7299 79.1201 44.0899 79.5301 43.9999C80.0301 43.8999 80.79 44.1099 81.18 44.4699C83.1 46.2699 84.94 48.1599 86.8 50.0299C87.03 50.2599 87.17 50.5699 87.36 50.8699C88.22 49.9999 88.88 49.3199 89.62 48.5699C89.45 48.3899 89.26 48.1799 89.06 47.9799C87.22 46.1399 85.3701 44.2999 83.5301 42.4499C82.6901 41.5999 82.59 40.7099 83.26 40.0499C83.94 39.3699 84.81 39.4599 85.67 40.3099C87.71 42.3399 89.73 44.3699 91.79 46.4199C92.5 45.6899 93.18 45.0099 94 44.1799C93.09 43.3199 92.15 42.4699 91.25 41.5799C90.04 40.3999 88.85 39.2099 87.67 37.9999C86.97 37.2799 86.94 36.4199 87.54 35.7899C88.18 35.1199 89.06 35.1299 89.82 35.8799C91.91 37.9399 93.9701 40.0199 96.0901 42.1299C96.7601 41.3899 97.4 40.6699 98.1 39.8899C98.01 39.7899 97.8101 39.5499 97.5901 39.3299C95.7901 37.5299 93.98 35.7299 92.18 33.9299C91.27 33.0199 91.17 32.1599 91.88 31.4599C92.59 30.7699 93.42 30.8799 94.35 31.8099C96.26 33.7099 98.18 35.6099 100.07 37.5299C100.47 37.9299 100.86 38.0899 101.45 38.1299C102.15 38.1899 102.98 38.3899 103.47 38.8399C104.79 40.0599 106.04 41.3799 107.18 42.7799C108.58 44.5099 109.11 46.6099 109.38 48.7799C109.8 52.1899 111.28 55.0899 113.69 57.5299C115.61 59.4699 117.51 61.4199 119.49 63.2999C120.93 64.6699 122.18 66.1199 122.58 68.1299C122.54 68.6099 122.54 69.0899 122.54 69.5599ZM101.62 41.2999C97.33 45.5799 93.06 49.8399 88.74 54.1699C89.68 55.0399 90.66 56.0199 91.72 56.9199C92.97 57.9799 94.47 58.5499 96.1 58.7199C100.55 59.1899 104.32 61.0399 107.46 64.2099C109.71 66.4799 111.99 68.7299 114.25 70.9899C115.18 71.9099 116.29 72.1699 117.52 71.7899C118.68 71.4299 119.32 70.5599 119.46 69.3799C119.6 68.2799 119.2 67.3599 118.41 66.5799C116.08 64.2599 113.74 61.9499 111.43 59.6099C108.66 56.8099 106.79 53.4599 106.41 49.5499C106.06 45.8799 104.09 43.3899 101.62 41.2999Z" fill="#466142"/>
</svg>
