<svg width="151" height="150" viewBox="0 0 151 150" fill="none" xmlns="http://www.w3.org/2000/svg">
<path d="M75.3299 0C116.69 0 150.09 33.41 150.13 74.83C150.17 116.31 116.6 149.86 75.1399 149.77C33.5799 149.68 0.30989 116.27 0.34989 74.65C0.39989 33.31 33.8499 0 75.3299 0ZM107.48 120.89C81.5499 94.59 55.6899 68.36 29.7999 42.1C16.0499 59.26 13.2399 90.54 33.6399 112.85C54.2999 135.44 87.1899 136.22 107.48 120.89ZM43.7099 28.36C69.6899 54.36 95.7399 80.42 121.74 106.44C136.33 86.3 135.46 54.9 114.49 34.51C93.5799 14.17 62.6899 14.38 43.7099 28.36Z" fill="#DEDEDE"/>
<path d="M76.1598 27.7998C77.9598 28.4598 79.3198 29.5698 79.6098 31.5798C79.7298 32.3898 79.6598 33.2298 79.6598 34.0598C79.6698 35.4998 79.6798 36.9398 79.6498 38.3798C79.5998 40.8398 77.6698 42.7298 75.2298 42.7298C72.7898 42.7298 70.8498 40.8398 70.8098 38.3798C70.7798 36.3898 70.7898 34.3998 70.7998 32.3998C70.8098 30.2598 71.9098 28.7198 73.9098 27.9998C74.0498 27.9498 74.1698 27.8698 74.2998 27.7998C74.9298 27.7998 75.5498 27.7998 76.1598 27.7998ZM76.8998 35.3198C76.8998 34.3398 76.9098 33.3598 76.8998 32.3798C76.8798 31.2898 76.2098 30.5698 75.2498 30.5598C74.2898 30.5498 73.5898 31.2798 73.5798 32.3598C73.5598 34.2898 73.5598 36.2198 73.5798 38.1498C73.5898 39.2498 74.2498 39.9498 75.2298 39.9598C76.2098 39.9598 76.8798 39.2698 76.8998 38.1698C76.9198 37.2198 76.8998 36.2698 76.8998 35.3198Z" fill="#466142"/>
<path d="M122.42 75.8099C121.75 77.6099 120.65 78.9699 118.64 79.2499C117.83 79.3699 116.99 79.2999 116.16 79.2999C114.72 79.3099 113.27 79.3199 111.83 79.2899C109.36 79.2399 107.47 77.3099 107.47 74.8699C107.47 72.4299 109.36 70.4999 111.83 70.4599C113.79 70.4299 115.76 70.4499 117.73 70.4499C120 70.4599 121.49 71.5199 122.25 73.6499C122.29 73.7599 122.37 73.8499 122.43 73.9499C122.42 74.5799 122.42 75.1899 122.42 75.8099ZM114.95 76.5499C115.93 76.5499 116.91 76.5699 117.9 76.5399C118.93 76.5099 119.64 75.8399 119.65 74.9199C119.67 73.9599 118.94 73.2499 117.87 73.2299C115.91 73.2099 113.94 73.2099 111.98 73.2299C110.94 73.2399 110.26 73.9099 110.24 74.8499C110.22 75.8399 110.92 76.5099 112.01 76.5399C112.98 76.5599 113.97 76.5499 114.95 76.5499Z" fill="#466142"/>
<path d="M28.0598 73.9698C28.6998 72.2398 29.7398 70.9098 31.6598 70.5598C32.3498 70.4298 33.0698 70.4798 33.7698 70.4798C35.3698 70.4698 36.9598 70.4598 38.5598 70.4798C41.0998 70.5098 43.0098 72.4198 43.0098 74.8998C43.0098 77.3698 41.0998 79.2898 38.5598 79.3198C36.6298 79.3398 34.6898 79.3298 32.7598 79.3198C30.4898 79.3098 28.9898 78.2398 28.2298 76.1198C28.1898 76.0098 28.1098 75.9198 28.0498 75.8198C28.0598 75.1898 28.0598 74.5798 28.0598 73.9698ZM35.5798 73.2298C34.5698 73.2298 33.5498 73.2098 32.5398 73.2398C31.5298 73.2698 30.8198 73.9798 30.8298 74.8998C30.8398 75.8298 31.5398 76.5298 32.5598 76.5398C34.5498 76.5598 36.5498 76.5698 38.5398 76.5398C39.5698 76.5298 40.2398 75.8298 40.2398 74.8798C40.2398 73.9298 39.5598 73.2598 38.5198 73.2298C37.5498 73.2098 36.5598 73.2298 35.5798 73.2298Z" fill="#466142"/>
<path d="M75.2699 46.0698C89.5399 46.1698 101.6 56.4998 103.77 70.4898C106.17 85.9398 95.6499 100.57 80.2099 103.25C64.2999 106.01 49.2798 95.3698 46.7398 79.3498C45.4298 71.0998 47.4999 63.6098 52.6299 56.9898C53.2299 56.2098 54.0599 56.0398 54.7099 56.5298C55.3899 57.0398 55.4399 57.8698 54.7799 58.7098C52.9099 61.0998 51.4699 63.7098 50.5099 66.5898C45.3099 82.1098 55.4898 98.4698 71.7298 100.68C85.9898 102.62 99.1499 92.6198 101.07 78.3998C102.96 64.3898 93.3699 51.3898 79.3999 49.1898C71.9699 48.0198 65.2099 49.7898 59.1999 54.3498C58.0399 55.2298 57.1999 55.3098 56.6399 54.5398C56.0999 53.8098 56.3598 53.0498 57.4798 52.1898C62.7298 48.1398 68.6699 46.1598 75.2699 46.0698Z" fill="#466142"/>
<path d="M44.7798 40.2998C46.2298 40.3098 47.2798 40.7398 48.1498 41.5998C49.5898 43.0198 51.0397 44.4398 52.4397 45.8898C54.1997 47.7198 54.1798 50.4398 52.4498 52.1698C50.7198 53.8898 47.9897 53.8898 46.1597 52.1198C44.6797 50.6898 43.2097 49.2498 41.8097 47.7598C40.4797 46.3498 40.1997 44.6698 40.9897 42.9098C41.7497 41.2098 43.1498 40.3798 44.7798 40.2998ZM44.8697 42.8398C44.3797 43.2598 43.8497 43.5798 43.5397 44.0398C43.1197 44.6698 43.3198 45.3598 43.8398 45.8798C45.2598 47.3198 46.6797 48.7598 48.1297 50.1698C48.8597 50.8698 49.8698 50.8498 50.5198 50.1898C51.1598 49.5298 51.1597 48.5398 50.4397 47.7998C49.0697 46.3998 47.6898 45.0098 46.2698 43.6498C45.9398 43.3298 45.4597 43.1698 44.8697 42.8398Z" fill="#466142"/>
<path d="M53.7498 100.39C53.7498 101.97 53.3298 103 52.4898 103.85C51.0498 105.31 49.6098 106.79 48.1298 108.2C46.2998 109.95 43.5697 109.9 41.8497 108.14C40.1597 106.41 40.1498 103.74 41.8998 101.93C43.3698 100.41 44.8497 98.8899 46.4097 97.4599C47.8097 96.1699 49.4898 95.9699 51.1998 96.7499C52.8898 97.5299 53.6998 98.9299 53.7498 100.39ZM49.5198 98.9399C48.9798 99.1699 48.5698 99.2299 48.3298 99.4599C46.7698 100.97 45.2097 102.5 43.7197 104.07C43.1197 104.7 43.2597 105.63 43.8597 106.23C44.4597 106.82 45.3898 106.94 46.0198 106.35C47.5998 104.86 49.1597 103.33 50.6097 101.72C50.9197 101.37 50.9598 100.52 50.7598 100.04C50.5698 99.5699 49.9298 99.2799 49.5198 98.9399Z" fill="#466142"/>
<path d="M101.61 53.4798C99.2699 53.3598 97.8999 52.5398 97.1499 50.8798C96.3899 49.1998 96.5599 47.5398 97.8099 46.1698C99.3399 44.4998 100.95 42.8898 102.63 41.3598C104.29 39.8398 106.87 39.9598 108.5 41.4998C110.16 43.0598 110.45 45.6998 108.95 47.3998C107.37 49.1898 105.66 50.8798 103.87 52.4598C103.16 53.0698 102.08 53.2698 101.61 53.4798ZM107.36 44.6398C106.93 44.1398 106.62 43.5598 106.14 43.2498C105.48 42.8098 104.78 43.0698 104.23 43.6198C102.86 44.9798 101.49 46.3298 100.13 47.7098C99.3199 48.5298 99.2899 49.5398 100.01 50.2298C100.69 50.8898 101.68 50.8398 102.47 50.0698C103.83 48.7398 105.18 47.4098 106.5 46.0398C106.81 45.6998 106.99 45.2398 107.36 44.6398Z" fill="#466142"/>
<path d="M109.93 104.61C109.8 106.88 109 108.26 107.36 109.04C105.72 109.82 104.05 109.69 102.71 108.48C100.95 106.91 99.2798 105.23 97.6998 103.48C96.2298 101.85 96.4298 99.2797 97.9498 97.6997C99.4998 96.0897 102.12 95.7797 103.8 97.2497C105.64 98.8697 107.36 100.63 108.99 102.46C109.57 103.11 109.73 104.13 109.93 104.61ZM101 98.8697C100.51 99.2897 99.9498 99.5897 99.6798 100.06C99.2898 100.72 99.4898 101.42 100.05 101.98C101.44 103.37 102.81 104.76 104.22 106.13C105 106.89 106 106.89 106.67 106.19C107.32 105.52 107.31 104.56 106.58 103.81C105.21 102.41 103.83 101.02 102.41 99.6597C102.07 99.3597 101.59 99.1997 101 98.8697Z" fill="#466142"/>
<path d="M79.6698 114.53C79.6698 115.57 79.6898 116.61 79.6598 117.66C79.5998 120.09 77.6099 122 75.1899 121.98C72.8199 121.96 70.8599 120.05 70.8199 117.65C70.7899 115.57 70.7899 113.48 70.8199 111.4C70.8599 108.94 72.7998 107.05 75.2398 107.05C77.6798 107.05 79.6098 108.94 79.6598 111.4C79.6898 112.44 79.6698 113.49 79.6698 114.53ZM73.5799 114.43C73.5799 115.41 73.5699 116.39 73.5799 117.37C73.5999 118.46 74.2598 119.19 75.2198 119.21C76.1798 119.22 76.8899 118.5 76.8999 117.42C76.9199 115.46 76.9199 113.5 76.8999 111.54C76.8899 110.5 76.2199 109.82 75.2699 109.81C74.2799 109.8 73.6099 110.49 73.5899 111.58C73.5599 112.53 73.5799 113.48 73.5799 114.43Z" fill="#466142"/>
<path d="M62.7098 108.75C62.1598 109.97 61.6798 111.23 61.0298 112.39C60.6998 112.98 59.8998 113.06 59.3998 112.63C59.0298 112.31 58.6498 111.6 58.7598 111.19C59.0498 110.08 59.5098 108.98 60.0898 107.99C60.3098 107.62 61.0498 107.38 61.5498 107.38C62.1798 107.38 62.5898 108.05 62.7098 108.75Z" fill="#466142"/>
<path d="M92.0299 38.1799C91.3699 39.5899 90.8499 40.8899 90.1399 42.0799C89.9799 42.3599 89.1299 42.4099 88.6699 42.2799C88.0499 42.1099 87.7499 41.4799 87.9599 40.8699C88.3499 39.7199 88.7799 38.5599 89.3899 37.5099C89.5899 37.1599 90.4199 36.9599 90.8899 37.0599C91.2999 37.1499 91.6099 37.7399 92.0299 38.1799Z" fill="#466142"/>
<path d="M60.8698 42.48C60.6598 42.28 60.1698 41.98 59.9398 41.55C59.4798 40.69 59.1498 39.76 58.7998 38.85C58.5198 38.1 58.8098 37.36 59.4498 37.06C60.1398 36.74 60.9498 37.01 61.2998 37.77C61.7298 38.68 62.1298 39.61 62.4698 40.56C62.8298 41.56 62.1598 42.52 60.8698 42.48Z" fill="#466142"/>
<path d="M41.5198 62.4696C40.0998 61.8296 38.8397 61.3596 37.6697 60.7096C37.0797 60.3796 36.9897 59.5896 37.4197 59.0896C37.7397 58.7196 38.4497 58.3396 38.8597 58.4396C39.9797 58.7296 41.0498 59.2296 42.0898 59.7396C42.6898 60.0296 42.9997 60.6696 42.6797 61.2896C42.4297 61.7396 41.9298 62.0596 41.5198 62.4696Z" fill="#466142"/>
<path d="M112.02 58.1499C112.45 58.5499 113.05 58.8499 113.14 59.2699C113.25 59.7299 113.05 60.5799 112.71 60.7699C111.63 61.3799 110.44 61.8199 109.25 62.2099C108.64 62.4099 108.01 62.0599 107.88 61.4299C107.78 60.9599 107.87 60.1399 108.16 59.9699C109.34 59.2899 110.62 58.7899 112.02 58.1499Z" fill="#466142"/>
<path d="M113.27 89.7597C113.26 90.9897 112.39 91.6497 111.49 91.3397C110.48 90.9897 109.48 90.5797 108.52 90.1097C107.84 89.7897 107.54 89.1997 107.81 88.4297C108.06 87.7097 108.75 87.3297 109.52 87.5897C110.56 87.9497 111.59 88.3698 112.56 88.8698C112.93 89.0698 113.14 89.5797 113.27 89.7597Z" fill="#466142"/>
<path d="M90.0597 112.83C89.8597 112.64 89.3697 112.35 89.1397 111.92C88.6897 111.09 88.3698 110.19 88.0298 109.3C87.6998 108.43 88.0097 107.71 88.7697 107.4C89.4897 107.11 90.1797 107.41 90.5497 108.23C90.9597 109.15 91.3697 110.08 91.6997 111.03C92.0397 111.98 91.3597 112.87 90.0597 112.83Z" fill="#466142"/>
<path d="M38.4498 91.6497C38.0298 91.2197 37.4298 90.8797 37.3398 90.4397C37.2398 89.9897 37.4898 89.1697 37.8498 88.9597C38.8698 88.3697 40.0098 87.9597 41.1398 87.5797C41.7498 87.3697 42.2898 87.6697 42.6098 88.2497C42.9298 88.8297 42.8898 89.5197 42.3598 89.8197C41.1598 90.4897 39.8798 90.9897 38.4498 91.6497Z" fill="#466142"/>
</svg>
