<svg width="150" height="150" viewBox="0 0 150 150" fill="none" xmlns="http://www.w3.org/2000/svg">
<path d="M74.97 0C116.33 0 149.73 33.41 149.77 74.83C149.81 116.31 116.24 149.86 74.78 149.77C33.22 149.68 -0.039964 116.27 3.60415e-05 74.65C0.040036 33.31 33.5 0 74.97 0ZM107.13 120.89C81.2 94.59 55.34 68.35 29.45 42.1C15.7 59.25 12.9 90.54 33.29 112.84C53.95 135.44 86.84 136.22 107.13 120.89ZM43.35 28.36C69.33 54.36 95.38 80.42 121.38 106.44C135.97 86.3 135.1 54.9 114.13 34.51C93.23 14.17 62.33 14.38 43.35 28.36Z" fill="#DEDEDE"/>
<path d="M117.22 40.9098C117.05 43.0398 115.93 44.6898 114.63 46.2998C109.6 52.5698 104.61 58.8698 99.6099 65.1598C98.7599 66.2298 97.9999 66.4898 97.3099 65.9598C96.5999 65.4098 96.6699 64.6198 97.5199 63.5398C100.49 59.7998 103.47 56.0498 106.45 52.3198C106.65 52.0698 106.92 51.8598 107.08 51.7098C103.64 48.9598 100.34 46.3298 96.9999 43.6598C96.8899 43.7898 96.6999 44.0098 96.5099 44.2398C92.3599 49.4498 88.2199 54.6798 84.0499 59.8698C83.5899 60.4498 83.5399 60.8498 83.9899 61.4098C84.2899 61.7798 84.5299 62.1998 84.7499 62.6198C85.1099 63.3198 84.9399 64.0998 84.3199 64.4198C83.6599 64.7598 83.0199 64.6698 82.5699 64.0398C82.0499 63.3098 81.6099 62.5298 81.0999 61.7898C80.1599 60.4298 78.6599 60.0298 77.2599 60.8998C73.1899 63.4398 69.1599 66.0498 65.1099 68.6298C65.0599 68.6598 65.0399 68.7198 64.8299 68.9698C65.3299 68.7398 65.6099 68.6098 65.8799 68.4798C69.0399 66.9498 72.2099 65.4098 75.3699 63.8798C76.6499 63.2598 77.0999 63.3998 77.8799 64.6098C78.6199 65.7698 79.3299 66.9398 80.0899 68.0898C81.2199 69.7698 82.9899 69.6898 83.9999 67.9198C84.5199 67.0098 85.1599 66.7298 85.8799 67.0998C86.5899 67.4698 86.7599 68.1798 86.3599 69.1198C84.9599 72.3698 80.4999 72.9398 78.2999 70.1398C77.9199 69.6498 77.5899 69.1198 77.2699 68.6598C76.1299 70.0898 74.9999 71.5098 73.9399 72.8398C77.1699 75.4098 80.4699 78.0498 83.8199 80.7198C83.9199 80.5998 84.1299 80.3598 84.3399 80.1098C87.3199 76.3698 90.2899 72.6298 93.2699 68.8898C93.4899 68.6098 93.7199 68.2198 94.0099 68.1398C94.4799 68.0198 95.0799 67.9698 95.4899 68.1698C96.0399 68.4298 96.1999 69.0498 95.9299 69.6498C95.7799 69.9698 95.5599 70.2598 95.3399 70.5398C92.2399 74.4498 89.1299 78.3598 86.0199 82.2498C85.6999 82.6498 85.6699 82.9898 85.6999 83.5198C85.7499 84.2598 85.5899 85.1698 85.1699 85.7698C84.1299 87.2998 82.9299 88.7198 81.7299 90.1298C80.2499 91.8698 78.2899 92.3098 76.1499 91.3998C75.6799 91.1998 75.4699 91.3298 75.1899 91.6698C70.0299 98.1798 64.8499 104.67 59.6899 111.18C59.4799 111.45 59.3599 111.81 59.2799 112.15C59.0999 112.93 59.0199 113.74 58.8199 114.52C58.0999 117.33 55.1599 118.36 52.8499 116.62C52.0399 116.01 51.2899 115.32 50.2299 114.42C49.7399 115.18 49.3699 115.86 48.8999 116.46C47.5099 118.22 43.9799 119.02 41.9499 118.06C40.4899 117.37 39.7999 116.14 39.6099 114.59C39.4399 113.22 39.3099 111.85 39.1399 110.49C38.9999 109.34 38.4899 108.93 37.3299 109.03C36.3199 109.12 35.3099 109.26 34.2999 109.36C33.3099 109.46 32.6499 109.03 32.5599 108.25C32.4699 107.48 32.9999 106.87 33.9899 106.75C35.2299 106.59 36.4799 106.42 37.7299 106.4C39.8399 106.35 41.4299 107.76 41.7199 109.86C41.9199 111.28 42.0499 112.71 42.2199 114.14C42.3799 115.48 42.9099 115.75 44.2599 115.8C46.3299 115.87 47.2299 114.47 48.2699 112.93C47.5199 112.35 46.7499 111.79 46.0199 111.19C43.4699 109.1 43.8899 105.76 46.9499 104.55C48.6299 103.89 49.8599 102.87 50.9599 101.46C55.5699 95.5498 60.2699 89.6998 64.9499 83.8398C65.3699 83.3198 65.4199 83.0098 65.0099 82.3998C63.8699 80.7498 63.7899 78.9298 64.9299 77.2798C66.1099 75.5598 67.4299 73.9198 68.8299 72.3698C69.2799 71.8698 70.1799 71.7698 70.8799 71.4998C71.0799 71.4198 71.4099 71.4898 71.5199 71.3598C72.6099 70.0298 73.6699 68.6798 74.6299 67.1998C73.8299 67.5898 73.0399 67.9698 72.2399 68.3598C70.1799 69.3598 68.0999 70.3498 66.0499 71.3798C65.6399 71.5898 65.2499 71.8998 64.9599 72.2498C63.2599 74.3398 61.6199 76.4698 59.9199 78.5498C58.2199 80.6198 55.3399 80.6298 53.8099 78.6398C52.8399 77.3798 52.6699 75.5798 53.6199 74.2798C54.9899 72.3998 56.4799 70.5998 57.9799 68.8198C58.8099 67.8398 59.9699 67.4798 61.2499 67.4398C61.7199 67.4298 62.2499 67.2598 62.6499 66.9998C66.8199 64.3798 70.9799 61.7598 75.0999 59.0798C77.2099 57.6998 79.3199 57.3598 81.8599 58.7698C81.9999 58.4698 82.1099 58.0998 82.3199 57.8198C88.6199 49.8898 94.9199 41.9598 101.23 34.0398C101.45 33.7598 101.67 33.4698 101.94 33.2298C102.51 32.7098 103.14 32.6998 103.71 33.2098C104.25 33.6898 104.32 34.3098 103.89 34.9098C103.39 35.6098 102.83 36.2798 102.29 36.9598C101.12 38.4298 99.9499 39.8898 98.8199 41.2998C102.19 43.9798 105.48 46.5998 108.83 49.2698C108.96 49.1098 109.17 48.8698 109.37 48.6198C110.77 46.8698 112.19 45.1298 113.55 43.3498C114.99 41.4698 114.74 39.2898 112.92 37.7798C111.68 36.7498 110.42 35.7298 109.13 34.7698C108.64 34.3998 108.04 34.1698 107.47 33.9098C106.63 33.5298 106.29 32.8698 106.58 32.1298C106.85 31.4398 107.52 31.1498 108.37 31.4498C108.96 31.6498 109.58 31.8598 110.06 32.2298C111.73 33.4798 113.46 34.6898 114.95 36.1398C115.83 36.9898 116.33 38.2598 116.99 39.3398C117.1 39.8398 117.16 40.3698 117.22 40.9098ZM60.4499 93.9298C61.1399 94.6598 62.6099 95.2398 61.5999 96.5498C60.5399 97.9198 59.6299 96.5398 58.8199 96.0998C57.8799 97.2798 56.9799 98.4098 56.0499 99.5798C56.6999 100.28 58.1999 100.9 57.0899 102.22C56.0199 103.49 55.1599 102.12 54.3199 101.68C53.5899 102.61 52.8699 103.51 52.2799 104.26C54.1799 105.78 56.1199 107.34 58.0099 108.87C58.6499 108.07 59.3599 107.2 60.0899 106.3C59.4199 105.53 57.9099 104.99 58.8899 103.67C59.9599 102.23 60.8999 103.71 61.7499 104.11C62.6999 102.92 63.5799 101.81 64.5099 100.64C63.8599 99.9398 62.3699 99.3798 63.3399 98.0598C64.4199 96.6098 65.3499 98.0998 66.3799 98.5798C66.8299 97.9898 67.2499 97.4098 67.6899 96.8498C68.1399 96.2698 68.5999 95.6998 69.0399 95.1398C67.4599 93.6598 67.1899 93.1198 67.7699 92.4498C68.9599 91.0798 69.7999 92.4798 70.6399 92.8998C71.5799 91.6998 72.4799 90.5598 73.3499 89.4598C71.4799 87.9698 69.5499 86.4198 67.7299 84.9598C66.8299 86.0798 65.8999 87.2298 64.9599 88.3898C65.5699 89.0698 67.0299 89.5998 66.0899 90.8898C65.0299 92.3498 64.0799 90.9398 63.1999 90.4698C62.2699 91.6198 61.3899 92.7398 60.4499 93.9298ZM70.7499 74.2698C69.5599 75.7098 68.3399 77.0998 67.2399 78.5798C66.5299 79.5398 66.6899 80.5898 67.6499 81.3698C70.6799 83.8398 73.7399 86.2798 76.8199 88.6898C77.8299 89.4798 78.8999 89.2998 79.7599 88.3498C80.1999 87.8598 80.5899 87.3298 80.9999 86.8198C81.7199 85.9198 82.4299 85.0198 83.1199 84.1498C78.9299 80.7998 74.8499 77.5498 70.7499 74.2698ZM55.4299 114.97C55.7399 114.57 56.0999 114.26 56.2399 113.87C56.4399 113.35 56.4399 112.76 56.5899 112.21C56.7199 111.71 56.5799 111.39 56.1699 111.08C54.6099 109.87 53.0799 108.63 51.5399 107.4C49.8099 106.02 49.8099 106.02 47.8399 107C46.8499 107.49 46.7399 108.33 47.6099 109.03C49.8399 110.83 52.0799 112.62 54.3299 114.4C54.5999 114.61 54.9399 114.72 55.4299 114.97ZM62.7399 70.7798C61.5499 69.8398 60.5599 69.8098 59.7599 70.7598C58.4399 72.2998 57.1999 73.9098 55.9599 75.5198C55.5199 76.0898 55.5499 76.7298 56.1499 77.1898C56.7399 77.6498 57.3499 77.4898 57.8099 76.9398C58.5999 75.9998 59.3399 75.0298 60.1099 74.0698C60.9699 72.9898 61.8399 71.8998 62.7399 70.7798Z" fill="#466142"/>
<path d="M83.0698 66.6096C83.1398 67.3296 82.6198 67.9796 81.9098 68.0496C81.1598 68.1296 80.4598 67.5496 80.3698 66.7496C80.2798 66.0396 80.8098 65.3896 81.5298 65.3096C82.2598 65.2396 82.9998 65.8596 83.0698 66.6096Z" fill="#466142"/>
</svg>
