<svg width="150" height="150" viewBox="0 0 150 150" fill="none" xmlns="http://www.w3.org/2000/svg">
<path d="M75.0899 0C116.45 0 149.85 33.41 149.89 74.83C149.93 116.31 116.36 149.86 74.8999 149.77C33.3399 149.68 0.0698993 116.27 0.109899 74.65C0.159899 33.31 33.6199 0 75.0899 0ZM107.25 120.89C81.3199 94.59 55.4599 68.36 29.5699 42.1C15.8199 59.26 13.0099 90.54 33.4099 112.85C54.0699 135.44 86.9599 136.22 107.25 120.89ZM43.4699 28.36C69.4499 54.36 95.4999 80.42 121.5 106.44C136.09 86.3 135.22 54.9 114.25 34.51C93.3399 14.17 62.4499 14.38 43.4699 28.36Z" fill="#DEDEDE"/>
<path d="M28.4699 109.81C27.7699 108.97 27.8399 108.15 28.3899 107.23C29.7099 105.07 31.1999 103.07 33.3399 101.67C35.8999 100 38.5599 99.75 41.2699 101.3C42.5799 102.05 43.3599 103.27 43.9799 104.59C44.4999 105.71 44.9699 106.87 45.5199 107.97C46.9599 110.85 50.0899 113.33 53.0299 113.94C53.2799 113.11 53.5599 112.28 53.7699 111.42C53.8099 111.25 53.6299 110.93 53.4599 110.8C50.1799 108.29 49.2599 105.48 50.4599 101.55C57.0799 79.79 63.7099 58.03 70.3299 36.27C71.4799 32.5 74.38 30.17 77.9799 30.45C79.6799 30.58 81.3599 31.2 83.0099 31.72C83.3799 31.84 83.7699 32.44 83.8199 32.86C83.8899 33.43 84.1599 33.54 84.5899 33.74C85.5099 34.17 86.5299 34.54 87.2399 35.22C88.5699 36.49 88.73 38.16 88.2 39.9C86.86 44.3 85.5199 48.71 84.1799 53.11C82.3599 59.09 80.5399 65.08 78.7099 71.06C77.9899 73.42 76.0099 74.84 73.8299 74.55C73.0799 74.45 72.3499 74.21 71.5599 74.02C69.5199 80.74 67.4799 87.41 65.4599 94.06C66.3699 94.65 67.2599 95.24 68.2799 95.91C74.1599 90.04 80.13 84.08 86.14 78.07C85.83 77.75 85.5799 77.47 85.3099 77.2C83.2299 75.08 83.2399 72.42 85.3499 70.31C91.3699 64.29 97.3999 58.27 103.43 52.26C105.08 50.62 106.72 48.97 108.37 47.33C110.47 45.23 113.15 45.22 115.25 47.33C115.72 47.8 116.11 48.25 116.87 47.79C117.1 47.65 117.63 47.75 117.86 47.93C119.79 49.48 121.54 51.18 121.93 53.81C122.32 56.45 121.52 58.69 119.67 60.58C114.86 65.48 110.05 70.38 105.25 75.28C92.7299 88.05 80.1899 100.8 67.6999 113.6C66.6699 114.66 65.7199 115.06 64.3599 114.45C63.8099 114.2 63.1999 114.08 62.5299 113.88C62.1399 115.18 61.7299 116.37 61.4099 117.59C61.1699 118.5 60.6899 119.11 59.7799 119.36C57.0699 118.54 54.3599 117.71 51.6499 116.89C51.3699 116.75 51.0899 116.58 50.7999 116.46C46.9799 114.87 44.0399 112.35 42.3699 108.49C41.8899 107.38 41.4299 106.26 40.8499 105.2C40.0499 103.72 38.5199 103.03 36.8899 103.43C36.1599 103.61 35.4399 103.95 34.8199 104.36C33.1699 105.46 32.0099 107.02 31.0299 108.72C30.6499 109.39 30.2199 109.92 29.4599 110.13C29.1399 110.01 28.8099 109.91 28.4699 109.81ZM60.5799 110.1C60.5499 108.67 60.4899 107.33 60.5099 105.99C60.5199 105.45 60.4299 105.11 59.9599 104.75C58.1199 103.35 57.3099 101.45 57.6299 99.16C57.9599 96.81 59.2799 95.15 61.5199 94.32C62.0999 94.11 62.3399 93.79 62.5099 93.24C68.4099 73.82 74.32 54.4 80.2299 34.98C80.3199 34.68 80.3899 34.38 80.4599 34.09C79.6899 33.85 79.0199 33.55 78.3399 33.46C75.8799 33.14 74.0399 34.51 73.2299 37.2C66.5999 58.96 59.9799 80.72 53.3599 102.48C53.2699 102.76 53.1899 103.04 53.1199 103.33C52.5999 105.71 53.7599 107.88 56.0499 108.7C57.5499 109.24 59.0899 109.65 60.5799 110.1ZM117.17 51.36C116.02 52.51 114.92 53.61 113.81 54.71C99.2599 69.24 84.7099 83.77 70.1599 98.29C69.7599 98.69 69.5799 99.05 69.6099 99.66C69.7699 102.36 68.0999 104.8 65.5599 105.65C64.9299 105.86 64.2499 105.94 63.5099 106.1C63.3799 107.73 63.3399 109.37 64.5099 110.75C65.2199 111.59 65.3999 111.58 66.1599 110.81C74.4899 102.32 82.8299 93.82 91.1599 85.33C99.9299 76.39 108.69 67.46 117.46 58.52C119.67 56.26 119.58 53.41 117.17 51.36ZM113.95 50.31C113.77 50.11 113.63 49.95 113.49 49.81C112.13 48.42 111.58 48.41 110.21 49.78C105.25 54.73 100.29 59.69 95.3199 64.65C92.7799 67.19 90.2299 69.73 87.6799 72.27C86.4999 73.45 86.5099 74.11 87.7099 75.31C87.8899 75.49 88.0899 75.67 88.3299 75.9C96.8699 67.37 105.37 58.87 113.95 50.31ZM83.0199 36.42C79.4999 47.99 75.9999 59.48 72.4999 70.96C74.5999 72.02 75.3799 71.69 76.0399 69.53C79.0899 59.52 82.1399 49.5 85.1799 39.49C85.2799 39.15 85.3999 38.81 85.4399 38.46C85.5199 37.7 85.2199 37.13 84.4799 36.86C84.0199 36.7 83.5399 36.58 83.0199 36.42ZM62.6899 102.83C64.2799 103.33 65.9999 102.44 66.4899 100.85C66.9799 99.27 66.0599 97.55 64.4699 97.07C62.8899 96.59 61.2499 97.45 60.7399 99.03C60.2299 100.64 61.0899 102.33 62.6899 102.83ZM55.9499 114.94C56.9099 115.23 57.8199 115.51 58.7499 115.79C59.0399 114.84 59.3099 113.95 59.5899 113.03C58.6299 112.74 57.7199 112.46 56.7899 112.18C56.4999 113.13 56.2299 114.02 55.9499 114.94Z" fill="#466142"/>
</svg>
