<svg width="151" height="150" viewBox="0 0 151 150" fill="none" xmlns="http://www.w3.org/2000/svg">
<path d="M75.21 0C116.57 0 149.97 33.41 150.01 74.83C150.05 116.31 116.48 149.86 75.02 149.77C33.46 149.68 0.190017 116.27 0.230016 74.65C0.280017 33.31 33.74 0 75.21 0ZM107.36 120.89C81.43 94.59 55.57 68.36 29.68 42.1C15.93 59.26 13.12 90.54 33.52 112.85C54.19 135.44 87.07 136.22 107.36 120.89ZM43.59 28.36C69.57 54.36 95.62 80.42 121.62 106.44C136.21 86.3 135.34 54.9 114.37 34.51C93.46 14.17 62.57 14.38 43.59 28.36Z" fill="#DEDEDE"/>
<path d="M81.83 86.6C81.73 86.74 81.6 86.9 81.5 87.08C77.13 94.65 72.73 102.19 68.41 109.79C65.83 114.32 68.08 119.83 72.99 121.28C76.5 122.32 80.12 120.88 82.06 117.57C84.75 112.99 87.38 108.38 90.04 103.78C91.46 101.33 92.86 98.87 94.29 96.43C94.93 95.33 95.84 94.99 96.7 95.52C97.52 96.02 97.64 96.91 97.01 98C92.94 105.06 88.9 112.12 84.79 119.15C82.28 123.45 77.81 125.44 73.02 124.54C68.59 123.71 65.12 120.11 64.33 115.41C63.89 112.8 64.44 110.34 65.77 108.05C67.91 104.36 70.04 100.67 72.17 96.97C72.36 96.65 72.53 96.31 72.71 95.97C68.98 93.8 66.91 90.76 67.6 86.41C68.22 82.46 70.77 80.17 74.68 79.12C74.36 78.78 74.09 78.48 73.81 78.19C70.06 74.32 66.31 70.46 62.55 66.59C62.31 66.34 62.04 66.1 61.85 65.81C61.4 65.1 61.46 64.4 62.08 63.81C62.66 63.26 63.35 63.24 64.01 63.66C64.33 63.86 64.59 64.16 64.85 64.44C70.99 70.76 77.1 77.12 83.28 83.41C89.81 90.06 99.83 91.16 107.22 85.9C113.62 81.34 116.37 74.97 114.93 67.25C113.5 59.55 108.69 54.55 101.07 52.58C88.12 49.23 75.14 46.01 62.17 42.74C61.87 42.66 61.56 42.62 61.17 42.55C58.99 46.33 56.81 50.1 54.62 53.9C56.31 55.64 57.93 57.32 59.57 58.99C60.23 59.66 60.51 60.4 59.91 61.24C59.31 62.08 58.22 62.1 57.37 61.24C55.72 59.57 54.12 57.86 52.46 56.21C52.09 55.84 51.56 55.54 51.05 55.44C45.79 54.32 40.52 53.26 35.25 52.16C32.73 51.64 31.49 49.86 31.94 47.33C33.42 39.08 37.27 32.17 43.59 26.65C44.11 26.19 44.66 25.73 45.28 25.42C46.91 24.59 48.65 25.03 49.99 26.54C53.48 30.46 56.96 34.38 60.43 38.32C61 38.97 61.63 39.37 62.5 39.59C75.71 42.9 88.92 46.22 102.12 49.59C112.13 52.15 118.75 61.08 118.43 71.51C118.12 81.47 110.76 90.09 100.79 91.94C93.96 93.2 87.83 91.53 82.5 87.02C82.34 86.88 82.18 86.75 82.01 86.63C81.97 86.61 81.93 86.62 81.83 86.6ZM34.73 47.94C34.83 47.97 34.92 48 35.02 48.03C34.86 48.96 35.54 49.05 36.17 49.18C41.13 50.19 46.09 51.18 51.05 52.23C51.7 52.37 51.97 52.21 52.28 51.67C54.2 48.3 56.14 44.94 58.1 41.6C58.43 41.04 58.34 40.71 57.93 40.25C54.55 36.48 51.18 32.69 47.84 28.87C47.17 28.1 46.68 28.11 45.94 28.75C42.36 31.83 39.45 35.43 37.59 39.77C36.45 42.41 35.67 45.21 34.73 47.94ZM74.39 93.09C76.1 90.13 77.82 87.15 79.65 83.98C78.82 83.4 78.09 82.57 77.2 82.34C74.5 81.62 71.61 83.49 70.81 86.25C69.99 89.09 71.49 92.02 74.39 93.09Z" fill="#466142"/>
<path d="M98.8799 60.0601C105.3 60.0501 110.44 65.2201 110.5 71.7601C110.56 78.1301 105.29 83.3901 98.8199 83.4201C92.3399 83.4501 87.1099 78.2301 87.0899 71.7101C87.0799 65.2501 92.3199 60.0701 98.8799 60.0601ZM107.32 71.8401C107.34 67.0401 103.65 63.2301 98.9299 63.1901C94.1299 63.1501 90.2599 66.9301 90.2399 71.6701C90.2199 76.3901 94.0199 80.2501 98.7099 80.2701C103.49 80.2901 107.3 76.5701 107.32 71.8401Z" fill="#466142"/>
<path d="M77.6001 101.44C77.6001 98.8098 79.7101 96.7098 82.3201 96.7198C84.9101 96.7298 87.0601 98.9198 87.0201 101.5C86.9801 104.07 84.9001 106.13 82.3201 106.15C79.6901 106.16 77.6001 104.09 77.6001 101.44ZM83.8701 101.46C83.8801 100.59 83.1401 99.8798 82.2601 99.8998C81.4001 99.9198 80.7601 100.57 80.7601 101.44C80.7501 102.31 81.3801 102.96 82.2401 103C83.1201 103.02 83.8601 102.33 83.8701 101.46Z" fill="#466142"/>
<path d="M78.7801 116.31C78.1801 116.06 77.8201 115.94 77.4901 115.76C75.7301 114.76 73.9801 113.76 72.2401 112.74C71.2601 112.17 70.9601 111.29 71.4201 110.47C71.8801 109.66 72.8001 109.45 73.7701 110.01C75.6201 111.05 77.4601 112.11 79.2901 113.19C79.9901 113.6 80.3901 114.28 80.0201 115.04C79.7701 115.56 79.1801 115.92 78.7801 116.31Z" fill="#466142"/>
<path d="M97.25 65.6001C97.85 65.8401 98.21 65.9501 98.54 66.1301C100.3 67.1201 102.05 68.1301 103.79 69.1501C104.77 69.7201 105.09 70.6001 104.66 71.4101C104.21 72.2501 103.25 72.4501 102.22 71.8701C100.4 70.8401 98.6 69.7901 96.8 68.7301C96.09 68.3101 95.68 67.6501 96.03 66.8901C96.25 66.3801 96.84 66.0101 97.25 65.6001Z" fill="#466142"/>
<path d="M94.1599 71.0498C94.7599 71.3098 95.1199 71.4298 95.4399 71.6098C97.1599 72.5898 98.8799 73.5798 100.6 74.5798C101.63 75.1798 101.96 76.0798 101.47 76.9098C100.99 77.7298 100.05 77.8898 99.0099 77.2898C97.1999 76.2498 95.3899 75.2098 93.5899 74.1498C92.8799 73.7298 92.5099 73.0398 92.8899 72.2898C93.1499 71.7798 93.7399 71.4398 94.1599 71.0498Z" fill="#466142"/>
</svg>
