<svg width="170" height="160" viewBox="0 0 170 160" fill="none" xmlns="http://www.w3.org/2000/svg">
<path d="M70.7867 159.99C109.326 159.99 140.569 128.747 140.569 90.2073C140.569 51.6675 109.326 20.4248 70.7867 20.4248C32.2468 20.4248 1.00415 51.6675 1.00415 90.2073C1.00415 128.747 32.2468 159.99 70.7867 159.99Z" fill="white"/>
<path d="M102.936 66.5503C104.644 61.9648 106.342 57.3792 108.061 52.7936C108.211 52.384 108.181 52.0843 107.971 51.7047C97.6208 33.0927 107.421 9.80521 127.981 4.15068C146.204 -0.854478 165.026 10.8042 168.672 29.3863C168.912 30.5951 169.022 31.8339 169.192 33.0527C169.222 33.2425 169.271 33.4324 169.311 33.6222C169.311 35.0108 169.311 36.3995 169.311 37.7882C169.142 39.027 169.052 40.2857 168.792 41.5046C166.025 54.7218 158.182 63.4533 145.255 67.2896C136.723 69.8172 128.431 68.6083 120.599 64.3425C120.249 64.1527 119.959 64.1027 119.57 64.2526C114.844 66.0208 110.109 67.7791 105.383 69.5374C105.283 69.5774 105.203 69.6373 105.104 69.6873C104.804 69.6873 104.494 69.6873 104.194 69.6873C102.676 68.958 102.336 68.1488 102.936 66.5503Z" fill="white"/>
<path d="M124.655 43.9122C122.986 45.7704 120.778 46.6995 118.041 46.6995C115.304 46.6995 113.096 45.7704 111.427 43.9122C109.759 42.054 108.92 39.5164 108.92 36.2995C108.92 33.1026 109.749 30.605 111.408 28.8068C113.066 27.0085 115.274 26.1094 118.031 26.1094C120.788 26.1094 122.996 27.0085 124.655 28.8068C126.313 30.605 127.142 33.1026 127.142 36.2995C127.152 39.5164 126.323 42.054 124.655 43.9122ZM114.954 40.9151C115.703 42.044 116.732 42.6134 118.041 42.6134C119.35 42.6134 120.389 42.044 121.148 40.9051C121.907 39.7662 122.287 38.2277 122.287 36.2995C122.287 34.3914 121.907 32.8828 121.148 31.8039C120.389 30.7149 119.36 30.1754 118.041 30.1754C116.722 30.1754 115.693 30.7149 114.954 31.8039C114.205 32.8928 113.835 34.3914 113.835 36.2995C113.825 38.2476 114.205 39.7861 114.954 40.9151Z" fill="white"/>
<path d="M137.422 46.6996C134.745 46.6996 132.737 45.9104 131.388 44.3219C130.039 42.7435 129.37 40.2958 129.37 36.999V27.9977C129.37 27.5781 129.52 27.2185 129.83 26.9188C130.129 26.6191 130.499 26.4592 130.909 26.4592H132.577C133.017 26.4592 133.376 26.6091 133.676 26.9188C133.976 27.2185 134.116 27.5881 134.116 27.9977V37.4885C134.116 39.3268 134.385 40.6455 134.925 41.4247C135.464 42.204 136.293 42.5936 137.432 42.5936C138.571 42.5936 139.41 42.194 139.96 41.4048C140.519 40.6155 140.789 39.3068 140.789 37.4786V27.9877C140.789 27.5681 140.939 27.2085 141.249 26.9088C141.548 26.6091 141.918 26.4492 142.328 26.4492H143.836C144.266 26.4492 144.635 26.5991 144.935 26.9088C145.235 27.2085 145.375 27.5781 145.375 27.9877V36.989C145.375 40.3058 144.715 42.7534 143.407 44.3319C142.098 45.9104 140.1 46.6996 137.422 46.6996Z" fill="white"/>
<path d="M153.896 46.34C153.457 46.34 153.097 46.1902 152.798 45.8805C152.498 45.5808 152.358 45.2111 152.358 44.8015V30.6152C152.358 30.4953 152.288 30.4354 152.148 30.4354H148.522C148.082 30.4354 147.722 30.2855 147.423 29.9758C147.123 29.6761 146.983 29.3065 146.983 28.8969V28.0078C146.983 27.5882 147.133 27.2285 147.423 26.9288C147.722 26.6291 148.082 26.4692 148.522 26.4692H160.99C161.409 26.4692 161.769 26.6191 162.069 26.9288C162.368 27.2285 162.528 27.5981 162.528 28.0078V28.8969C162.528 29.3165 162.378 29.6761 162.069 29.9758C161.769 30.2756 161.399 30.4354 160.99 30.4354H157.313C157.193 30.4354 157.133 30.4953 157.133 30.6152V44.8015C157.133 45.2211 156.983 45.5808 156.674 45.8805C156.374 46.1802 156.004 46.34 155.595 46.34H153.896V46.34Z" fill="white"/>
<path d="M69.7825 157.542C108.322 157.542 139.565 126.299 139.565 87.7596C139.565 49.2197 108.322 17.9771 69.7825 17.9771C31.2427 17.9771 0 49.2197 0 87.7596C0 126.299 31.2427 157.542 69.7825 157.542Z" fill="#466142"/>
<path d="M101.931 64.5523C103.64 59.9667 105.338 55.3811 107.057 50.7956C107.206 50.386 107.176 50.0863 106.967 49.7066C96.6166 31.0946 106.417 7.80717 126.977 2.15264C145.2 -2.85252 164.021 8.8062 167.668 27.3882C167.908 28.5971 168.018 29.8359 168.187 31.0547C168.217 31.2445 168.267 31.4343 168.307 31.6241C168.307 33.0128 168.307 34.4014 168.307 35.7901C168.137 37.0289 168.048 38.2877 167.788 39.5065C165.02 52.7237 157.178 61.4553 144.251 65.2916C135.719 67.8191 127.427 66.6103 119.594 62.3444C119.245 62.1546 118.955 62.1046 118.565 62.2545C113.84 64.0228 109.105 65.7811 104.379 67.5394C104.279 67.5794 104.199 67.6393 104.099 67.6892C103.8 67.6892 103.49 67.6892 103.19 67.6892C101.672 66.96 101.332 66.1507 101.931 64.5523Z" fill="#1A1A1A"/>
<path d="M123.651 41.9141C121.982 43.7723 119.774 44.7014 117.037 44.7014C114.3 44.7014 112.092 43.7723 110.423 41.9141C108.755 40.0559 107.916 37.5184 107.916 34.3015C107.916 31.1046 108.745 28.607 110.403 26.8087C112.062 25.0105 114.27 24.1113 117.027 24.1113C119.784 24.1113 121.992 25.0105 123.651 26.8087C125.309 28.607 126.138 31.1046 126.138 34.3015C126.148 37.5184 125.319 40.0559 123.651 41.9141ZM113.95 38.917C114.699 40.0459 115.728 40.6154 117.037 40.6154C118.346 40.6154 119.385 40.0459 120.144 38.907C120.903 37.7681 121.283 36.2296 121.283 34.3015C121.283 32.3933 120.903 30.8848 120.144 29.8058C119.385 28.7169 118.356 28.1774 117.037 28.1774C115.718 28.1774 114.689 28.7169 113.95 29.8058C113.201 30.8948 112.831 32.3933 112.831 34.3015C112.821 36.2496 113.201 37.7881 113.95 38.917Z" fill="white"/>
<path d="M136.418 44.7016C133.741 44.7016 131.733 43.9124 130.384 42.3239C129.035 40.7454 128.366 38.2978 128.366 35.001V25.9997C128.366 25.5801 128.516 25.2204 128.826 24.9207C129.125 24.621 129.495 24.4612 129.904 24.4612H131.573C132.012 24.4612 132.372 24.611 132.672 24.9207C132.972 25.2204 133.111 25.5901 133.111 25.9997V35.4905C133.111 37.3287 133.381 38.6474 133.921 39.4267C134.46 40.2059 135.289 40.5956 136.428 40.5956C137.567 40.5956 138.406 40.1959 138.956 39.4067C139.515 38.6175 139.785 37.3087 139.785 35.4805V25.9897C139.785 25.5701 139.935 25.2104 140.244 24.9107C140.544 24.611 140.914 24.4512 141.323 24.4512H142.832C143.262 24.4512 143.631 24.601 143.931 24.9107C144.231 25.2104 144.37 25.5801 144.37 25.9897V34.991C144.37 38.3078 143.711 40.7554 142.402 42.3339C141.094 43.9124 139.096 44.7016 136.418 44.7016Z" fill="white"/>
<path d="M152.892 44.342C152.453 44.342 152.093 44.1921 151.793 43.8824C151.494 43.5827 151.354 43.2131 151.354 42.8035V28.6172C151.354 28.4973 151.284 28.4374 151.144 28.4374H147.518C147.078 28.4374 146.718 28.2875 146.419 27.9778C146.119 27.6781 145.979 27.3084 145.979 26.8988V26.0097C145.979 25.5901 146.129 25.2305 146.419 24.9307C146.718 24.631 147.078 24.4712 147.518 24.4712H159.985C160.405 24.4712 160.765 24.621 161.064 24.9307C161.364 25.2305 161.524 25.6001 161.524 26.0097V26.8988C161.524 27.3184 161.374 27.6781 161.064 27.9778C160.765 28.2775 160.395 28.4374 159.985 28.4374H156.309C156.189 28.4374 156.129 28.4973 156.129 28.6172V42.8035C156.129 43.2231 155.979 43.5827 155.67 43.8824C155.37 44.1821 155 44.342 154.591 44.342H152.892V44.342Z" fill="white"/>
<path d="M40.1108 96.1752C38.4098 96.4722 36.7358 96.7692 35.1428 97.0392C36.2768 95.7702 37.4108 94.2852 38.0858 93.1782C38.6798 93.1782 39.0038 92.9352 39.0848 92.6112L35.3048 91.6392C35.0618 93.2592 34.6028 95.5002 34.1708 97.2282C31.4438 97.6602 29.1758 98.0382 27.9338 98.1732L29.6078 101.71C29.9048 101.629 30.1748 101.359 30.3368 101.008C34.9538 99.0912 38.0588 97.6062 40.1648 96.4992L40.1108 96.1752ZM31.9298 89.4522V84.5652H35.8988V89.4522H31.9298ZM36.3848 91.3422C37.3298 91.3422 38.6258 90.7212 38.6528 90.5052V85.0242C39.1928 84.9162 39.5438 84.6732 39.7058 84.4842L36.9518 82.4052L35.6288 83.8092H32.0648L29.3918 82.7292V91.5582H29.7428C30.7958 91.5582 31.9298 90.9912 31.9298 90.7482V90.2082H35.8988V91.3422H36.3848ZM29.9588 91.9362C30.4448 93.1512 30.7958 94.8792 30.6338 96.3642C32.7398 98.6322 35.9258 94.3932 30.2558 91.8282L29.9588 91.9362ZM46.5638 97.2012C48.1028 98.3622 50.0738 100.387 50.9108 102.088C54.0158 103.465 55.3388 97.5252 46.7798 96.9852L46.5638 97.2012ZM48.8048 83.9982V87.1302H43.7018V83.9982H48.8048ZM43.7018 95.0142V91.8282H48.8048V95.0142H43.7018ZM43.7018 87.8862H48.8048V91.0722H43.7018V87.8862ZM48.7238 79.2192H39.5708L39.6248 79.4352C38.5718 78.5172 37.3568 77.5182 37.3568 77.5182L35.7368 79.7052H28.0958L28.3118 80.4612H39.5438C39.9218 80.4612 40.2188 80.3262 40.2998 80.0292L40.2458 79.9752H44.5118C44.4578 81.0282 44.3768 82.2972 44.3228 83.2152H43.8368L40.6508 81.9462V97.4172H41.1368C41.8388 97.4172 42.5408 97.2012 43.0268 96.9852C41.4608 98.7942 38.4638 100.873 35.8718 101.98L36.0338 102.358C39.5168 101.872 43.6478 100.414 45.6998 98.9292C46.1588 99.0372 46.4558 99.0102 46.5908 98.7672L43.4318 96.7422C43.6208 96.6072 43.7018 96.4992 43.7018 96.4182V95.7702H48.8048V96.8772H49.3178C50.3708 96.8772 51.8558 96.2562 51.8828 96.0402V84.3762C52.3418 84.2952 52.6658 84.1062 52.8278 83.9172L49.9928 81.7032L48.5618 83.2152H45.3218C46.2128 82.3242 47.2118 81.1092 48.0218 79.9752H52.8278C53.2328 79.9752 53.5028 79.8402 53.5838 79.5432C52.3958 78.4902 50.4788 76.9782 50.4788 76.9782L48.7238 79.2192ZM73.9688 88.7772C73.1858 91.0722 71.9978 93.1782 70.4318 95.0142C68.2988 93.5022 66.5978 91.4502 65.5448 88.7772H73.9688ZM68.1368 82.8372V87.9942H63.3578V82.8372H68.1368ZM76.7228 82.8372C76.5068 83.9712 76.1558 85.4292 75.8858 86.4282L75.6968 86.2662L73.8608 87.9942H71.4038V82.8372H76.7228ZM76.0478 86.5902L76.1018 86.6172C77.3978 85.8342 79.1798 84.4572 80.1788 83.4582C80.7458 83.4312 81.0158 83.3772 81.2318 83.1342L78.2618 80.3262L76.5608 82.0542H71.4038V78.2472C72.1058 78.1122 72.3488 77.8422 72.4028 77.4642L68.1368 77.0862V82.0542H63.8438L60.1718 80.7582V88.3722C60.1718 93.0162 59.8478 98.0652 56.7428 102.061L56.9858 102.277C62.7098 98.7402 63.3308 93.2052 63.3578 88.7772H65.0318C65.8688 92.0442 67.2188 94.5822 68.9738 96.5802C66.5708 98.8752 63.4658 100.711 59.6858 102.007L59.8478 102.358C64.3028 101.494 67.7858 100.063 70.5668 98.0922C72.9158 100.09 75.8858 101.386 79.3688 102.304C79.7738 100.765 80.7458 99.7392 82.1768 99.4422L82.2038 99.1182C78.7208 98.6052 75.4538 97.7682 72.6728 96.3642C74.7788 94.4202 76.3178 92.0712 77.4518 89.4252C78.1538 89.3442 78.4238 89.2632 78.6398 88.9662L76.0478 86.5902ZM105.289 89.1822H101.941V84.2952C102.562 84.2142 102.778 83.9712 102.805 83.6472L98.8358 83.2692V89.1822H96.2168L92.5988 87.9132V92.9892C92.5988 95.9322 92.4368 99.3882 90.3038 102.034L90.5198 102.304C95.2448 99.9012 95.7038 95.8512 95.7038 92.9892V92.2062C98.5388 92.8542 101.077 93.8262 102.265 94.5282C104.668 94.8252 104.965 90.3162 95.7038 91.5312V89.9652H104.695V94.7982C101.212 95.4732 97.5398 95.9322 95.6498 96.0672L96.9188 99.2802C97.2428 99.2262 97.4858 98.9562 97.6208 98.6322C100.591 97.4982 102.886 96.4182 104.695 95.5002V98.8752C104.695 99.1182 104.56 99.2262 104.155 99.2262C102.859 99.2262 100.645 99.0912 100.645 99.0912V99.4152C101.914 99.6312 102.724 99.9822 103.129 100.441C103.48 100.9 103.723 101.386 103.723 102.277C106.99 102.142 107.746 101.062 107.746 99.2262V90.6402C108.178 90.5862 108.556 90.3702 108.745 90.1542L106.288 87.7782L105.289 89.1822ZM92.8418 84.4032C93.8138 85.3752 94.8668 86.9142 95.1368 88.3182C97.8368 90.1542 100.186 84.9162 93.0578 84.2412L92.8418 84.4032ZM103.318 88.9392C104.695 88.2372 106.315 87.1302 107.692 85.9692C108.259 86.0232 108.637 85.8612 108.799 85.5642L105.019 83.9172C104.398 85.6722 103.615 87.5352 103.021 88.6962L103.318 88.9392ZM91.2218 82.0812V79.5702H106.126V82.0812H91.2218ZM107.233 77.3022L105.856 78.8142H91.6808L88.2248 77.5452V86.8602C88.2248 92.0712 88.0088 97.7412 85.3628 102.196L85.6868 102.385C90.9518 98.2542 91.2218 91.8552 91.2218 86.8332V82.8372H106.126V83.9442H106.639C107.557 83.9442 109.096 83.4582 109.123 83.2692V80.0832C109.69 79.9752 110.068 79.7322 110.257 79.5162L107.233 77.3022Z" fill="white"/>
</svg>
