<svg width="170" height="160" viewBox="0 0 170 160" fill="none" xmlns="http://www.w3.org/2000/svg">
<path d="M70.7867 159.99C109.326 159.99 140.569 128.747 140.569 90.2073C140.569 51.6675 109.326 20.4248 70.7867 20.4248C32.2468 20.4248 1.00415 51.6675 1.00415 90.2073C1.00415 128.747 32.2468 159.99 70.7867 159.99Z" fill="white"/>
<path d="M102.936 66.5503C104.644 61.9648 106.342 57.3792 108.061 52.7936C108.211 52.384 108.181 52.0843 107.971 51.7047C97.6208 33.0927 107.421 9.80521 127.981 4.15068C146.204 -0.854478 165.026 10.8042 168.672 29.3863C168.912 30.5951 169.022 31.8339 169.192 33.0527C169.222 33.2425 169.271 33.4324 169.311 33.6222C169.311 35.0108 169.311 36.3995 169.311 37.7882C169.142 39.027 169.052 40.2857 168.792 41.5046C166.025 54.7218 158.182 63.4533 145.255 67.2896C136.723 69.8172 128.431 68.6083 120.599 64.3425C120.249 64.1527 119.959 64.1027 119.57 64.2526C114.844 66.0208 110.109 67.7791 105.383 69.5374C105.283 69.5774 105.203 69.6373 105.104 69.6873C104.804 69.6873 104.494 69.6873 104.194 69.6873C102.676 68.958 102.336 68.1488 102.936 66.5503Z" fill="white"/>
<path d="M124.655 43.9122C122.986 45.7704 120.778 46.6995 118.041 46.6995C115.304 46.6995 113.096 45.7704 111.427 43.9122C109.759 42.054 108.92 39.5164 108.92 36.2995C108.92 33.1026 109.749 30.605 111.408 28.8068C113.066 27.0085 115.274 26.1094 118.031 26.1094C120.788 26.1094 122.996 27.0085 124.655 28.8068C126.313 30.605 127.142 33.1026 127.142 36.2995C127.152 39.5164 126.323 42.054 124.655 43.9122ZM114.954 40.9151C115.703 42.044 116.732 42.6134 118.041 42.6134C119.35 42.6134 120.389 42.044 121.148 40.9051C121.907 39.7662 122.287 38.2277 122.287 36.2995C122.287 34.3914 121.907 32.8828 121.148 31.8039C120.389 30.7149 119.36 30.1754 118.041 30.1754C116.722 30.1754 115.693 30.7149 114.954 31.8039C114.205 32.8928 113.835 34.3914 113.835 36.2995C113.825 38.2476 114.205 39.7861 114.954 40.9151Z" fill="white"/>
<path d="M137.422 46.6996C134.745 46.6996 132.737 45.9104 131.388 44.3219C130.039 42.7435 129.37 40.2958 129.37 36.999V27.9977C129.37 27.5781 129.52 27.2185 129.83 26.9188C130.129 26.6191 130.499 26.4592 130.909 26.4592H132.577C133.017 26.4592 133.376 26.6091 133.676 26.9188C133.976 27.2185 134.116 27.5881 134.116 27.9977V37.4885C134.116 39.3268 134.385 40.6455 134.925 41.4247C135.464 42.204 136.293 42.5936 137.432 42.5936C138.571 42.5936 139.41 42.194 139.96 41.4048C140.519 40.6155 140.789 39.3068 140.789 37.4786V27.9877C140.789 27.5681 140.939 27.2085 141.249 26.9088C141.548 26.6091 141.918 26.4492 142.328 26.4492H143.836C144.266 26.4492 144.635 26.5991 144.935 26.9088C145.235 27.2085 145.375 27.5781 145.375 27.9877V36.989C145.375 40.3058 144.715 42.7534 143.407 44.3319C142.098 45.9104 140.1 46.6996 137.422 46.6996Z" fill="white"/>
<path d="M153.896 46.34C153.457 46.34 153.097 46.1902 152.798 45.8805C152.498 45.5808 152.358 45.2111 152.358 44.8015V30.6152C152.358 30.4953 152.288 30.4354 152.148 30.4354H148.522C148.082 30.4354 147.722 30.2855 147.423 29.9758C147.123 29.6761 146.983 29.3065 146.983 28.8969V28.0078C146.983 27.5882 147.133 27.2285 147.423 26.9288C147.722 26.6291 148.082 26.4692 148.522 26.4692H160.99C161.409 26.4692 161.769 26.6191 162.069 26.9288C162.368 27.2285 162.528 27.5981 162.528 28.0078V28.8969C162.528 29.3165 162.378 29.6761 162.069 29.9758C161.769 30.2756 161.399 30.4354 160.99 30.4354H157.313C157.193 30.4354 157.133 30.4953 157.133 30.6152V44.8015C157.133 45.2211 156.983 45.5808 156.674 45.8805C156.374 46.1802 156.004 46.34 155.595 46.34H153.896V46.34Z" fill="white"/>
<path d="M69.7825 157.565C108.322 157.565 139.565 126.322 139.565 87.7825C139.565 49.2427 108.322 18 69.7825 18C31.2427 18 0 49.2427 0 87.7825C0 126.322 31.2427 157.565 69.7825 157.565Z" fill="#466142"/>
<path d="M101.931 64.5523C103.64 59.9667 105.338 55.3811 107.057 50.7956C107.206 50.386 107.176 50.0863 106.967 49.7066C96.6166 31.0946 106.417 7.80717 126.977 2.15264C145.2 -2.85252 164.021 8.8062 167.668 27.3882C167.908 28.5971 168.018 29.8359 168.187 31.0547C168.217 31.2445 168.267 31.4343 168.307 31.6241C168.307 33.0128 168.307 34.4014 168.307 35.7901C168.137 37.0289 168.048 38.2877 167.788 39.5065C165.02 52.7237 157.178 61.4553 144.251 65.2916C135.719 67.8191 127.427 66.6103 119.594 62.3444C119.245 62.1546 118.955 62.1046 118.565 62.2545C113.84 64.0228 109.105 65.7811 104.379 67.5394C104.279 67.5794 104.199 67.6393 104.099 67.6892C103.8 67.6892 103.49 67.6892 103.19 67.6892C101.672 66.96 101.332 66.1507 101.931 64.5523Z" fill="#1A1A1A"/>
<path d="M123.651 41.9141C121.982 43.7723 119.774 44.7014 117.037 44.7014C114.3 44.7014 112.092 43.7723 110.423 41.9141C108.755 40.0559 107.916 37.5184 107.916 34.3015C107.916 31.1046 108.745 28.607 110.403 26.8087C112.062 25.0105 114.27 24.1113 117.027 24.1113C119.784 24.1113 121.992 25.0105 123.651 26.8087C125.309 28.607 126.138 31.1046 126.138 34.3015C126.148 37.5184 125.319 40.0559 123.651 41.9141ZM113.95 38.917C114.699 40.0459 115.728 40.6154 117.037 40.6154C118.346 40.6154 119.385 40.0459 120.144 38.907C120.903 37.7681 121.283 36.2296 121.283 34.3015C121.283 32.3933 120.903 30.8848 120.144 29.8058C119.385 28.7169 118.356 28.1774 117.037 28.1774C115.718 28.1774 114.689 28.7169 113.95 29.8058C113.201 30.8948 112.831 32.3933 112.831 34.3015C112.821 36.2496 113.201 37.7881 113.95 38.917Z" fill="white"/>
<path d="M136.418 44.7016C133.741 44.7016 131.733 43.9124 130.384 42.3239C129.035 40.7454 128.366 38.2978 128.366 35.001V25.9997C128.366 25.5801 128.516 25.2204 128.826 24.9207C129.125 24.621 129.495 24.4612 129.904 24.4612H131.573C132.012 24.4612 132.372 24.611 132.672 24.9207C132.972 25.2204 133.111 25.5901 133.111 25.9997V35.4905C133.111 37.3287 133.381 38.6474 133.921 39.4267C134.46 40.2059 135.289 40.5956 136.428 40.5956C137.567 40.5956 138.406 40.1959 138.956 39.4067C139.515 38.6175 139.785 37.3087 139.785 35.4805V25.9897C139.785 25.5701 139.935 25.2104 140.244 24.9107C140.544 24.611 140.914 24.4512 141.323 24.4512H142.832C143.262 24.4512 143.631 24.601 143.931 24.9107C144.231 25.2104 144.37 25.5801 144.37 25.9897V34.991C144.37 38.3078 143.711 40.7554 142.402 42.3339C141.094 43.9124 139.096 44.7016 136.418 44.7016Z" fill="white"/>
<path d="M152.892 44.342C152.453 44.342 152.093 44.1921 151.793 43.8824C151.494 43.5827 151.354 43.2131 151.354 42.8035V28.6172C151.354 28.4973 151.284 28.4374 151.144 28.4374H147.518C147.078 28.4374 146.718 28.2875 146.419 27.9778C146.119 27.6781 145.979 27.3084 145.979 26.8988V26.0097C145.979 25.5901 146.129 25.2305 146.419 24.9307C146.718 24.631 147.078 24.4712 147.518 24.4712H159.985C160.405 24.4712 160.765 24.621 161.064 24.9307C161.364 25.2305 161.524 25.6001 161.524 26.0097V26.8988C161.524 27.3184 161.374 27.6781 161.064 27.9778C160.765 28.2775 160.395 28.4374 159.985 28.4374H156.309C156.189 28.4374 156.129 28.4973 156.129 28.6172V42.8035C156.129 43.2231 155.979 43.5827 155.67 43.8824C155.37 44.1821 155 44.342 154.591 44.342H152.892V44.342Z" fill="white"/>
<path d="M55.0555 77.247C53.3545 77.544 51.6805 77.841 50.0875 78.111C51.2215 76.842 52.3555 75.357 53.0305 74.25C53.6245 74.25 53.9485 74.007 54.0295 73.683L50.2495 72.711C50.0065 74.331 49.5475 76.572 49.1155 78.3C46.3885 78.732 44.1205 79.11 42.8785 79.245L44.5525 82.782C44.8495 82.701 45.1195 82.431 45.2815 82.08C49.8985 80.163 53.0035 78.678 55.1095 77.571L55.0555 77.247ZM46.8745 70.524V65.637H50.8435V70.524H46.8745ZM51.3295 72.414C52.2745 72.414 53.5705 71.793 53.5975 71.577V66.096C54.1375 65.988 54.4885 65.745 54.6505 65.556L51.8965 63.477L50.5735 64.881H47.0095L44.3365 63.801V72.63H44.6875C45.7405 72.63 46.8745 72.063 46.8745 71.82V71.28H50.8435V72.414H51.3295ZM44.9035 73.008C45.3895 74.223 45.7405 75.951 45.5785 77.436C47.6845 79.704 50.8705 75.465 45.2005 72.9L44.9035 73.008ZM61.5085 78.273C63.0475 79.434 65.0185 81.459 65.8555 83.16C68.9605 84.537 70.2835 78.597 61.7245 78.057L61.5085 78.273ZM63.7495 65.07V68.202H58.6465V65.07H63.7495ZM58.6465 76.086V72.9H63.7495V76.086H58.6465ZM58.6465 68.958H63.7495V72.144H58.6465V68.958ZM63.6685 60.291H54.5155L54.5695 60.507C53.5165 59.589 52.3015 58.59 52.3015 58.59L50.6815 60.777H43.0405L43.2565 61.533H54.4885C54.8665 61.533 55.1635 61.398 55.2445 61.101L55.1905 61.047H59.4565C59.4025 62.1 59.3215 63.369 59.2675 64.287H58.7815L55.5955 63.018V78.489H56.0815C56.7835 78.489 57.4855 78.273 57.9715 78.057C56.4055 79.866 53.4085 81.945 50.8165 83.052L50.9785 83.43C54.4615 82.944 58.5925 81.486 60.6445 80.001C61.1035 80.109 61.4005 80.082 61.5355 79.839L58.3765 77.814C58.5655 77.679 58.6465 77.571 58.6465 77.49V76.842H63.7495V77.949H64.2625C65.3155 77.949 66.8005 77.328 66.8275 77.112V65.448C67.2865 65.367 67.6105 65.178 67.7725 64.989L64.9375 62.775L63.5065 64.287H60.2665C61.1575 63.396 62.1565 62.181 62.9665 61.047H67.7725C68.1775 61.047 68.4475 60.912 68.5285 60.615C67.3405 59.562 65.4235 58.05 65.4235 58.05L63.6685 60.291ZM88.9135 69.849C88.1305 72.144 86.9425 74.25 85.3765 76.086C83.2435 74.574 81.5425 72.522 80.4895 69.849H88.9135ZM83.0815 63.909V69.066H78.3025V63.909H83.0815ZM91.6675 63.909C91.4515 65.043 91.1005 66.501 90.8305 67.5L90.6415 67.338L88.8055 69.066H86.3485V63.909H91.6675ZM90.9925 67.662L91.0465 67.689C92.3425 66.906 94.1245 65.529 95.1235 64.53C95.6905 64.503 95.9605 64.449 96.1765 64.206L93.2065 61.398L91.5055 63.126H86.3485V59.319C87.0505 59.184 87.2935 58.914 87.3475 58.536L83.0815 58.158V63.126H78.7885L75.1165 61.83V69.444C75.1165 74.088 74.7925 79.137 71.6875 83.133L71.9305 83.349C77.6545 79.812 78.2755 74.277 78.3025 69.849H79.9765C80.8135 73.116 82.1635 75.654 83.9185 77.652C81.5155 79.947 78.4105 81.783 74.6305 83.079L74.7925 83.43C79.2475 82.566 82.7305 81.135 85.5115 79.164C87.8605 81.162 90.8305 82.458 94.3135 83.376C94.7185 81.837 95.6905 80.811 97.1215 80.514L97.1485 80.19C93.6655 79.677 90.3985 78.84 87.6175 77.436C89.7235 75.492 91.2625 73.143 92.3965 70.497C93.0985 70.416 93.3685 70.335 93.5845 70.038L90.9925 67.662ZM16.4995 97.698C17.5525 98.697 18.8755 100.344 19.3345 101.829C22.3315 103.449 24.2485 97.833 16.6885 97.509L16.4995 97.698ZM14.1505 103.719C15.1765 104.637 16.3645 106.203 16.7425 107.607C19.5775 109.362 21.6565 103.827 14.3395 103.53L14.1505 103.719ZM22.3045 102.558C17.2825 112.872 17.2825 112.872 16.6885 113.871C16.3645 114.411 16.2565 114.411 15.8515 114.411H14.5825V114.924C15.1765 114.978 15.6085 115.113 16.0135 115.356C16.6345 115.788 16.7695 118.218 16.2565 120.999C16.4725 121.971 17.0935 122.376 17.7145 122.376C19.0645 122.376 19.9825 121.485 20.0095 120.135C20.1175 117.813 19.0105 116.868 18.9565 115.464C18.9295 114.789 19.1455 113.844 19.3885 112.953C19.7395 111.576 21.6565 105.798 22.7365 102.666L22.3045 102.558ZM32.1865 119.055V111.333H35.5885V119.055H32.1865ZM25.9765 111.333H29.1895V119.055H25.9765V111.333ZM29.1895 103.584V110.55H25.9765V103.584H29.1895ZM35.5885 103.584V110.55H32.1865V103.584H35.5885ZM36.9115 101.127L35.4535 102.828H32.1865V98.13C32.8075 98.022 32.9965 97.779 33.0505 97.428L29.1895 97.05V102.828H26.3005L23.1955 101.613V122.187H23.6545C25.1125 122.187 25.9765 121.593 25.9765 121.377V119.838H35.5885V121.863H36.1015C37.5055 121.863 38.5045 121.215 38.5045 121.026V103.881C39.1525 103.746 39.4495 103.557 39.6655 103.287L36.9115 101.127ZM46.9015 104.745C47.8195 105.258 48.7645 105.906 49.3315 106.473C49.7365 106.527 50.0875 106.473 50.3305 106.311V109.092C48.9265 109.767 47.6305 110.361 46.8475 110.685C46.9015 109.47 46.9015 108.309 46.9015 107.229V104.745ZM50.3305 99.615V104.34C49.7365 103.827 48.6565 103.503 46.9015 103.8V99.615H50.3305ZM50.0875 98.832H47.3605L44.3905 97.725V107.256C44.3905 112.251 44.4445 117.84 42.7975 122.241L43.1755 122.43C45.8755 119.298 46.6315 115.221 46.8205 111.387L47.9815 113.601C48.2785 113.466 48.4675 113.115 48.4945 112.791C49.1965 111.9 49.8175 111.09 50.3305 110.388V118.947C50.3305 119.298 50.2225 119.487 49.7905 119.487C49.3315 119.487 47.3065 119.325 47.3065 119.325V119.73C48.3325 119.892 48.8455 120.189 49.1425 120.567C49.4665 120.945 49.5745 121.62 49.6015 122.403C52.5175 122.133 52.8685 121.08 52.8685 119.217V99.966C53.3545 99.858 53.7325 99.669 53.8945 99.453L51.2485 97.455L50.0875 98.832ZM57.7825 119.325V115.572H63.7225V119.325H57.7825ZM63.7225 111.117V114.789H57.7825V111.117H63.7225ZM63.4525 110.334H57.9175L54.8125 109.092V122.349H55.2715C56.5135 122.349 57.7825 121.674 57.7825 121.404V120.081H63.7225V122.16H64.2355C65.2075 122.16 66.6925 121.593 66.7195 121.404V111.603C67.2865 111.495 67.6645 111.252 67.8265 111.036L64.8565 108.768L63.4525 110.334ZM66.8275 105.204H66.5575C66.3145 105.285 65.9095 105.366 65.6935 105.393C65.4775 105.42 65.0725 105.447 64.7755 105.474C64.3165 105.501 63.1825 105.528 62.1025 105.528H58.9435C57.8905 105.528 57.7555 105.366 57.7555 104.934V101.964H66.8005C67.1785 101.964 67.4485 101.829 67.5295 101.532C66.3145 100.533 64.3975 99.183 64.3975 99.183L62.6965 101.181H57.7555V98.211C58.2955 98.13 58.5655 97.887 58.5925 97.536L54.8665 97.212V105.609C54.8665 107.688 55.5415 108.174 58.4575 108.174H61.7785C66.9895 108.201 68.1775 107.661 68.1775 106.419C68.2045 105.879 67.8805 105.555 66.9355 105.231L66.8275 105.204ZM75.6025 115.491V108.498H78.3295V115.491H75.6025ZM78.3295 101.073V107.742H75.6025V101.073H78.3295ZM81.2725 101.586C81.8125 101.451 82.2175 101.235 82.4065 100.992L79.4905 98.697L78.0595 100.29H75.9535L72.6865 99.048V119.703H73.1995C74.6845 119.703 75.6025 119.001 75.6025 118.785V116.274H78.3295V118.245H78.7885C79.8415 118.245 81.2455 117.57 81.2725 117.354V101.586ZM92.7745 120.027H90.2365V110.037H95.6635C96.0415 110.037 96.3115 109.902 96.3925 109.632C95.2855 108.633 93.5035 107.229 93.5035 107.229L91.9105 109.281H90.2365V100.074H96.1765C96.5815 100.074 96.8785 99.939 96.9595 99.642C95.7715 98.643 93.9355 97.266 93.9355 97.266L92.2615 99.318H81.5155L81.7315 100.074H87.1585V109.281H82.0285L82.2445 110.037H87.1585V120.027H79.2475L79.4635 120.81H96.7435C97.1485 120.81 97.4185 120.675 97.4995 120.378C96.3655 119.352 94.4755 117.84 94.4755 117.84L92.7745 120.027ZM116.778 97.752C117.614 98.265 118.587 99.345 118.83 100.317C121.368 101.64 123.042 96.915 116.967 97.536L116.778 97.752ZM109.758 105.204C109.596 107.607 109.38 108.93 109.055 109.308C108.975 109.416 108.812 109.47 108.597 109.47C108.219 109.47 107.085 109.389 106.301 109.335V109.686C107.111 109.848 107.813 110.226 108.11 110.604C108.434 110.982 108.516 111.576 108.516 112.224C109.542 112.224 110.379 112.035 111 111.603C112.052 110.847 112.404 109.119 112.647 105.663C113.16 105.582 113.484 105.393 113.646 105.204L111 103.071L109.542 104.448H106.194V104.097V101.613H113.484C114.131 104.178 115.05 106.473 116.481 108.39C115.05 109.875 113.403 111.198 111.648 112.197L111.837 112.548C113.943 111.927 115.941 110.928 117.669 109.767C118.695 110.766 119.937 111.63 121.422 112.278C122.907 112.98 124.986 113.52 125.715 112.197C125.985 111.63 125.877 111.198 124.797 110.172L125.067 106.689L124.824 106.635C124.446 107.688 123.879 108.903 123.528 109.497C123.312 109.848 123.096 109.848 122.583 109.659C121.557 109.254 120.666 108.687 119.937 108.012C121.314 106.77 122.475 105.42 123.258 104.097C123.798 104.178 124.095 104.097 124.203 103.827L120.639 102.153C120.126 103.449 119.369 104.799 118.37 106.122C117.534 104.799 116.967 103.26 116.535 101.613H124.662C125.04 101.613 125.31 101.478 125.364 101.181C124.365 100.182 122.691 98.697 122.691 98.697L121.179 100.83H116.372C116.157 99.939 116.022 99.048 115.887 98.13C116.481 98.022 116.697 97.725 116.724 97.374L112.62 97.077C112.809 98.373 113.025 99.615 113.295 100.83H106.679L103.088 99.561V104.097C103.088 107.121 102.845 110.685 100.361 113.52L100.577 113.79C105.032 111.549 106.005 107.985 106.167 105.204H109.758ZM106.922 114.33H109.083V120.783H106.922V114.33ZM114.105 114.33V120.783H111.945V114.33H114.105ZM119.1 114.33V120.783H116.967V114.33H119.1ZM122.313 120.783H122.205V114.627C122.88 114.519 123.231 114.357 123.393 114.087L120.153 111.846L118.803 113.547H107.192L103.953 112.278V120.783H100.55L100.766 121.566H125.094C125.472 121.566 125.715 121.431 125.796 121.134C124.986 120.216 123.528 118.839 123.528 118.839L122.313 120.783Z" fill="white"/>
</svg>
