<svg width="170" height="160" viewBox="0 0 170 160" fill="none" xmlns="http://www.w3.org/2000/svg">
<path d="M70.7867 159.99C109.326 159.99 140.569 128.747 140.569 90.2073C140.569 51.6675 109.326 20.4248 70.7867 20.4248C32.2468 20.4248 1.00415 51.6675 1.00415 90.2073C1.00415 128.747 32.2468 159.99 70.7867 159.99Z" fill="white"/>
<path d="M102.936 66.5503C104.644 61.9648 106.342 57.3792 108.061 52.7936C108.211 52.384 108.181 52.0843 107.971 51.7047C97.6208 33.0927 107.421 9.80521 127.981 4.15068C146.204 -0.854478 165.026 10.8042 168.672 29.3863C168.912 30.5951 169.022 31.8339 169.192 33.0527C169.222 33.2425 169.271 33.4324 169.311 33.6222C169.311 35.0108 169.311 36.3995 169.311 37.7882C169.142 39.027 169.052 40.2857 168.792 41.5046C166.025 54.7218 158.182 63.4533 145.255 67.2896C136.723 69.8172 128.431 68.6083 120.599 64.3425C120.249 64.1527 119.959 64.1027 119.57 64.2526C114.844 66.0208 110.109 67.7791 105.383 69.5374C105.283 69.5774 105.203 69.6373 105.104 69.6873C104.804 69.6873 104.494 69.6873 104.194 69.6873C102.676 68.958 102.336 68.1488 102.936 66.5503Z" fill="white"/>
<path d="M124.655 43.9122C122.986 45.7704 120.778 46.6995 118.041 46.6995C115.304 46.6995 113.096 45.7704 111.427 43.9122C109.759 42.054 108.92 39.5164 108.92 36.2995C108.92 33.1026 109.749 30.605 111.408 28.8068C113.066 27.0085 115.274 26.1094 118.031 26.1094C120.788 26.1094 122.996 27.0085 124.655 28.8068C126.313 30.605 127.142 33.1026 127.142 36.2995C127.152 39.5164 126.323 42.054 124.655 43.9122ZM114.954 40.9151C115.703 42.044 116.732 42.6134 118.041 42.6134C119.35 42.6134 120.389 42.044 121.148 40.9051C121.907 39.7662 122.287 38.2277 122.287 36.2995C122.287 34.3914 121.907 32.8828 121.148 31.8039C120.389 30.7149 119.36 30.1754 118.041 30.1754C116.722 30.1754 115.693 30.7149 114.954 31.8039C114.205 32.8928 113.835 34.3914 113.835 36.2995C113.825 38.2476 114.205 39.7861 114.954 40.9151Z" fill="white"/>
<path d="M137.422 46.6996C134.745 46.6996 132.737 45.9104 131.388 44.3219C130.039 42.7435 129.37 40.2958 129.37 36.999V27.9977C129.37 27.5781 129.52 27.2185 129.83 26.9188C130.129 26.6191 130.499 26.4592 130.909 26.4592H132.577C133.017 26.4592 133.376 26.6091 133.676 26.9188C133.976 27.2185 134.116 27.5881 134.116 27.9977V37.4885C134.116 39.3268 134.385 40.6455 134.925 41.4247C135.464 42.204 136.293 42.5936 137.432 42.5936C138.571 42.5936 139.41 42.194 139.96 41.4048C140.519 40.6155 140.789 39.3068 140.789 37.4786V27.9877C140.789 27.5681 140.939 27.2085 141.249 26.9088C141.548 26.6091 141.918 26.4492 142.328 26.4492H143.836C144.266 26.4492 144.635 26.5991 144.935 26.9088C145.235 27.2085 145.375 27.5781 145.375 27.9877V36.989C145.375 40.3058 144.715 42.7534 143.407 44.3319C142.098 45.9104 140.1 46.6996 137.422 46.6996Z" fill="white"/>
<path d="M153.896 46.34C153.457 46.34 153.097 46.1902 152.798 45.8805C152.498 45.5808 152.358 45.2111 152.358 44.8015V30.6152C152.358 30.4953 152.288 30.4354 152.148 30.4354H148.522C148.082 30.4354 147.722 30.2855 147.423 29.9758C147.123 29.6761 146.983 29.3065 146.983 28.8969V28.0078C146.983 27.5882 147.133 27.2285 147.423 26.9288C147.722 26.6291 148.082 26.4692 148.522 26.4692H160.99C161.409 26.4692 161.769 26.6191 162.069 26.9288C162.368 27.2285 162.528 27.5981 162.528 28.0078V28.8969C162.528 29.3165 162.378 29.6761 162.069 29.9758C161.769 30.2756 161.399 30.4354 160.99 30.4354H157.313C157.193 30.4354 157.133 30.4953 157.133 30.6152V44.8015C157.133 45.2211 156.983 45.5808 156.674 45.8805C156.374 46.1802 156.004 46.34 155.595 46.34H153.896V46.34Z" fill="white"/>
<path d="M69.7825 157.565C108.322 157.565 139.565 126.322 139.565 87.7825C139.565 49.2427 108.322 18 69.7825 18C31.2427 18 0 49.2427 0 87.7825C0 126.322 31.2427 157.565 69.7825 157.565Z" fill="#466142"/>
<path d="M101.931 64.5523C103.64 59.9667 105.338 55.3811 107.057 50.7956C107.206 50.386 107.176 50.0863 106.967 49.7066C96.6166 31.0946 106.417 7.80717 126.977 2.15264C145.2 -2.85252 164.021 8.8062 167.668 27.3882C167.908 28.5971 168.018 29.8359 168.187 31.0547C168.217 31.2445 168.267 31.4343 168.307 31.6241C168.307 33.0128 168.307 34.4014 168.307 35.7901C168.137 37.0289 168.048 38.2877 167.788 39.5065C165.02 52.7237 157.178 61.4553 144.251 65.2916C135.719 67.8191 127.427 66.6103 119.594 62.3444C119.245 62.1546 118.955 62.1046 118.565 62.2545C113.84 64.0228 109.105 65.7811 104.379 67.5394C104.279 67.5794 104.199 67.6393 104.099 67.6892C103.8 67.6892 103.49 67.6892 103.19 67.6892C101.672 66.96 101.332 66.1507 101.931 64.5523Z" fill="#1A1A1A"/>
<path d="M123.651 41.9141C121.982 43.7723 119.774 44.7014 117.037 44.7014C114.3 44.7014 112.092 43.7723 110.423 41.9141C108.755 40.0559 107.916 37.5184 107.916 34.3015C107.916 31.1046 108.745 28.607 110.403 26.8087C112.062 25.0105 114.27 24.1113 117.027 24.1113C119.784 24.1113 121.992 25.0105 123.651 26.8087C125.309 28.607 126.138 31.1046 126.138 34.3015C126.148 37.5184 125.319 40.0559 123.651 41.9141ZM113.95 38.917C114.699 40.0459 115.728 40.6154 117.037 40.6154C118.346 40.6154 119.385 40.0459 120.144 38.907C120.903 37.7681 121.283 36.2296 121.283 34.3015C121.283 32.3933 120.903 30.8848 120.144 29.8058C119.385 28.7169 118.356 28.1774 117.037 28.1774C115.718 28.1774 114.689 28.7169 113.95 29.8058C113.201 30.8948 112.831 32.3933 112.831 34.3015C112.821 36.2496 113.201 37.7881 113.95 38.917Z" fill="white"/>
<path d="M136.418 44.7016C133.741 44.7016 131.733 43.9124 130.384 42.3239C129.035 40.7454 128.366 38.2978 128.366 35.001V25.9997C128.366 25.5801 128.516 25.2204 128.826 24.9207C129.125 24.621 129.495 24.4612 129.904 24.4612H131.573C132.012 24.4612 132.372 24.611 132.672 24.9207C132.972 25.2204 133.111 25.5901 133.111 25.9997V35.4905C133.111 37.3287 133.381 38.6474 133.921 39.4267C134.46 40.2059 135.289 40.5956 136.428 40.5956C137.567 40.5956 138.406 40.1959 138.956 39.4067C139.515 38.6175 139.785 37.3087 139.785 35.4805V25.9897C139.785 25.5701 139.935 25.2104 140.244 24.9107C140.544 24.611 140.914 24.4512 141.323 24.4512H142.832C143.262 24.4512 143.631 24.601 143.931 24.9107C144.231 25.2104 144.37 25.5801 144.37 25.9897V34.991C144.37 38.3078 143.711 40.7554 142.402 42.3339C141.094 43.9124 139.096 44.7016 136.418 44.7016Z" fill="white"/>
<path d="M152.892 44.342C152.453 44.342 152.093 44.1921 151.793 43.8824C151.494 43.5827 151.354 43.2131 151.354 42.8035V28.6172C151.354 28.4973 151.284 28.4374 151.144 28.4374H147.518C147.078 28.4374 146.718 28.2875 146.419 27.9778C146.119 27.6781 145.979 27.3084 145.979 26.8988V26.0097C145.979 25.5901 146.129 25.2305 146.419 24.9307C146.718 24.631 147.078 24.4712 147.518 24.4712H159.985C160.405 24.4712 160.765 24.621 161.064 24.9307C161.364 25.2305 161.524 25.6001 161.524 26.0097V26.8988C161.524 27.3184 161.374 27.6781 161.064 27.9778C160.765 28.2775 160.395 28.4374 159.985 28.4374H156.309C156.189 28.4374 156.129 28.4973 156.129 28.6172V42.8035C156.129 43.2231 155.979 43.5827 155.67 43.8824C155.37 44.1821 155 44.342 154.591 44.342H152.892V44.342Z" fill="white"/>
<path d="M55.0555 77.247C53.3545 77.544 51.6805 77.841 50.0875 78.111C51.2215 76.842 52.3555 75.357 53.0305 74.25C53.6245 74.25 53.9485 74.007 54.0295 73.683L50.2495 72.711C50.0065 74.331 49.5475 76.572 49.1155 78.3C46.3885 78.732 44.1205 79.11 42.8785 79.245L44.5525 82.782C44.8495 82.701 45.1195 82.431 45.2815 82.08C49.8985 80.163 53.0035 78.678 55.1095 77.571L55.0555 77.247ZM46.8745 70.524V65.637H50.8435V70.524H46.8745ZM51.3295 72.414C52.2745 72.414 53.5705 71.793 53.5975 71.577V66.096C54.1375 65.988 54.4885 65.745 54.6505 65.556L51.8965 63.477L50.5735 64.881H47.0095L44.3365 63.801V72.63H44.6875C45.7405 72.63 46.8745 72.063 46.8745 71.82V71.28H50.8435V72.414H51.3295ZM44.9035 73.008C45.3895 74.223 45.7405 75.951 45.5785 77.436C47.6845 79.704 50.8705 75.465 45.2005 72.9L44.9035 73.008ZM61.5085 78.273C63.0475 79.434 65.0185 81.459 65.8555 83.16C68.9605 84.537 70.2835 78.597 61.7245 78.057L61.5085 78.273ZM63.7495 65.07V68.202H58.6465V65.07H63.7495ZM58.6465 76.086V72.9H63.7495V76.086H58.6465ZM58.6465 68.958H63.7495V72.144H58.6465V68.958ZM63.6685 60.291H54.5155L54.5695 60.507C53.5165 59.589 52.3015 58.59 52.3015 58.59L50.6815 60.777H43.0405L43.2565 61.533H54.4885C54.8665 61.533 55.1635 61.398 55.2445 61.101L55.1905 61.047H59.4565C59.4025 62.1 59.3215 63.369 59.2675 64.287H58.7815L55.5955 63.018V78.489H56.0815C56.7835 78.489 57.4855 78.273 57.9715 78.057C56.4055 79.866 53.4085 81.945 50.8165 83.052L50.9785 83.43C54.4615 82.944 58.5925 81.486 60.6445 80.001C61.1035 80.109 61.4005 80.082 61.5355 79.839L58.3765 77.814C58.5655 77.679 58.6465 77.571 58.6465 77.49V76.842H63.7495V77.949H64.2625C65.3155 77.949 66.8005 77.328 66.8275 77.112V65.448C67.2865 65.367 67.6105 65.178 67.7725 64.989L64.9375 62.775L63.5065 64.287H60.2665C61.1575 63.396 62.1565 62.181 62.9665 61.047H67.7725C68.1775 61.047 68.4475 60.912 68.5285 60.615C67.3405 59.562 65.4235 58.05 65.4235 58.05L63.6685 60.291ZM88.9135 69.849C88.1305 72.144 86.9425 74.25 85.3765 76.086C83.2435 74.574 81.5425 72.522 80.4895 69.849H88.9135ZM83.0815 63.909V69.066H78.3025V63.909H83.0815ZM91.6675 63.909C91.4515 65.043 91.1005 66.501 90.8305 67.5L90.6415 67.338L88.8055 69.066H86.3485V63.909H91.6675ZM90.9925 67.662L91.0465 67.689C92.3425 66.906 94.1245 65.529 95.1235 64.53C95.6905 64.503 95.9605 64.449 96.1765 64.206L93.2065 61.398L91.5055 63.126H86.3485V59.319C87.0505 59.184 87.2935 58.914 87.3475 58.536L83.0815 58.158V63.126H78.7885L75.1165 61.83V69.444C75.1165 74.088 74.7925 79.137 71.6875 83.133L71.9305 83.349C77.6545 79.812 78.2755 74.277 78.3025 69.849H79.9765C80.8135 73.116 82.1635 75.654 83.9185 77.652C81.5155 79.947 78.4105 81.783 74.6305 83.079L74.7925 83.43C79.2475 82.566 82.7305 81.135 85.5115 79.164C87.8605 81.162 90.8305 82.458 94.3135 83.376C94.7185 81.837 95.6905 80.811 97.1215 80.514L97.1485 80.19C93.6655 79.677 90.3985 78.84 87.6175 77.436C89.7235 75.492 91.2625 73.143 92.3965 70.497C93.0985 70.416 93.3685 70.335 93.5845 70.038L90.9925 67.662ZM15.6625 101.1H24.1945C23.0875 103.395 20.6575 105.339 15.6355 106.716L15.7705 107.04C21.6025 106.176 24.8155 104.664 26.6245 102.639C29.4055 103.962 31.5925 105.69 32.5105 106.77C35.4535 107.877 36.9385 102.18 27.1645 101.937C27.3265 101.667 27.5155 101.397 27.6505 101.1H37.3975C37.8025 101.1 38.0995 100.965 38.1805 100.668C36.8845 99.588 34.7785 98.022 34.7785 98.022L32.8885 100.344H28.0015C28.2445 99.696 28.4335 98.994 28.5415 98.265C29.1895 98.211 29.4865 97.968 29.5675 97.563L25.0315 97.05C25.0045 98.184 24.8695 99.291 24.5185 100.344H15.4195L15.6625 101.1ZM21.0355 116.409V111.711H25.0315V116.409H21.0355ZM28.1365 112.251C28.6765 112.116 29.0815 111.873 29.2435 111.657L26.2195 109.416L24.7615 110.955H21.1705L18.0115 109.74V119.757H18.4165C19.7125 119.757 21.0355 119.109 21.0355 118.812V117.165H25.0315V118.596H25.5715C26.5975 118.596 28.1095 117.975 28.1365 117.759V112.251ZM34.6435 107.634H14.2585L14.4745 108.417H31.5655V118.812C31.5655 119.136 31.4035 119.298 30.9445 119.298C30.2695 119.298 26.9755 119.082 26.9755 119.082V119.433C28.5685 119.676 29.2435 120.027 29.7295 120.432C30.2155 120.864 30.3235 121.512 30.4315 122.403C34.2385 122.16 34.8055 120.891 34.8055 118.866V108.417H38.8825C39.2875 108.417 39.5845 108.282 39.6385 107.985C38.4235 106.878 36.4255 105.366 36.4255 105.366L34.6435 107.634ZM58.7545 118.164C61.6435 119.379 64.0465 121.161 65.0185 122.214C66.8545 122.889 67.9075 120.351 64.3705 118.812C65.1805 118.65 65.9365 118.434 66.4225 118.272C66.8275 118.407 67.0975 118.407 67.2325 118.191L65.0185 116.355C64.5595 116.814 63.6685 117.651 62.8315 118.299C61.7785 118.056 60.4555 117.84 58.8895 117.786L58.7545 118.164ZM55.4875 110.334L55.7035 111.117H60.7255C61.1035 111.117 61.3735 110.982 61.4275 110.685C60.6445 110.01 59.5105 109.146 59.5105 109.146L58.4575 110.334H55.4875ZM54.6505 116.112V114.843H61.2925V116.112H54.6505ZM49.7095 100.965H60.5365C60.3745 101.748 60.1315 102.801 59.9155 103.611H56.2165C57.1615 102.855 56.9185 100.938 53.2735 101.181L53.0575 101.343C53.5705 101.829 54.2455 102.774 54.5155 103.611H50.4655L50.6815 104.367H56.8105V105.744H51.1945L51.4105 106.527H56.8105V107.985H49.8715L50.0875 108.741H53.3545C52.4635 110.388 51.0595 111.873 49.3045 113.007C49.6555 111.09 49.7095 109.173 49.7095 107.418V100.965ZM64.4515 104.367L63.3175 105.744H59.5645V104.367H64.4515ZM61.2925 114.087H54.6505V112.818H61.2925V114.087ZM61.0765 112.062H55.0015L53.7325 111.549C54.9205 110.739 55.9195 109.821 56.6755 108.741H60.5905C61.0495 109.551 61.5895 110.307 62.2105 110.955L61.0765 112.062ZM67.4755 108.741C67.8535 108.741 68.1235 108.606 68.1775 108.309C67.2865 107.553 65.8555 106.554 65.8555 106.554L64.5865 107.985H59.5645V106.527H66.0985C66.4765 106.527 66.7465 106.392 66.8005 106.095C66.0445 105.42 64.9105 104.583 64.6135 104.367H66.8005C67.1785 104.367 67.3945 104.232 67.4755 103.935C66.5575 103.125 65.0455 102.018 65.0455 102.018L63.6955 103.611H61.0225C61.7785 103.179 62.5885 102.693 63.1285 102.261C63.6955 102.261 64.0195 102.045 64.1005 101.721L60.9145 100.965H67.4485C67.8265 100.965 68.1235 100.83 68.1775 100.533C67.0705 99.507 65.1805 98.022 65.1805 98.022L63.5605 100.209H58.0525C59.6725 99.669 59.9425 96.807 55.0555 97.185L54.8665 97.347C55.5145 97.941 56.2705 99.048 56.4865 99.993C56.6485 100.101 56.8105 100.155 56.9725 100.209H50.1415L46.9555 98.805V105.285C46.6585 104.205 45.7135 102.936 43.7155 101.856L43.4455 101.991C44.1205 103.422 44.7415 105.528 44.6335 107.283C45.5515 108.255 46.6045 107.823 46.9555 106.797V107.418C46.9555 108.066 46.9555 108.687 46.9285 109.335C45.0655 110.577 43.3645 111.684 42.6085 112.062L44.3095 115.302C44.6335 115.113 44.7955 114.708 44.7955 114.384C45.6055 113.169 46.2805 112.035 46.8475 111.09C46.5775 115.059 45.6865 118.947 43.0135 122.187L43.3375 122.43C46.8475 120.081 48.4405 116.895 49.1695 113.682C50.1955 113.358 51.1405 112.953 52.0315 112.494V118.65C52.0315 119.136 51.8695 119.379 50.8705 120L52.5985 122.484C52.7875 122.349 53.0035 122.133 53.1655 121.836C55.5145 120.675 57.5935 119.514 58.6735 118.92L58.5925 118.569C57.2425 118.812 55.8655 119.055 54.6505 119.217V116.895H61.2925V117.543H61.7515C62.6155 117.543 63.9385 117.03 63.9655 116.841V112.953C64.1275 112.899 64.2895 112.845 64.3975 112.764C65.0455 113.223 65.7475 113.574 66.5035 113.898C66.7735 112.602 67.4485 111.765 68.4475 111.522L68.4745 111.225C66.0985 110.874 63.3175 109.983 61.5355 108.741H67.4755ZM88.3735 114.411H90.7495V119.865H88.3735V114.411ZM90.7495 103.665V108.174H88.3735V103.665H90.7495ZM90.7495 113.628H88.3735V108.93H90.7495V113.628ZM80.9215 112.602H79.6255C79.7065 111.954 79.7335 111.306 79.7605 110.658H81.4885V111.198H81.9475H82.0015L80.9215 112.602ZM75.2245 106.932H77.0065V109.875H75.2245V106.932ZM81.4885 106.932V109.875H79.7605V106.932H81.4885ZM76.8445 101.127H79.7875V103.26H76.8445V101.127ZM93.8005 119.865H93.3145V114.411H96.2035C96.5545 114.411 96.8245 114.276 96.8785 113.979C96.1495 113.169 94.8265 111.981 94.8265 111.981L93.6655 113.628H93.3145V108.93H96.0145C96.3925 108.93 96.6355 108.795 96.7165 108.498C95.9605 107.688 94.6915 106.5 94.6915 106.5L93.5305 108.174H93.3145V103.665H96.3115C96.6895 103.665 96.9595 103.53 97.0405 103.233C96.1495 102.369 94.7185 101.181 94.7185 101.181L93.4225 102.882H88.6705L88.1845 102.693C88.7515 101.424 89.2375 100.074 89.6695 98.67C89.9665 98.67 90.1825 98.589 90.3445 98.481C90.6415 99.48 90.8845 100.641 90.8575 101.721C93.0715 104.016 96.2845 99.588 90.2365 97.239L89.9665 97.347C90.0475 97.536 90.1015 97.752 90.1825 97.968L86.7535 97.104C86.4565 100.317 85.7815 103.746 84.8905 106.446L82.6225 104.772L81.4345 106.149H79.7605V104.043H79.8145L79.7875 104.772H80.1925C81.1915 104.772 82.4065 104.205 82.4065 103.962V101.127H85.1875C85.5655 101.127 85.8085 100.992 85.8895 100.695C84.9985 99.804 83.4325 98.616 83.4325 98.616L82.4065 99.939V98.022C83.0005 97.941 83.1895 97.698 83.2705 97.374L79.7875 97.077V100.344H76.8445V98.022C77.4655 97.941 77.6545 97.725 77.7085 97.401L74.2525 97.077V100.344H71.5795L71.7955 101.127H74.2525V105.015H74.7115C75.6835 105.015 76.8445 104.556 76.8445 104.367V104.043H77.0065V106.149H75.4945L72.6865 105.042V111.603H73.1185C74.4145 111.603 75.2245 111.144 75.2245 110.982V110.658H77.0065C77.0065 111.306 76.9795 111.954 76.8985 112.602H72.4705L72.6865 113.358H76.8175C76.7365 114.087 76.6015 114.789 76.3855 115.491H71.6065L71.8225 116.274H76.1425C75.4135 118.38 74.0095 120.378 71.4715 122.133L71.7415 122.403C75.2245 120.999 77.1955 119.109 78.3295 117.057C79.5985 118.164 80.8945 119.892 81.2725 121.431C83.9725 123.105 85.7815 117.786 78.5455 116.598L78.7075 116.274H84.8095C85.1875 116.274 85.4575 116.139 85.5385 115.842C84.5665 114.924 82.9735 113.709 82.9735 113.709L81.5695 115.491H79.0045C79.2475 114.789 79.4365 114.087 79.5445 113.358H83.8915C84.2695 113.358 84.5125 113.223 84.5665 112.926C83.9455 112.332 83.0275 111.576 82.5415 111.171C83.5135 111.063 84.1075 110.739 84.1075 110.658V107.067C84.4045 107.013 84.5935 106.959 84.7555 106.878C84.6205 107.256 84.4855 107.634 84.3505 107.985L84.7285 108.174C85.0255 107.85 85.3225 107.499 85.6195 107.148V122.403H86.1055C87.5095 122.403 88.3735 121.782 88.3735 121.566V120.621H96.6625C97.0405 120.621 97.3105 120.486 97.3645 120.189C96.5275 119.325 95.0965 118.029 95.0965 118.029L93.8005 119.865ZM112.917 103.017L111.729 104.394H107.246C108.056 103.314 108.948 101.802 109.65 100.614H115.373C115.751 100.614 116.049 100.479 116.129 100.182C114.969 99.129 113.051 97.617 113.051 97.617L111.351 99.858H100.496L100.712 100.614H106.328C106.328 101.721 106.301 103.233 106.221 104.394H104.465L101.603 103.287V122.16H102.062C103.331 122.16 104.141 121.566 104.141 121.377V105.177H105.384V119.865H105.707C106.734 119.865 107.409 119.406 107.409 119.271V105.177H108.651V118.245H109.001C110.028 118.245 110.703 117.786 110.703 117.678V105.177H111.972V118.407C111.972 118.704 111.891 118.866 111.594 118.866C111.27 118.866 110.028 118.758 110.028 118.758V119.163C110.757 119.325 111.108 119.622 111.324 120.054C111.513 120.486 111.594 121.242 111.621 122.133C114.213 121.89 114.509 120.756 114.509 118.758V105.609C115.077 105.501 115.428 105.285 115.616 105.069L112.917 103.017ZM115.185 106.662C115.994 108.471 116.643 111.009 116.507 113.115C118.857 115.572 121.746 110.28 115.482 106.554L115.185 106.662ZM122.826 103.395V98.562C123.501 98.481 123.771 98.211 123.825 97.833L119.829 97.428V103.503H114.752L114.969 104.259H119.829V118.596C119.829 118.947 119.694 119.082 119.289 119.082C118.748 119.082 116.292 118.92 116.292 118.92V119.298C117.48 119.514 118.047 119.838 118.425 120.297C118.803 120.783 118.938 121.485 118.991 122.457C122.394 122.133 122.826 120.945 122.826 118.812V104.259H125.391C125.742 104.259 126.012 104.124 126.093 103.827C125.364 102.855 123.987 101.343 123.987 101.343L122.826 103.395Z" fill="white"/>
</svg>
