<svg width="170" height="160" viewBox="0 0 170 160" fill="none" xmlns="http://www.w3.org/2000/svg">
<path d="M70.7867 159.99C109.326 159.99 140.569 128.747 140.569 90.2073C140.569 51.6675 109.326 20.4248 70.7867 20.4248C32.2468 20.4248 1.00415 51.6675 1.00415 90.2073C1.00415 128.747 32.2468 159.99 70.7867 159.99Z" fill="white"/>
<path d="M102.936 66.5503C104.644 61.9648 106.342 57.3792 108.061 52.7936C108.211 52.384 108.181 52.0843 107.971 51.7047C97.6208 33.0927 107.421 9.80521 127.981 4.15068C146.204 -0.854478 165.026 10.8042 168.672 29.3863C168.912 30.5951 169.022 31.8339 169.192 33.0527C169.222 33.2425 169.271 33.4324 169.311 33.6222C169.311 35.0108 169.311 36.3995 169.311 37.7882C169.142 39.027 169.052 40.2857 168.792 41.5046C166.025 54.7218 158.182 63.4533 145.255 67.2896C136.723 69.8172 128.431 68.6083 120.599 64.3425C120.249 64.1527 119.959 64.1027 119.57 64.2526C114.844 66.0208 110.109 67.7791 105.383 69.5374C105.283 69.5774 105.203 69.6373 105.104 69.6873C104.804 69.6873 104.494 69.6873 104.194 69.6873C102.676 68.958 102.336 68.1488 102.936 66.5503Z" fill="white"/>
<path d="M124.655 43.9122C122.986 45.7704 120.778 46.6995 118.041 46.6995C115.304 46.6995 113.096 45.7704 111.427 43.9122C109.759 42.054 108.92 39.5164 108.92 36.2995C108.92 33.1026 109.749 30.605 111.408 28.8068C113.066 27.0085 115.274 26.1094 118.031 26.1094C120.788 26.1094 122.996 27.0085 124.655 28.8068C126.313 30.605 127.142 33.1026 127.142 36.2995C127.152 39.5164 126.323 42.054 124.655 43.9122ZM114.954 40.9151C115.703 42.044 116.732 42.6134 118.041 42.6134C119.35 42.6134 120.389 42.044 121.148 40.9051C121.907 39.7662 122.287 38.2277 122.287 36.2995C122.287 34.3914 121.907 32.8828 121.148 31.8039C120.389 30.7149 119.36 30.1754 118.041 30.1754C116.722 30.1754 115.693 30.7149 114.954 31.8039C114.205 32.8928 113.835 34.3914 113.835 36.2995C113.825 38.2476 114.205 39.7861 114.954 40.9151Z" fill="white"/>
<path d="M137.422 46.6996C134.745 46.6996 132.737 45.9104 131.388 44.3219C130.039 42.7435 129.37 40.2958 129.37 36.999V27.9977C129.37 27.5781 129.52 27.2185 129.83 26.9188C130.129 26.6191 130.499 26.4592 130.909 26.4592H132.577C133.017 26.4592 133.376 26.6091 133.676 26.9188C133.976 27.2185 134.116 27.5881 134.116 27.9977V37.4885C134.116 39.3268 134.385 40.6455 134.925 41.4247C135.464 42.204 136.293 42.5936 137.432 42.5936C138.571 42.5936 139.41 42.194 139.96 41.4048C140.519 40.6155 140.789 39.3068 140.789 37.4786V27.9877C140.789 27.5681 140.939 27.2085 141.249 26.9088C141.548 26.6091 141.918 26.4492 142.328 26.4492H143.836C144.266 26.4492 144.635 26.5991 144.935 26.9088C145.235 27.2085 145.375 27.5781 145.375 27.9877V36.989C145.375 40.3058 144.715 42.7534 143.407 44.3319C142.098 45.9104 140.1 46.6996 137.422 46.6996Z" fill="white"/>
<path d="M153.896 46.34C153.457 46.34 153.097 46.1902 152.798 45.8805C152.498 45.5808 152.358 45.2111 152.358 44.8015V30.6152C152.358 30.4953 152.288 30.4354 152.148 30.4354H148.522C148.082 30.4354 147.722 30.2855 147.423 29.9758C147.123 29.6761 146.983 29.3065 146.983 28.8969V28.0078C146.983 27.5882 147.133 27.2285 147.423 26.9288C147.722 26.6291 148.082 26.4692 148.522 26.4692H160.99C161.409 26.4692 161.769 26.6191 162.069 26.9288C162.368 27.2285 162.528 27.5981 162.528 28.0078V28.8969C162.528 29.3165 162.378 29.6761 162.069 29.9758C161.769 30.2756 161.399 30.4354 160.99 30.4354H157.313C157.193 30.4354 157.133 30.4953 157.133 30.6152V44.8015C157.133 45.2211 156.983 45.5808 156.674 45.8805C156.374 46.1802 156.004 46.34 155.595 46.34H153.896V46.34Z" fill="white"/>
<path d="M69.7825 157.565C108.322 157.565 139.565 126.322 139.565 87.7825C139.565 49.2427 108.322 18 69.7825 18C31.2427 18 0 49.2427 0 87.7825C0 126.322 31.2427 157.565 69.7825 157.565Z" fill="#466142"/>
<path d="M101.931 64.5523C103.64 59.9667 105.338 55.3811 107.057 50.7956C107.206 50.386 107.176 50.0863 106.967 49.7066C96.6166 31.0946 106.417 7.80717 126.977 2.15264C145.2 -2.85252 164.021 8.8062 167.668 27.3882C167.908 28.5971 168.018 29.8359 168.187 31.0547C168.217 31.2445 168.267 31.4343 168.307 31.6241C168.307 33.0128 168.307 34.4014 168.307 35.7901C168.137 37.0289 168.048 38.2877 167.788 39.5065C165.02 52.7237 157.178 61.4553 144.251 65.2916C135.719 67.8191 127.427 66.6103 119.594 62.3444C119.245 62.1546 118.955 62.1046 118.565 62.2545C113.84 64.0228 109.105 65.7811 104.379 67.5394C104.279 67.5794 104.199 67.6393 104.099 67.6892C103.8 67.6892 103.49 67.6892 103.19 67.6892C101.672 66.96 101.332 66.1507 101.931 64.5523Z" fill="#1A1A1A"/>
<path d="M123.651 41.9141C121.982 43.7723 119.774 44.7014 117.037 44.7014C114.3 44.7014 112.092 43.7723 110.423 41.9141C108.755 40.0559 107.916 37.5184 107.916 34.3015C107.916 31.1046 108.745 28.607 110.403 26.8087C112.062 25.0105 114.27 24.1113 117.027 24.1113C119.784 24.1113 121.992 25.0105 123.651 26.8087C125.309 28.607 126.138 31.1046 126.138 34.3015C126.148 37.5184 125.319 40.0559 123.651 41.9141ZM113.95 38.917C114.699 40.0459 115.728 40.6154 117.037 40.6154C118.346 40.6154 119.385 40.0459 120.144 38.907C120.903 37.7681 121.283 36.2296 121.283 34.3015C121.283 32.3933 120.903 30.8848 120.144 29.8058C119.385 28.7169 118.356 28.1774 117.037 28.1774C115.718 28.1774 114.689 28.7169 113.95 29.8058C113.201 30.8948 112.831 32.3933 112.831 34.3015C112.821 36.2496 113.201 37.7881 113.95 38.917Z" fill="white"/>
<path d="M136.418 44.7016C133.741 44.7016 131.733 43.9124 130.384 42.3239C129.035 40.7454 128.366 38.2978 128.366 35.001V25.9997C128.366 25.5801 128.516 25.2204 128.826 24.9207C129.125 24.621 129.495 24.4612 129.904 24.4612H131.573C132.012 24.4612 132.372 24.611 132.672 24.9207C132.972 25.2204 133.111 25.5901 133.111 25.9997V35.4905C133.111 37.3287 133.381 38.6474 133.921 39.4267C134.46 40.2059 135.289 40.5956 136.428 40.5956C137.567 40.5956 138.406 40.1959 138.956 39.4067C139.515 38.6175 139.785 37.3087 139.785 35.4805V25.9897C139.785 25.5701 139.935 25.2104 140.244 24.9107C140.544 24.611 140.914 24.4512 141.323 24.4512H142.832C143.262 24.4512 143.631 24.601 143.931 24.9107C144.231 25.2104 144.37 25.5801 144.37 25.9897V34.991C144.37 38.3078 143.711 40.7554 142.402 42.3339C141.094 43.9124 139.096 44.7016 136.418 44.7016Z" fill="white"/>
<path d="M152.892 44.342C152.453 44.342 152.093 44.1921 151.793 43.8824C151.494 43.5827 151.354 43.2131 151.354 42.8035V28.6172C151.354 28.4973 151.284 28.4374 151.144 28.4374H147.518C147.078 28.4374 146.718 28.2875 146.419 27.9778C146.119 27.6781 145.979 27.3084 145.979 26.8988V26.0097C145.979 25.5901 146.129 25.2305 146.419 24.9307C146.718 24.631 147.078 24.4712 147.518 24.4712H159.985C160.405 24.4712 160.765 24.621 161.064 24.9307C161.364 25.2305 161.524 25.6001 161.524 26.0097V26.8988C161.524 27.3184 161.374 27.6781 161.064 27.9778C160.765 28.2775 160.395 28.4374 159.985 28.4374H156.309C156.189 28.4374 156.129 28.4973 156.129 28.6172V42.8035C156.129 43.2231 155.979 43.5827 155.67 43.8824C155.37 44.1821 155 44.342 154.591 44.342H152.892V44.342Z" fill="white"/>
<path d="M55.9735 69.741H63.9655V72.765H55.9735V69.741ZM63.9655 65.934V68.958H55.9735V65.934H63.9655ZM63.8575 77.193H61.4545V73.521H63.9655V74.925H64.5055C65.5855 74.925 66.9895 74.196 67.0165 73.953V66.42C67.5565 66.312 67.9345 66.096 68.0965 65.88L65.1535 63.612L63.6955 65.151H61.4275V62.424H67.5835C67.9615 62.424 68.2585 62.289 68.3395 61.992C67.2325 60.993 65.4775 59.508 65.4775 59.508L63.8845 61.668H61.4275V59.319C62.1565 59.211 62.3725 58.941 62.4265 58.563L58.4035 58.212V65.151H56.1355L52.9495 63.909V64.044C52.0855 63.126 51.1135 62.181 51.1135 62.181L49.6825 64.422H49.6285V59.184C50.3035 59.103 50.5735 58.833 50.6275 58.428L46.6585 58.05V64.422H43.0135L43.2295 65.205H46.6585V70.389C44.8765 70.848 43.4185 71.199 42.6085 71.361L43.8775 75.033C44.1745 74.925 44.4715 74.628 44.5795 74.304C45.3085 73.872 46.0105 73.467 46.6585 73.089V79.515C46.6585 79.839 46.5235 79.947 46.1185 79.947C45.6055 79.947 43.2565 79.812 43.2565 79.812V80.19C44.4175 80.379 44.9575 80.703 45.3355 81.162C45.6865 81.648 45.8215 82.35 45.8755 83.322C49.1965 82.998 49.6285 81.837 49.6285 79.704V71.226C50.9785 70.362 52.0585 69.606 52.8955 69.012L52.8145 68.715C51.7345 69.012 50.6815 69.309 49.6285 69.606V65.205H52.8955H52.9495V75.519H53.4085C54.6775 75.519 55.9735 74.844 55.9735 74.547V73.521H58.4035V77.193H51.3295L51.5455 77.949H58.4035V83.43H58.9705C60.5095 83.43 61.4275 82.917 61.4545 82.755V77.949H67.8805C68.2855 77.949 68.5555 77.814 68.6365 77.544C67.4755 76.491 65.5855 74.952 65.5855 74.952L63.8575 77.193ZM92.1265 57.915C90.2365 59.886 87.7795 61.425 85.2415 62.424L85.4845 62.856C88.4815 62.397 91.6135 61.425 94.0975 59.994C94.6375 60.129 94.9075 60.048 95.0965 59.778L92.1265 57.915ZM86.4565 66.096C89.3995 65.718 92.4775 64.827 94.9345 63.477C95.5015 63.585 95.7445 63.531 95.9335 63.261L92.9635 61.371C91.1275 63.288 88.7245 64.746 86.2405 65.664L86.4565 66.096ZM74.3065 71.82C74.4955 71.712 74.6845 71.55 74.8195 71.307C77.8165 70.659 80.5165 69.957 82.3795 69.471C82.5685 69.795 82.7305 70.146 82.8115 70.47C85.2145 71.82 86.9425 67.365 80.9485 67.203L80.7055 67.392C81.1375 67.743 81.5965 68.256 82.0015 68.823C79.4635 68.904 77.0875 68.958 75.3595 68.985C76.6825 68.337 78.1405 67.554 79.1665 66.798H85.1335C85.5115 66.798 85.7815 66.663 85.8355 66.366C84.9445 65.637 83.5945 64.692 83.5945 64.692L82.3795 66.042H77.1955V64.557H83.9995C84.3775 64.557 84.6205 64.422 84.6745 64.125C83.9185 63.45 82.7035 62.613 82.7035 62.613L81.6505 63.801H77.1955V62.316H83.9455C84.2965 62.316 84.5395 62.181 84.6205 61.884C83.8375 61.209 82.6495 60.345 82.6495 60.345L81.5965 61.533H77.1955V60.129H84.2965C84.6745 60.129 84.9445 59.994 85.0255 59.697C84.1075 58.941 82.7305 57.915 82.7305 57.915L81.5155 59.346H77.3305L74.4415 58.239V66.042H71.7145L71.9305 66.798H75.6835C75.1435 67.527 74.3065 68.445 73.5505 68.742C73.3345 68.823 72.8755 68.904 72.8755 68.904L74.3065 71.82ZM91.7215 73.116H82.4335C82.6225 72.657 82.7845 72.225 82.9195 71.766C83.5405 71.793 83.8645 71.55 83.9725 71.199L79.8145 70.281C79.6795 71.199 79.4365 72.144 79.1395 73.116H72.5785L72.7945 73.872H78.8695C77.8165 76.68 75.8725 79.434 72.3895 81.459L72.5785 81.729C76.0615 80.541 78.4645 78.867 80.1385 76.95C80.8405 78.138 81.7045 79.11 82.7035 79.92C80.3005 81.405 77.4655 82.35 74.5765 82.917L74.6575 83.268C78.1675 83.295 81.7315 82.728 84.8635 81.27C87.1315 82.377 89.8585 82.971 93.1255 83.349C93.3685 81.891 94.0705 80.838 95.2585 80.46L95.2855 80.109C92.5585 80.136 89.9665 80.001 87.6715 79.623C88.8325 78.759 89.9125 77.706 90.8035 76.518C91.4515 76.626 91.7485 76.491 91.9375 76.221L88.3735 74.142C87.3205 76.005 85.9975 77.517 84.4045 78.759C82.8655 78.192 81.5695 77.409 80.5975 76.383C81.2185 75.573 81.7045 74.736 82.1095 73.872H95.6365C96.0145 73.872 96.3115 73.737 96.3655 73.44C95.2315 72.441 93.3685 71.064 93.3685 71.064L91.7215 73.116ZM86.7535 70.227C87.6175 70.767 88.7515 71.874 89.2105 72.819C91.8025 73.818 92.9635 69.093 86.9695 70.011L86.7535 70.227ZM93.6385 64.827C91.3165 66.798 88.5625 68.256 85.5385 69.201L85.7275 69.633C89.1835 69.309 92.6935 68.553 95.6905 67.149C96.2845 67.284 96.5545 67.257 96.7705 66.987L93.6385 64.827ZM52.1125 99.588V102.261H49.3855V99.588H52.1125ZM49.3855 103.044H52.1125V103.719H52.5985C54.0565 103.719 54.9745 103.26 54.9745 103.152V99.75C55.5415 99.642 55.7845 99.507 55.9465 99.264L53.3275 97.32L52.0315 98.805H49.6555L46.6045 97.617V104.097H47.0905C48.5215 104.097 49.3855 103.638 49.3855 103.449V103.044ZM63.2905 110.064C63.1285 111.819 62.8315 113.466 62.2915 115.005C61.5085 113.952 60.8875 112.764 60.4285 111.441C60.6715 111.009 60.9145 110.55 61.1305 110.064H63.2905ZM54.2995 112.71H51.6805V110.82H54.2995V112.71ZM51.6805 118.164V116.22H54.2995V117.921L51.6805 118.164ZM54.2995 115.437H51.6805V113.493H54.2995V115.437ZM47.8735 110.064V109.632V105.582H55.3795L54.1375 107.229H48.5485L48.7645 108.012H51.6265V110.064H47.8735ZM59.4835 102.261V99.588H62.2375V102.261H59.4835ZM67.5295 110.064C67.9345 110.064 68.2045 109.929 68.2855 109.659C67.2595 108.687 65.5585 107.283 65.5585 107.283L64.0465 109.308H61.4545C61.7515 108.579 62.0215 107.823 62.2375 107.013C62.8315 106.986 63.1285 106.743 63.2365 106.392L59.3485 105.609C59.2675 107.148 59.0785 108.66 58.7545 110.091C57.8365 109.254 56.5675 108.201 56.5675 108.201L55.1635 110.064H54.4075V108.012H57.3775C57.7555 108.012 58.0255 107.877 58.1065 107.58C57.3505 106.851 56.1895 105.96 55.7305 105.582H67.6375C68.0155 105.582 68.3125 105.447 68.3935 105.15C67.2055 104.151 65.3425 102.801 65.3425 102.801L65.2075 102.963V99.75C65.7205 99.642 65.9635 99.507 66.1255 99.264L63.5065 97.32L62.1565 98.832H59.7805L56.7025 97.644V104.097H57.2155C58.6465 104.097 59.4835 103.638 59.4835 103.449V103.044H62.2375V103.719H62.7505C63.7225 103.719 64.4515 103.557 64.8565 103.395L63.6415 104.799H48.3595L44.8765 103.53V109.659C44.8765 113.601 44.7955 118.353 42.9055 122.106L43.1755 122.349C47.1445 119.217 47.7655 114.465 47.8735 110.82H49.1155V118.353C48.1705 118.434 47.3605 118.488 46.8205 118.515L48.2515 121.323C48.5215 121.242 48.7645 121.053 48.9265 120.702C51.1675 119.946 52.9225 119.325 54.2995 118.812V122.376H54.7585C56.0815 122.376 56.8645 121.809 56.8915 121.674V110.82H58.4035C58.4845 110.82 58.5385 110.82 58.5925 110.793C58.2685 112.143 57.8635 113.385 57.3775 114.438L57.7285 114.681C58.5925 113.979 59.3485 113.142 59.9965 112.116C60.3745 113.871 60.8335 115.491 61.4815 116.922C60.4825 118.866 59.0785 120.594 57.0535 122.079L57.2695 122.403C59.4565 121.431 61.1575 120.216 62.4805 118.785C63.4255 120.243 64.6405 121.458 66.2335 122.376C66.5035 120.891 67.1515 120.027 68.4475 119.568L68.5015 119.298C66.6925 118.677 65.2075 117.867 63.9925 116.814C65.1805 114.87 65.9095 112.602 66.2875 110.064H67.5295ZM85.8895 113.898H90.3175V114.978H90.8575C91.2625 114.978 91.6945 114.897 92.1265 114.789L90.5065 116.706H85.8895V113.898ZM78.3295 113.142V110.253H82.6495V113.142H78.3295ZM82.6495 106.743V109.524H78.3295V106.743H82.6495ZM90.3175 106.743V109.524H85.8895V106.743H90.3175ZM90.3175 113.142H85.8895V110.253H90.3175V113.142ZM91.6675 120.594H85.8895V117.489H94.5295C94.9345 117.489 95.2315 117.354 95.3125 117.057C94.2865 116.193 92.6665 115.005 92.2885 114.735C92.9635 114.519 93.5305 114.249 93.5575 114.141V107.283C94.1245 107.175 94.4755 106.932 94.6105 106.716L91.5325 104.367L90.0475 105.987H85.8895V103.503H95.7985C96.1765 103.503 96.4735 103.368 96.5545 103.098C95.3125 102.072 93.3685 100.641 93.3685 100.641L91.6135 102.774H85.8895V100.371C88.2385 100.182 90.4255 99.939 92.2345 99.669C93.0445 100.02 93.6385 100.02 93.9625 99.777L91.2085 96.996C87.2935 98.265 79.7605 99.723 73.8205 100.344L73.8745 100.803C76.6825 100.83 79.7335 100.749 82.6495 100.587V102.774H72.2275L72.4435 103.503H82.6495V105.987H78.5185L75.1435 104.637V115.491H75.6295C76.9255 115.491 78.3295 114.789 78.3295 114.492V113.898H82.6495V116.706H73.8745L74.1175 117.489H82.6495V120.594H71.7415L71.9575 121.377H96.2575C96.6625 121.377 96.9595 121.242 97.0405 120.945C95.7445 119.811 93.5845 118.164 93.5845 118.164L91.6675 120.594Z" fill="white"/>
</svg>
